<!-- Generator: Adobe Illustrator 19.2.1, SVG Export Plug-In  -->
<svg version="1.1" id="keyhole"
	 xmlns="http://www.w3.org/2000/svg" xmlns:xlink="http://www.w3.org/1999/xlink" xmlns:a="http://ns.adobe.com/AdobeSVGViewerExtensions/3.0/"
	 x="0px" y="0px" width="213.3px" height="48.6px" viewBox="0 0 213.3 48.6" style="enable-background:new 0 0 213.3 48.6;"
	 xml:space="preserve">

<defs>
</defs>
<g>
	<path data-start="0" data-duration="20" stroke="#FFFFFF" stroke-width="0.75" class="st0" d="M3.2,39.3c4.3-0.2,6.5-2.5,6.5-7.1V0h9.7l0,35.4c0,3.8-1.2,6.9-3.5,9.3c-2.4,2.4-5.5,3.5-9.3,3.5H0v-9H3.2z"/>
	<path data-start="10" data-duration="20" stroke="#FFFFFF" stroke-width="0.75" class="st0" d="M31.8,43.9c-3.1-3.1-4.7-7-4.7-11.7c0-4.7,1.6-8.6,4.7-11.7s7-4.7,11.7-4.7s8.6,1.6,11.7,4.7
		c3.1,3.1,4.7,7,4.7,11.7s-1.6,8.6-4.7,11.7c-3.1,3.1-7,4.7-11.7,4.7S34.9,47,31.8,43.9z M43.5,40.8c2.4,0,4.4-0.8,6-2.5
		c1.5-1.6,2.3-3.7,2.3-6.1s-0.8-4.5-2.3-6.1c-1.5-1.7-3.5-2.5-6-2.5c-2.4,0-4.4,0.8-5.9,2.5c-1.5,1.7-2.3,3.7-2.3,6.1
		s0.8,4.5,2.3,6.1C39.1,40,41,40.8,43.5,40.8z"/>
	<path data-start="20" data-duration="20" stroke="#FFFFFF" stroke-width="0.75" class="st0" d="M84.2,17c1.7,0.7,3.2,1.8,4.7,3.3l-5,5.7c-1.5-1.7-3.3-2.6-5.5-2.6c-2.2,0-3.6,0.4-4.3,1.2
		c-0.7,0.8-0.7,1.5,0,2.2c0.7,0.7,2.2,1.2,4.3,1.6c3.2,0.3,5.8,1.2,7.9,2.7c2,1.5,3.1,4.2,3.1,8c0,3-1.2,5.4-3.6,7.1
		c-2.4,1.7-5.2,2.5-8.4,2.5c-3,0-5.6-0.4-7.6-1.3c-2-0.9-3.8-2-5.2-3.5l5-5.6c1.5,1.7,3.7,2.7,6.8,3c2.5,0,4.1-0.4,4.8-1.2
		c0.7-0.8,0.8-1.6,0.3-2.4c-0.5-0.8-2.2-1.3-5.1-1.6c-2.6-0.3-5-1.1-7.2-2.4c-2.2-1.3-3.3-3.8-3.3-7.4c0-3.3,1.2-5.9,3.7-7.6
		c2.5-1.7,5-2.6,7.6-2.6C80.2,15.9,82.6,16.3,84.2,17z"/>
	<path data-start="30" data-duration="20" stroke="#FFFFFF" stroke-width="0.75" class="st0" d="M94.2,32.2c0-4.7,1.5-8.6,4.5-11.6c3-3,6.9-4.5,11.6-4.5s8.5,1.5,11.3,4.5c2.8,3,4.2,6.9,4.2,11.6v3.2h-22.2
		c0.2,1.7,1,3.1,2.3,4c1.3,1,2.8,1.4,4.5,1.4c3,0,5.7-0.9,8-2.6l5.2,5.2c-2.4,3.2-6.8,4.8-13.2,4.8c-4.7,0-8.6-1.5-11.6-4.5
		C95.7,40.8,94.2,36.9,94.2,32.2z M114.8,24.9c-1.3-1-2.8-1.4-4.5-1.4s-3.2,0.5-4.5,1.4c-1.3,1-1.9,2.3-1.9,4h12.9
		C116.7,27.3,116.1,25.9,114.8,24.9z"/>
	<path data-start="40" data-duration="20" stroke="#FFFFFF" stroke-width="0.75" class="st0" d="M147.4,48.3c-3.6,0-6.5-1-8.7-3.1c-2.1-2-3.2-4.7-3.2-7.9V23.4h-4.8v-7.3h4.8V7.4l9-1v9.7h4.8v7.3h-4.8v12.7
		c0,1.7,0.4,2.9,1.1,3.6c0.7,0.7,1.6,1,2.8,1c0.3,0,1.1-0.1,2.4-0.4l1.9,6.5C151.2,47.8,149.4,48.3,147.4,48.3z"/>
	<path data-start="50" data-duration="20" stroke="#FFFFFF" stroke-width="0.75" class="st0" d="M172.7,48.3c-3.6,0-6.5-1-8.7-3.1c-2.1-2-3.2-4.7-3.2-7.9V23.4H156v-7.3h4.8V7.4l9-1v9.7h4.8v7.3h-4.8v12.7
		c0,1.7,0.4,2.9,1.1,3.6c0.7,0.7,1.6,1,2.8,1c0.3,0,1.1-0.1,2.4-0.4l1.9,6.5C176.5,47.8,174.7,48.3,172.7,48.3z"/>
	<path data-start="60" data-duration="20" stroke="#FFFFFF" stroke-width="0.75" class="st0" d="M181.8,32.2c0-4.7,1.5-8.6,4.5-11.6c3-3,6.9-4.5,11.6-4.5c4.7,0,8.5,1.5,11.3,4.5c2.8,3,4.2,6.9,4.2,11.6v3.2
		h-22.2c0.2,1.7,1,3.1,2.3,4c1.3,1,2.8,1.4,4.5,1.4c3,0,5.7-0.9,8-2.6l5.2,5.2c-2.4,3.2-6.8,4.8-13.2,4.8c-4.7,0-8.6-1.5-11.6-4.5
		C183.3,40.8,181.8,36.9,181.8,32.2z M202.4,24.9c-1.3-1-2.8-1.4-4.5-1.4c-1.7,0-3.2,0.5-4.5,1.4c-1.3,1-1.9,2.3-1.9,4h12.9
		C204.3,27.3,203.7,25.9,202.4,24.9z"/>
</g>
</svg>



