<svg xmlns="http://www.w3.org/2000/svg" width="244.5" height="55.7"><style type="text/css">.st0{fill:#FFFFFF;}</style><path d="M3.7 45c4.9-.2 7.4-2.9 7.4-8.1V0h11.1v40.6c0 4.4-1.4 8-4.1 10.7s-6.2 4.1-10.6 4.1H0V45h3.7zM36.4 50.3c-3.6-3.6-5.4-8.1-5.4-13.4 0-5.4 1.8-9.8 5.4-13.4 3.6-3.6 8.1-5.4 13.4-5.4s9.8 1.8 13.4 5.4c3.6 3.6 5.4 8.1 5.4 13.4s-1.8 9.8-5.4 13.4c-3.6 3.6-8.1 5.4-13.4 5.4s-9.8-1.8-13.4-5.4zm13.4-3.5c2.8 0 5.1-.9 6.8-2.8 1.7-1.9 2.6-4.2 2.6-7s-.9-5.2-2.6-7c-1.7-1.9-4-2.8-6.9-2.8-2.8 0-5 .9-6.8 2.8-1.7 1.9-2.6 4.2-2.6 7s.9 5.1 2.6 7c1.9 1.8 4.1 2.8 6.9 2.8zM96.5 19.5c1.9.8 3.7 2.1 5.4 3.7l-5.8 6.5c-1.7-2-3.8-3-6.3-3s-4.1.5-5 1.4c-.8.9-.8 1.8 0 2.5s2.5 1.4 5 1.9c3.7.3 6.7 1.4 9 3.1 2.3 1.7 3.5 4.8 3.5 9.1 0 3.5-1.4 6.2-4.1 8.1-2.8 1.9-6 2.9-9.6 2.9-3.5 0-6.4-.5-8.7-1.5-2.3-1-4.3-2.3-6-4l5.7-6.5c1.7 2 4.3 3.1 7.8 3.5 2.8 0 4.7-.5 5.5-1.4.8-.9.9-1.8.4-2.8-.6-.9-2.5-1.5-5.8-1.9-3-.3-5.7-1.3-8.2-2.8-2.5-1.5-3.7-4.3-3.7-8.5 0-3.8 1.4-6.7 4.3-8.7 2.8-2 5.8-3 8.8-3 3.2.1 5.9.5 7.8 1.4zM108 36.9c0-5.4 1.7-9.8 5.2-13.3 3.4-3.4 7.9-5.2 13.3-5.2s9.7 1.7 12.9 5.2c3.2 3.4 4.8 7.9 4.8 13.3v3.7h-25.4c.2 2 1.1 3.5 2.6 4.6 1.5 1.1 3.2 1.7 5.2 1.7 3.4 0 6.5-1 9.2-3l5.9 5.9c-2.7 3.7-7.7 5.5-15.1 5.5-5.4 0-9.8-1.7-13.3-5.2-3.6-3.4-5.3-7.8-5.3-13.2zm23.6-8.3c-1.5-1.1-3.2-1.7-5.2-1.7s-3.7.6-5.2 1.7-2.2 2.6-2.2 4.6h14.8c0-2-.8-3.5-2.2-4.6zM168.9 55.3c-4.2 0-7.5-1.2-10-3.5s-3.7-5.3-3.7-9v-16h-5.5v-8.3h5.5v-10l10.4-1.1v11.1h5.5v8.3h-5.5v14.5c0 2 .4 3.4 1.2 4.2.8.8 1.9 1.2 3.2 1.2.4 0 1.3-.2 2.8-.5l2.2 7.4c-1.8 1.1-3.8 1.7-6.1 1.7zM197.9 55.3c-4.2 0-7.5-1.2-10-3.5s-3.7-5.3-3.7-9v-16h-5.5v-8.3h5.5v-10l10.4-1.1v11.1h5.5v8.3h-5.5v14.5c0 2 .4 3.4 1.2 4.2.8.8 1.9 1.2 3.2 1.2.4 0 1.3-.2 2.8-.5l2.2 7.4c-1.8 1.1-3.8 1.7-6.1 1.7zM208.3 36.9c0-5.4 1.7-9.8 5.2-13.3 3.4-3.4 7.9-5.2 13.3-5.2s9.7 1.7 12.9 5.2c3.2 3.4 4.8 7.9 4.8 13.3v3.7H219c.2 2 1.1 3.5 2.6 4.6 1.5 1.1 3.2 1.7 5.2 1.7 3.4 0 6.5-1 9.2-3l5.9 5.9c-2.7 3.7-7.7 5.5-15.1 5.5-5.4 0-9.8-1.7-13.3-5.2-3.5-3.4-5.2-7.8-5.2-13.2zm23.6-8.3c-1.5-1.1-3.2-1.7-5.2-1.7s-3.7.6-5.2 1.7-2.2 2.6-2.2 4.6h14.8c0-2-.7-3.5-2.2-4.6z" class="st0"/></svg>