<?xml version="1.0" encoding="utf-8"?>
<!-- Generator: Adobe Illustrator 19.2.1, SVG Export Plug-In . SVG Version: 6.00 Build 0)  -->
<svg version="1.1" id="Calque_1" xmlns="http://www.w3.org/2000/svg" xmlns:xlink="http://www.w3.org/1999/xlink" x="0px" y="0px"
	 viewBox="0 0 500 500" style="enable-background:new 0 0 500 500;" xml:space="preserve">
<style type="text/css">
	.st0{display:none;fill:#1D1D1B;stroke:#FFFFFF;stroke-miterlimit:10;}
	.st1{clip-path:url(#SVGID_2_);}
	.st2{clip-path:url(#SVGID_4_);fill:#FFFFFF;}
	.st3{clip-path:url(#SVGID_6_);}
	.st4{clip-path:url(#SVGID_8_);fill:#FFFFFF;}
	.st5{clip-path:url(#SVGID_10_);}
	.st6{clip-path:url(#SVGID_12_);fill:#FFFFFF;}
	.st7{clip-path:url(#SVGID_14_);}
	.st8{clip-path:url(#SVGID_16_);fill:#FFFFFF;}
	.st9{clip-path:url(#SVGID_16_);}
	.st10{opacity:0.3;clip-path:url(#SVGID_18_);}
	.st11{clip-path:url(#SVGID_20_);fill:#FFFFFF;}
	.st12{opacity:0.3;clip-path:url(#SVGID_22_);}
	.st13{clip-path:url(#SVGID_24_);fill:#FFFFFF;}
	.st14{clip-path:url(#SVGID_26_);fill:#FFFFFF;}
	.st15{clip-path:url(#SVGID_22_);fill:#FFFFFF;}
	.st16{clip-path:url(#SVGID_28_);fill:#FFFFFF;}
	.st17{clip-path:url(#SVGID_30_);}
	.st18{clip-path:url(#SVGID_32_);fill:#FFFFFF;}
	.st19{clip-path:url(#SVGID_34_);}
	.st20{clip-path:url(#SVGID_36_);fill:#FFFFFF;}
	.st21{clip-path:url(#SVGID_38_);}
	.st22{clip-path:url(#SVGID_40_);fill:#FFFFFF;}
	.st23{clip-path:url(#SVGID_42_);}
	.st24{clip-path:url(#SVGID_44_);fill-rule:evenodd;clip-rule:evenodd;fill:#FFFFFF;}
	.st25{clip-path:url(#SVGID_44_);fill:#FFFFFF;}
	.st26{clip-path:url(#SVGID_46_);}
	.st27{clip-path:url(#SVGID_48_);fill:#FFFFFF;}
	.st28{clip-path:url(#SVGID_50_);}
	.st29{clip-path:url(#SVGID_52_);fill:#FFFFFF;}
	.st30{clip-path:url(#SVGID_54_);}
	.st31{clip-path:url(#SVGID_56_);fill-rule:evenodd;clip-rule:evenodd;fill:#FFFFFF;}
	.st32{clip-path:url(#SVGID_56_);fill:#FFFFFF;}
	.st33{clip-path:url(#SVGID_58_);}
	.st34{clip-path:url(#SVGID_60_);fill:#FFFFFF;}
	.st35{clip-path:url(#SVGID_62_);}
	.st36{clip-path:url(#SVGID_64_);}
	.st37{opacity:0.3;clip-path:url(#SVGID_66_);}
	.st38{clip-path:url(#SVGID_68_);fill:#FFFFFF;}
	.st39{clip-path:url(#SVGID_68_);}
	.st40{clip-path:url(#SVGID_70_);fill:#FFFFFF;}
	.st41{opacity:0.7;clip-path:url(#SVGID_66_);}
	.st42{clip-path:url(#SVGID_72_);fill:#FFFFFF;}
	.st43{clip-path:url(#SVGID_72_);}
	.st44{clip-path:url(#SVGID_74_);fill:#FFFFFF;}
	.st45{clip-path:url(#SVGID_66_);fill:#FFFFFF;}
	.st46{opacity:0.5;clip-path:url(#SVGID_66_);}
	.st47{clip-path:url(#SVGID_76_);fill:#FFFFFF;}
	.st48{clip-path:url(#SVGID_76_);}
	.st49{clip-path:url(#SVGID_78_);fill:#FFFFFF;}
	.st50{clip-path:url(#SVGID_80_);fill:#FFFFFF;}
	.st51{clip-path:url(#SVGID_82_);}
	.st52{clip-path:url(#SVGID_84_);fill:#FFFFFF;}
	.st53{clip-path:url(#SVGID_86_);}
	.st54{clip-path:url(#SVGID_88_);fill:#FFFFFF;}
	.st55{clip-path:url(#SVGID_88_);fill-rule:evenodd;clip-rule:evenodd;fill:#FFFFFF;}
	.st56{clip-path:url(#SVGID_90_);}
	.st57{clip-path:url(#SVGID_92_);fill:#FFFFFF;}
	.st58{clip-path:url(#SVGID_94_);}
	.st59{clip-path:url(#SVGID_96_);fill:#FFFFFF;}
	.st60{clip-path:url(#SVGID_98_);}
	.st61{clip-path:url(#SVGID_100_);fill:#FFFFFF;}
	.st62{clip-path:url(#SVGID_100_);fill:#FDFDFD;}
	.st63{clip-path:url(#SVGID_102_);}
	.st64{clip-path:url(#SVGID_104_);fill:#FFFFFF;}
	.st65{clip-path:url(#SVGID_106_);fill:#FFFFFF;}
	.st66{clip-path:url(#SVGID_106_);}
	.st67{clip-path:url(#SVGID_108_);fill:#FFFFFF;}
	.st68{clip-path:url(#SVGID_110_);}
	.st69{clip-path:url(#SVGID_112_);fill:#FFFFFF;}
	.st70{clip-path:url(#SVGID_114_);}
	.st71{clip-path:url(#SVGID_116_);fill-rule:evenodd;clip-rule:evenodd;fill:#FFFFFF;}
	.st72{clip-path:url(#SVGID_118_);}
	.st73{clip-path:url(#SVGID_120_);}
	.st74{clip-path:url(#SVGID_122_);}
	.st75{clip-path:url(#SVGID_126_);fill:#F9F9F9;}
</style>
<rect x="-2186.3" y="-1748.3" class="st0" width="4271.1" height="3545.3"/>
<g>
	<g>
		<defs>
			<rect id="SVGID_33_" x="71.3" y="187.5" width="357.5" height="124.9"/>
		</defs>
		<clipPath id="SVGID_2_">
			<use xlink:href="#SVGID_33_"  style="overflow:visible;"/>
		</clipPath>
		<g class="st1">
			<defs>
				<rect id="SVGID_35_" x="71.3" y="187.5" width="357.5" height="124.9"/>
			</defs>
			<clipPath id="SVGID_4_">
				<use xlink:href="#SVGID_35_"  style="overflow:visible;"/>
			</clipPath>
			<path class="st2" d="M154.9,293c-14.1,8.3-40.1,8.3-57.1-10.8C81,263.4,81.4,235.7,98.5,217c16.6-18,44.8-20.4,64.6-5.2
				c20.2,15.4,23.2,41.9,13.7,59.5c-4.2-4.2-8.3-8.4-12.5-12.5c-1-1-0.5-2-0.3-3.1c3-17.3-7.9-32.9-25.2-36.1
				c-16.6-3.1-33.4,9.2-35.6,26c-2.3,17.7,10.6,33.9,27.9,35.1c2.5,0.2,5,0.4,7.4-0.3c2.5-0.7,4,0.1,5.7,1.9
				C147.6,285.9,151.3,289.4,154.9,293"/>
			<path class="st2" d="M390,271.3c-7.2,0-14.3,0.1-21.5,0c-2.4,0-2.3,0.7-1.5,2.5c4.7,10.2,15.6,12.9,24.8,6
				c1.9-1.4,3.3-1.5,5.3-0.5c3,1.4,6,2.8,9.1,3.9c2,0.8,2.2,1.4,0.8,3.1c-13.8,17-40.6,16-53.1-2c-7.9-11.3-8-26.1-0.5-37.6
				c7.5-11.3,21.2-17,34.3-14.2c13.6,2.8,23.8,13.3,26.3,26.9c0.6,3.3,0.6,6.5,0.3,9.9c-0.2,1.8-0.9,2.2-2.6,2.2
				C404.5,271.2,397.2,271.3,390,271.3 M366.5,258.6c9.5,0,18.9,0,28.3,0c1.5,0,1.3-0.7,0.9-1.7c-2.2-6.1-8.8-10.7-15.1-10.4
				C374.2,246.8,368.1,251.9,366.5,258.6"/>
			<path class="st2" d="M315.7,273.6c1-0.7,1.1-1.8,1.4-2.7c4.2-12.1,9.1-23.8,13.8-35.7c0.6-1.5,1.3-2.1,2.9-2.1
				c5.1,0.1,10.1,0.1,15.2,0c1.5,0,2.2,0.1,1.4,1.9c-8.1,20-16.1,40-24.1,60c-0.5,1.3-1.2,1.9-2.6,1.8c-5.2-0.1-10.5-0.1-15.7,0
				c-1.3,0-1.9-0.5-2.4-1.7c-8.1-20.3-16.2-40.6-24.4-60.8c-0.1-0.3-0.2-0.7-0.3-1.3c6.1,0,12.1,0,18,0c1.6,0,1.7,1.2,2.1,2.1
				c4.6,11.7,9.6,23.3,13.5,35.2C314.9,271.6,315.3,272.6,315.7,273.6"/>
			<path class="st2" d="M243.3,249.2c0,15.1,0,30.1,0,45.2c0,2.1-0.5,2.7-2.6,2.6c-4.3-0.1-8.6-0.2-13,0c-2.4,0.1-3.1-0.6-3.1-3
				c0.1-23.6,0.1-47.2,0.1-70.8c0-6.2,0.1-12.3-0.1-18.5c-0.1-2.5,0.8-3.1,3.1-3c4.3,0.2,8.6,0.2,12.9,0c2-0.1,2.6,0.5,2.6,2.6
				C243.3,219.3,243.3,234.2,243.3,249.2"/>
			<path class="st2" d="M192.6,296.7c-7.8,0.6-15.6,0.1-23.4,0.3c-1.1,0-1.6-0.7-2.3-1.4c-13-13-26-26-39-39
				c-3.8-3.9-3.9-9.3-0.4-12.8c3.5-3.5,9-3.3,12.8,0.5c16.7,16.6,33.3,33.3,49.9,49.9c0.7,0.7,1.2,1.7,2.3,1.9
				C192.6,296.3,192.6,296.5,192.6,296.7"/>
			<path class="st2" d="M275.8,265.1c0,9.7-0.1,19.5,0,29.2c0,2-0.4,2.8-2.6,2.7c-4.7-0.2-9.4-0.1-14.1,0c-1.7,0-2.5-0.3-2.5-2.2
				c0.1-19.8,0.1-39.7,0-59.5c0-1.9,0.8-2.1,2.3-2c4.8,0.1,9.6,0.1,14.3,0c1.9-0.1,2.5,0.5,2.5,2.5
				C275.7,245.5,275.8,255.3,275.8,265.1"/>
			<path class="st2" d="M192.6,296.7c0-0.2,0-0.4,0-0.6c0-20,0-40.1-0.1-60.1c0-2.4,0.7-2.9,2.9-2.8c4.7,0.2,9.4,0.1,14.1,0
				c1.6,0,2,0.5,2,2c0,19.8,0,39.7,0,59.5c0,1.1,0.2,2.3-1.6,2.2C204.1,296.8,198.3,297.3,192.6,296.7"/>
			<path class="st2" d="M212.4,212.2c0,5.7-4.6,10.3-10.3,10.3c-5.7,0-10.3-4.6-10.3-10.3c0-5.9,4.6-10.5,10.5-10.4
				C207.9,201.8,212.4,206.4,212.4,212.2"/>
			<path class="st2" d="M276.6,212.2c-0.1,5.8-4.7,10.3-10.4,10.3c-5.7,0-10.3-4.7-10.3-10.4c0-5.8,4.6-10.4,10.5-10.4
				C272.2,201.8,276.6,206.4,276.6,212.2"/>
		</g>
	</g>
</g>
</svg>
