<?xml version="1.0" encoding="utf-8"?>
<!-- Generator: Adobe Illustrator 19.2.1, SVG Export Plug-In . SVG Version: 6.00 Build 0)  -->
<svg version="1.1" id="Calque_1" xmlns="http://www.w3.org/2000/svg" xmlns:xlink="http://www.w3.org/1999/xlink" x="0px" y="0px"
	 viewBox="0 0 500 500" style="enable-background:new 0 0 500 500;" xml:space="preserve">
<style type="text/css">
	.st0{display:none;fill:#1D1D1B;stroke:#FFFFFF;stroke-miterlimit:10;}
	.st1{clip-path:url(#SVGID_2_);}
	.st2{clip-path:url(#SVGID_4_);fill:#FFFFFF;}
	.st3{clip-path:url(#SVGID_6_);}
	.st4{clip-path:url(#SVGID_8_);fill:#FFFFFF;}
	.st5{clip-path:url(#SVGID_10_);}
	.st6{clip-path:url(#SVGID_12_);fill:#FFFFFF;}
	.st7{clip-path:url(#SVGID_14_);}
	.st8{clip-path:url(#SVGID_16_);fill:#FFFFFF;}
	.st9{clip-path:url(#SVGID_16_);}
	.st10{opacity:0.3;clip-path:url(#SVGID_18_);}
	.st11{clip-path:url(#SVGID_20_);fill:#FFFFFF;}
	.st12{opacity:0.3;clip-path:url(#SVGID_22_);}
	.st13{clip-path:url(#SVGID_24_);fill:#FFFFFF;}
	.st14{clip-path:url(#SVGID_26_);fill:#FFFFFF;}
	.st15{clip-path:url(#SVGID_22_);fill:#FFFFFF;}
	.st16{clip-path:url(#SVGID_28_);fill:#FFFFFF;}
	.st17{clip-path:url(#SVGID_30_);}
	.st18{clip-path:url(#SVGID_32_);fill:#FFFFFF;}
	.st19{clip-path:url(#SVGID_34_);}
	.st20{clip-path:url(#SVGID_36_);fill:#FFFFFF;}
	.st21{clip-path:url(#SVGID_38_);}
	.st22{clip-path:url(#SVGID_40_);fill:#FFFFFF;}
	.st23{clip-path:url(#SVGID_42_);}
	.st24{clip-path:url(#SVGID_44_);fill-rule:evenodd;clip-rule:evenodd;fill:#FFFFFF;}
	.st25{clip-path:url(#SVGID_44_);fill:#FFFFFF;}
	.st26{clip-path:url(#SVGID_46_);}
	.st27{clip-path:url(#SVGID_48_);fill:#FFFFFF;}
	.st28{clip-path:url(#SVGID_50_);}
	.st29{clip-path:url(#SVGID_52_);fill:#FFFFFF;}
	.st30{clip-path:url(#SVGID_54_);}
	.st31{clip-path:url(#SVGID_56_);fill-rule:evenodd;clip-rule:evenodd;fill:#FFFFFF;}
	.st32{clip-path:url(#SVGID_56_);fill:#FFFFFF;}
	.st33{clip-path:url(#SVGID_58_);}
	.st34{clip-path:url(#SVGID_60_);fill:#FFFFFF;}
	.st35{clip-path:url(#SVGID_62_);}
	.st36{clip-path:url(#SVGID_64_);}
	.st37{opacity:0.3;clip-path:url(#SVGID_66_);}
	.st38{clip-path:url(#SVGID_68_);fill:#FFFFFF;}
	.st39{clip-path:url(#SVGID_68_);}
	.st40{clip-path:url(#SVGID_70_);fill:#FFFFFF;}
	.st41{opacity:0.7;clip-path:url(#SVGID_66_);}
	.st42{clip-path:url(#SVGID_72_);fill:#FFFFFF;}
	.st43{clip-path:url(#SVGID_72_);}
	.st44{clip-path:url(#SVGID_74_);fill:#FFFFFF;}
	.st45{clip-path:url(#SVGID_66_);fill:#FFFFFF;}
	.st46{opacity:0.5;clip-path:url(#SVGID_66_);}
	.st47{clip-path:url(#SVGID_76_);fill:#FFFFFF;}
	.st48{clip-path:url(#SVGID_76_);}
	.st49{clip-path:url(#SVGID_78_);fill:#FFFFFF;}
	.st50{clip-path:url(#SVGID_80_);fill:#FFFFFF;}
	.st51{clip-path:url(#SVGID_82_);}
	.st52{clip-path:url(#SVGID_84_);fill:#FFFFFF;}
	.st53{clip-path:url(#SVGID_86_);}
	.st54{clip-path:url(#SVGID_88_);fill:#FFFFFF;}
	.st55{clip-path:url(#SVGID_88_);fill-rule:evenodd;clip-rule:evenodd;fill:#FFFFFF;}
	.st56{clip-path:url(#SVGID_90_);}
	.st57{clip-path:url(#SVGID_92_);fill:#FFFFFF;}
	.st58{clip-path:url(#SVGID_94_);}
	.st59{clip-path:url(#SVGID_96_);fill:#FFFFFF;}
	.st60{clip-path:url(#SVGID_98_);}
	.st61{clip-path:url(#SVGID_100_);fill:#FFFFFF;}
	.st62{clip-path:url(#SVGID_100_);fill:#FDFDFD;}
	.st63{clip-path:url(#SVGID_102_);}
	.st64{clip-path:url(#SVGID_104_);fill:#FFFFFF;}
	.st65{clip-path:url(#SVGID_106_);fill:#FFFFFF;}
	.st66{clip-path:url(#SVGID_106_);}
	.st67{clip-path:url(#SVGID_108_);fill:#FFFFFF;}
	.st68{clip-path:url(#SVGID_110_);}
	.st69{clip-path:url(#SVGID_112_);fill:#FFFFFF;}
	.st70{clip-path:url(#SVGID_114_);}
	.st71{clip-path:url(#SVGID_116_);fill-rule:evenodd;clip-rule:evenodd;fill:#FFFFFF;}
	.st72{clip-path:url(#SVGID_118_);}
	.st73{clip-path:url(#SVGID_120_);}
	.st74{clip-path:url(#SVGID_122_);}
	.st75{clip-path:url(#SVGID_126_);fill:#F9F9F9;}
</style>
<rect x="-626.3" y="-1228.3" class="st0" width="4271.1" height="3545.3"/>
<g>
	<g>
		<defs>
			<rect id="SVGID_45_" x="34.3" y="200.7" width="431.4" height="98.6"/>
		</defs>
		<clipPath id="SVGID_2_">
			<use xlink:href="#SVGID_45_"  style="overflow:visible;"/>
		</clipPath>
		<g class="st1">
			<defs>
				<rect id="SVGID_47_" x="34.3" y="200.7" width="431.4" height="98.6"/>
			</defs>
			<clipPath id="SVGID_4_">
				<use xlink:href="#SVGID_47_"  style="overflow:visible;"/>
			</clipPath>
			<path class="st2" d="M84.2,254.8c3.3,5.7,1.3,12.9-4.3,16.2c-5.7,3.3-12.9,1.3-16.2-4.3c-3.3-5.7-1.3-12.9,4.3-16.2
				C73.7,247.1,81,249.1,84.2,254.8"/>
			<path class="st2" d="M40.2,202.3c-5.7,3.3-7.6,10.5-4.3,16.2c0.2,0.4,0.7,1.1,0.9,1.4c0.4,0.7,11.8,13.8,20.6,24
				c1.8,2.3,5,2.9,7.6,1.5c2.5-1.4,3.5-4.3,2.7-6.9c0,0-10.3-29.6-10.5-30.2c-0.2-0.5-0.5-1.1-0.8-1.6C53.2,201,45.9,199,40.2,202.3
				"/>
			<path class="st2" d="M71.7,222.2c1.2,3.5,2.5,7.1,3.6,10.5c0.7,1.9,1.3,4.2,4.5,5c6,1.5,11.4,5.4,14.7,11.1
				c6.6,11.4,2.7,25.9-8.7,32.4c-11.4,6.6-25.9,2.7-32.4-8.7c-3.3-5.8-4-12.3-2.3-18.3c0.9-3.2-0.8-4.9-2.1-6.4
				c-2.4-2.7-4.9-5.6-7.3-8.4C34,251.3,33,266.9,40.6,280c10.6,18.4,34.2,24.8,52.7,14.1c18.5-10.7,24.8-34.2,14.1-52.7
				C99.8,228.3,85.8,221.4,71.7,222.2"/>
			<path class="st2" d="M293,270.5c-2.6-2.7-3.9-5.9-3.9-9.7v0.4v-0.4v0v-4.3v-18.7h-9.6v17.3v6.7h0c0.3,5.9,2.5,11,6.8,15.2
				c4.5,4.5,10,6.7,16.3,6.7h4.4c0-2.5,0-6.9,0-9.1h-4.5C298.9,274.6,295.6,273.2,293,270.5"/>
			<path class="st2" d="M222.2,257.7c-0.1-0.9-0.2-1.5-0.2-1.5h0c-2.1-10.5-11.4-18.5-22.5-18.5c-12.7,0-23,10.3-23,23
				c0,12.7,10.3,23,23,23h9.2v-9.1h-9.2c-7.7,0-13.9-6.2-13.9-13.9c0-7.7,6.2-13.9,13.9-13.9c6.1,0,11.3,3.9,13.2,9.4h-13.2h0
				c-2.5,0-4.5,2-4.5,4.5c0,2.5,2,4.5,4.5,4.5H222c0.6-1.9,0.5-4.4,0.4-6.3C222.3,258.5,222.3,258.1,222.2,257.7"/>
			<path class="st2" d="M407.3,263.7c-0.1,0.9-0.2,1.5-0.2,1.5h0c-2.1,10.5-11.4,18.5-22.5,18.5c-12.7,0-23-10.3-23-23
				c0-12.7,10.3-23,23-23h9.2v9.1h-9.2c-7.7,0-13.9,6.2-13.9,13.9c0,7.7,6.2,13.9,13.9,13.9c6.1,0,11.3-3.9,13.2-9.4h-13.2h0
				c-2.5,0-4.5-2-4.5-4.5c0-2.5,2-4.5,4.5-4.5h22.6c0.6,1.9,0.5,4.4,0.4,6.3C407.4,262.9,407.3,263.3,407.3,263.7"/>
			<path class="st2" d="M170.9,263.7c-0.1,0.9-0.2,1.5-0.2,1.5h0c-2.1,10.5-11.4,18.5-22.5,18.5c-12.7,0-23-10.3-23-23
				c0-12.7,10.3-23,23-23h9.2v9.1h-9.2c-7.7,0-13.9,6.2-13.9,13.9c0,7.7,6.2,13.9,13.9,13.9c6.1,0,11.3-3.9,13.2-9.4h-13.2h0
				c-2.5,0-4.5-2-4.5-4.5c0-2.5,2-4.5,4.5-4.5h22.6c0.6,1.9,0.5,4.4,0.4,6.3C171,262.9,170.9,263.3,170.9,263.7"/>
			<path class="st2" d="M251,237.7c-12.7,0-23,10.3-23,23c0,12.7,10.3,23,23,23c12.7,0,23-10.3,23-23C274,248,263.7,237.7,251,237.7
				 M251,274.6c-7.7,0-13.9-6.2-13.9-13.9c0-7.7,6.2-13.9,13.9-13.9c7.7,0,13.9,6.2,13.9,13.9C264.9,268.4,258.7,274.6,251,274.6"/>
			<rect x="413.8" y="237.7" class="st2" width="9" height="46"/>
			<path class="st2" d="M452.2,246.8L452.2,246.8l13.5,0v-9h-13.6v0c-12.7,0-22.9,10.3-22.9,23c0,12.7,10.2,22.9,22.9,23h13.6v-9
				h-13.5v0c-7.7,0-13.9-6.2-13.9-13.9C438.2,253,444.5,246.8,452.2,246.8"/>
			<path class="st2" d="M333.3,237.7c-12.7,0-23,10.3-23,23c0,12.7,10.3,23,23,23c12.7,0,23-10.3,23-23
				C356.2,248,346,237.7,333.3,237.7 M333.3,274.6c-7.7,0-13.9-6.2-13.9-13.9c0-7.7,6.2-13.9,13.9-13.9c7.7,0,13.9,6.2,13.9,13.9
				C347.2,268.4,341,274.6,333.3,274.6"/>
		</g>
	</g>
</g>
</svg>
