<?xml version="1.0" encoding="utf-8"?>
<!-- Generator: Adobe Illustrator 19.2.1, SVG Export Plug-In . SVG Version: 6.00 Build 0)  -->
<svg version="1.1" id="Calque_1" xmlns="http://www.w3.org/2000/svg" xmlns:xlink="http://www.w3.org/1999/xlink" x="0px" y="0px"
	 viewBox="0 0 500 500" style="enable-background:new 0 0 500 500;" xml:space="preserve">
<style type="text/css">
	.st0{display:none;fill:#1D1D1B;stroke:#FFFFFF;stroke-miterlimit:10;}
	.st1{clip-path:url(#SVGID_2_);}
	.st2{clip-path:url(#SVGID_4_);fill:#FFFFFF;}
	.st3{clip-path:url(#SVGID_6_);}
	.st4{clip-path:url(#SVGID_8_);fill:#FFFFFF;}
	.st5{clip-path:url(#SVGID_10_);}
	.st6{clip-path:url(#SVGID_12_);fill:#FFFFFF;}
	.st7{clip-path:url(#SVGID_14_);}
	.st8{clip-path:url(#SVGID_16_);fill:#FFFFFF;}
	.st9{clip-path:url(#SVGID_16_);}
	.st10{opacity:0.3;clip-path:url(#SVGID_18_);}
	.st11{clip-path:url(#SVGID_20_);fill:#FFFFFF;}
	.st12{opacity:0.3;clip-path:url(#SVGID_22_);}
	.st13{clip-path:url(#SVGID_24_);fill:#FFFFFF;}
	.st14{clip-path:url(#SVGID_26_);fill:#FFFFFF;}
	.st15{clip-path:url(#SVGID_22_);fill:#FFFFFF;}
	.st16{clip-path:url(#SVGID_28_);fill:#FFFFFF;}
	.st17{clip-path:url(#SVGID_30_);}
	.st18{clip-path:url(#SVGID_32_);fill:#FFFFFF;}
	.st19{clip-path:url(#SVGID_34_);}
	.st20{clip-path:url(#SVGID_36_);fill:#FFFFFF;}
	.st21{clip-path:url(#SVGID_38_);}
	.st22{clip-path:url(#SVGID_40_);fill:#FFFFFF;}
	.st23{clip-path:url(#SVGID_42_);}
	.st24{clip-path:url(#SVGID_44_);fill-rule:evenodd;clip-rule:evenodd;fill:#FFFFFF;}
	.st25{clip-path:url(#SVGID_44_);fill:#FFFFFF;}
	.st26{clip-path:url(#SVGID_46_);}
	.st27{clip-path:url(#SVGID_48_);fill:#FFFFFF;}
	.st28{clip-path:url(#SVGID_50_);}
	.st29{clip-path:url(#SVGID_52_);fill:#FFFFFF;}
	.st30{clip-path:url(#SVGID_54_);}
	.st31{clip-path:url(#SVGID_56_);fill-rule:evenodd;clip-rule:evenodd;fill:#FFFFFF;}
	.st32{clip-path:url(#SVGID_56_);fill:#FFFFFF;}
	.st33{clip-path:url(#SVGID_58_);}
	.st34{clip-path:url(#SVGID_60_);fill:#FFFFFF;}
	.st35{clip-path:url(#SVGID_62_);}
	.st36{clip-path:url(#SVGID_64_);}
	.st37{opacity:0.3;clip-path:url(#SVGID_66_);}
	.st38{clip-path:url(#SVGID_68_);fill:#FFFFFF;}
	.st39{clip-path:url(#SVGID_68_);}
	.st40{clip-path:url(#SVGID_70_);fill:#FFFFFF;}
	.st41{opacity:0.7;clip-path:url(#SVGID_66_);}
	.st42{clip-path:url(#SVGID_72_);fill:#FFFFFF;}
	.st43{clip-path:url(#SVGID_72_);}
	.st44{clip-path:url(#SVGID_74_);fill:#FFFFFF;}
	.st45{clip-path:url(#SVGID_66_);fill:#FFFFFF;}
	.st46{opacity:0.5;clip-path:url(#SVGID_66_);}
	.st47{clip-path:url(#SVGID_76_);fill:#FFFFFF;}
	.st48{clip-path:url(#SVGID_76_);}
	.st49{clip-path:url(#SVGID_78_);fill:#FFFFFF;}
	.st50{clip-path:url(#SVGID_80_);fill:#FFFFFF;}
	.st51{clip-path:url(#SVGID_82_);}
	.st52{clip-path:url(#SVGID_84_);fill:#FFFFFF;}
	.st53{clip-path:url(#SVGID_86_);}
	.st54{clip-path:url(#SVGID_88_);fill:#FFFFFF;}
	.st55{clip-path:url(#SVGID_88_);fill-rule:evenodd;clip-rule:evenodd;fill:#FFFFFF;}
	.st56{clip-path:url(#SVGID_90_);}
	.st57{clip-path:url(#SVGID_92_);fill:#FFFFFF;}
	.st58{clip-path:url(#SVGID_94_);}
	.st59{clip-path:url(#SVGID_96_);fill:#FFFFFF;}
	.st60{clip-path:url(#SVGID_98_);}
	.st61{clip-path:url(#SVGID_100_);fill:#FFFFFF;}
	.st62{clip-path:url(#SVGID_100_);fill:#FDFDFD;}
	.st63{clip-path:url(#SVGID_102_);}
	.st64{clip-path:url(#SVGID_104_);fill:#FFFFFF;}
	.st65{clip-path:url(#SVGID_106_);fill:#FFFFFF;}
	.st66{clip-path:url(#SVGID_106_);}
	.st67{clip-path:url(#SVGID_108_);fill:#FFFFFF;}
	.st68{clip-path:url(#SVGID_110_);}
	.st69{clip-path:url(#SVGID_112_);fill:#FFFFFF;}
	.st70{clip-path:url(#SVGID_114_);}
	.st71{clip-path:url(#SVGID_116_);fill-rule:evenodd;clip-rule:evenodd;fill:#FFFFFF;}
	.st72{clip-path:url(#SVGID_118_);}
	.st73{clip-path:url(#SVGID_120_);}
	.st74{clip-path:url(#SVGID_122_);}
	.st75{clip-path:url(#SVGID_126_);fill:#F9F9F9;}
</style>
<rect x="-2186.3" y="-2268.3" class="st0" width="4271.1" height="3545.3"/>
<g>
	<g>
		<defs>
			<rect id="SVGID_13_" x="98.3" y="91.9" width="303.3" height="316.2"/>
		</defs>
		<clipPath id="SVGID_2_">
			<use xlink:href="#SVGID_13_"  style="overflow:visible;"/>
		</clipPath>
		<g class="st1">
			<defs>
				<rect id="SVGID_15_" x="98.3" y="91.9" width="303.3" height="316.2"/>
			</defs>
			<clipPath id="SVGID_4_">
				<use xlink:href="#SVGID_15_"  style="overflow:visible;"/>
			</clipPath>
			<polygon class="st2" points="250,96.6 212.3,152.2 232.1,152.2 250,125.7 267.9,152.2 287.6,152.2 			"/>
			<g style="clip-path:url(#SVGID_4_);">
				<defs>
					<rect id="SVGID_17_" x="98.3" y="91.9" width="303.3" height="316.2"/>
				</defs>
				<clipPath id="SVGID_6_">
					<use xlink:href="#SVGID_17_"  style="overflow:visible;"/>
				</clipPath>
				<g style="opacity:0.3;clip-path:url(#SVGID_6_);">
					<g>
						<defs>
							<rect id="SVGID_19_" x="232.1" y="125.7" width="35.8" height="26.4"/>
						</defs>
						<clipPath id="SVGID_8_">
							<use xlink:href="#SVGID_19_"  style="overflow:visible;"/>
						</clipPath>
						<polygon class="st4" points="232.1,152.2 267.9,152.2 250,125.7 						"/>
					</g>
				</g>
			</g>
			<polygon class="st2" points="175,140.1 175,112.9 193.5,112.9 204.5,96.6 129.2,96.6 140.2,112.9 158.7,112.9 158.7,140.1 
				166.9,152.2 			"/>
			<g style="clip-path:url(#SVGID_4_);">
				<defs>
					<rect id="SVGID_21_" x="98.3" y="91.9" width="303.3" height="316.2"/>
				</defs>
				<clipPath id="SVGID_10_">
					<use xlink:href="#SVGID_21_"  style="overflow:visible;"/>
				</clipPath>
				<g style="opacity:0.3;clip-path:url(#SVGID_10_);">
					<g>
						<defs>
							<rect id="SVGID_23_" x="140.2" y="112.9" width="18.5" height="27.2"/>
						</defs>
						<clipPath id="SVGID_12_">
							<use xlink:href="#SVGID_23_"  style="overflow:visible;"/>
						</clipPath>
						<polygon class="st6" points="140.2,112.9 158.7,140.1 158.7,112.9 						"/>
					</g>
				</g>
				<g style="opacity:0.3;clip-path:url(#SVGID_10_);">
					<g>
						<defs>
							<rect id="SVGID_25_" x="175" y="112.9" width="18.4" height="27.2"/>
						</defs>
						<clipPath id="SVGID_14_">
							<use xlink:href="#SVGID_25_"  style="overflow:visible;"/>
						</clipPath>
						<polygon style="clip-path:url(#SVGID_14_);fill:#FFFFFF;" points="175,140.1 193.5,112.9 175,112.9 						"/>
					</g>
				</g>
				<path style="clip-path:url(#SVGID_10_);fill:#FFFFFF;" d="M306.9,124.4c0-17.9,14.5-32.4,32.4-32.4c17.9,0,32.4,14.5,32.4,32.4
					c0,17.9-14.5,32.4-32.4,32.4C321.5,156.8,306.9,142.3,306.9,124.4"/>
				<g style="opacity:0.3;clip-path:url(#SVGID_10_);">
					<g>
						<defs>
							<rect id="SVGID_27_" x="325.8" y="110.7" width="27.3" height="27.3"/>
						</defs>
						<clipPath id="SVGID_16_">
							<use xlink:href="#SVGID_27_"  style="overflow:visible;"/>
						</clipPath>
						<path class="st8" d="M325.8,124.4c0-7.5,6.1-13.6,13.6-13.6c7.5,0,13.6,6.1,13.6,13.6c0,7.5-6.1,13.6-13.6,13.6
							C331.9,138,325.8,131.9,325.8,124.4"/>
					</g>
				</g>
				<path style="clip-path:url(#SVGID_10_);fill:#FFFFFF;" d="M128.5,391.6c-1.7,0-3.2,0.6-4.4,1.7c-1.6,1.5-1.6,3.3-1.6,6.4v0.3
					c0,3.2,0,4.9,1.6,6.4c1.2,1.1,2.7,1.7,4.4,1.7c1.7,0,3.2-0.6,4.4-1.7c1.6-1.5,1.6-3.2,1.6-6.3v-0.6c0-3.1,0-4.8-1.6-6.3
					C131.7,392.2,130.2,391.6,128.5,391.6 M131.6,405.6c-0.8,0.8-1.9,1.2-3.1,1.2c-1.2,0-2.4-0.5-3.2-1.2c-1.1-1.1-1.2-2.3-1.2-5.7
					c0-3.5,0.2-4.6,1.2-5.7c0.8-0.8,1.9-1.2,3.2-1.2c1.2,0,2.4,0.5,3.1,1.2c1.1,1.1,1.2,2.3,1.2,5.7
					C132.8,403.3,132.7,404.5,131.6,405.6"/>
				<path style="clip-path:url(#SVGID_10_);fill:#FFFFFF;" d="M156.9,400.3c2-0.5,3.2-2,3.2-4.1c0-2.7-2-4.5-5.1-4.5h-6.5v16.2h1.6
					v-7.3h4.4l3.8,7.3h1.9l-4.1-7.4L156.9,400.3z M150.2,399.5V393h4.7c2.2,0,3.7,1.3,3.7,3.3c0,2-1.4,3.3-3.7,3.3H150.2z"/>
				<rect x="174.2" y="391.8" style="clip-path:url(#SVGID_10_);fill:#FFFFFF;" width="1.6" height="16.2"/>
				<path style="clip-path:url(#SVGID_10_);fill:#FFFFFF;" d="M196.5,400.8h3.8v1.5c0,1.4-0.3,2.4-1,3.1c-0.8,0.9-2,1.4-3.4,1.4
					c-1.2,0-2.4-0.4-3.1-1.2c-1.1-1.1-1.2-2.3-1.2-5.8c0-3.5,0.2-4.6,1.2-5.7c0.8-0.8,1.9-1.2,3.2-1.2c1.7,0,2.7,0.6,3.6,1.5l1-1
					c-1.3-1.1-2.5-1.7-4.7-1.7c-1.7,0-3.2,0.6-4.4,1.7c-1.6,1.5-1.6,3.3-1.6,6.4v0.3c0,3.2,0,4.9,1.6,6.4c1.2,1.1,2.7,1.7,4.4,1.7
					c1.8,0,3.3-0.6,4.5-1.8c1-1.1,1.5-2.3,1.5-4.5v-2h-5.4V400.8z"/>
				<rect x="215.9" y="391.8" style="clip-path:url(#SVGID_10_);fill:#FFFFFF;" width="1.6" height="16.2"/>
				<polygon style="clip-path:url(#SVGID_10_);fill:#FFFFFF;" points="243.3,391.8 243.3,405.2 234,391.8 232.3,391.8 232.3,407.9 
					233.9,407.9 233.9,394.5 243.3,407.9 244.9,407.9 244.9,391.8 				"/>
				<path style="clip-path:url(#SVGID_10_);fill:#FFFFFF;" d="M264.1,391.8l-6.3,16.2h1.7l1.3-3.5h8l1.3,3.5h1.7l-6.3-16.2H264.1z
					 M264.8,393.4l3.6,9.9h-7.3L264.8,393.4z"/>
				<polygon style="clip-path:url(#SVGID_10_);fill:#FFFFFF;" points="284.6,391.8 284.6,407.9 295,407.9 295,406.7 286.2,406.7 
					286.2,391.8 				"/>
				<polygon style="clip-path:url(#SVGID_10_);fill:#FFFFFF;" points="333.1,391.8 324.8,401.5 324.8,391.8 323.2,391.8 
					323.2,407.9 324.8,407.9 324.8,403.3 328.6,399 333.9,407.9 335.8,407.9 329.6,397.9 335,391.8 				"/>
				<rect x="349" y="391.8" style="clip-path:url(#SVGID_10_);fill:#FFFFFF;" width="1.6" height="16.2"/>
				<path style="clip-path:url(#SVGID_10_);fill:#FFFFFF;" d="M371.2,391.8h-5.8v16.2h5.8c1.8,0,3.3-0.5,4.3-1.5
					c1.7-1.6,1.7-4,1.7-6.3v-0.4v-0.4c0-2.3,0-4.5-1.7-6.1C374.5,392.3,373,391.8,371.2,391.8 M374.4,405.4c-0.9,0.9-2,1.3-3.5,1.3
					H367V393h3.9c1.5,0,2.7,0.4,3.5,1.3c1.1,1.2,1.1,3,1.1,5.4C375.6,402.1,375.6,404.2,374.4,405.4"/>
				<path style="clip-path:url(#SVGID_10_);fill:#FFFFFF;" d="M400.2,400.4c-0.7-0.6-1.6-0.9-3.1-1.2l-2.1-0.3
					c-1-0.1-1.8-0.5-2.4-0.9c-0.6-0.5-0.9-1.2-0.9-2c0-1.9,1.6-3.3,3.9-3.3c1.7,0,2.9,0.4,4,1.1l0.9-0.9c-1.3-1-2.8-1.4-4.8-1.4
					c-3.4,0-5.5,1.7-5.5,4.5c0,1.3,0.4,2.2,1.1,2.9c0.7,0.6,1.8,1.1,3.1,1.2l2.2,0.3c1.2,0.2,1.8,0.4,2.3,0.9
					c0.6,0.5,0.9,1.3,0.9,2.2c0,2-1.6,3.2-4.4,3.2c-2,0-3.4-0.4-4.7-1.4l-1,0.9c1.5,1.2,3.1,1.7,5.6,1.7c3.6,0,6-1.8,6-4.5
					C401.5,402.2,401.1,401.1,400.2,400.4"/>
				<polygon style="clip-path:url(#SVGID_10_);fill:#FFFFFF;" points="98.3,193.2 98.3,205.3 122.6,205.3 122.6,261.9 134.7,261.9 
					134.7,205.3 159,205.3 159,193.2 				"/>
				<polygon style="clip-path:url(#SVGID_10_);fill:#FFFFFF;" points="316.7,261.9 316.7,249.8 284.3,249.8 284.3,231.8 
					308.6,231.8 308.6,219.5 284.4,219.5 284.3,205.3 316.7,205.3 316.7,193.2 272.2,193.2 272.2,261.9 				"/>
				<polygon style="clip-path:url(#SVGID_10_);fill:#FFFFFF;" points="377.3,185.1 369.2,173 357.1,173 365.2,185.1 				"/>
				<path style="clip-path:url(#SVGID_10_);fill:#FFFFFF;" d="M161.8,261.9l5.7-16.2h25.1l5.7,16.2h12.1l-24.3-68.7h0H174h0
					l-24.3,68.7H161.8z M180,210.4l8.2,23.3h-16.5L180,210.4z"/>
				<path style="clip-path:url(#SVGID_10_);fill:#FFFFFF;" d="M353.1,261.9l5.7-16.2h25.1l5.7,16.2h12.1l-24.3-68.7h0h-12.1h0
					L341,261.9H353.1z M371.3,210.4l8.2,23.3h-16.5L371.3,210.4z"/>
				<path style="clip-path:url(#SVGID_10_);fill:#FFFFFF;" d="M241.7,193.2h-24.2v68.7h12.1v-24.3h12.1c12.2,0,22.1-9.9,22.1-22.2
					C263.8,203.2,253.9,193.2,241.7,193.2 M241.7,225.5H241h0l-11.3,0v-20.2l12.1,0l0.2,0c5.5,0.1,9.9,4.6,9.9,10.2
					C251.8,221.1,247.3,225.5,241.7,225.5"/>
				<polygon style="clip-path:url(#SVGID_10_);fill:#FFFFFF;" points="167.1,355.1 167.1,343 134.7,343 134.7,286.4 122.6,286.4 
					122.6,343.2 122.6,355.1 				"/>
				<polygon style="clip-path:url(#SVGID_10_);fill:#FFFFFF;" points="316.7,355.2 316.7,343 284.3,343 284.3,325 308.6,325 
					308.6,312.7 284.4,312.7 284.3,298.5 316.7,298.5 316.7,286.4 272.2,286.4 272.2,355.1 				"/>
				<polygon style="clip-path:url(#SVGID_10_);fill:#FFFFFF;" points="401.6,355.1 401.6,343 369.3,343 369.3,286.4 357.1,286.4 
					357.1,343.1 357.1,355.1 				"/>
				<rect x="330.8" y="286.4" style="clip-path:url(#SVGID_10_);fill:#FFFFFF;" width="12.1" height="68.7"/>
				<polygon style="clip-path:url(#SVGID_10_);fill:#FFFFFF;" points="155,298.6 167,298.6 175.1,286.4 163.1,286.4 				"/>
				<path style="clip-path:url(#SVGID_10_);fill:#FFFFFF;" d="M227.4,284.2c-20,0-36.3,16.4-36.3,36.5c0,20.1,16.3,36.5,36.3,36.5
					c20,0,36.3-16.4,36.3-36.5C263.7,300.6,247.4,284.2,227.4,284.2 M227.4,343.6c-13.3,0-22.6-9.4-22.7-22.8
					c0-12.6,9.3-22.8,22.7-22.8c13.3,0,22.7,9.4,22.7,22.8C250,334.2,240.7,343.6,227.4,343.6"/>
			</g>
		</g>
	</g>
</g>
</svg>
