<?xml version="1.0" encoding="utf-8"?>
<!-- Generator: Adobe Illustrator 19.2.1, SVG Export Plug-In . SVG Version: 6.00 Build 0)  -->
<svg version="1.1" id="Calque_1" xmlns="http://www.w3.org/2000/svg" xmlns:xlink="http://www.w3.org/1999/xlink" x="0px" y="0px"
	 viewBox="0 0 500 500" style="enable-background:new 0 0 500 500;" xml:space="preserve">
<style type="text/css">
	.st0{display:none;fill:#1D1D1B;stroke:#FFFFFF;stroke-miterlimit:10;}
	.st1{clip-path:url(#SVGID_2_);}
	.st2{clip-path:url(#SVGID_4_);fill:#FFFFFF;}
	.st3{clip-path:url(#SVGID_6_);}
	.st4{clip-path:url(#SVGID_8_);fill:#FFFFFF;}
	.st5{clip-path:url(#SVGID_10_);}
	.st6{clip-path:url(#SVGID_12_);fill:#FFFFFF;}
	.st7{clip-path:url(#SVGID_14_);}
	.st8{clip-path:url(#SVGID_16_);fill:#FFFFFF;}
	.st9{clip-path:url(#SVGID_16_);}
	.st10{opacity:0.3;clip-path:url(#SVGID_18_);}
	.st11{clip-path:url(#SVGID_20_);fill:#FFFFFF;}
	.st12{opacity:0.3;clip-path:url(#SVGID_22_);}
	.st13{clip-path:url(#SVGID_24_);fill:#FFFFFF;}
	.st14{clip-path:url(#SVGID_26_);fill:#FFFFFF;}
	.st15{clip-path:url(#SVGID_22_);fill:#FFFFFF;}
	.st16{clip-path:url(#SVGID_28_);fill:#FFFFFF;}
	.st17{clip-path:url(#SVGID_30_);}
	.st18{clip-path:url(#SVGID_32_);fill:#FFFFFF;}
	.st19{clip-path:url(#SVGID_34_);}
	.st20{clip-path:url(#SVGID_36_);fill:#FFFFFF;}
	.st21{clip-path:url(#SVGID_38_);}
	.st22{clip-path:url(#SVGID_40_);fill:#FFFFFF;}
	.st23{clip-path:url(#SVGID_42_);}
	.st24{clip-path:url(#SVGID_44_);fill-rule:evenodd;clip-rule:evenodd;fill:#FFFFFF;}
	.st25{clip-path:url(#SVGID_44_);fill:#FFFFFF;}
	.st26{clip-path:url(#SVGID_46_);}
	.st27{clip-path:url(#SVGID_48_);fill:#FFFFFF;}
	.st28{clip-path:url(#SVGID_50_);}
	.st29{clip-path:url(#SVGID_52_);fill:#FFFFFF;}
	.st30{clip-path:url(#SVGID_54_);}
	.st31{clip-path:url(#SVGID_56_);fill-rule:evenodd;clip-rule:evenodd;fill:#FFFFFF;}
	.st32{clip-path:url(#SVGID_56_);fill:#FFFFFF;}
	.st33{clip-path:url(#SVGID_58_);}
	.st34{clip-path:url(#SVGID_60_);fill:#FFFFFF;}
	.st35{clip-path:url(#SVGID_62_);}
	.st36{clip-path:url(#SVGID_64_);}
	.st37{opacity:0.3;clip-path:url(#SVGID_66_);}
	.st38{clip-path:url(#SVGID_68_);fill:#FFFFFF;}
	.st39{clip-path:url(#SVGID_68_);}
	.st40{clip-path:url(#SVGID_70_);fill:#FFFFFF;}
	.st41{opacity:0.7;clip-path:url(#SVGID_66_);}
	.st42{clip-path:url(#SVGID_72_);fill:#FFFFFF;}
	.st43{clip-path:url(#SVGID_72_);}
	.st44{clip-path:url(#SVGID_74_);fill:#FFFFFF;}
	.st45{clip-path:url(#SVGID_66_);fill:#FFFFFF;}
	.st46{opacity:0.5;clip-path:url(#SVGID_66_);}
	.st47{clip-path:url(#SVGID_76_);fill:#FFFFFF;}
	.st48{clip-path:url(#SVGID_76_);}
	.st49{clip-path:url(#SVGID_78_);fill:#FFFFFF;}
	.st50{clip-path:url(#SVGID_80_);fill:#FFFFFF;}
	.st51{clip-path:url(#SVGID_82_);}
	.st52{clip-path:url(#SVGID_84_);fill:#FFFFFF;}
	.st53{clip-path:url(#SVGID_86_);}
	.st54{clip-path:url(#SVGID_88_);fill:#FFFFFF;}
	.st55{clip-path:url(#SVGID_88_);fill-rule:evenodd;clip-rule:evenodd;fill:#FFFFFF;}
	.st56{clip-path:url(#SVGID_90_);}
	.st57{clip-path:url(#SVGID_92_);fill:#FFFFFF;}
	.st58{clip-path:url(#SVGID_94_);}
	.st59{clip-path:url(#SVGID_96_);fill:#FFFFFF;}
	.st60{clip-path:url(#SVGID_98_);}
	.st61{clip-path:url(#SVGID_100_);fill:#FFFFFF;}
	.st62{clip-path:url(#SVGID_100_);fill:#FDFDFD;}
	.st63{clip-path:url(#SVGID_102_);}
	.st64{clip-path:url(#SVGID_104_);fill:#FFFFFF;}
	.st65{clip-path:url(#SVGID_106_);fill:#FFFFFF;}
	.st66{clip-path:url(#SVGID_106_);}
	.st67{clip-path:url(#SVGID_108_);fill:#FFFFFF;}
	.st68{clip-path:url(#SVGID_110_);}
	.st69{clip-path:url(#SVGID_112_);fill:#FFFFFF;}
	.st70{clip-path:url(#SVGID_114_);}
	.st71{clip-path:url(#SVGID_116_);fill-rule:evenodd;clip-rule:evenodd;fill:#FFFFFF;}
	.st72{clip-path:url(#SVGID_118_);}
	.st73{clip-path:url(#SVGID_120_);}
	.st74{clip-path:url(#SVGID_122_);}
	.st75{clip-path:url(#SVGID_126_);fill:#F9F9F9;}
</style>
<rect x="-1146.3" y="-708.3" class="st0" width="4271.1" height="3545.3"/>
<g>
	<g>
		<defs>
			<rect id="SVGID_53_" x="25" y="163.9" width="450" height="172.2"/>
		</defs>
		<clipPath id="SVGID_2_">
			<use xlink:href="#SVGID_53_"  style="overflow:visible;"/>
		</clipPath>
		<g class="st1">
			<defs>
				<rect id="SVGID_55_" x="-10.7" y="129" width="520.7" height="242.9"/>
			</defs>
			<clipPath id="SVGID_4_">
				<use xlink:href="#SVGID_55_"  style="overflow:visible;"/>
			</clipPath>
			<path style="clip-path:url(#SVGID_4_);fill-rule:evenodd;clip-rule:evenodd;fill:#FFFFFF;" d="M116.6,187.9
				c0.6-4.7-0.1-11.7,3.6-14.9c1.1-5.1,9.1-3.9,7.8-7.1c-0.8-2-4.5-1.1-6-0.7c-1.1,0.3-12.1,3.7-16.3,4.2c-1.8-0.5-3.5-1-5.3-1.5
				c-6.8,0.9-10.8,6.4-14.6,10.7c-3.2,3.6-7.5,12.5-4.1,17.8c-0.2,1.2-0.4,2.3-0.6,3.5l7.8,11.4c2.7,1.9,3,3.4,5.9,5.3
				c0.6,0.9,1.2,1.8,1.8,2.7c2.4,1.6,9.3,1.6,10.5,0.6c11.2,1.1,10-21.7,13.6-26.4C120.2,191.3,118.4,189,116.6,187.9 M68.2,256.2
				c2.4-0.6,6.4-0.9,8.6-2c3.4-1.7,15-9.8,11.3-16.5c-1.2-14-18-2.2-25.2-7.1c-7.3-0.9-15.4-14.7-17.6-20.6
				c-0.9-2.3-0.5-1.5-1.7-3.4c0-0.2-0.7,0.6-0.7,0.4c-2.1,2.5-1.8,4.6-2.1,10.7c-0.9-0.1-1.9-0.1-2.8-0.2c-0.2,2.2-0.4,3.4-1.4,4.5
				c-0.2,0.4-0.4,0.7-0.6,1.1c-1.8-0.6-0.9,0.3-1.6-1.2c-6.7,0.3-6.2,7-9.3,10.9C25.1,245.4,50,260.9,68.2,256.2 M150.7,218.1
				c-10.8,1.6-17.5,5.1-21.6,7.9c-2.9,2-3.7,3.3-4.3,4.2c-0.6,0.8-1,2.7-0.7,4.7c0.3,1.9,1.1,4,2.8,5.2c13.3-1,36.4-1.8,40.9,9.4
				c0.2,1.5,0.6,2.5,0.6,2.9c4.4-1.1,1.2-0.7,7.7,0.3c1.5,0.2,5.1-0.6,7.6-1.2c1.1-0.3,1.7-1.3,1.7-1.3s-0.2-1.1-0.1-1.6
				c0,0,2.3,0.2,3.2-0.6c6.2-1,2.9-3.9,5.8-7.1C192.5,219.8,171.1,215,150.7,218.1 M126.9,263.5c-3.1,2.4-4.4,1.8-6.2,5.4
				c-0.2,0,0.3,0.6,0.1,0.6c1.8,3.7,6.1,5.2,9.2,7.7c1,0.8,3.6,5.3,4.8,5.7c1.4,1.7,2.3,6.3,3.2,6.3c1,1.3-0.1,4.3,0.9,5.5
				c0.1,5.5-0.7,5.8-1.6,6.9c0,0.4,0.5,1.4,0.5,1.7c0.3,0.3,2.5,1.8,3.4,1.6c3,0.1,15.2,9.6,16.1,11.4c8.7,0.7,8.1-2,14.1-4.6
				c1.6-0.7,2.9,0,4-1.2c1.1-1.1,1.2-3.4,2.3-4.6C177.9,284.6,148.6,264.3,126.9,263.5 M92.5,268.4c-1.2,1.3-4.6,1.8-5.5,3.3
				c-1.4,2.2-4.7,7.3-7.3,9.8c-8.3,7.9-26,11.8-34.8,4.3c-0.6,0-0.2,0.4,0.4,2.5c0.6,4.1,3.9,13.6,2.7,16.1c0.8,2.7,1.6,1.7,3.1,3.2
				c1,1,1.4,3.7,2.6,4.4c1.3-0.1,2.7-0.2,4-0.3c0.2,0.7,0.5,1.5,0.7,2.2c1.7-0.1,3.4-0.2,5.1-0.4c1,0.2,3.9,1.7,4.7,2
				c1.9-0.1,3.8-0.3,5.7-0.4c4.4,1.2,8.1-0.7,11.8-3.1c2.1-1.4,4.3-1.2,6.1-2.7c2.6-2.3,6.2-6.7,7.9-9.7c4.1-7.5,2.7-25.4-1-29.8
				C97.4,268.1,95.7,268.1,92.5,268.4"/>
			<path class="st2" d="M248.6,279.8h-0.2c-4.4,5.5-10.5,7.7-17.4,7.7c-17.4,0-23.8-14.4-23.8-29.9c0-15.7,6.4-29.6,23.8-29.6
				c7.4,0,12.6,2.5,17,8h0.2v-32.6h14.8v82.8h-14.4V279.8z M235,276.1c9.8,0,13-10.4,13-18.4c0-7.9-3.8-18.1-13.2-18.1
				c-9.6,0-12.3,10.5-12.3,18.1C222.5,265.5,225.3,276.1,235,276.1"/>
			<path class="st2" d="M273.4,232.3c5.7-2.7,13.5-4.3,19.8-4.3c17.3,0,24.5,7.2,24.5,24v7.3c0,5.7,0.1,10,0.2,14.2
				c0.1,4.3,0.3,8.3,0.7,12.7h-13c-0.6-3-0.6-6.7-0.7-8.5h-0.2c-3.4,6.3-10.8,9.8-17.6,9.8c-10,0-19.9-6.1-19.9-16.9
				c0-8.5,4.1-13.5,9.7-16.2c5.6-2.8,12.9-3.3,19.1-3.3h8.2c0-9.2-4.1-12.3-12.8-12.3c-6.3,0-12.6,2.4-17.6,6.2L273.4,232.3z
				 M290.7,276.7c4.5,0,8.1-2,10.4-5.1c2.4-3.2,3.1-7.3,3.1-11.7h-6.4c-6.6,0-16.5,1.1-16.5,9.8
				C281.3,274.6,285.4,276.7,290.7,276.7"/>
			<rect x="325.2" y="203.4" class="st2" width="14.8" height="82.8"/>
			<polygon class="st2" points="348,203.4 362.8,203.4 362.8,252.1 363,252.1 380.7,229.4 398.1,229.4 376.9,254.8 400.8,286.2 
				382,286.2 363,258.6 362.8,258.6 362.8,286.2 348,286.2 			"/>
			<path class="st2" d="M404.4,204.9h14.8V219h-14.8V204.9z M404.4,229.4h14.8v56.9h-14.8V229.4z"/>
			<path class="st2" d="M429.8,232.3c5.7-2.7,13.5-4.3,19.8-4.3c17.3,0,24.5,7.2,24.5,24v7.3c0,5.7,0.1,10,0.2,14.2
				c0.1,4.3,0.3,8.3,0.7,12.7h-13c-0.6-3-0.6-6.7-0.7-8.5h-0.2c-3.4,6.3-10.8,9.8-17.6,9.8c-10,0-19.9-6.1-19.9-16.9
				c0-8.5,4.1-13.5,9.7-16.2c5.6-2.8,12.9-3.3,19.1-3.3h8.2c0-9.2-4.1-12.3-12.8-12.3c-6.3,0-12.6,2.4-17.6,6.2L429.8,232.3z
				 M447.2,276.7c4.5,0,8.1-2,10.4-5.1c2.4-3.2,3.1-7.3,3.1-11.7h-6.4c-6.6,0-16.5,1.1-16.5,9.8
				C437.8,274.6,441.9,276.7,447.2,276.7"/>
			<path class="st2" d="M293.8,334.6c-1.6,0.6-4.2,1.4-6.6,1.4c-8.4,0-11.9-6.4-11.9-13.6c0-8.3,4.8-13.5,11.8-13.5
				c2.3,0,4.4,0.3,6.2,1.2v3.4c-2-1-4.3-1.6-6.2-1.6c-4.3,0-8.3,3.5-8.3,9.9c0,6.9,2.7,11.4,8.5,11.4c1.1,0,2.4-0.3,3.3-0.7V324
				h-4.5v-2.9h7.6V334.6z"/>
			<path class="st2" d="M298.5,309.1h6.8c2.8,0,4.4,0.7,5.6,1.8c1.4,1.3,2,3.1,2,5.1c0,2.8-1.3,5.5-5.3,6.4v0.1
				c1.6,0.3,2.4,1.1,2.9,2.6l3.7,10.7h-3.6l-3-9c-0.8-2.2-1.7-3-4.2-3h-1.5v12h-3.3V309.1z M301.8,320.9h2.6c3.6,0,4.9-2.4,4.9-4.7
				c0-3-1.9-4.4-4.9-4.4h-2.7V320.9z"/>
			<path class="st2" d="M326,308.9c5.9,0,9.7,5.1,9.7,13.3c0,9.2-3.7,13.8-10,13.8c-5.9,0-9.7-5.1-9.7-13.3
				C316,313.5,319.7,308.9,326,308.9 M325.7,333.2c3.5,0,6.5-2.9,6.5-11.1c0-5.4-1.7-10.5-6.2-10.5c-3.5,0-6.5,2.9-6.5,11.1
				C319.5,328,321.2,333.2,325.7,333.2"/>
			<path class="st2" d="M355.9,325.9c0,2.6-0.2,4.1-1.1,5.9c-1.1,2.2-3.4,4.1-7.3,4.1c-3.8,0-6.2-1.9-7.3-4.1
				c-0.9-1.9-1.1-3.3-1.1-5.9v-16.8h3.3v17.3c0,4.1,1.8,6.8,5,6.8c3.2,0,5-2.7,5-6.8v-17.3h3.3V325.9z"/>
			<path class="st2" d="M360.6,309.1h6.4c2.7,0,4.3,0.7,5.7,2.1c1.3,1.3,2.1,3.2,2.1,5.5c0,5.2-3,7.9-8.6,7.9H364v11.1h-3.3V309.1z
				 M364,321.8h1.8c4.1,0,5.6-1.9,5.6-4.9c0-3.7-2.1-5.1-5.5-5.1H364V321.8z"/>
			<polygon class="st2" points="377.8,309.1 390.1,309.1 390.1,312 381.1,312 381.1,320.5 389.7,320.5 389.7,323.4 381.1,323.4 
				381.1,332.8 390.6,332.8 390.6,335.7 377.8,335.7 			"/>
			<path class="st2" d="M442.4,309.1c7.4,0,12.4,4.6,12.4,13c0,10.5-6.9,13.6-14,13.6h-9.6c0-0.6,0-2.1,0-4.1v-18.4
				c0-1.9,0-3.2,0-4.1H442.4z M440.2,330.7c4.1,0,7.4-1.4,7.4-8.5c0-6.1-3.3-8.2-7.4-8.2h-2.1v16.7H440.2z"/>
			<path class="st2" d="M465.2,331.6c0,1.9,0.1,4.1,0.1,4.1h-7.2c0,0,0-2.1,0-4.1v-18.4c0-1.9,0-4.1,0-4.1H475v5.1
				c0,0-3.8-0.1-5.1-0.1h-4.7v5.3l4.7,0.1c0.9,0,4-0.1,4-0.1v4.9c0,0-2.7-0.1-4-0.1l-4.7,0V331.6z"/>
			<path class="st2" d="M416.9,330.3c-3.4,0-6-2.3-6-5.8v-0.3c0,0,6.3-0.1,8.3-0.1c3.6,0,5.1,0,7.9-0.1v-2c0-9-3.8-13.5-11.7-13.5
				c-3.7,0-12.2,1.4-12.2,14c0,8.5,4.3,13.5,11.8,13.5c5.8,0,9.5-1.5,12.1-3.4c-0.3-0.4-2.5-4.3-2.7-4.8
				C422.8,329.1,420.2,330.3,416.9,330.3 M410.9,319.2c0.1-1.5,0.7-5.1,4.6-5.1c4,0,4.2,3.4,4.2,5.1v0.4c0,0-2.7,0.1-4.2,0.1
				c-1.6,0-4.6-0.1-4.6-0.1L410.9,319.2z"/>
		</g>
	</g>
</g>
</svg>
