<?xml version="1.0" encoding="utf-8"?>
<!-- Generator: Adobe Illustrator 19.2.1, SVG Export Plug-In . SVG Version: 6.00 Build 0)  -->
<svg version="1.1" id="Calque_1" xmlns="http://www.w3.org/2000/svg" xmlns:xlink="http://www.w3.org/1999/xlink" x="0px" y="0px"
	 viewBox="0 0 500 500" style="enable-background:new 0 0 500 500;" xml:space="preserve">
<style type="text/css">
	.st0{display:none;fill:#1D1D1B;stroke:#FFFFFF;stroke-miterlimit:10;}
	.st1{clip-path:url(#SVGID_2_);}
	.st2{clip-path:url(#SVGID_4_);fill:#FFFFFF;}
	.st3{clip-path:url(#SVGID_6_);}
	.st4{clip-path:url(#SVGID_8_);fill:#FFFFFF;}
	.st5{clip-path:url(#SVGID_10_);}
	.st6{clip-path:url(#SVGID_12_);fill:#FFFFFF;}
	.st7{clip-path:url(#SVGID_14_);}
	.st8{clip-path:url(#SVGID_16_);fill:#FFFFFF;}
	.st9{clip-path:url(#SVGID_16_);}
	.st10{opacity:0.3;clip-path:url(#SVGID_18_);}
	.st11{clip-path:url(#SVGID_20_);fill:#FFFFFF;}
	.st12{opacity:0.3;clip-path:url(#SVGID_22_);}
	.st13{clip-path:url(#SVGID_24_);fill:#FFFFFF;}
	.st14{clip-path:url(#SVGID_26_);fill:#FFFFFF;}
	.st15{clip-path:url(#SVGID_22_);fill:#FFFFFF;}
	.st16{clip-path:url(#SVGID_28_);fill:#FFFFFF;}
	.st17{clip-path:url(#SVGID_30_);}
	.st18{clip-path:url(#SVGID_32_);fill:#FFFFFF;}
	.st19{clip-path:url(#SVGID_34_);}
	.st20{clip-path:url(#SVGID_36_);fill:#FFFFFF;}
	.st21{clip-path:url(#SVGID_38_);}
	.st22{clip-path:url(#SVGID_40_);fill:#FFFFFF;}
	.st23{clip-path:url(#SVGID_42_);}
	.st24{clip-path:url(#SVGID_44_);fill-rule:evenodd;clip-rule:evenodd;fill:#FFFFFF;}
	.st25{clip-path:url(#SVGID_44_);fill:#FFFFFF;}
	.st26{clip-path:url(#SVGID_46_);}
	.st27{clip-path:url(#SVGID_48_);fill:#FFFFFF;}
	.st28{clip-path:url(#SVGID_50_);}
	.st29{clip-path:url(#SVGID_52_);fill:#FFFFFF;}
	.st30{clip-path:url(#SVGID_54_);}
	.st31{clip-path:url(#SVGID_56_);fill-rule:evenodd;clip-rule:evenodd;fill:#FFFFFF;}
	.st32{clip-path:url(#SVGID_56_);fill:#FFFFFF;}
	.st33{clip-path:url(#SVGID_58_);}
	.st34{clip-path:url(#SVGID_60_);fill:#FFFFFF;}
	.st35{clip-path:url(#SVGID_62_);}
	.st36{clip-path:url(#SVGID_64_);}
	.st37{opacity:0.3;clip-path:url(#SVGID_66_);}
	.st38{clip-path:url(#SVGID_68_);fill:#FFFFFF;}
	.st39{clip-path:url(#SVGID_68_);}
	.st40{clip-path:url(#SVGID_70_);fill:#FFFFFF;}
	.st41{opacity:0.7;clip-path:url(#SVGID_66_);}
	.st42{clip-path:url(#SVGID_72_);fill:#FFFFFF;}
	.st43{clip-path:url(#SVGID_72_);}
	.st44{clip-path:url(#SVGID_74_);fill:#FFFFFF;}
	.st45{clip-path:url(#SVGID_66_);fill:#FFFFFF;}
	.st46{opacity:0.5;clip-path:url(#SVGID_66_);}
	.st47{clip-path:url(#SVGID_76_);fill:#FFFFFF;}
	.st48{clip-path:url(#SVGID_76_);}
	.st49{clip-path:url(#SVGID_78_);fill:#FFFFFF;}
	.st50{clip-path:url(#SVGID_80_);fill:#FFFFFF;}
	.st51{clip-path:url(#SVGID_82_);}
	.st52{clip-path:url(#SVGID_84_);fill:#FFFFFF;}
	.st53{clip-path:url(#SVGID_86_);}
	.st54{clip-path:url(#SVGID_88_);fill:#FFFFFF;}
	.st55{clip-path:url(#SVGID_88_);fill-rule:evenodd;clip-rule:evenodd;fill:#FFFFFF;}
	.st56{clip-path:url(#SVGID_90_);}
	.st57{clip-path:url(#SVGID_92_);fill:#FFFFFF;}
	.st58{clip-path:url(#SVGID_94_);}
	.st59{clip-path:url(#SVGID_96_);fill:#FFFFFF;}
	.st60{clip-path:url(#SVGID_98_);}
	.st61{clip-path:url(#SVGID_100_);fill:#FFFFFF;}
	.st62{clip-path:url(#SVGID_100_);fill:#FDFDFD;}
	.st63{clip-path:url(#SVGID_102_);}
	.st64{clip-path:url(#SVGID_104_);fill:#FFFFFF;}
	.st65{clip-path:url(#SVGID_106_);fill:#FFFFFF;}
	.st66{clip-path:url(#SVGID_106_);}
	.st67{clip-path:url(#SVGID_108_);fill:#FFFFFF;}
	.st68{clip-path:url(#SVGID_110_);}
	.st69{clip-path:url(#SVGID_112_);fill:#FFFFFF;}
	.st70{clip-path:url(#SVGID_114_);}
	.st71{clip-path:url(#SVGID_116_);fill-rule:evenodd;clip-rule:evenodd;fill:#FFFFFF;}
	.st72{clip-path:url(#SVGID_118_);}
	.st73{clip-path:url(#SVGID_120_);}
	.st74{clip-path:url(#SVGID_122_);}
	.st75{clip-path:url(#SVGID_126_);fill:#F9F9F9;}
</style>
<rect x="-1666.3" y="-708.3" class="st0" width="4271.1" height="3545.3"/>
<g>
	<g>
		<defs>
			<rect id="SVGID_49_" x="48.3" y="199.6" width="403.4" height="100.9"/>
		</defs>
		<clipPath id="SVGID_2_">
			<use xlink:href="#SVGID_49_"  style="overflow:visible;"/>
		</clipPath>
		<g class="st1">
			<defs>
				<rect id="SVGID_51_" x="48.3" y="199.6" width="403.4" height="100.9"/>
			</defs>
			<clipPath id="SVGID_4_">
				<use xlink:href="#SVGID_51_"  style="overflow:visible;"/>
			</clipPath>
			<path class="st2" d="M93.5,235h-5.2v30.4h5.3c10.1,0,14.9-4.7,14.9-15.2C108.4,240.4,103.2,235,93.5,235"/>
			<path class="st2" d="M353.8,235.7c-8.1,0-14.3,6.3-14.3,14.1c0,8.5,6.7,15,14.2,15c7.8,0,14.1-6.2,14.1-15
				C367.7,242,361.4,235.7,353.8,235.7"/>
			<polygon class="st2" points="211.2,257.8 211.2,245.6 204.4,257.8 			"/>
			<path class="st2" d="M48.3,300.4h403.4V199.6H48.3V300.4z M150.6,276.8h-29.4v-21.3c-0.9,6-3.4,11-7.4,15
				c-5.8,5.6-10.9,6.6-18.4,6.6H75v-53.7h18.5c8.6,0,14.6,1.1,20.2,6.4c4.1,3.8,6.6,9,7.5,15.4v-22.1h29.4V235h-16.4v8.7h14.2v11.5
				h-14.2v10h16.4V276.8z M223.9,276.8h-12.7V269h-12.4c-1.6,1.7-3.2,3-4.6,4.1c-4.6,3.1-9.4,4.7-16.1,5c-4.6,0-13.3-1.8-20.4-9.3
				c-4.2-4.6-7-11.1-7.1-19c0.2-6.8,1.7-11.4,5.5-16.5c6.3-8,14.3-11.4,22.3-11.2c8.3,0.3,14.2,3.2,18.2,6.9
				c1.6,1.2,2.1,1.8,3.4,3.1l-7.1,12.5c-1.1-1.6-2-2.5-3.4-3.7c0.1,0-4.8-5.2-11.4-5.3c-7.8,0.1-13.7,6.4-13.9,14.3
				c-0.1,7.9,6.5,15.3,14.2,15c7.8-0.5,11.7-6.4,12.1-7.2l19.5-34.3h13.9V276.8z M259.8,235.9h-10.2v41.2h-13.2v-41.2h-10v-12.5
				h33.4V235.9z M302.1,277.1h-13.3v-20.5h-13.5v20.5h-13.2v-53.7h13.2v20.4h13.5v-20.4h13.3V277.1z M425,277.1h-11.6l-20.1-29.9
				v29.9H380v-18.3c-1.3,4.1-3.4,7.8-6.5,10.9c-5.2,5.4-12.4,8.4-19.9,8.4c-7.1,0-13.2-2.3-18.2-6.7v5.7h-28.5v-53.7H320v41.8h10.1
				c-2.8-4.5-4.3-9.7-4.3-15.6c0-7.4,2.9-14.2,8.2-19.4c5.3-5.2,12-7.9,19.7-7.9c7.2,0,14,2.8,19.3,7.9c3.3,3.3,5.7,7.1,7,11.2
				v-18.1h11.9l19.8,29.8v-29.8H425V277.1z"/>
		</g>
	</g>
</g>
</svg>
