<?xml version="1.0" encoding="utf-8"?>
<!-- Generator: Adobe Illustrator 19.2.1, SVG Export Plug-In . SVG Version: 6.00 Build 0)  -->
<svg version="1.1" id="Calque_1" xmlns="http://www.w3.org/2000/svg" xmlns:xlink="http://www.w3.org/1999/xlink" x="0px" y="0px"
	 viewBox="0 0 500 500" style="enable-background:new 0 0 500 500;" xml:space="preserve">
<style type="text/css">
	.st0{display:none;fill:#1D1D1B;stroke:#FFFFFF;stroke-miterlimit:10;}
	.st1{clip-path:url(#SVGID_2_);}
	.st2{clip-path:url(#SVGID_4_);fill:#FFFFFF;}
	.st3{clip-path:url(#SVGID_6_);}
	.st4{clip-path:url(#SVGID_8_);fill:#FFFFFF;}
	.st5{clip-path:url(#SVGID_10_);}
	.st6{clip-path:url(#SVGID_12_);fill:#FFFFFF;}
	.st7{clip-path:url(#SVGID_14_);}
	.st8{clip-path:url(#SVGID_16_);fill:#FFFFFF;}
	.st9{clip-path:url(#SVGID_16_);}
	.st10{opacity:0.3;clip-path:url(#SVGID_18_);}
	.st11{clip-path:url(#SVGID_20_);fill:#FFFFFF;}
	.st12{opacity:0.3;clip-path:url(#SVGID_22_);}
	.st13{clip-path:url(#SVGID_24_);fill:#FFFFFF;}
	.st14{clip-path:url(#SVGID_26_);fill:#FFFFFF;}
	.st15{clip-path:url(#SVGID_22_);fill:#FFFFFF;}
	.st16{clip-path:url(#SVGID_28_);fill:#FFFFFF;}
	.st17{clip-path:url(#SVGID_30_);}
	.st18{clip-path:url(#SVGID_32_);fill:#FFFFFF;}
	.st19{clip-path:url(#SVGID_34_);}
	.st20{clip-path:url(#SVGID_36_);fill:#FFFFFF;}
	.st21{clip-path:url(#SVGID_38_);}
	.st22{clip-path:url(#SVGID_40_);fill:#FFFFFF;}
	.st23{clip-path:url(#SVGID_42_);}
	.st24{clip-path:url(#SVGID_44_);fill-rule:evenodd;clip-rule:evenodd;fill:#FFFFFF;}
	.st25{clip-path:url(#SVGID_44_);fill:#FFFFFF;}
	.st26{clip-path:url(#SVGID_46_);}
	.st27{clip-path:url(#SVGID_48_);fill:#FFFFFF;}
	.st28{clip-path:url(#SVGID_50_);}
	.st29{clip-path:url(#SVGID_52_);fill:#FFFFFF;}
	.st30{clip-path:url(#SVGID_54_);}
	.st31{clip-path:url(#SVGID_56_);fill-rule:evenodd;clip-rule:evenodd;fill:#FFFFFF;}
	.st32{clip-path:url(#SVGID_56_);fill:#FFFFFF;}
	.st33{clip-path:url(#SVGID_58_);}
	.st34{clip-path:url(#SVGID_60_);fill:#FFFFFF;}
	.st35{clip-path:url(#SVGID_62_);}
	.st36{clip-path:url(#SVGID_64_);}
	.st37{opacity:0.3;clip-path:url(#SVGID_66_);}
	.st38{clip-path:url(#SVGID_68_);fill:#FFFFFF;}
	.st39{clip-path:url(#SVGID_68_);}
	.st40{clip-path:url(#SVGID_70_);fill:#FFFFFF;}
	.st41{opacity:0.7;clip-path:url(#SVGID_66_);}
	.st42{clip-path:url(#SVGID_72_);fill:#FFFFFF;}
	.st43{clip-path:url(#SVGID_72_);}
	.st44{clip-path:url(#SVGID_74_);fill:#FFFFFF;}
	.st45{clip-path:url(#SVGID_66_);fill:#FFFFFF;}
	.st46{opacity:0.5;clip-path:url(#SVGID_66_);}
	.st47{clip-path:url(#SVGID_76_);fill:#FFFFFF;}
	.st48{clip-path:url(#SVGID_76_);}
	.st49{clip-path:url(#SVGID_78_);fill:#FFFFFF;}
	.st50{clip-path:url(#SVGID_80_);fill:#FFFFFF;}
	.st51{clip-path:url(#SVGID_82_);}
	.st52{clip-path:url(#SVGID_84_);fill:#FFFFFF;}
	.st53{clip-path:url(#SVGID_86_);}
	.st54{clip-path:url(#SVGID_88_);fill:#FFFFFF;}
	.st55{clip-path:url(#SVGID_88_);fill-rule:evenodd;clip-rule:evenodd;fill:#FFFFFF;}
	.st56{clip-path:url(#SVGID_90_);}
	.st57{clip-path:url(#SVGID_92_);fill:#FFFFFF;}
	.st58{clip-path:url(#SVGID_94_);}
	.st59{clip-path:url(#SVGID_96_);fill:#FFFFFF;}
	.st60{clip-path:url(#SVGID_98_);}
	.st61{clip-path:url(#SVGID_100_);fill:#FFFFFF;}
	.st62{clip-path:url(#SVGID_100_);fill:#FDFDFD;}
	.st63{clip-path:url(#SVGID_102_);}
	.st64{clip-path:url(#SVGID_104_);fill:#FFFFFF;}
	.st65{clip-path:url(#SVGID_106_);fill:#FFFFFF;}
	.st66{clip-path:url(#SVGID_106_);}
	.st67{clip-path:url(#SVGID_108_);fill:#FFFFFF;}
	.st68{clip-path:url(#SVGID_110_);}
	.st69{clip-path:url(#SVGID_112_);fill:#FFFFFF;}
	.st70{clip-path:url(#SVGID_114_);}
	.st71{clip-path:url(#SVGID_116_);fill-rule:evenodd;clip-rule:evenodd;fill:#FFFFFF;}
	.st72{clip-path:url(#SVGID_118_);}
	.st73{clip-path:url(#SVGID_120_);}
	.st74{clip-path:url(#SVGID_122_);}
	.st75{clip-path:url(#SVGID_126_);fill:#F9F9F9;}
</style>
<rect x="-626.3" y="-1748.3" class="st0" width="4271.1" height="3545.3"/>
<g>
	<g>
		<defs>
			<rect id="SVGID_37_" x="47" y="230.4" width="406" height="39.2"/>
		</defs>
		<clipPath id="SVGID_2_">
			<use xlink:href="#SVGID_37_"  style="overflow:visible;"/>
		</clipPath>
		<g class="st1">
			<defs>
				<rect id="SVGID_39_" x="47" y="230.4" width="406" height="39.2"/>
			</defs>
			<clipPath id="SVGID_4_">
				<use xlink:href="#SVGID_39_"  style="overflow:visible;"/>
			</clipPath>
			<path class="st2" d="M319.4,264.7c0.7,1.6,0.2,2.6-1.6,2.8c-0.4,0-0.8,0.1-1.2,0.1c-0.5,0.1-1.1,0.1-1.6,0.1v1h13.4l-18.7-38.2
				h-1.3l-18.1,38.2h9.6v-1c-0.6,0-1.2-0.1-1.8-0.2c-0.4-0.1-0.7-0.1-1.1-0.2c-1.7-0.3-2.2-1.2-1.5-2.8c3.4-7.4,6.6-14.5,10-21.8
				c0.9-2,2.9-2,3.9,0c0.3,0.6,0.4,0.8,0.6,1.4c3,6.4,7.8,16.9,8.9,19.4C319.1,264,319.3,264.3,319.4,264.7"/>
			<path class="st2" d="M198.4,241.1c0-3.3-1.5-5.5-4.5-6.7c-1.6-0.6-3.7-1-6.4-1c-1.4,0-2.8,0-4.2,0.1c-0.3,0-0.5,0-0.8,0
				c-1.3,0.1-1.9,0.6-1.9,2v28.8c0,1.5,0.5,2.2,1.9,2.7c0.1,0,0.1,0,0.2,0.1c0.8,0.3,2.1,0.5,3.6,0.6v1h-17.6v-1
				c1.7-0.1,2.9-0.4,3.7-0.7c1.2-0.5,1.7-1.3,1.7-2.6v-27c0-2-0.3-3.3-1-3.9c-0.7-0.6-2.2-1-4.4-1.2v-1.1h20.5
				c3.7,0,6.7,0.4,9.2,1.3c4.6,1.6,6.9,4.5,6.9,8.7c0,2.8-1,5-3.1,6.5c-2.1,1.5-4.9,2.5-8.4,3L207,265c0.8,0.9,1.6,1.5,2.4,1.9
				c0,0,0,0,0.1,0c0.8,0.4,1.8,0.6,3.1,0.7v1h-10.2l-16.5-18.4l0-1.2c4.2-0.2,5.7-0.5,7.6-1.1C196.7,246.8,198.4,244.5,198.4,241.1"
				/>
			<path class="st2" d="M82.2,235.5c-3.9-3.4-8.7-5-14.4-5c-5.7,0-10.5,1.6-14.4,5c-4.3,3.7-6.4,8.5-6.4,14.6c0,5.8,2,10.5,6,14.2
				c3.9,3.6,8.8,5.4,14.8,5.4c5.5,0,10.3-1.6,14.2-4.9c4.4-3.6,6.6-8.6,6.6-14.7C88.5,243.9,86.4,239.1,82.2,235.5 M77.4,263.3
				c-2.7,2.8-5.9,4.2-9.6,4.2c-3.8,0-7-1.4-9.7-4.3c-2.6-2.8-3.9-7.2-3.9-13.2c0-6,1.3-10.4,3.9-13.2c2.6-2.8,5.9-4.3,9.7-4.3
				c3.7,0,6.9,1.4,9.6,4.1c2.7,2.7,4,7.2,4,13.4C81.4,256.1,80,260.6,77.4,263.3"/>
			<path class="st2" d="M446.7,235.5c-3.9-3.4-8.7-5-14.4-5c-5.7,0-10.5,1.6-14.4,5c-4.2,3.7-6.4,8.5-6.4,14.6c0,5.8,2,10.5,6,14.2
				c3.9,3.6,8.8,5.4,14.8,5.4c5.5,0,10.3-1.6,14.2-4.9c4.4-3.6,6.6-8.6,6.6-14.7C453,243.9,450.9,239.1,446.7,235.5 M441.9,263.3
				c-2.6,2.8-5.9,4.2-9.6,4.2c-3.8,0-7.1-1.4-9.7-4.3c-2.6-2.8-3.9-7.2-3.9-13.2c0-6,1.3-10.4,4-13.2c2.7-2.8,5.9-4.3,9.7-4.3
				c3.7,0,6.9,1.4,9.5,4.1c2.7,2.7,4,7.2,4,13.4C445.8,256.1,444.5,260.6,441.9,263.3"/>
		</g>
	</g>
</g>
</svg>
