<?xml version="1.0" encoding="utf-8"?>
<!-- Generator: Adobe Illustrator 19.2.1, SVG Export Plug-In . SVG Version: 6.00 Build 0)  -->
<svg version="1.1" id="Calque_1" xmlns="http://www.w3.org/2000/svg" xmlns:xlink="http://www.w3.org/1999/xlink" x="0px" y="0px"
	 viewBox="0 0 500 500" style="enable-background:new 0 0 500 500;" xml:space="preserve">
<style type="text/css">
	.st0{display:none;fill:#1D1D1B;stroke:#FFFFFF;stroke-miterlimit:10;}
	.st1{clip-path:url(#SVGID_2_);}
	.st2{clip-path:url(#SVGID_4_);fill:#FFFFFF;}
	.st3{clip-path:url(#SVGID_6_);}
	.st4{clip-path:url(#SVGID_8_);fill:#FFFFFF;}
	.st5{clip-path:url(#SVGID_10_);}
	.st6{clip-path:url(#SVGID_12_);fill:#FFFFFF;}
	.st7{clip-path:url(#SVGID_14_);}
	.st8{clip-path:url(#SVGID_16_);fill:#FFFFFF;}
	.st9{clip-path:url(#SVGID_16_);}
	.st10{opacity:0.3;clip-path:url(#SVGID_18_);}
	.st11{clip-path:url(#SVGID_20_);fill:#FFFFFF;}
	.st12{opacity:0.3;clip-path:url(#SVGID_22_);}
	.st13{clip-path:url(#SVGID_24_);fill:#FFFFFF;}
	.st14{clip-path:url(#SVGID_26_);fill:#FFFFFF;}
	.st15{clip-path:url(#SVGID_22_);fill:#FFFFFF;}
	.st16{clip-path:url(#SVGID_28_);fill:#FFFFFF;}
	.st17{clip-path:url(#SVGID_30_);}
	.st18{clip-path:url(#SVGID_32_);fill:#FFFFFF;}
	.st19{clip-path:url(#SVGID_34_);}
	.st20{clip-path:url(#SVGID_36_);fill:#FFFFFF;}
	.st21{clip-path:url(#SVGID_38_);}
	.st22{clip-path:url(#SVGID_40_);fill:#FFFFFF;}
	.st23{clip-path:url(#SVGID_42_);}
	.st24{clip-path:url(#SVGID_44_);fill-rule:evenodd;clip-rule:evenodd;fill:#FFFFFF;}
	.st25{clip-path:url(#SVGID_44_);fill:#FFFFFF;}
	.st26{clip-path:url(#SVGID_46_);}
	.st27{clip-path:url(#SVGID_48_);fill:#FFFFFF;}
	.st28{clip-path:url(#SVGID_50_);}
	.st29{clip-path:url(#SVGID_52_);fill:#FFFFFF;}
	.st30{clip-path:url(#SVGID_54_);}
	.st31{clip-path:url(#SVGID_56_);fill-rule:evenodd;clip-rule:evenodd;fill:#FFFFFF;}
	.st32{clip-path:url(#SVGID_56_);fill:#FFFFFF;}
	.st33{clip-path:url(#SVGID_58_);}
	.st34{clip-path:url(#SVGID_60_);fill:#FFFFFF;}
	.st35{clip-path:url(#SVGID_62_);}
	.st36{clip-path:url(#SVGID_64_);}
	.st37{opacity:0.3;clip-path:url(#SVGID_66_);}
	.st38{clip-path:url(#SVGID_68_);fill:#FFFFFF;}
	.st39{clip-path:url(#SVGID_68_);}
	.st40{clip-path:url(#SVGID_70_);fill:#FFFFFF;}
	.st41{opacity:0.7;clip-path:url(#SVGID_66_);}
	.st42{clip-path:url(#SVGID_72_);fill:#FFFFFF;}
	.st43{clip-path:url(#SVGID_72_);}
	.st44{clip-path:url(#SVGID_74_);fill:#FFFFFF;}
	.st45{clip-path:url(#SVGID_66_);fill:#FFFFFF;}
	.st46{opacity:0.5;clip-path:url(#SVGID_66_);}
	.st47{clip-path:url(#SVGID_76_);fill:#FFFFFF;}
	.st48{clip-path:url(#SVGID_76_);}
	.st49{clip-path:url(#SVGID_78_);fill:#FFFFFF;}
	.st50{clip-path:url(#SVGID_80_);fill:#FFFFFF;}
	.st51{clip-path:url(#SVGID_82_);}
	.st52{clip-path:url(#SVGID_84_);fill:#FFFFFF;}
	.st53{clip-path:url(#SVGID_86_);}
	.st54{clip-path:url(#SVGID_88_);fill:#FFFFFF;}
	.st55{clip-path:url(#SVGID_88_);fill-rule:evenodd;clip-rule:evenodd;fill:#FFFFFF;}
	.st56{clip-path:url(#SVGID_90_);}
	.st57{clip-path:url(#SVGID_92_);fill:#FFFFFF;}
	.st58{clip-path:url(#SVGID_94_);}
	.st59{clip-path:url(#SVGID_96_);fill:#FFFFFF;}
	.st60{clip-path:url(#SVGID_98_);}
	.st61{clip-path:url(#SVGID_100_);fill:#FFFFFF;}
	.st62{clip-path:url(#SVGID_100_);fill:#FDFDFD;}
	.st63{clip-path:url(#SVGID_102_);}
	.st64{clip-path:url(#SVGID_104_);fill:#FFFFFF;}
	.st65{clip-path:url(#SVGID_106_);fill:#FFFFFF;}
	.st66{clip-path:url(#SVGID_106_);}
	.st67{clip-path:url(#SVGID_108_);fill:#FFFFFF;}
	.st68{clip-path:url(#SVGID_110_);}
	.st69{clip-path:url(#SVGID_112_);fill:#FFFFFF;}
	.st70{clip-path:url(#SVGID_114_);}
	.st71{clip-path:url(#SVGID_116_);fill-rule:evenodd;clip-rule:evenodd;fill:#FFFFFF;}
	.st72{clip-path:url(#SVGID_118_);}
	.st73{clip-path:url(#SVGID_120_);}
	.st74{clip-path:url(#SVGID_122_);}
	.st75{clip-path:url(#SVGID_126_);fill:#F9F9F9;}
</style>
<rect x="-1666.3" y="-2268.3" class="st0" width="4271.1" height="3545.3"/>
<g>
	<g>
		<defs>
			<rect id="SVGID_5_" x="75" y="75" width="350" height="350"/>
		</defs>
		<clipPath id="SVGID_2_">
			<use xlink:href="#SVGID_5_"  style="overflow:visible;"/>
		</clipPath>
		<g class="st1">
			<defs>
				<rect id="SVGID_7_" x="75" y="75" width="350" height="350"/>
			</defs>
			<clipPath id="SVGID_4_">
				<use xlink:href="#SVGID_7_"  style="overflow:visible;"/>
			</clipPath>
			<path class="st2" d="M276.7,141.8c-3.7-3.1-7.2-6.5-11.1-9.2c-4.6-3.2-9.9-4.4-15.6-2.8c-11.1,3.2-15.1,16.3-7,24.4
				c5.3,5.3,11.9,9.4,18,13.9c7,5.2,14.2,10.2,18.4,18.3c6.2,12,3.1,25.9-8,33.6c-13,9-26.8,9.2-40.7,2.9
				c-21.7-9.9-33.4-27.2-33.6-51.2c-0.2-25.5,17.4-47.1,42.4-53.1c25.4-6.1,52.1,5.8,62.5,28.9c9.1,20.2,8.5,40.2-5.4,58.4
				c-2.9,3.8-6.8,6.8-10.4,10c-0.7,0.6-1.9,0.8-2.8,1.2c-0.1-0.2-0.3-0.5-0.4-0.7c1.6-1.4,3.3-2.9,4.9-4.3c21.1-19,23.8-52.6,5.3-74
				c-21.4-24.8-57-25.8-79.8-1.4c-9.1,9.8-14.2,21.5-14.1,34.9c0.2,29.1,20.8,50,46.3,53.5c12.1,1.6,26-5.7,27.6-20.4
				c0.5-4.4-0.4-8.4-3.1-11.9c-4.2-5.6-9.8-9.6-15.7-13.3c-6.5-4.2-13.1-8.2-18.1-14.3c-7.6-9.3-8.2-21.6-1.1-30.4
				c4.5-5.5,10.2-9.1,17.5-8.9c5.1,0.1,10.2,1.5,15.2,1.3c5.9-0.2,6.4,3.5,7,7.7C275.5,137.2,276.2,139.5,276.7,141.8"/>
			<path class="st2" d="M219.8,380.3h-19.4c0.6-0.7,0.8-1.2,1.2-1.3c4-1.2,4.8-4.2,4.7-7.9c-0.1-11.8,0-23.7-0.1-35.5
				c0-6,0-6-5.6-8.2c-0.4-0.1-0.7-0.4-1.3-0.8c0.8-0.4,1.3-0.8,1.7-0.8c7.6,0,15.2-0.2,22.8,0.1c8.5,0.3,14,5.9,13.5,13.6
				c-0.2,4.7-2.6,8.4-6.4,11.1c-1,0.7-2,1.3-3.3,2.2c3.4,5.3,6.8,10.4,10.2,15.5c1.4,2.1,2.6,4.5,4.4,6.3c2.1,2.1,4.7,3.7,6.9,5.4
				c-4.1,1.9-9.3,0.7-12.7-3.9c-3.3-4.3-6.1-9-9.1-13.6c-0.6-0.9-1.3-1.7-1.6-2.6c-1.9-5.1-5.9-6-10.7-5.5c-2,0.2-2.9,0.7-2.9,2.9
				c0.1,4.8,0,9.7,0,14.5c0,4.6,0.6,5.4,5.1,6.8c0.9,0.3,1.9,0.6,2.8,0.9C219.9,379.8,219.9,380.1,219.8,380.3 M212.1,340.2
				c0,1.4,0,2.9,0,4.3c0,7.8,0,7.8,7.8,7.7c11.6-0.1,13.4-9.3,11-16.2c-1.9-5.7-11.3-10.1-16.9-7.8c-0.9,0.4-1.7,2-1.8,3.1
				C212,334.2,212.1,337.2,212.1,340.2"/>
			<path class="st2" d="M292,350.1c0.8,0.4,1.3,0.7,1.9,0.9c7.2,2.7,10.3,6.7,10.2,13.3c0,6.6-4.5,12.9-10.8,15
				c-2.7,0.8-5.6,1.2-8.4,1.2c-6.6,0.2-13.1,0-19.7,0c-0.8,0-1.6-0.1-2.3-0.2c-0.2-0.3-0.5-0.6-0.7-0.9c0.5-0.1,1-0.3,1.5-0.4
				c4.2-0.8,5-4,5-7.4c0.1-12.3,0-24.7,0-37c0-3.4-1.3-5.7-4.6-6.7c-0.8-0.2-1.5-0.8-2.3-1.2c0.4-0.5,0.5-0.7,0.7-0.7
				c8.3,0.1,16.6-0.2,24.9,0.3c6,0.4,10.4,3.6,11.8,9.9c1.2,5.8-1.3,9.9-6.1,13C292.5,349.3,292.4,349.6,292,350.1 M274.3,364.3
				L274.3,364.3c0,3.3,0,6.6,0,9.8c0,2.3,1,3.8,3.4,4c3.5,0.3,7,0.8,10.4,0.4c5.5-0.5,9.3-4.4,10.1-9.3c1.1-6.9-1.1-12.2-6-14.9
				c-4.9-2.6-10.2-2.8-15.6-2.3c-0.8,0.1-2.1,1.6-2.2,2.6C274.1,358,274.3,361.2,274.3,364.3 M280.6,349.7c1.5,0,3.1,0.1,4.6,0
				c0.9-0.1,1.8-0.3,2.7-0.6c4.1-1.1,5.8-3.4,6-7.4c0.5-9.7-8.7-14.6-17-13.7c-2,0.2-2.7,1.6-2.7,3.5c0,4,0,8,0,12
				C274.3,350.3,273.4,349.8,280.6,349.7"/>
			<path class="st2" d="M355.8,369.9c0.5,5-4.2,10.6-8.7,10.6c-9.5,0-18.9,0-28.4,0c-0.6,0-1.1-0.1-1.8-0.1c0.1-0.4,0.1-0.7,0.2-0.8
				c4.6-1.5,5.2-5.1,5.1-9.3c-0.1-10.8,0-21.6,0-32.4c0-7.9,0-7.9-6.8-11.6c1-0.2,1.5-0.5,2.1-0.5c10.6,0,21.2,0,31.7-0.1
				c2.2,0,3.1,0.8,2.8,2.9c-0.3,2.5-0.6,4.9-0.9,7.4c-0.3,0-0.7,0-1,0.1c-0.2-0.8-0.6-1.5-0.6-2.3c0-2.6-1.4-4.2-3.8-4.4
				c-5-0.4-10-0.6-15-0.5c-0.9,0-2.5,1.7-2.6,2.7c-0.3,5.8-0.3,11.7-0.1,17.6c0,0.7,1.4,1.9,2.3,2c3.2,0.2,6.4,0.1,9.6,0.1
				c3.2,0,5.6-1.2,6.5-4.5c0.1-0.5,0.6-1,1.4-2.1v16.1c-0.2,0.1-0.4,0.2-0.7,0.2c-0.3-0.7-0.7-1.4-0.8-2.1c-0.7-3.1-2.5-4.5-5.7-4.3
				c-3.3,0.1-6.6,0-9.9-0.1c-1.9,0-2.9,0.7-2.8,2.7c0,5.6,0,11.1,0.1,16.7c0,2.5,1.2,4,3.9,4.1C340.7,378.2,349,377.2,355.8,369.9"
				/>
			<path class="st2" d="M82.3,310.8h337.8c0,0.2,0,0.5,0,0.7H82.3C82.3,311.3,82.3,311,82.3,310.8"/>
			<path class="st2" d="M188.9,380.3h-18.1c0.7-0.7,0.9-1.1,1.3-1.3c3.9-2,4.1-2.4,2.7-6.3c-1.3-3.7-2.9-7.2-4.2-10.9
				c-0.8-2-2.2-2.9-4.2-2.9c-5.4,0-10.9-0.2-16.3,0.1c-1.4,0.1-3.3,1.3-4,2.5c-1.8,3.1-3.2,6.4-4.6,9.7c-1.4,3.3-1.6,6.7,3.5,7.6
				c0.4,0.1,0.8,0.4,1.2,1.2h-15.1c8.4-4.5,9.2-13.5,12.9-20.6c5.4-10.5,10.1-21.3,15.1-32c0.5-1,1.1-1.9,1.8-3.3
				c0.7,1,1.2,1.6,1.5,2.3c6,14.8,11.9,29.7,17.8,44.6c1.7,4.4,3.5,8.5,9.6,8.3C189.3,379.7,189.1,380,188.9,380.3 M159.3,334.7
				c-0.3,0-0.6,0-0.9-0.1c-3.2,6.9-6.4,13.8-9.7,21.1h19.2C164.9,348.3,162.1,341.5,159.3,334.7"/>
			<path class="st2" d="M82.6,364.7c0.3,0.9,0.7,1.8,1,2.7c3.7,10.6,16.4,15.1,25.8,9.1c3.9-2.5,5.8-6.1,5.4-10.7
				c-0.3-4.1-2.9-6.4-6.5-7.8c-3.4-1.2-6.8-2.2-10.2-3.4c-2.3-0.8-4.7-1.5-6.9-2.6c-5.7-2.7-8.3-7.3-7.9-13.7
				c0.4-5.9,3.5-9.8,8.8-11.8c6.2-2.4,12.5-1.9,18.7,0.1c1.4,0.5,3,0.6,4.9,1c0.4,3.5,0.9,7.5,1.3,11.4c-0.3,0.1-0.6,0.2-0.9,0.3
				c-0.5-0.9-1.1-1.7-1.5-2.6c-3.7-8.7-13.5-12.4-22.1-8.3c-3.7,1.8-5.7,4.7-5.7,8.8c0,4,2.3,6.6,5.8,7.9c5.2,2,10.7,3.5,16,5.6
				c5,1.9,8.8,5.3,9.7,11c1.3,8.4-2.7,14.9-10.8,17.7c-6.6,2.3-13.3,2.2-19.9,0.1c-3-1-4.6-2.7-4.8-5.9c-0.1-1.8-0.8-3.6-1-5.4
				c-0.2-1.1,0-2.3,0-3.4C81.9,364.8,82.2,364.7,82.6,364.7"/>
			<path class="st2" d="M418.5,367c-0.5,9.5-0.7,9.7-8.7,12.1c-8.6,2.6-17.4,3.3-26,0.1c-9.7-3.5-16.1-12.5-16.5-22.8
				c-0.5-13.9,5.5-24.8,17.1-29.3c9.8-3.8,19.5-2.8,28.7,2.4c1.4,0.8,3,1,5.4,1.7c0.2,3.1,0.4,7.1,0.6,11.1
				c-0.2,0.1-0.5,0.2-0.7,0.4c-0.6-0.8-1.2-1.6-1.7-2.5c-4-6.8-9-12-17.5-13.1c-13.5-1.7-24.3,6.5-25.5,20.1
				c-0.8,8.5,0.5,16.5,5.8,23.6c10.1,13.6,31.2,8.9,37.8-2.4C417.8,367.9,418.2,367.5,418.5,367"/>
			<path class="st2" d="M347.3,296.3c0.5-1.8,1.4-3.5,1.5-5.2c0.2-6.3,0.1-12.5,0.1-18.8c0-3.7,0-3.8-3.4-5.8c5,0,9.6-0.2,14.1,0.1
				c2.9,0.2,5.4,1.7,6.1,4.8c0.8,3.1,0,5.9-2.5,8.1c-0.7,0.6-1.5,1.1-2.6,1.9c3.8,5,6.2,10.9,11,14.8c-3,0.8-4.6,0.2-6.8-2.8
				c-1.8-2.5-3.6-5-5-7.8c-1.7-3.3-4.1-4-7.7-3c0,3.5-0.3,7.1,0.1,10.6c0.1,1.2,1.9,2.2,2.9,3.2H347.3z M352,273.7
				c0,2-0.1,3.5,0,5.1c0.1,0.7,0.5,1.6,1,1.9c2.9,1.6,8.1-0.4,9.4-3.4c1.9-4.4-0.6-8.8-5.6-9.8c-3.9-0.8-4.7-0.1-4.7,3.9
				C352.1,272.3,352,273.3,352,273.7"/>
			<path class="st2" d="M205.6,266.5c4.5,0,8.9-0.2,13.4,0.1c2.8,0.2,5.2,1.6,6,4.5c0.9,3.1,0.3,5.9-2.1,8.2
				c-0.8,0.8-1.7,1.4-2.8,2.3c4.1,4.9,6,11.3,11.7,14.9c-3.5,0.9-5.9-0.6-7.8-3.4c-1.6-2.4-3.3-4.7-4.5-7.3c-1.7-3.5-4.3-3.9-7.9-3
				c0,3.5-0.3,7,0.1,10.4c0.2,1.3,1.9,2.4,2.9,3.5h-7.9c0.5-1.9,1.5-4,1.6-6c0.2-6,0.1-11.9,0.1-17.9
				C208.4,270.2,208.5,267.8,205.6,266.5 M211.5,274.3c0,1.5-0.1,3.1,0,4.6c0,0.6,0.4,1.4,0.8,1.7c3.5,2.1,9.3-0.6,10-4.6
				c0.8-4.2-1.6-7.6-6-8.5c-4.1-0.8-4.9-0.2-4.9,4C211.5,272.5,211.5,273.4,211.5,274.3"/>
			<path class="st2" d="M159.5,279.8c3.6,1.4,6.4,3.2,6.4,7.5c0,4.9-3.5,8.8-8.4,9.2c-0.6,0-1.2,0-1.8,0c-3.9,0-7.8,0-10.9,0
				c0.5-2.2,1.5-4.3,1.5-6.4c0.2-5.7,0-11.5,0.1-17.2c0.1-2.8-0.3-5-3.2-6.4c4.6,0,9.3-0.2,13.9,0.1c2.9,0.2,5,2.2,5.9,5.1
				c0.8,2.7-0.2,4.8-2.2,6.6C160.4,278.8,160.1,279.2,159.5,279.8 M149.2,287.7C149.3,287.7,149.3,287.7,149.2,287.7
				c0,1.5-0.1,3.1,0.1,4.6c0.1,0.9,0.5,2.1,1.2,2.7c3.2,2.6,10.7,0.3,12-3.6c2-5.8-1.4-9.9-8.6-10.6c-4.2-0.4-4.7,0.1-4.7,4.1
				C149.2,285.9,149.2,286.8,149.2,287.7 M149.2,273.9c0,6.2,0.3,6.4,6.4,5.6c3.6-0.5,5.1-2.1,4.9-5.3c-0.3-3.9-4.1-7-8.5-6.8
				c-3.9,0.2-2.5,3.2-2.8,5.3C149.2,273.1,149.2,273.5,149.2,273.9"/>
			<path class="st2" d="M326.4,281.6c-0.2,9.6-6.7,15.6-16.6,15.4c-8.6-0.1-14.8-6.8-14.6-15.7c0.2-8.9,7.3-15.6,16.2-15.4
				C320.3,266.1,326.6,272.7,326.4,281.6 M324.2,282.9c-0.5-4.6-2-8.4-5-11.7c-5.5-6.1-15.4-5.3-19.2,1.4c-3.6,6.4-2,15.4,3.5,20.2
				c5.7,5,14.2,4.2,17.9-2C322.8,288.4,323.3,285.5,324.2,282.9"/>
			<path class="st2" d="M200.7,281.6c-0.2,9.6-6.8,15.6-16.6,15.4c-8.7-0.2-14.7-6.6-14.5-15.7c0.2-9,7.1-15.7,16.1-15.4
				C194.6,266.1,200.9,272.7,200.7,281.6 M197.9,282.3c-0.1-5.1-2.1-9.9-6.9-13.2c-6.6-4.5-14.9-1.9-17.7,5.6
				c-1.8,4.7-1.1,9.3,1.1,13.7c2.9,5.6,8.8,8.7,14.2,7.3C194.4,294.3,197.9,289.5,197.9,282.3"/>
			<path class="st2" d="M397.8,291.2c-1.2,4.3-2.5,5.4-6.2,5.4c-4.9,0-9.9,0-14.1,0c0.5-1.9,1.4-3.8,1.4-5.8
				c0.2-6.3,0-12.5,0.1-18.8c0-2.3-0.2-4.4-2.9-5.3h19v4.7c-1.4-4.4-5.1-3.2-8.2-3.4c-4.9-0.2-4.9-0.1-4.9,4.9c0,0.6-0.1,1.3,0,1.8
				c0.4,2,0.2,4.9,1.4,5.7c2.6,1.7,7.3,0,9.5-2.7v7.8c-1.6-3-7.3-4.8-10-3.2c-0.5,0.3-0.8,1.4-0.9,2.1c-0.1,2.6,0,5.1-0.1,7.7
				c0,2.3,1.1,3.3,3.4,3.4C389.5,295.6,393.9,294.2,397.8,291.2"/>
			<path class="st2" d="M265.4,296.5h-6.8c0.1-1.7,0.6-3.5,0.1-4.8c-3.2-8.1-1.1-6.8-9.5-7c-5.7-0.1-8.3,2-9.1,7.7
				c-0.2,1.2,1,2.6,1.5,3.9H236c1.3-2.5,2.8-5,4.1-7.7c3.4-7,6.6-14.1,9.9-21.2c0.2-0.5,0.6-1,1.2-1.9c2.5,6.1,4.8,11.8,7.1,17.4
				c1.2,2.9,2.1,5.8,3.4,8.6C262.7,293.4,264.3,295,265.4,296.5 M250.6,271.6c-0.3,0-0.6-0.1-0.9-0.1c-1.7,3.7-3.4,7.4-5.2,11.4
				h10.8C253.5,278.9,252,275.2,250.6,271.6"/>
			<path class="st2" d="M123,265.3c3.7,9.3,7,17.7,10.6,26.1c0.8,1.9,2.4,3.5,3.4,5h-6.6c0-1.7,0.5-3.4,0-4.7
				c-3.2-8.6-1.4-6.9-9.7-7c-5.5-0.1-8.3,2.3-8.9,7.9c-0.1,1.2,1,2.5,1.5,3.7h-5.8c0.9-1.5,2.2-3,3-4.8c3.6-7.6,7.2-15.2,10.7-22.8
				C121.7,267.8,122.2,267,123,265.3 M121.9,270.5c-2.1,4.6-3.8,8.3-5.7,12.4H127C125.3,278.8,123.8,275.1,121.9,270.5"/>
			<path class="st2" d="M401.8,288c1.4,4.4,3.9,7.5,8.1,7.7c2.6,0.1,5.6-0.6,7.7-2c3.7-2.4,2.8-7.7-1.2-9.5
				c-2.6-1.1-5.5-1.8-8.2-2.8c-4.5-1.6-6.1-4-5.8-8.3c0.2-3.8,2.4-6.4,6.9-6.9c3.5-0.4,7,0.4,10.7,0.6c0.3,2.3,0.6,4.2,0.7,5.4
				c-2.3-1.7-4.7-3.9-7.4-5c-1.7-0.7-4.4-0.2-6.1,0.8c-1.4,0.8-2.8,2.9-2.9,4.6c-0.1,1.4,1.4,3.5,2.8,4.3c2.3,1.3,5,1.8,7.5,2.7
				c5.4,1.8,7.2,4.3,6.9,9.1c-0.2,4.2-2.9,7-8,7.9c-2.1,0.4-4.3,0.5-6.4,0.1C402.5,296,401,293.6,401.8,288"/>
			<path class="st2" d="M265.1,271.7c-0.2-5.2-0.2-5.2,4.8-5.2c7.2,0,14.3,0,21.8,0c0.1,1.6,0.2,3,0.2,4.6
				c-3.4-4.6-7.7-2.3-11.9-2.6c0,8.4-0.1,16.3,0.1,24.3c0,1.2,1.5,2.3,2.2,3.4h-9c4.4-1.5,3.7-4.6,3.7-7.5c0-5.9,0-11.7,0-17.6
				c0-2.2-0.7-3.3-3.1-3c-1,0.1-2.1,0.1-3.1,0C268.2,268.1,265.9,268.6,265.1,271.7"/>
			<path class="st2" d="M103.9,290.7c-1.1,4.6-2.5,5.8-6.3,5.8c-4.9,0-9.8,0-14,0c0.5-2.1,1.4-4.2,1.5-6.3c0.2-5.9,0-11.9,0.1-17.9
				c0.1-2.5-0.1-4.7-3-5.8h7.7c-0.6,1.7-1.6,3.4-1.7,5.2c-0.2,6.5-0.1,12.9-0.1,19.4c0,3.6,0.7,4.4,4.4,4.2
				C96.7,295.2,100.6,294.4,103.9,290.7"/>
			<path class="st2" d="M340.3,296.4c-0.4,0.1-0.8,0.2-1.2,0.2c-2.5,0-5.1,0-7.8-0.2c2.8-1.4,3.2-3.8,3.1-6.4
				c-0.1-5.8-0.1-11.7,0-17.5c0-2.4,0-4.8-2.8-5.9h7.1c-0.5,1.8-1.3,3.8-1.3,5.8c-0.2,6.4,0,12.7-0.1,19.1
				C337.4,293.7,337.8,295.4,340.3,296.4"/>
		</g>
	</g>
</g>
</svg>
