<?xml version="1.0" encoding="utf-8"?>
<!-- Generator: Adobe Illustrator 19.2.1, SVG Export Plug-In . SVG Version: 6.00 Build 0)  -->
<svg version="1.1" id="Calque_1" xmlns="http://www.w3.org/2000/svg" xmlns:xlink="http://www.w3.org/1999/xlink" x="0px" y="0px"
	 viewBox="0 0 500 500" style="enable-background:new 0 0 500 500;" xml:space="preserve">
<style type="text/css">
	.st0{display:none;fill:#1D1D1B;stroke:#FFFFFF;stroke-miterlimit:10;}
	.st1{clip-path:url(#SVGID_2_);}
	.st2{clip-path:url(#SVGID_4_);fill:#FFFFFF;}
	.st3{clip-path:url(#SVGID_6_);}
	.st4{clip-path:url(#SVGID_8_);fill:#FFFFFF;}
	.st5{clip-path:url(#SVGID_10_);}
	.st6{clip-path:url(#SVGID_12_);fill:#FFFFFF;}
	.st7{clip-path:url(#SVGID_14_);}
	.st8{clip-path:url(#SVGID_16_);fill:#FFFFFF;}
	.st9{clip-path:url(#SVGID_16_);}
	.st10{opacity:0.3;clip-path:url(#SVGID_18_);}
	.st11{clip-path:url(#SVGID_20_);fill:#FFFFFF;}
	.st12{opacity:0.3;clip-path:url(#SVGID_22_);}
	.st13{clip-path:url(#SVGID_24_);fill:#FFFFFF;}
	.st14{clip-path:url(#SVGID_26_);fill:#FFFFFF;}
	.st15{clip-path:url(#SVGID_22_);fill:#FFFFFF;}
	.st16{clip-path:url(#SVGID_28_);fill:#FFFFFF;}
	.st17{clip-path:url(#SVGID_30_);}
	.st18{clip-path:url(#SVGID_32_);fill:#FFFFFF;}
	.st19{clip-path:url(#SVGID_34_);}
	.st20{clip-path:url(#SVGID_36_);fill:#FFFFFF;}
	.st21{clip-path:url(#SVGID_38_);}
	.st22{clip-path:url(#SVGID_40_);fill:#FFFFFF;}
	.st23{clip-path:url(#SVGID_42_);}
	.st24{clip-path:url(#SVGID_44_);fill-rule:evenodd;clip-rule:evenodd;fill:#FFFFFF;}
	.st25{clip-path:url(#SVGID_44_);fill:#FFFFFF;}
	.st26{clip-path:url(#SVGID_46_);}
	.st27{clip-path:url(#SVGID_48_);fill:#FFFFFF;}
	.st28{clip-path:url(#SVGID_50_);}
	.st29{clip-path:url(#SVGID_52_);fill:#FFFFFF;}
	.st30{clip-path:url(#SVGID_54_);}
	.st31{clip-path:url(#SVGID_56_);fill-rule:evenodd;clip-rule:evenodd;fill:#FFFFFF;}
	.st32{clip-path:url(#SVGID_56_);fill:#FFFFFF;}
	.st33{clip-path:url(#SVGID_58_);}
	.st34{clip-path:url(#SVGID_60_);fill:#FFFFFF;}
	.st35{clip-path:url(#SVGID_62_);}
	.st36{clip-path:url(#SVGID_64_);}
	.st37{opacity:0.3;clip-path:url(#SVGID_66_);}
	.st38{clip-path:url(#SVGID_68_);fill:#FFFFFF;}
	.st39{clip-path:url(#SVGID_68_);}
	.st40{clip-path:url(#SVGID_70_);fill:#FFFFFF;}
	.st41{opacity:0.7;clip-path:url(#SVGID_66_);}
	.st42{clip-path:url(#SVGID_72_);fill:#FFFFFF;}
	.st43{clip-path:url(#SVGID_72_);}
	.st44{clip-path:url(#SVGID_74_);fill:#FFFFFF;}
	.st45{clip-path:url(#SVGID_66_);fill:#FFFFFF;}
	.st46{opacity:0.5;clip-path:url(#SVGID_66_);}
	.st47{clip-path:url(#SVGID_76_);fill:#FFFFFF;}
	.st48{clip-path:url(#SVGID_76_);}
	.st49{clip-path:url(#SVGID_78_);fill:#FFFFFF;}
	.st50{clip-path:url(#SVGID_80_);fill:#FFFFFF;}
	.st51{clip-path:url(#SVGID_82_);}
	.st52{clip-path:url(#SVGID_84_);fill:#FFFFFF;}
	.st53{clip-path:url(#SVGID_86_);}
	.st54{clip-path:url(#SVGID_88_);fill:#FFFFFF;}
	.st55{clip-path:url(#SVGID_88_);fill-rule:evenodd;clip-rule:evenodd;fill:#FFFFFF;}
	.st56{clip-path:url(#SVGID_90_);}
	.st57{clip-path:url(#SVGID_92_);fill:#FFFFFF;}
	.st58{clip-path:url(#SVGID_94_);}
	.st59{clip-path:url(#SVGID_96_);fill:#FFFFFF;}
	.st60{clip-path:url(#SVGID_98_);}
	.st61{clip-path:url(#SVGID_100_);fill:#FFFFFF;}
	.st62{clip-path:url(#SVGID_100_);fill:#FDFDFD;}
	.st63{clip-path:url(#SVGID_102_);}
	.st64{clip-path:url(#SVGID_104_);fill:#FFFFFF;}
	.st65{clip-path:url(#SVGID_106_);fill:#FFFFFF;}
	.st66{clip-path:url(#SVGID_106_);}
	.st67{clip-path:url(#SVGID_108_);fill:#FFFFFF;}
	.st68{clip-path:url(#SVGID_110_);}
	.st69{clip-path:url(#SVGID_112_);fill:#FFFFFF;}
	.st70{clip-path:url(#SVGID_114_);}
	.st71{clip-path:url(#SVGID_116_);fill-rule:evenodd;clip-rule:evenodd;fill:#FFFFFF;}
	.st72{clip-path:url(#SVGID_118_);}
	.st73{clip-path:url(#SVGID_120_);}
	.st74{clip-path:url(#SVGID_122_);}
	.st75{clip-path:url(#SVGID_126_);fill:#F9F9F9;}
</style>
<rect x="-2186.3" y="-708.3" class="st0" width="4271.1" height="3545.3"/>
<g>
	<g>
		<defs>
			<rect id="SVGID_93_" x="32.6" y="201.6" width="434.7" height="96.8"/>
		</defs>
		<clipPath id="SVGID_2_">
			<use xlink:href="#SVGID_93_"  style="overflow:visible;"/>
		</clipPath>
		<g class="st1">
			<defs>
				<rect id="SVGID_95_" x="25.6" y="193.3" width="448.1" height="113.7"/>
			</defs>
			<clipPath id="SVGID_4_">
				<use xlink:href="#SVGID_95_"  style="overflow:visible;"/>
			</clipPath>
			<path class="st2" d="M32.7,250c0-9.9,0-19.7,0-29.6c0-4.7,1.7-8.7,4.8-12.2c2.9-3.3,6.6-5.4,11-6.2c1-0.2,2-0.3,3-0.3
				c19.7,0,39.3,0,59,0c4.7,0,8.7,1.7,12.2,4.8c3.5,3.1,5.6,7,6.4,11.6c0.1,0.7,0.2,1.4,0.2,2.1c0,19.9,0,39.7,0,59.6
				c0,4.3-1.6,8.1-4.3,11.4c-3.1,3.8-7.1,6.1-12,6.9c-0.9,0.2-1.9,0.2-2.8,0.2c-19.5,0-38.9,0-58.4,0c-4.9,0-9.1-1.7-12.8-5
				c-3.4-3.1-5.4-7-6.2-11.5c-0.1-0.7-0.1-1.4-0.1-2.1C32.7,269.8,32.7,259.9,32.7,250 M119.2,278.4c0.5-0.2,0.9-0.3,1.2-0.5
				c-0.2-0.4-0.3-0.9-0.7-1.1c-1.2-0.9-2.3-1.9-3.6-2.6c-2.8-1.6-5.7-3-8.5-4.6c-5.3-2.9-10.6-6-15.4-9.8c-2.7-2.1-5.1-4.3-7-7.2
				c-1.9-2.9-2.4-6.1-1.2-9.4c0.6-1.9,1.6-3.6,2.7-5.2c2-2.9,4-5.8,6-8.7c0.8-1.2,1.5-2.4,2.1-3.6c0.4-0.7,0.5-1.4,0.3-2.2
				c-0.3-1.4-1.7-2.1-3.4-1.8c-1.5,0.3-2.8,1-4,1.9c-1.7,1.4-3.4,2.8-5.1,4.3c-2.9,2.6-5.5,5.6-7.4,9c-1.3,2.4-2.2,4.8-2.4,7.5
				c-0.3,3.4,0.6,6.6,2.4,9.5c1.8,3.1,4.3,5.6,7.1,7.8c4.8,3.9,10.3,6.8,15.9,9.3c5.2,2.3,10.5,4.2,15.9,5.9
				C115.7,277.6,117.5,278,119.2,278.4 M69.7,257.2c1.3,0,1.6-0.5,1.1-1.3c-0.6-1-1.3-1.9-1.9-2.9c-1.6-2.6-2.2-5.5-1.5-8.5
				c0.2-0.8,0.5-1.6,0.7-2.5c0.2-0.7-0.2-1.2-0.9-1.1c-0.6,0-1.1,0.1-1.7,0.3c-1.6,0.6-3.3,0.7-4.9,0.5c-2.4-0.3-4.6-1.3-6.7-2.6
				c-3-1.7-5.6-3.9-8.2-6.2c-1.1-0.9-2.2-1.8-3.3-2.6c-0.5-0.4-0.8-0.2-0.8,0.4c0,0.2,0,0.3,0,0.5c0.3,0.8,0.5,1.6,1,2.4
				c1.6,2.8,3.7,5.1,5.9,7.4c3.7,3.9,7.7,7.4,11.9,10.7c2.3,1.8,4.7,3.5,7.4,4.8C68.5,256.8,69.3,257.1,69.7,257.2"/>
			<path class="st2" d="M282.7,242.8c-1.4,2.4-2.9,4.7-4.3,7.1c-3.2,5.4-6.2,10.9-8.9,16.6c-0.3,0.5-0.5,1.1-0.7,1.6
				c-0.3,0.7-1,1.1-1.8,0.9c-0.3,0-0.5,0-0.8-0.1c-0.8-0.1-1-0.4-0.7-1.1c0.6-1.6,1.3-3.2,2-4.7c2.7-5.8,5.4-11.5,8.1-17.3
				c1.5-3.1,3.1-6.1,4.8-9.1c0.9-1.7,2.2-3,4.2-3.3c2-0.3,3.8,0.5,4.9,2.2c0.7,1,0.9,2.2,1.1,3.4c0.6,3.2,1.1,6.3,1.6,9.5
				c0,0.2,0.1,0.4,0.1,0.8c0.3-0.5,0.5-0.9,0.8-1.3c2.8-5,5.8-9.9,8.9-14.6c2.4-3.6,7-3.8,9.8-1.5c1.2,1,1.9,2.4,2.4,3.8
				c1.5,4.4,3.2,8.8,4.6,13.3c1.5,4.8,2.9,9.6,4.3,14.4c0.5,1.7,0.4,3.3-0.8,4.7c-0.9,1.1-2.2,1.6-3.6,1.7c-2.3,0.2-4.4-0.3-6.2-1.9
				c-1-0.8-1.6-1.9-1.9-3.2c-1.4-6-2.9-11.9-4.3-17.9c-0.3-1.1-0.6-2.2-0.9-3.3c-0.2-0.6-0.7-1-1.2-1c-0.6,0-0.9,0.3-1.2,0.8
				c-0.7,1.5-1.5,3-2.2,4.5c-2.7,5.3-5.7,10.4-8.9,15.3c-0.7,1-1.5,1.9-2.8,2.2c-0.9,0.2-1.7-0.1-2.3-0.8c-0.4-0.4-0.7-1-0.9-1.5
				c-1-3-1.6-6.1-2.1-9.2c-0.5-3.4-0.8-6.8-0.9-10.2c0-0.3-0.1-0.5-0.1-0.8C282.8,242.8,282.8,242.8,282.7,242.8"/>
			<path class="st2" d="M176.4,237.9c-1,0-1.9,0-2.9,0c-1.3,0-2.5,0.1-3.8,0.2c-2.6,0.2-5.1,0.5-7.7,0.7c-2,0.2-4.1,0.4-6-0.7
				c-0.7-0.4-1.3-0.9-1.9-1.4c-0.9-0.9-0.5-2,0.7-2.3c4.2-0.9,8.3-1.8,12.5-2.5c3.2-0.6,6.5-0.9,9.8-1.2c2-0.2,4.1-0.2,6.1-0.3
				c3-0.1,6,0.1,9,0.9c2.7,0.7,5.1,1.8,7.1,3.8c2,1.9,3.1,4.3,3.7,7c1.3,5.6-0.2,10.5-3.9,14.8c-2.8,3.3-6.3,5.7-10,7.7
				c-3.9,2.1-8,3.7-12.3,4.6c-1.7,0.4-3.4,0.6-5.1,0.5c-1.7-0.2-3.3-0.5-4.7-1.4c-1.1-0.7-1.8-1.8-1.9-3c-0.1-1,0-1.9,0.1-2.9
				c0.1-0.8,0.6-1.3,1.4-1.5c1.3-0.5,2.6-0.9,3.9-1.3c0.3-0.1,0.4-0.2,0.5-0.5c0.4-4.7,1.5-9.3,2.8-13.8c0.7-2.3,1.5-4.5,2.3-6.7
				C176.2,238.3,176.3,238.2,176.4,237.9 M178.7,257.9c0.1,0,0.2,0,0.3,0c3.8-0.7,7.4-1.9,10.8-3.8c2.1-1.2,4.1-2.7,5.8-4.4
				c0.9-0.9,1.7-1.8,2.5-2.8c1-1.3,0.9-2.4-0.1-3.7c-0.8-1.1-1.9-1.8-3.2-2.3c-4.1-1.8-8.5-2.3-12.9-2.5c-0.3,0-0.5,0.1-0.5,0.5
				c-0.2,2.2-0.4,4.3-0.7,6.5c-0.3,2.5-0.7,5.1-1.1,7.6C179.4,254.5,179,256.2,178.7,257.9"/>
			<path class="st2" d="M382.8,249c-0.8,0.4-1.6,0.8-2.5,1.1c-0.3,0.1-0.8,0.2-1.1,0c-0.2-0.1-0.5-0.5-0.5-0.8c0-2-0.1-4,0-6
				c0-0.5,0.2-1,0.5-1.4c3.7-5.4,8.6-9.1,15-10.9c2.5-0.7,5-1,7.6-0.9c5.1,0.2,9.9,1.6,13.8,5.1c2.7,2.4,4.3,5.4,4.5,9.1
				c0.3,4.5-0.9,8.6-3.3,12.4c-3.7,5.8-8.8,9.9-15.3,12.1c-2.2,0.7-4.5,1.1-6.8,0.9c-4.1-0.4-7.3-2.4-9.7-5.8
				c-1.7-2.5-2.7-5.2-3-8.2c-0.2-2.3-0.1-4.5,0.8-6.6C382.8,249.1,382.8,249,382.8,249 M395,261.1c0.7-0.1,1.4-0.1,2.1-0.2
				c2.8-0.5,5.4-1.6,7.8-3.1c3.6-2.2,6.8-4.9,9.4-8.3c0.7-0.9,0.7-1.3-0.1-2.2c-0.8-0.8-1.6-1.6-2.5-2.2c-3.8-2.8-8-3.8-12.6-3.5
				c-2.2,0.1-4.3,0.5-6.4,1.2c-1.5,0.5-2.9,1.1-4,2.2c-1.4,1.5-2.2,3.2-2.7,5.2c-0.6,2.8-0.4,5.5,1.6,7.8
				C389.6,260.2,392.1,261.1,395,261.1"/>
			<path class="st2" d="M221.8,249c-0.5,0.3-1,0.6-1.6,0.9c-0.4,0.2-0.9,0.3-1.3,0.4c-0.8,0.1-1.1-0.2-1.1-1c0-1,0-1.9,0-2.9
				c0-0.2,0-0.4,0-0.6c0-3.4-0.3-2.8,2.1-5.8c3.5-4.3,7.9-7.2,13.2-8.7c2.9-0.8,5.9-1.2,9-0.9c4,0.3,7.7,1.4,11,3.7
				c3.2,2.3,5.4,5.3,6,9.2c0.4,2.7,0.1,5.4-0.7,8c-1.4,4.6-4.1,8.4-7.6,11.6c-3.3,2.9-7,5.1-11.2,6.3c-3.4,0.9-6.9,1-10.2-0.6
				c-2.4-1.1-4.2-2.9-5.6-5.2c-2-3.3-2.9-6.9-2.6-10.8C221.2,251.3,221.6,250.2,221.8,249 M234.1,261.1c0.5,0,1,0,1.5-0.1
				c2.5-0.3,4.9-1.2,7.1-2.5c4.2-2.3,7.8-5.3,10.7-9c0.7-0.9,0.7-1.4-0.1-2.3c-1.6-1.7-3.5-3.1-5.7-4c-5.6-2.4-11.3-2.1-16.9,0.1
				c-1.1,0.4-2.2,1-3,1.9c-2,2.5-3,5.3-2.7,8.5c0.2,2,1,3.6,2.5,5C229.4,260.4,231.6,261.1,234.1,261.1"/>
			<path class="st2" d="M462.8,252.8c-1.7-1.3-3.7-2-5.7-2.4c-2.7-0.6-5.4-1-8.1-1.4c-3-0.5-5.9-0.9-8.8-1.8c-1.4-0.4-2.7-1-3.9-1.8
				c-1.6-1.2-2-2.7-1.8-4.6c0.3-2.7,2-4.3,4.1-5.6c3.9-2.3,8-3.9,12.5-4.5c3-0.4,6-0.3,8.8,1c1.9,0.8,3.4,2,4.5,3.8
				c0.3,0.5,0.7,1.1,0.2,1.6c-0.4,0.6-1.1,0.5-1.7,0.3c-0.3-0.1-0.7-0.2-1-0.4c-1.1-0.7-2.4-1.1-3.7-1.1c-3.7-0.2-7.2,0.9-10.6,2.3
				c-1,0.4-2,0.9-3,1.3c0,0,0,0.1,0,0.1c0.4,0.1,0.8,0.1,1.1,0.2c2.9,0.4,5.8,0.7,8.7,1.2c2.5,0.4,4.9,1,7.2,2
				c3.4,1.5,5.5,4,5.6,7.9c0.1,3.8-0.6,7.5-2.4,10.8c-1.6,2.8-4,4.7-6.8,6.1c-3.8,1.8-7.7,2.4-11.8,2.1c-4.4-0.3-8.6-1.4-12.3-4
				c-1.9-1.4-3.5-3.1-4.2-5.4c-0.6-1.8-0.5-3.6,0.2-5.4c0.5-1.2,1.7-1.2,2.6-0.6c1.6,1,3.1,2.1,4.7,3c2.6,1.5,5.4,2.3,8.4,2.5
				c3.8,0.2,7.3-0.8,10.7-2.6c2.2-1.1,4.1-2.5,6-4.1C462.5,253.1,462.6,253,462.8,252.8"/>
			<path class="st2" d="M348.8,253c-0.9-0.2-1.7-0.3-2.6-0.5c-3.3-0.8-6.1-2.5-8.6-4.7c-3.5-3.1-6.1-6.8-8.1-11
				c-0.3-0.6-0.2-1.1,0.5-1.3c1.6-0.5,3.3-0.7,4.8,0.5c2.4,1.9,4.7,3.8,7.4,5.4c1.6,0.9,3.3,1.6,5.1,1.6c1.7,0.1,3.3-0.4,4.8-1
				c3-1.3,5.8-3.1,8.4-5c2.6-1.8,5.1-3.7,7.7-5.6c0.8-0.6,1.6-1,2.5-1.2c0.9-0.1,1.6,0.4,1.6,1.4c0,1-0.4,1.8-0.8,2.6
				c-2.8,5.3-6.3,10.1-10.3,14.5c-3.2,3.6-5.9,7.5-8,11.8c-1.3,2.5-2.4,5.1-3.6,7.7c-0.2,0.4-0.4,0.7-0.6,1.1
				c-0.6,0.9-1.6,0.8-1.9-0.3c-0.3-0.9-0.4-1.8-0.4-2.7c-0.2-4.4,0.7-8.6,1.8-12.7C348.7,253.3,348.7,253.2,348.8,253"/>
		</g>
	</g>
</g>
</svg>
