<?xml version="1.0" encoding="utf-8"?>
<!-- Generator: Adobe Illustrator 19.2.1, SVG Export Plug-In . SVG Version: 6.00 Build 0)  -->
<svg version="1.1" id="Calque_1" xmlns="http://www.w3.org/2000/svg" xmlns:xlink="http://www.w3.org/1999/xlink" x="0px" y="0px"
	 viewBox="0 0 500 500" style="enable-background:new 0 0 500 500;" xml:space="preserve">
<style type="text/css">
	.st0{display:none;fill:#1D1D1B;stroke:#FFFFFF;stroke-miterlimit:10;}
	.st1{clip-path:url(#SVGID_2_);}
	.st2{clip-path:url(#SVGID_4_);fill:#FFFFFF;}
	.st3{clip-path:url(#SVGID_6_);}
	.st4{clip-path:url(#SVGID_8_);fill:#FFFFFF;}
	.st5{clip-path:url(#SVGID_10_);}
	.st6{clip-path:url(#SVGID_12_);fill:#FFFFFF;}
	.st7{clip-path:url(#SVGID_14_);}
	.st8{clip-path:url(#SVGID_16_);fill:#FFFFFF;}
	.st9{clip-path:url(#SVGID_16_);}
	.st10{opacity:0.3;clip-path:url(#SVGID_18_);}
	.st11{clip-path:url(#SVGID_20_);fill:#FFFFFF;}
	.st12{opacity:0.3;clip-path:url(#SVGID_22_);}
	.st13{clip-path:url(#SVGID_24_);fill:#FFFFFF;}
	.st14{clip-path:url(#SVGID_26_);fill:#FFFFFF;}
	.st15{clip-path:url(#SVGID_22_);fill:#FFFFFF;}
	.st16{clip-path:url(#SVGID_28_);fill:#FFFFFF;}
	.st17{clip-path:url(#SVGID_30_);}
	.st18{clip-path:url(#SVGID_32_);fill:#FFFFFF;}
	.st19{clip-path:url(#SVGID_34_);}
	.st20{clip-path:url(#SVGID_36_);fill:#FFFFFF;}
	.st21{clip-path:url(#SVGID_38_);}
	.st22{clip-path:url(#SVGID_40_);fill:#FFFFFF;}
	.st23{clip-path:url(#SVGID_42_);}
	.st24{clip-path:url(#SVGID_44_);fill-rule:evenodd;clip-rule:evenodd;fill:#FFFFFF;}
	.st25{clip-path:url(#SVGID_44_);fill:#FFFFFF;}
	.st26{clip-path:url(#SVGID_46_);}
	.st27{clip-path:url(#SVGID_48_);fill:#FFFFFF;}
	.st28{clip-path:url(#SVGID_50_);}
	.st29{clip-path:url(#SVGID_52_);fill:#FFFFFF;}
	.st30{clip-path:url(#SVGID_54_);}
	.st31{clip-path:url(#SVGID_56_);fill-rule:evenodd;clip-rule:evenodd;fill:#FFFFFF;}
	.st32{clip-path:url(#SVGID_56_);fill:#FFFFFF;}
	.st33{clip-path:url(#SVGID_58_);}
	.st34{clip-path:url(#SVGID_60_);fill:#FFFFFF;}
	.st35{clip-path:url(#SVGID_62_);}
	.st36{clip-path:url(#SVGID_64_);}
	.st37{opacity:0.3;clip-path:url(#SVGID_66_);}
	.st38{clip-path:url(#SVGID_68_);fill:#FFFFFF;}
	.st39{clip-path:url(#SVGID_68_);}
	.st40{clip-path:url(#SVGID_70_);fill:#FFFFFF;}
	.st41{opacity:0.7;clip-path:url(#SVGID_66_);}
	.st42{clip-path:url(#SVGID_72_);fill:#FFFFFF;}
	.st43{clip-path:url(#SVGID_72_);}
	.st44{clip-path:url(#SVGID_74_);fill:#FFFFFF;}
	.st45{clip-path:url(#SVGID_66_);fill:#FFFFFF;}
	.st46{opacity:0.5;clip-path:url(#SVGID_66_);}
	.st47{clip-path:url(#SVGID_76_);fill:#FFFFFF;}
	.st48{clip-path:url(#SVGID_76_);}
	.st49{clip-path:url(#SVGID_78_);fill:#FFFFFF;}
	.st50{clip-path:url(#SVGID_80_);fill:#FFFFFF;}
	.st51{clip-path:url(#SVGID_82_);}
	.st52{clip-path:url(#SVGID_84_);fill:#FFFFFF;}
	.st53{clip-path:url(#SVGID_86_);}
	.st54{clip-path:url(#SVGID_88_);fill:#FFFFFF;}
	.st55{clip-path:url(#SVGID_88_);fill-rule:evenodd;clip-rule:evenodd;fill:#FFFFFF;}
	.st56{clip-path:url(#SVGID_90_);}
	.st57{clip-path:url(#SVGID_92_);fill:#FFFFFF;}
	.st58{clip-path:url(#SVGID_94_);}
	.st59{clip-path:url(#SVGID_96_);fill:#FFFFFF;}
	.st60{clip-path:url(#SVGID_98_);}
	.st61{clip-path:url(#SVGID_100_);fill:#FFFFFF;}
	.st62{clip-path:url(#SVGID_100_);fill:#FDFDFD;}
	.st63{clip-path:url(#SVGID_102_);}
	.st64{clip-path:url(#SVGID_104_);fill:#FFFFFF;}
	.st65{clip-path:url(#SVGID_106_);fill:#FFFFFF;}
	.st66{clip-path:url(#SVGID_106_);}
	.st67{clip-path:url(#SVGID_108_);fill:#FFFFFF;}
	.st68{clip-path:url(#SVGID_110_);}
	.st69{clip-path:url(#SVGID_112_);fill:#FFFFFF;}
	.st70{clip-path:url(#SVGID_114_);}
	.st71{clip-path:url(#SVGID_116_);fill-rule:evenodd;clip-rule:evenodd;fill:#FFFFFF;}
	.st72{clip-path:url(#SVGID_118_);}
	.st73{clip-path:url(#SVGID_120_);}
	.st74{clip-path:url(#SVGID_122_);}
	.st75{clip-path:url(#SVGID_126_);fill:#F9F9F9;}
</style>
<rect x="-1146.3" y="-1228.3" class="st0" width="4271.1" height="3545.3"/>
<g>
	<g>
		<defs>
			<rect id="SVGID_41_" x="25" y="166.5" width="450" height="167"/>
		</defs>
		<clipPath id="SVGID_2_">
			<use xlink:href="#SVGID_41_"  style="overflow:visible;"/>
		</clipPath>
		<g class="st1">
			<defs>
				<rect id="SVGID_43_" x="25" y="166.5" width="450" height="167"/>
			</defs>
			<clipPath id="SVGID_4_">
				<use xlink:href="#SVGID_43_"  style="overflow:visible;"/>
			</clipPath>
			<path style="clip-path:url(#SVGID_4_);fill-rule:evenodd;clip-rule:evenodd;fill:#FFFFFF;" d="M214.5,270.6v-1.1
				c0-12.4,0-24.8,0-37.2c0-1.3,0.1-2.5,0.8-3.6c0.8-1.3,1.9-2.1,3.3-2.3c2.9-0.4,5,1,6.7,3.2c1,1.4,2.1,2.8,3.2,4.2
				c1.4,1.9,2.9,3.7,4.3,5.6c1.6,2.1,3.3,4.2,4.9,6.3c0.7,0.9,1.4,1.8,2.1,2.7c1.1,1.3,2.1,2.7,3.3,4.2c0.1-0.4,0.2-0.5,0.3-0.8
				c0-0.3,0-0.7,0-1c0-4.8,0-9.7,0-14.5c0-1.8,0.2-3.6,0.9-5.3c0.7-1.7,1.9-2.9,3.6-3.6c1.7-0.7,3.4-0.8,5.2-0.7
				c0.3,0,0.5,0.1,0.9,0.2v1.1c0,12.8,0,25.6,0,38.4c0,1.8-0.6,3.3-2,4.4c-1.2,0.9-2.5,0.9-3.9,0.6c-2.2-0.5-3.6-2-4.9-3.7
				c-2.2-2.8-4.5-5.6-6.7-8.4c-2.4-3-4.8-6.1-7.2-9.1c-1.3-1.6-2.5-3.1-3.9-4.9c-0.1,0.4-0.2,0.6-0.2,0.8c0,1.1,0,2.2,0,3.3
				c0,4.1,0,8.3,0,12.4c0,1.8-0.4,3.6-1.2,5.3c-0.9,1.6-2.2,2.7-3.9,3.2c-1.4,0.4-2.9,0.5-4.4,0.4
				C215.1,270.8,214.9,270.7,214.5,270.6"/>
			<path style="clip-path:url(#SVGID_4_);fill-rule:evenodd;clip-rule:evenodd;fill:#FFFFFF;" d="M156.8,271
				c-1.6,0.2-14.5,1.1-19.4,0.9c-2.6-0.1-5.1-0.2-7.6-0.8c-3.3-0.9-6-2.7-7.4-6c-0.5-1.1-0.7-2.3-1-3.4c-0.4-1.4-0.3-2.8-0.4-4.2
				c-0.6-4.9-0.4-9.8-0.3-14.7c0.1-3,0.2-6.1,1.2-9c0.6-1.7,1.6-3.3,3-4.6c1.9-1.6,4.1-2.3,6.4-2.8c4.4-0.9,8.8-0.4,13.2-0.5
				c2.2-0.1,4.4,0.2,6.6,0.6c2.4,0.5,4.5,1.4,6.2,3.2c1.3,1.4,2.4,3.1,2.7,5.1c0.1,0.6,0.3,1.3,0.5,1.9c0.4,1.4,0.4,2.8,0.4,4.3
				c0,3,0,6,0,9c0,0.8,0,1.7-0.7,2.4c-0.5,0.5-1,1-1.8,1.1c-0.8,0.1-1.7,0.3-2.5,0.3c-5.8,0-21.2,0-23.1,0c-0.6,0-1.8-0.1-1.8-0.1
				c0,1.6-0.1,5.7,0.6,6.9c0.6,1.2,1.1,1.6,1.8,2.4c0.9,0.9,2.1,1.2,3.4,1.2c2.6-0.1,5.2-0.2,7.8-0.3c2.3-0.1,4.6-0.1,6.9-0.1
				c2.2,0,3.9,1.1,4.8,3.1C156.8,268.1,157.1,269.5,156.8,271 M150.7,246.2c0.1-0.3,0.2-0.5,0.2-0.7c0-1.6,0.1-3.2,0-4.8
				c-0.1-1.9-0.6-3.7-2-5.2c-0.9-1-2.1-1.6-3.5-1.7c-2.5-0.2-5-0.2-7.5-0.1c-0.9,0-1.9,0-2.8,0.3c-2.1,0.6-3.2,2.3-3.7,4.3
				c-0.6,2-0.5,4.1-0.5,6.2c0,0.5,0,1.1,0.1,1.8C137.7,246.2,144.2,246.2,150.7,246.2"/>
			<path style="clip-path:url(#SVGID_4_);fill-rule:evenodd;clip-rule:evenodd;fill:#FFFFFF;" d="M423.8,271.1
				c-1.8,0.2-3.5,0.4-5.2,0.4c-4.7,0.2-9.5,0.5-14.2,0.4c-2.6-0.1-5.1-0.2-7.6-0.9c-2.9-0.7-5.3-2.2-6.8-4.8
				c-0.7-1.3-1.3-2.6-1.4-4.1c-0.2-1.8-0.5-3.5-0.7-5.3c-0.1-0.6-0.1-1.2-0.1-1.8c0-4.3,0-8.6,0-12.9c0-1.8,0.2-3.6,0.5-5.3
				c0.3-1.7,0.8-3.5,1.7-5c1-1.7,2.4-3.1,4.2-4c2.6-1.3,5.4-1.8,8.3-1.8c4,0,8.1-0.2,12.1,0.1c3.2,0.2,6.5,0.8,9.1,3
				c1.4,1.2,2.4,2.7,3.1,4.4c1,2.8,1.3,5.6,1.3,8.5c0,2.7,0,5.4,0,8.1c0,2.2-1,3.4-3.2,3.6c-1,0.1-2.1,0.1-3.2,0.1c-7,0-14,0-20.9,0
				c-0.6,0-1.2,0-1.8,0c-0.5,0-0.8,0.3-0.8,0.8c0,2,0.1,4,0.9,6c0.9,2.2,2.5,3.4,4.8,3.4c2.2,0.1,4.5-0.1,6.7-0.2
				c2.9-0.1,5.9-0.5,8.8-0.1c2.3,0.3,3.7,1.6,4.3,3.7C424.1,269.2,424.1,270,423.8,271.1 M418,246.2c0-2,0-3.7,0-5.5
				c0-1.3-0.3-2.4-0.8-3.5c-0.9-1.9-2.3-3.2-4.5-3.4c-1.6-0.1-3.3-0.2-4.9-0.2c-1.6,0-3.2,0.1-4.8,0.2c-1.1,0.1-2.1,0.7-2.8,1.6
				c-1.2,1.5-1.6,3.3-1.8,5.1c-0.2,1.5-0.1,3-0.1,4.5c0,1.1,0.1,1.1,1.2,1.1c5.8,0,11.6,0,17.5,0H418z"/>
			<path style="clip-path:url(#SVGID_4_);fill-rule:evenodd;clip-rule:evenodd;fill:#FFFFFF;" d="M276.8,244h12.6
				c1.1,0,1.2-0.2,1.2-1.2c-0.1-1.1-0.1-2.2-0.2-3.2c-0.1-1.7-0.7-3.2-1.8-4.5c-0.6-0.7-1.6-1.2-2.6-1.3c-1.8-0.1-3.6-0.1-5.5-0.1
				c-1.7,0-3.4,0-5.1,0.3c-1.4,0.2-2.7,0.3-4.1,0.3c-1.6-0.1-3.1-0.4-4.4-1.3c-1.1-0.8-1.8-2-2-3.4c-0.1-0.7-0.1-1.4-0.2-2.1
				c0-0.6,0.3-0.8,0.8-0.9c0.5,0,1-0.1,1.5-0.1c1.9-0.2,3.8-0.4,5.7-0.4c5.2-0.1,10.4-0.2,15.6,0c2.5,0.1,5,0.8,7.2,2.2
				c1.9,1.2,3.2,3,4.1,5.1c0.8,1.9,1.1,3.9,1.2,5.8c0.3,3.8,0.4,7.7,0.4,11.6c0,2-0.3,4-0.3,6.1c0,2.3-0.3,4.6-0.9,6.7
				c-1,3.2-2.9,5.7-6.2,6.9c-1.9,0.8-3.9,1.1-6,1.3c-2.8,0.3-5.5,0.3-8.3,0.3c-2.5-0.1-5.1-0.1-7.6-0.4c-2.3-0.3-4.5-0.9-6.4-2.4
				c-1.8-1.4-3-3.1-3.7-5.3c-0.9-2.9-1-5.8-1-8.8c0-2.5,0-4.9,0-7.4c0-2.3,1.3-3.6,3.6-3.6H276.8 M280.6,251.4L280.6,251.4
				c-2.9,0-5.8,0-8.7,0c-1.1,0-1.3,0.2-1.3,1.3c0,1.1,0,2.2,0,3.3c0,1.9,0.5,3.6,1.4,5.2c0.6,1.2,1.6,2.2,3,2.5
				c0.8,0.2,1.6,0.3,2.4,0.3c2.6,0,5.1,0.1,7.7,0c0.8,0,1.6-0.2,2.3-0.6c1.9-0.9,2.8-2.7,3-4.6c0.3-2.1,0.4-4.2,0.3-6.3
				c-0.1-0.9-0.3-1.2-1.2-1.2C286.4,251.4,283.5,251.4,280.6,251.4"/>
			<path style="clip-path:url(#SVGID_4_);fill-rule:evenodd;clip-rule:evenodd;fill:#FFFFFF;" d="M93,243.6c0.3,0,0.5-0.1,0.8-0.1
				c5.6,0,11.2,0,16.7,0c0.6,0,1.2,0,1.7,0.2c1.4,0.5,2.1,1.5,2.1,3c0,3.7,0.1,7.3-0.1,11c-0.1,2.8-0.5,5.7-1.9,8.2
				c-1.1,1.9-2.6,3.4-4.7,4.3c-2.8,1.3-5.8,1.6-8.8,1.6c-4.1,0.1-8.3,0-12.4,0c-2,0-4.1-0.2-6-0.9c-3.1-1-5.6-2.8-6.9-5.9
				c-0.7-1.6-1-3.2-1.3-4.9c-0.3-2.4-0.6-4.7-0.5-7.1c0.1-4.1,0-8.2,0.2-12.3c0.1-2,0.4-4,0.9-6c0.7-3,2.4-5.4,5.2-6.9
				c1.4-0.8,3-1.2,4.7-1.5c3.9-0.7,7.9-0.4,11.9-0.4c4.5,0,9,0,13.5,0c1.6,0,1.6,0,1.5,1.6c0,1.4-0.4,2.6-1.1,3.8
				c-0.8,1.1-1.8,1.7-3.1,2.1c-1.5,0.4-2.9,0.4-4.4,0.4c-4.1,0-8.1,0-12.2,0c-1.3,0-2.6,0.3-3.7,1c-1.2,0.8-1.9,2-2.3,3.5
				c-0.6,2.2-0.5,4.3-0.5,6.5c0,4,0,8.1,0,12.1c0,1.6,0.5,3,1.1,4.4c0.8,1.8,2.3,2.8,4.2,2.8c3.7,0.1,7.5,0.1,11.3,0
				c2.1-0.1,3.6-1.2,4.5-3.1c0.7-1.5,1.1-3,1-4.6c-0.1-1.4,0-2.7,0-4.1c0-1.3,0-1.3-1.4-1.3c-1.4,0-2.8,0-4.2,0
				c-1-0.1-2-0.2-2.9-0.5c-1.1-0.4-2-1.1-2.4-2.2c-0.5-1.3-0.8-2.7-0.7-4.2C92.8,243.9,92.9,243.8,93,243.6"/>
			<path style="clip-path:url(#SVGID_4_);fill-rule:evenodd;clip-rule:evenodd;fill:#FFFFFF;" d="M196.9,239.7c0-1.6-0.7-3-1.8-4.1
				c-0.6-0.6-0.8-1.2-0.8-2c0.1-1.8,0-3.6,0.1-5.4c0-0.5,0.1-1,0.2-1.5c0.1-0.5,0.5-0.7,0.9-0.6c1.8,0.5,3.8,0.7,5.5,1.6
				c2.2,1.2,3.8,2.8,4.8,5c0.6,1.4,0.9,2.9,1.2,4.4c0.6,3-0.1,24.9-0.6,26.4c-0.9,2.8-2.6,5.1-5.3,6.5c-1.6,0.8-3.4,1.3-5.2,1.5
				c-4.7,0.6-9.5,0.3-14.2,0.3c-1.9,0-3.8-0.3-5.7-0.8c-2.8-0.8-5.2-2.3-6.7-4.8c-0.7-1.2-1.1-2.5-1.4-3.8
				c-0.9-4.2-0.6-23.5-0.3-25.6c0.3-2.1,1-4.2,2.2-6c1.4-2.1,3.5-3.3,5.9-4c1.1-0.3,2.3-0.5,3.5-0.7c0.6-0.1,0.9,0.1,0.9,0.8
				c0,2.4,0,4.8,0,7.2c0,0.2-0.1,0.5-0.3,0.7c-1.6,1.8-2.3,3.9-2.3,6.2c0,5.2,0,10.5,0,15.7c0,2,0.4,3.8,1.6,5.4
				c0.9,1.2,2.1,1.8,3.5,1.9c3.1,0.1,6.2,0.1,9.3,0c2.3-0.1,3.7-1.5,4.6-3.7C197,258.8,196.9,242.4,196.9,239.7"/>
			<path style="clip-path:url(#SVGID_4_);fill-rule:evenodd;clip-rule:evenodd;fill:#FFFFFF;" d="M346.4,243c0,4.8,0.1,9.7,0,14.5
				c-0.1,2.8-0.5,5.5-1.8,8.1c-1.2,2.5-3.3,4.2-5.9,5.2c-2.2,0.8-4.5,1.1-6.9,1.2c-3.2,0.1-6.4,0.1-9.6,0c-1.6,0-3.2-0.3-4.8-0.6
				c-1-0.2-1.9-0.6-2.9-1c-2.2-0.9-3.8-2.5-4.9-4.5c-0.8-1.6-1.2-3.5-1.5-5.3c-0.5-3.7-0.3-7.4-0.4-11c0-2.9-0.1-5.9-0.1-8.8
				c0-4.2,0.1-8.4,0.2-12.6c0-1.1,0.1-1.3,1.3-1.2c1.5,0,3,0,4.4,0.5c1.9,0.8,3.3,2,3.9,4c0.5,1.6,0.8,3.2,0.8,4.9
				c0,6.7,0,13.4,0,20.1c0,1.6,0.2,3.1,0.8,4.5c0.8,1.9,2.2,3.2,4.2,3.3c2.5,0.2,5.1,0.2,7.6,0c2.6-0.2,3.7-1.5,4.7-4.1
				c0.5-1.3,0.4-2.5,0.4-3.8c0-2.5,0.1-5,0.1-7.6c0-4.2-0.1-8.5-0.1-12.7c0-2.1,0.4-4.2,1.5-6c0.9-1.6,2.4-2.5,4.2-2.9
				c1.2-0.2,2.4-0.2,3.7-0.3c0.9,0,1.1,0.1,1.1,1.1C346.4,232.9,346.4,237.9,346.4,243L346.4,243z"/>
			<path style="clip-path:url(#SVGID_4_);fill-rule:evenodd;clip-rule:evenodd;fill:#FFFFFF;" d="M254.2,278.2
				c0.1,1.5,0.2,2.9-0.6,4.1c-0.9,1.4-2.3,2.1-3.9,2.4c-1.6,0.3-3.3,0.4-4.9,0.4c-4.6,0-9.1,0.1-13.7,0.2c-6,0.1-11.9,0.3-17.9,0.4
				c-6.6,0.1-13.3,0.2-19.9,0.5c-6.8,0.2-13.6,0.4-20.4,0.2c-2.2,0-4.2-0.7-5.2-2.9c-0.3-0.7-0.5-1.6-0.6-2.4c-0.1-0.8,0-1.5,0-2.3
				c0-0.5,0.2-0.7,0.7-0.7c0.2,0,0.5,0,0.7,0c28.1,0,56.3,0,84.4,0C253.4,278.1,253.7,278.2,254.2,278.2"/>
			<path style="clip-path:url(#SVGID_4_);fill-rule:evenodd;clip-rule:evenodd;fill:#FFFFFF;" d="M351.9,226.6h33.6
				c0,1.1,0.1,2.2-0.3,3.2c-0.4,1.1-0.9,2-1.8,2.8c-0.9,0.7-1.9,1.1-3,1.3c-1.9,0.4-3.8,0.4-5.8,0.4c-0.7,0-0.8,0.1-0.8,0.9
				c0,0.8,0,1.7,0,2.5c0,10.1,0,20.2,0,30.3c0,0.5,0,1.1,0,1.6c0,0.5-0.1,1-0.1,1.6c-1.1,0-2.1,0-3.1,0c-2-0.1-3.8-0.8-5.1-2.4
				c-1.1-1.3-1.7-2.7-1.8-4.4c-0.1-1.4-0.1-2.7-0.1-4.1c0-8.2,0-16.5,0-24.7c0-0.1,0-0.3,0-0.4c0-0.7-0.1-0.8-0.8-0.8
				c-0.9,0-1.8,0-2.7,0c-1.8,0.1-3.5-0.4-5.2-0.9c-1.3-0.4-2.1-1.5-2.6-2.8C351.8,229.4,351.6,228,351.9,226.6"/>
			<path class="st2" d="M187.8,213.5c-1.3,0-4.6,1.6-4.6,5.8v23.9h3.2c2.7,0,4.3-2.7,4.3-5.5s0.8-24.2,0.8-24.2L187.8,213.5z"/>
		</g>
	</g>
</g>
</svg>
