<?xml version="1.0" encoding="utf-8"?>
<!-- Generator: Adobe Illustrator 19.2.1, SVG Export Plug-In . SVG Version: 6.00 Build 0)  -->
<svg version="1.1" id="Calque_1" xmlns="http://www.w3.org/2000/svg" xmlns:xlink="http://www.w3.org/1999/xlink" x="0px" y="0px"
	 viewBox="0 0 500 500" style="enable-background:new 0 0 500 500;" xml:space="preserve">
<style type="text/css">
	.st0{display:none;fill:#1D1D1B;stroke:#FFFFFF;stroke-miterlimit:10;}
	.st1{clip-path:url(#SVGID_2_);}
	.st2{clip-path:url(#SVGID_4_);fill:#FFFFFF;}
	.st3{clip-path:url(#SVGID_6_);}
	.st4{clip-path:url(#SVGID_8_);fill:#FFFFFF;}
	.st5{clip-path:url(#SVGID_10_);}
	.st6{clip-path:url(#SVGID_12_);fill:#FFFFFF;}
	.st7{clip-path:url(#SVGID_14_);}
	.st8{clip-path:url(#SVGID_16_);fill:#FFFFFF;}
	.st9{clip-path:url(#SVGID_16_);}
	.st10{opacity:0.3;clip-path:url(#SVGID_18_);}
	.st11{clip-path:url(#SVGID_20_);fill:#FFFFFF;}
	.st12{opacity:0.3;clip-path:url(#SVGID_22_);}
	.st13{clip-path:url(#SVGID_24_);fill:#FFFFFF;}
	.st14{clip-path:url(#SVGID_26_);fill:#FFFFFF;}
	.st15{clip-path:url(#SVGID_22_);fill:#FFFFFF;}
	.st16{clip-path:url(#SVGID_28_);fill:#FFFFFF;}
	.st17{clip-path:url(#SVGID_30_);}
	.st18{clip-path:url(#SVGID_32_);fill:#FFFFFF;}
	.st19{clip-path:url(#SVGID_34_);}
	.st20{clip-path:url(#SVGID_36_);fill:#FFFFFF;}
	.st21{clip-path:url(#SVGID_38_);}
	.st22{clip-path:url(#SVGID_40_);fill:#FFFFFF;}
	.st23{clip-path:url(#SVGID_42_);}
	.st24{clip-path:url(#SVGID_44_);fill-rule:evenodd;clip-rule:evenodd;fill:#FFFFFF;}
	.st25{clip-path:url(#SVGID_44_);fill:#FFFFFF;}
	.st26{clip-path:url(#SVGID_46_);}
	.st27{clip-path:url(#SVGID_48_);fill:#FFFFFF;}
	.st28{clip-path:url(#SVGID_50_);}
	.st29{clip-path:url(#SVGID_52_);fill:#FFFFFF;}
	.st30{clip-path:url(#SVGID_54_);}
	.st31{clip-path:url(#SVGID_56_);fill-rule:evenodd;clip-rule:evenodd;fill:#FFFFFF;}
	.st32{clip-path:url(#SVGID_56_);fill:#FFFFFF;}
	.st33{clip-path:url(#SVGID_58_);}
	.st34{clip-path:url(#SVGID_60_);fill:#FFFFFF;}
	.st35{clip-path:url(#SVGID_62_);}
	.st36{clip-path:url(#SVGID_64_);}
	.st37{opacity:0.3;clip-path:url(#SVGID_66_);}
	.st38{clip-path:url(#SVGID_68_);fill:#FFFFFF;}
	.st39{clip-path:url(#SVGID_68_);}
	.st40{clip-path:url(#SVGID_70_);fill:#FFFFFF;}
	.st41{opacity:0.7;clip-path:url(#SVGID_66_);}
	.st42{clip-path:url(#SVGID_72_);fill:#FFFFFF;}
	.st43{clip-path:url(#SVGID_72_);}
	.st44{clip-path:url(#SVGID_74_);fill:#FFFFFF;}
	.st45{clip-path:url(#SVGID_66_);fill:#FFFFFF;}
	.st46{opacity:0.5;clip-path:url(#SVGID_66_);}
	.st47{clip-path:url(#SVGID_76_);fill:#FFFFFF;}
	.st48{clip-path:url(#SVGID_76_);}
	.st49{clip-path:url(#SVGID_78_);fill:#FFFFFF;}
	.st50{clip-path:url(#SVGID_80_);fill:#FFFFFF;}
	.st51{clip-path:url(#SVGID_82_);}
	.st52{clip-path:url(#SVGID_84_);fill:#FFFFFF;}
	.st53{clip-path:url(#SVGID_86_);}
	.st54{clip-path:url(#SVGID_88_);fill:#FFFFFF;}
	.st55{clip-path:url(#SVGID_88_);fill-rule:evenodd;clip-rule:evenodd;fill:#FFFFFF;}
	.st56{clip-path:url(#SVGID_90_);}
	.st57{clip-path:url(#SVGID_92_);fill:#FFFFFF;}
	.st58{clip-path:url(#SVGID_94_);}
	.st59{clip-path:url(#SVGID_96_);fill:#FFFFFF;}
	.st60{clip-path:url(#SVGID_98_);}
	.st61{clip-path:url(#SVGID_100_);fill:#FFFFFF;}
	.st62{clip-path:url(#SVGID_100_);fill:#FDFDFD;}
	.st63{clip-path:url(#SVGID_102_);}
	.st64{clip-path:url(#SVGID_104_);fill:#FFFFFF;}
	.st65{clip-path:url(#SVGID_106_);fill:#FFFFFF;}
	.st66{clip-path:url(#SVGID_106_);}
	.st67{clip-path:url(#SVGID_108_);fill:#FFFFFF;}
	.st68{clip-path:url(#SVGID_110_);}
	.st69{clip-path:url(#SVGID_112_);fill:#FFFFFF;}
	.st70{clip-path:url(#SVGID_114_);}
	.st71{clip-path:url(#SVGID_116_);fill-rule:evenodd;clip-rule:evenodd;fill:#FFFFFF;}
	.st72{clip-path:url(#SVGID_118_);}
	.st73{clip-path:url(#SVGID_120_);}
	.st74{clip-path:url(#SVGID_122_);}
	.st75{clip-path:url(#SVGID_126_);fill:#F9F9F9;}
</style>
<rect x="-1666.3" y="-1228.3" class="st0" width="4271.1" height="3545.3"/>
<g>
	<g>
		<defs>
			<rect id="SVGID_101_" x="46" y="167.8" width="408" height="164.3"/>
		</defs>
		<clipPath id="SVGID_2_">
			<use xlink:href="#SVGID_101_"  style="overflow:visible;"/>
		</clipPath>
		<g class="st1">
			<defs>
				<rect id="SVGID_103_" x="46" y="167.8" width="408" height="164.3"/>
			</defs>
			<clipPath id="SVGID_4_">
				<use xlink:href="#SVGID_103_"  style="overflow:visible;"/>
			</clipPath>
			<path class="st2" d="M81.5,332.1c-11,0-22-0.1-33,0c-2.1,0-2.5-0.6-2.5-2.6c0.1-20.8,0.1-41.7,0-62.5c0-1.8,0.4-2.5,2.3-2.4
				c9.4,0.1,18.7,0.1,28.1,0c1.7,0,2.3,0.3,2.4,2.1c2.2,20,15.8,34.1,35.8,37c2.1,0.3,2.7,0.8,2.6,2.9c-0.1,7.6-0.1,15.2,0,22.8
				c0,2-0.5,2.6-2.5,2.6C103.7,332,92.6,332.1,81.5,332.1"/>
			<path class="st2" d="M82.2,193.3c10.8,0,21.6,0.1,32.4-0.1c2.2,0,2.8,0.6,2.7,2.7c-0.1,8.2-0.1,16.4,0,24.6
				c0,1.7-0.4,2.3-2.2,2.5c-19.1,2.2-33.5,16.3-36,35.1c-0.2,1.8-1,2.2-2.6,2.2c-9.2,0-18.3,0-27.5,0.1c-1.9,0-2.7-0.5-2.7-2.6
				c0.1-20.6,0.1-41.3,0-61.9c0-2.3,0.8-2.7,2.9-2.6C60.2,193.4,71.2,193.3,82.2,193.3L82.2,193.3z"/>
			<path class="st2" d="M156.7,332.1c-10.9,0-21.8,0-32.7,0c-1.9,0-2.8-0.3-2.7-2.5c0.1-7.8,0.1-15.6,0-23.4c0-1.7,0.5-2.2,2.2-2.4
				c20.4-2.2,34.6-16.3,37.1-36.6c0.2-1.7,0.7-2.3,2.5-2.3c9,0.1,17.9,0.1,26.9,0c1.7,0,2.4,0.4,2.4,2.3c-0.1,20.9-0.1,41.8,0,62.7
				c0,2.3-1.2,2.1-2.8,2.1C178.7,332.1,167.7,332.1,156.7,332.1L156.7,332.1z"/>
			<path class="st2" d="M197.7,206.7c7.5-11.1,17.8-12.4,28.9-10.2c8.8,1.7,14.1,8.7,14.3,18.9c0.3,14.6,0.1,29.3,0.2,43.9
				c0,1.7-0.8,1.7-2.1,1.8c-1.7,0.1-2.1-0.6-2.1-2.2c0.1-12.6,0-25.3,0-37.9c0-3.2-0.1-6.4-0.8-9.5c-1.5-6.9-5.5-10.7-12.4-11.9
				c-3.7-0.6-7.3-0.5-10.9,0.3c-8.4,1.7-13.7,7.8-14.7,16.8c-0.8,7.5-0.4,15-0.5,22.5c-0.1,6.5,0,12.9,0,19.4c0,1.4,0.2,2.5-2,2.5
				c-2.3,0-2.2-1.1-2.2-2.7c0-19.7,0-39.3,0-59c0-1.6,0-2.7,2.2-2.7c2.2,0,1.9,1.3,1.9,2.6C197.7,201.7,197.7,203.8,197.7,206.7"/>
			<path class="st2" d="M201,297.8c-0.1-4.1,0.7-8.4,2.6-12.5c6.1-13.2,26.8-16.4,36-5.7c0.6,0.7,1.1,1.4,1.5,2.1
				c1.9,3.1,1.2,4.7-2.3,5.9c-1.2,0.4-1.3-0.4-1.6-1.1c-3-6.2-8.2-8.3-14.7-8c-6.6,0.2-11.4,3.4-13.9,9.5
				c-2.8,6.9-2.8,13.9-0.1,20.9c2.6,6.5,8,9.8,15.3,9.7c7.1,0,11.7-3.2,14.3-10c0.3-0.8,0.5-2.1,1.6-1.1c1.3,1,4.4,0.6,3.3,3.7
				c-2,5.6-5.8,9.6-11.6,11.2C215.3,327.1,200.8,318.5,201,297.8"/>
			<path class="st2" d="M389.8,220.3c0-12.6,0-25.3,0-37.9c0-1.5-0.5-3,2.1-3c2.7,0,2,1.8,2,3.1c0.1,4.1,0.1,8.3,0,12.4
				c0,1.6,0.4,2.2,2.1,2.1c3-0.1,6,0,9-0.1c1.4,0,1.8,0.5,1.8,1.9c0,1.4-0.5,1.8-1.8,1.8c-2.6-0.1-5.2,0.2-7.8-0.1
				c-2.5-0.2-3.2,0.5-3.2,3.1c0.1,18.3,0.1,36.6,0.1,54.9c0,1.3,0.4,2.6-1.8,2.6c-2.1,0-2.3-0.8-2.3-2.5
				C389.8,245.9,389.8,233.1,389.8,220.3"/>
			<path class="st2" d="M362.2,277.4c7.7,0,13.3,3.7,15,9.9c0.2,0.8,1.2,2.1-0.5,2.6c-1.4,0.4-1.9-0.4-2.3-1.8
				c-1.2-4.7-4.6-7.2-9.3-7.8c-4-0.6-7.9-0.3-11.5,1.7c-5.4,3.1-5.5,8.9-0.3,12.3c3.2,2.1,6.8,3.1,10.5,4c3.2,0.8,6.4,1.5,9.3,3
				c7.3,3.5,8.2,12.6,1.7,17.5c-6.4,5-18.7,4.8-24.9-0.4c-2.6-2.1-3.9-5-4.5-8.2c-0.1-0.7-0.5-1.7,0.7-1.7c0.8,0,1.8-0.4,2.1,0.9
				c0,0.1,0,0.2,0.1,0.3c3.9,9.1,10.7,12.3,20.2,9.4c2.2-0.7,4.1-1.7,5.6-3.4c3.1-3.6,2.4-8.7-1.6-11.3c-2.2-1.4-4.7-2.1-7.3-2.7
				c-4.4-1-8.8-2.1-12.9-4c-3.4-1.5-5.6-4.1-5.9-7.9c-0.2-4,1.3-7.1,4.7-9.3C354.5,278.2,358.3,277.5,362.2,277.4"/>
			<path class="st2" d="M303.9,284.6c5.6-7,12.4-7.9,19.8-6.8c6.5,1,10.5,5,11,11.5c0.8,10.1,0.2,20.2,0.3,30.3
				c0,1.1-0.4,1.5-1.5,1.5c-1.7,0.1-1.5-1-1.5-2.1c0-8,0-16,0-24c0-2.6,0-5.2-0.8-7.7c-0.6-2-1.4-3.9-3.2-5
				c-5.3-3.4-11-3.1-16.6-0.9c-4.9,2-6.9,6.2-7.3,11.2c-0.6,8.7-0.1,17.3-0.3,26c0,1,0.6,2.4-1.4,2.5c-2.1,0.1-1.7-1.4-1.7-2.5
				c0-11.8,0-23.5,0-35.3c0-1.2,0.1-2.3,0-3.5c-0.1-1.3,0.6-1.6,1.8-1.6c1.3,0,1.4,0.7,1.3,1.7C303.9,281.3,303.9,282.5,303.9,284.6
				"/>
			<path class="st2" d="M451,291.5c0-9,0-18.1,0-27.1c0-1-0.6-2.4,1.4-2.4c2,0,1.4,1.4,1.4,2.4c0,18.2,0,36.4,0,54.6
				c0,1.1,0.4,2.4-1.6,2.3c-1.8-0.1-1.3-1.3-1.3-2.3C451,309.8,451,300.7,451,291.5"/>
			<path class="st2" d="M435.5,299.5c0-6.3,0-12.5,0-18.8c0-1.1-0.4-2.4,1.6-2.3c2,0,1.5,1.4,1.5,2.4c0,12.7,0,25.4,0,38.1
				c0,1.1,0.4,2.4-1.6,2.3c-2,0-1.4-1.4-1.4-2.4C435.5,312.4,435.5,305.9,435.5,299.5"/>
			<path class="st2" d="M435.1,264.9c0.1-0.5,0.1-1.2,0.2-1.8c0.2-1,0.7-1.9,1.8-1.8c1.1,0.1,1.6,1,1.7,2c0.1,1.2,0.2,2.5,0,3.7
				c-0.1,1.1-0.5,2.2-1.8,2.2c-1.5,0.1-1.7-1.2-1.9-2.4C435.1,266.2,435.1,265.7,435.1,264.9"/>
			<path class="st2" d="M375.8,199.1c0-1.7-0.5-2.2-2.1-2.1c-1.6,0-2,0.6-1.9,2c0.1,3.6,0,7.2,0,10.9c-0.9-0.1-1-0.6-1.1-1
				c-7.8-17.6-36.5-17-45.4-1.9c-6.5,10.9-6.9,22.5-4.3,34.4c2.9,13.1,11.6,20.6,24.5,21.4c11,0.7,20.2-2.6,25.5-13.1
				c0.1-0.2,0.3-0.5,0.8-0.2c0,3.2,0.1,6.4,0,9.7c-0.1,1.7,0.5,2.1,2.1,2.1c1.5,0,2-0.5,2-2C375.7,239.2,375.7,219.2,375.8,199.1
				 M367.2,248.4c-4.1,8.1-11.6,11.2-20.5,10.9c-8.9-0.3-15.4-4.4-19.4-12.3c-2.8-5.5-3.7-11.5-3.7-16.2c0-9,1.2-16.2,5.8-22.5
				c9-12.6,29.2-12.4,37.1,0.9C374,221.9,373.8,235.3,367.2,248.4"/>
			<path class="st2" d="M308.6,227c-0.3-3.2-0.4-6.3-1-9.5c-2.3-12.3-10.8-20.5-22.3-21.7c-13.5-1.3-23.3,4.2-27.9,16.5
				c-4.3,11.3-4.2,22.9,0.1,34.2c4.3,11.2,13.3,16.8,25.3,16.2c10.1-0.5,17.8-5.1,22.3-14.4c0.5-0.9,1-1.8-0.4-2.6
				c-1.9-1.2-2.5-0.5-3.3,1.3c-3.5,7.7-9.7,11.7-18.1,12.2c-8.4,0.5-15-2.6-19.6-9.7c-3.4-5.2-4.8-11.1-5-17.3
				c-0.1-2,0.4-2.6,2.5-2.6c7.5,0.1,15,0.1,22.5,0.1c7.4,0,14.8-0.1,22.3,0.1C308.2,229.8,308.8,229.1,308.6,227 M301.9,225.9
				c-6.8,0-13.7,0-20.5,0c-6.7,0-13.5-0.1-20.2,0.1c-2.1,0-2.4-0.7-2.2-2.5c0.7-4.7,1.9-9.2,4.2-13.4c6.5-11.4,22.8-14.5,32.4-6
				c6,5.3,8.1,12.4,8.5,20.2C304.2,226.1,303,225.9,301.9,225.9"/>
			<path class="st2" d="M421.4,300.1c4.5,0,4.5,0,4.2-4.5c-0.7-10.4-7-17.1-17.2-18.1c-10.3-1-18,4.4-20.6,14.5
				c-1.3,5-1.3,10.1-0.2,15.2c2.1,9.5,8.2,14.7,17.9,15.1c7.4,0.3,13.6-2.3,17.5-9.1c0.4-0.7,1.3-1.6-0.2-2.4
				c-1.5-0.8-1.8,0.1-2.3,1.1c-3.3,6.3-8.8,8.3-15.5,7.9c-6.2-0.3-10.4-3.7-13-9.1c-1.3-2.6-1.8-5.5-2.1-8.4
				c-0.2-1.8,0.4-2.3,2.2-2.3c5.2,0.1,10.4,0,15.6,0v0C412.4,300.1,416.9,300.1,421.4,300.1 M406.4,297.6c-4.8,0-9.6,0-14.4,0
				c-1.4,0-1.8-0.3-1.7-1.8c0.7-10.8,9.7-17.7,20.3-15.6c7.3,1.4,11.7,8.3,12,16.1c0.1,1.6-1.1,1.3-2,1.3
				C415.9,297.6,411.1,297.6,406.4,297.6"/>
			<path class="st2" d="M290.9,295.6c-1.3-11-8.4-17.8-19.2-18.2c-10.8-0.4-18.5,5.8-20.5,16.7c-0.3,1.9-0.4,3.8-0.5,5.7
				c0,2.5,0.3,5,0.9,7.5c2.2,9.4,8.9,14.8,18.9,15.1c9.7,0.3,17.1-4.9,19.6-13.8C291.2,304.3,291.4,300,290.9,295.6 M287.7,305.4
				c-1.7,9.3-7.8,14.5-17,14.4c-9,0-14.9-5.2-16.5-14.6c-1-5.7-0.7-11.4,1.9-16.7c3.1-6.2,8.4-8.8,15.2-8.6c6.9,0.1,12,3.2,14.9,9.6
				c1.5,3.4,2,7,2,10.7C288,301.9,288,303.7,287.7,305.4"/>
			<path class="st2" d="M157.6,263.6c0,20.9-17,37.9-37.9,37.9s-37.9-17-37.9-37.9s17-37.9,37.9-37.9S157.6,242.7,157.6,263.6"/>
			<path class="st2" d="M175.8,198.2c0.6-2,0.5-2.8-1.9-2.4c-7.4,1.3-14.8,2.6-22.2,3.5c-3.2,0.4-2.7,2.4-2.6,4.3
				c0.2,2.7,2.1,0.9,3.3,1c1,0.1,2.1-0.3,3.2-0.3c3.6-0.2,4.5,0.7,3.6,4.2c-2.6,10.9-5.8,21.5-9.3,32.7c-0.1-0.1,2.8,0.4,2.7,0.3
				c0,0.2-0.2,1.4-0.2,1.5c-0.2,1.8-1.4,1.9-1.8,3.7c-0.5,2,0.7,3.9,0.8,5.9c0.1,1.3-0.7,2.8,0.2,3.8c0.9,1-0.8,2.6,0.3,3.5
				c0.2,0.1,0.3,0.3,0.5,0.4c1.2-0.2,2.4-0.2,3.9,0.1c1.2,0.2,1.9-2.4,2.4-1.4c0.1-0.1,1.2,3,1.4,2.9c6.3-3.4,9.9-8.1,13.6-14
				c1.5-2.3-1.2-2.2-2.1-3.2c-0.9-0.9-1.8-1.2-2.7,0.3c-1.2,2-2.6,3.9-4.1,5.5c-1.2,1.3-2.5,4-4.3,3c-1.4-0.8,0-3.4,0.5-5.1
				C165.8,231.8,170.8,215,175.8,198.2"/>
			<path class="st2" d="M179.9,176.2c0,4.6-3.6,8.3-8.2,8.3c-4.6,0-8.4-3.8-8.3-8.5c0-4.7,3.5-8.2,8.2-8.2
				C176.5,167.8,179.9,171.3,179.9,176.2"/>
			<path class="st2" d="M151.9,235.4c0,0-14,33.5,8,26.6l-3-14.1L151.9,235.4z"/>
		</g>
	</g>
</g>
</svg>
