<?xml version="1.0" encoding="utf-8"?>
<!-- Generator: Adobe Illustrator 19.2.1, SVG Export Plug-In . SVG Version: 6.00 Build 0)  -->
<svg version="1.1" id="Calque_1" xmlns="http://www.w3.org/2000/svg" xmlns:xlink="http://www.w3.org/1999/xlink" x="0px" y="0px"
	 viewBox="0 0 500 500" style="enable-background:new 0 0 500 500;" xml:space="preserve">
<style type="text/css">
	.st0{display:none;fill:#1D1D1B;stroke:#FFFFFF;stroke-miterlimit:10;}
	.st1{clip-path:url(#SVGID_2_);}
	.st2{clip-path:url(#SVGID_4_);fill:#FFFFFF;}
	.st3{clip-path:url(#SVGID_6_);}
	.st4{clip-path:url(#SVGID_8_);fill:#FFFFFF;}
	.st5{clip-path:url(#SVGID_10_);}
	.st6{clip-path:url(#SVGID_12_);fill:#FFFFFF;}
	.st7{clip-path:url(#SVGID_14_);}
	.st8{clip-path:url(#SVGID_16_);fill:#FFFFFF;}
	.st9{clip-path:url(#SVGID_16_);}
	.st10{opacity:0.3;clip-path:url(#SVGID_18_);}
	.st11{clip-path:url(#SVGID_20_);fill:#FFFFFF;}
	.st12{opacity:0.3;clip-path:url(#SVGID_22_);}
	.st13{clip-path:url(#SVGID_24_);fill:#FFFFFF;}
	.st14{clip-path:url(#SVGID_26_);fill:#FFFFFF;}
	.st15{clip-path:url(#SVGID_22_);fill:#FFFFFF;}
	.st16{clip-path:url(#SVGID_28_);fill:#FFFFFF;}
	.st17{clip-path:url(#SVGID_30_);}
	.st18{clip-path:url(#SVGID_32_);fill:#FFFFFF;}
	.st19{clip-path:url(#SVGID_34_);}
	.st20{clip-path:url(#SVGID_36_);fill:#FFFFFF;}
	.st21{clip-path:url(#SVGID_38_);}
	.st22{clip-path:url(#SVGID_40_);fill:#FFFFFF;}
	.st23{clip-path:url(#SVGID_42_);}
	.st24{clip-path:url(#SVGID_44_);fill-rule:evenodd;clip-rule:evenodd;fill:#FFFFFF;}
	.st25{clip-path:url(#SVGID_44_);fill:#FFFFFF;}
	.st26{clip-path:url(#SVGID_46_);}
	.st27{clip-path:url(#SVGID_48_);fill:#FFFFFF;}
	.st28{clip-path:url(#SVGID_50_);}
	.st29{clip-path:url(#SVGID_52_);fill:#FFFFFF;}
	.st30{clip-path:url(#SVGID_54_);}
	.st31{clip-path:url(#SVGID_56_);fill-rule:evenodd;clip-rule:evenodd;fill:#FFFFFF;}
	.st32{clip-path:url(#SVGID_56_);fill:#FFFFFF;}
	.st33{clip-path:url(#SVGID_58_);}
	.st34{clip-path:url(#SVGID_60_);fill:#FFFFFF;}
	.st35{clip-path:url(#SVGID_62_);}
	.st36{clip-path:url(#SVGID_64_);}
	.st37{opacity:0.3;clip-path:url(#SVGID_66_);}
	.st38{clip-path:url(#SVGID_68_);fill:#FFFFFF;}
	.st39{clip-path:url(#SVGID_68_);}
	.st40{clip-path:url(#SVGID_70_);fill:#FFFFFF;}
	.st41{opacity:0.7;clip-path:url(#SVGID_66_);}
	.st42{clip-path:url(#SVGID_72_);fill:#FFFFFF;}
	.st43{clip-path:url(#SVGID_72_);}
	.st44{clip-path:url(#SVGID_74_);fill:#FFFFFF;}
	.st45{clip-path:url(#SVGID_66_);fill:#FFFFFF;}
	.st46{opacity:0.5;clip-path:url(#SVGID_66_);}
	.st47{clip-path:url(#SVGID_76_);fill:#FFFFFF;}
	.st48{clip-path:url(#SVGID_76_);}
	.st49{clip-path:url(#SVGID_78_);fill:#FFFFFF;}
	.st50{clip-path:url(#SVGID_80_);fill:#FFFFFF;}
	.st51{clip-path:url(#SVGID_82_);}
	.st52{clip-path:url(#SVGID_84_);fill:#FFFFFF;}
	.st53{clip-path:url(#SVGID_86_);}
	.st54{clip-path:url(#SVGID_88_);fill:#FFFFFF;}
	.st55{clip-path:url(#SVGID_88_);fill-rule:evenodd;clip-rule:evenodd;fill:#FFFFFF;}
	.st56{clip-path:url(#SVGID_90_);}
	.st57{clip-path:url(#SVGID_92_);fill:#FFFFFF;}
	.st58{clip-path:url(#SVGID_94_);}
	.st59{clip-path:url(#SVGID_96_);fill:#FFFFFF;}
	.st60{clip-path:url(#SVGID_98_);}
	.st61{clip-path:url(#SVGID_100_);fill:#FFFFFF;}
	.st62{clip-path:url(#SVGID_100_);fill:#FDFDFD;}
	.st63{clip-path:url(#SVGID_102_);}
	.st64{clip-path:url(#SVGID_104_);fill:#FFFFFF;}
	.st65{clip-path:url(#SVGID_106_);fill:#FFFFFF;}
	.st66{clip-path:url(#SVGID_106_);}
	.st67{clip-path:url(#SVGID_108_);fill:#FFFFFF;}
	.st68{clip-path:url(#SVGID_110_);}
	.st69{clip-path:url(#SVGID_112_);fill:#FFFFFF;}
	.st70{clip-path:url(#SVGID_114_);}
	.st71{clip-path:url(#SVGID_116_);fill-rule:evenodd;clip-rule:evenodd;fill:#FFFFFF;}
	.st72{clip-path:url(#SVGID_118_);}
	.st73{clip-path:url(#SVGID_120_);}
	.st74{clip-path:url(#SVGID_122_);}
	.st75{clip-path:url(#SVGID_126_);fill:#F9F9F9;}
</style>
<rect x="-2706.3" y="-1228.3" class="st0" width="4271.1" height="3545.3"/>
<g>
	<g>
		<defs>
			<rect id="SVGID_85_" x="74.4" y="155.6" width="351.3" height="188.7"/>
		</defs>
		<clipPath id="SVGID_2_">
			<use xlink:href="#SVGID_85_"  style="overflow:visible;"/>
		</clipPath>
		<g class="st1">
			<defs>
				<rect id="SVGID_87_" x="56.6" y="140.5" width="386.4" height="218.4"/>
			</defs>
			<clipPath id="SVGID_4_">
				<use xlink:href="#SVGID_87_"  style="overflow:visible;"/>
			</clipPath>
			<path class="st2" d="M207.2,307.6c-12.7,22.1-35.3,36.8-61,36.8c-39.7,0-71.9-35-71.9-78.2c0-19.9,6.8-38,18-51.8l0,0l0.4-0.4
				c1.8-2.1,3.6-4.2,5.6-6.1l48-52.2l48,52.2c2,1.9,3.8,4,5.6,6.1l0.2,0.2c-2.6,0.6-5,1.5-7.3,2.6c-2.5,1.2-4.9,2.5-7.1,4.1
				c-0.4-0.4-0.8-0.8-1.1-1.2l-0.3-0.3l-0.3-0.3l-37.7-41l-37.7,41l-0.3,0.3l-0.3,0.3c-1.6,1.5-3.1,3.2-4.5,4.9l-0.1,0.1l-0.2,0.2
				c-9.3,11.4-14.3,26.1-14.3,41.3c0,16.7,6,32.3,16.8,44.1c10.8,11.8,25.2,18.3,40.5,18.3c15.3,0,29.7-6.5,40.6-18.3
				c1.9-2.1,3.7-4.3,5.3-6.6c0.2,0.1,0.4,0.2,0.6,0.3C197.1,305.9,201.9,307.1,207.2,307.6"/>
			<path class="st2" d="M239.2,248.4c-1.3-3.8-3.2-7.1-5.7-9.9c-2.5-2.8-5.6-5.1-9.2-6.8c-3.6-1.7-7.8-2.6-12.5-2.6
				c-4.7,0-8.8,0.9-12.5,2.6c-3.7,1.7-6.7,4-9.3,6.8c-2.5,2.8-4.4,6.1-5.7,9.9c-1.3,3.8-1.9,7.7-1.9,11.8c0,4.1,0.6,8,1.9,11.8
				c1.3,3.8,3.2,7.1,5.7,9.9c2.5,2.8,5.6,5.1,9.3,6.8c3.7,1.7,7.8,2.5,12.5,2.5c4.7,0,8.8-0.8,12.5-2.5c3.7-1.7,6.8-3.9,9.3-6.8
				c2.5-2.8,4.4-6.1,5.7-9.9c1.3-3.8,1.9-7.7,1.9-11.8C241.2,256.1,240.6,252.2,239.2,248.4 M223,266.5c-0.6,1.9-1.5,3.6-2.6,4.9
				c-1.1,1.4-2.4,2.4-3.8,3.2c-1.5,0.8-3.1,1.1-4.8,1.1c-3.6,0-6.5-1.4-8.8-4.3c-2.3-2.8-3.5-6.6-3.5-11.3c0-2.3,0.3-4.4,0.9-6.3
				c0.6-1.9,1.5-3.6,2.6-5c1.1-1.4,2.4-2.4,3.9-3.2c1.5-0.8,3.1-1.1,4.9-1.1c3.5,0,6.4,1.4,8.7,4.3c2.3,2.8,3.5,6.6,3.5,11.3
				C224,262.5,223.7,264.6,223,266.5"/>
			<path class="st2" d="M285.2,269.9c-0.8,1.7-2.1,3.2-3.9,4.3c-1.7,1.1-3.7,1.6-5.8,1.6c-1.7,0-3.3-0.4-4.8-1.1
				c-1.5-0.8-2.8-1.8-3.9-3.2c-1.1-1.4-2-3-2.6-5c-0.6-1.9-0.9-4.1-0.9-6.4c0-4.7,1.2-8.5,3.5-11.3c2.3-2.8,5.2-4.2,8.7-4.2
				c4.2,0,7.4,1.9,9.5,5.7l16.3-5.3c-2.2-4.7-5.4-8.5-9.7-11.4c-4.3-2.9-9.7-4.4-16-4.4c-4.7,0-8.8,0.8-12.5,2.5
				c-3.7,1.7-6.7,3.9-9.3,6.8c-0.4,0.4-0.7,0.8-1.1,1.3c-2,2.5-3.6,5.4-4.7,8.6c-1.3,3.8-2,7.7-2,11.8c0,4.1,0.7,8,2,11.8
				c1.2,3.3,2.8,6.2,4.8,8.8c0.3,0.4,0.6,0.8,1,1.1c2.5,2.8,5.6,5.1,9.3,6.8c3.7,1.7,7.8,2.6,12.4,2.6c6.3,0,11.7-1.5,16.2-4.4
				c4.4-3,7.7-6.8,9.7-11.4L285.2,269.9z"/>
			<path class="st2" d="M361.2,248.2c-1.3-3.7-3.2-7-5.7-9.8c-2.5-2.8-5.6-5.1-9.2-6.8c-3.6-1.7-7.8-2.5-12.5-2.5
				c-4.7,0-8.8,0.8-12.5,2.5c-3.7,1.7-6.7,3.9-9.3,6.8c-2.5,2.9-4.4,6.2-5.8,10.1c-1.3,3.8-2,7.9-2,12.2c0,4,0.7,7.9,2,11.6
				c1.3,3.7,3.3,6.9,5.8,9.7c2.5,2.8,5.6,5,9.3,6.7c3.7,1.6,7.8,2.4,12.4,2.4c6.4,0,11.8-1.5,16.3-4.4c4.5-3,7.9-6.8,10-11.5
				l-14.2-4.3c-0.8,2.2-2.3,3.9-4.5,5.2c-2.3,1.3-4.6,1.9-7.1,1.9c-3.1,0-5.8-1-8.2-3.1c-2.4-2.1-3.8-5.1-4-9.2h40.6
				c0.1-0.8,0.2-1.7,0.3-2.7c0.1-1,0.1-2.1,0.1-3.1C363.1,255.9,362.5,252,361.2,248.2 M321.8,254.5c0.3-3.7,1.6-6.7,3.7-8.9
				c2.1-2.2,4.8-3.4,8.1-3.4c3.2,0,5.9,1.1,8.1,3.3c2.2,2.2,3.4,5.2,3.8,9H321.8z"/>
			<path class="st2" d="M422.3,273.3c-0.6-0.7-0.9-2-0.9-3.8v-15.4c0-8.2-2.3-14.4-6.8-18.7c-4.5-4.2-11-6.4-19.3-6.4
				c-4.4,0-8.5,0.6-12.4,1.9c-3.9,1.3-7.7,3.2-11.3,5.8l4.9,11.4c3-2.2,5.9-3.9,8.6-5c2.7-1.1,5.6-1.6,8.6-1.6c7.3,0,11,3.5,11,10.4
				v2.7c-1.6-0.8-3.5-1.5-5.6-1.9c-2.2-0.4-4.4-0.6-6.7-0.6c-3.5,0-6.7,0.5-9.5,1.5c-2.9,1-5.3,2.4-7.4,4.1
				c-2.1,1.7-3.7,3.8-4.9,6.3c-1.2,2.4-1.7,5.1-1.7,8.1c0,2.7,0.5,5.3,1.5,7.6c1,2.3,2.3,4.3,4,6c1.7,1.7,3.7,3,6,4
				c2.3,0.9,4.9,1.4,7.6,1.4c3.8,0,7.3-0.9,10.7-2.7c3.4-1.8,6.3-4.4,8.7-7.9l0.3,2.7c0.4,2.4,1.4,4.3,3,5.6c1.6,1.3,3.9,2,7,2
				c1,0,2.3-0.1,3.6-0.2c1.4-0.1,2.8-0.4,4.4-0.7v-15.4C424,274.5,422.9,274.1,422.3,273.3 M404.6,270c0,1.5-0.8,3-2.4,4.3
				c-1.1,1.1-2.5,2.1-4.2,2.7c-1.7,0.7-3.5,1-5.3,1c-2.4,0-4.3-0.7-5.9-2.1c-1.5-1.4-2.3-3.2-2.3-5.4c0-2.4,1-4.4,3-5.9
				c2-1.5,4.5-2.3,7.6-2.3c1.5,0,3.1,0.2,4.8,0.5c1.7,0.3,3.3,0.8,4.8,1.4V270z"/>
			<path class="st2" d="M226,302.3c0.5,0,1,0.1,1.4,0.2c0.4,0.2,0.8,0.4,1.1,0.7c0.3,0.3,0.5,0.7,0.7,1.1c0.2,0.4,0.2,1,0.2,1.5
				c0,0.6-0.1,1.1-0.2,1.5c-0.2,0.4-0.4,0.8-0.7,1.1c-0.3,0.3-0.7,0.5-1.1,0.7c-0.4,0.2-0.9,0.2-1.4,0.2h-4v5.4h-1.1v-12.6H226z
				 M225.8,308.5c0.8,0,1.4-0.2,1.9-0.6c0.5-0.4,0.7-1.1,0.7-1.9c0-0.9-0.2-1.5-0.7-1.9c-0.5-0.4-1.1-0.6-1.9-0.6h-3.8v5.2H225.8z"
				/>
			<path class="st2" d="M238,302.3c0.5,0,0.9,0.1,1.4,0.2c0.4,0.1,0.8,0.3,1.1,0.6c0.3,0.3,0.6,0.6,0.8,1c0.2,0.4,0.3,0.9,0.3,1.5
				c0,0.8-0.2,1.5-0.6,2.1c-0.4,0.6-0.9,1-1.7,1.1v0c0.4,0.1,0.7,0.2,0.9,0.3c0.2,0.2,0.5,0.4,0.6,0.6c0.2,0.2,0.3,0.5,0.3,0.9
				c0.1,0.3,0.1,0.7,0.1,1.1c0,0.2,0,0.5,0,0.8c0,0.3,0,0.6,0.1,0.9c0,0.3,0.1,0.6,0.2,0.9c0.1,0.3,0.2,0.5,0.3,0.6h-1.2
				c-0.1-0.1-0.1-0.3-0.2-0.4c0-0.2-0.1-0.3-0.1-0.5c0-0.2,0-0.4,0-0.5c0-0.2,0-0.3,0-0.5c0-0.4-0.1-0.9-0.1-1.3
				c-0.1-0.4-0.2-0.8-0.3-1.2c-0.2-0.3-0.4-0.6-0.7-0.8c-0.3-0.2-0.7-0.3-1.2-0.3h-4.2v5.6h-1.1v-12.6H238z M237.9,308.3
				c0.3,0,0.7-0.1,1-0.2c0.3-0.1,0.6-0.3,0.8-0.5c0.2-0.2,0.4-0.5,0.5-0.8c0.1-0.3,0.2-0.6,0.2-1c0-0.8-0.2-1.4-0.6-1.8
				c-0.4-0.4-1-0.7-1.9-0.7h-4.1v5H237.9z"/>
			<path class="st2" d="M244.9,306.1c0.2-0.8,0.6-1.5,1-2.1c0.5-0.6,1-1.1,1.7-1.4c0.7-0.4,1.5-0.5,2.4-0.5c0.9,0,1.7,0.2,2.4,0.5
				c0.7,0.4,1.3,0.8,1.7,1.4c0.5,0.6,0.8,1.3,1,2.1c0.2,0.8,0.3,1.6,0.3,2.5c0,0.9-0.1,1.7-0.3,2.5c-0.2,0.8-0.6,1.5-1,2.1
				c-0.5,0.6-1,1.1-1.7,1.4c-0.7,0.4-1.5,0.5-2.4,0.5c-0.9,0-1.7-0.2-2.4-0.5c-0.7-0.4-1.3-0.8-1.7-1.4c-0.5-0.6-0.8-1.3-1-2.1
				c-0.2-0.8-0.3-1.6-0.3-2.5C244.6,307.8,244.7,306.9,244.9,306.1 M245.9,310.7c0.2,0.7,0.4,1.3,0.8,1.8c0.4,0.5,0.8,0.9,1.4,1.3
				c0.6,0.3,1.2,0.5,2,0.5c0.8,0,1.4-0.2,2-0.5c0.5-0.3,1-0.7,1.4-1.3c0.4-0.5,0.6-1.1,0.8-1.8c0.2-0.7,0.2-1.3,0.2-2
				c0-0.7-0.1-1.4-0.2-2c-0.2-0.7-0.4-1.3-0.8-1.8c-0.4-0.5-0.8-0.9-1.4-1.3c-0.5-0.3-1.2-0.5-2-0.5c-0.8,0-1.4,0.2-2,0.5
				c-0.6,0.3-1,0.7-1.4,1.3c-0.4,0.5-0.6,1.1-0.8,1.8c-0.2,0.7-0.3,1.3-0.3,2C245.7,309.3,245.7,310,245.9,310.7"/>
			<path class="st2" d="M264,302.3c0.5,0,1,0.1,1.4,0.2c0.4,0.2,0.8,0.4,1.1,0.7c0.3,0.3,0.5,0.7,0.7,1.1c0.2,0.4,0.2,1,0.2,1.5
				c0,0.6-0.1,1.1-0.2,1.5c-0.2,0.4-0.4,0.8-0.7,1.1c-0.3,0.3-0.7,0.5-1.1,0.7c-0.4,0.2-0.9,0.2-1.4,0.2h-4.1v5.4h-1.1v-12.6H264z
				 M263.7,308.5c0.8,0,1.4-0.2,1.9-0.6c0.5-0.4,0.7-1.1,0.7-1.9c0-0.9-0.2-1.5-0.7-1.9c-0.5-0.4-1.1-0.6-1.9-0.6h-3.8v5.2H263.7z"
				/>
			<path class="st2" d="M276,302.3c0.5,0,0.9,0.1,1.4,0.2c0.4,0.1,0.8,0.3,1.1,0.6c0.3,0.3,0.6,0.6,0.8,1c0.2,0.4,0.3,0.9,0.3,1.5
				c0,0.8-0.2,1.5-0.6,2.1c-0.4,0.6-0.9,1-1.7,1.1v0c0.4,0.1,0.7,0.2,0.9,0.3c0.3,0.2,0.5,0.4,0.6,0.6c0.2,0.2,0.3,0.5,0.3,0.9
				c0.1,0.3,0.1,0.7,0.1,1.1c0,0.2,0,0.5,0,0.8c0,0.3,0,0.6,0.1,0.9c0,0.3,0.1,0.6,0.2,0.9c0.1,0.3,0.2,0.5,0.3,0.6h-1.2
				c-0.1-0.1-0.1-0.3-0.2-0.4c0-0.2-0.1-0.3-0.1-0.5c0-0.2,0-0.4,0-0.5c0-0.2,0-0.3,0-0.5c0-0.4-0.1-0.9-0.1-1.3
				c0-0.4-0.2-0.8-0.3-1.2c-0.2-0.3-0.4-0.6-0.7-0.8c-0.3-0.2-0.7-0.3-1.2-0.3h-4.2v5.6h-1.1v-12.6H276z M275.9,308.3
				c0.3,0,0.7-0.1,1-0.2c0.3-0.1,0.6-0.3,0.8-0.5c0.2-0.2,0.4-0.5,0.5-0.8c0.1-0.3,0.2-0.6,0.2-1c0-0.8-0.2-1.4-0.6-1.8
				c-0.4-0.4-1-0.7-1.9-0.7h-4.1v5H275.9z"/>
			<polygon class="st2" points="291.2,302.3 291.2,303.4 284.3,303.4 284.3,307.9 290.7,307.9 290.7,308.9 284.3,308.9 284.3,313.9 
				291.3,313.9 291.3,315 283.2,315 283.2,302.3 			"/>
			<polygon class="st2" points="302.4,302.3 302.4,303.4 298.3,303.4 298.3,315 297.2,315 297.2,303.4 293.2,303.4 293.2,302.3 			
				"/>
			<path class="st2" d="M313.1,302.3v1h-6.9v4.6h6.5v1h-6.5v5h7v1h-8.1v-12.6H313.1z M307.8,301.3l1.7-2.5h1.3l-2.1,2.5H307.8z"/>
			<path class="st2" d="M327.4,314.7c-0.6,0.3-1.2,0.5-1.9,0.5c-0.5,0-1-0.1-1.4-0.2c-0.4-0.2-0.8-0.4-1.1-0.7
				c-0.3-0.3-0.6-0.7-0.7-1.1c-0.2-0.4-0.3-0.9-0.3-1.5c0-0.4,0.1-0.9,0.3-1.2c0.2-0.4,0.4-0.7,0.7-1c0.3-0.3,0.6-0.6,0.9-0.8
				c0.3-0.2,0.7-0.5,1-0.7c-0.2-0.2-0.3-0.5-0.5-0.7c-0.2-0.2-0.3-0.5-0.5-0.7c-0.1-0.2-0.3-0.5-0.3-0.8c-0.1-0.3-0.1-0.6-0.1-0.9
				c0-0.4,0.1-0.7,0.2-1.1c0.1-0.3,0.3-0.6,0.6-0.8c0.2-0.2,0.5-0.4,0.8-0.5c0.3-0.1,0.6-0.2,1-0.2c0.4,0,0.7,0.1,1,0.2
				c0.3,0.1,0.6,0.3,0.8,0.5c0.2,0.2,0.4,0.5,0.6,0.8c0.1,0.3,0.2,0.7,0.2,1.1c0,0.4-0.1,0.7-0.2,1.1c-0.1,0.3-0.3,0.6-0.5,0.9
				c-0.2,0.3-0.5,0.5-0.7,0.7c-0.3,0.2-0.6,0.4-0.8,0.6l2.5,3.3c0.1-0.3,0.2-0.6,0.3-0.9c0-0.3,0.1-0.7,0.1-1.2h1
				c0,0.4,0,0.8-0.1,1.4c-0.1,0.6-0.3,1.1-0.5,1.7l2,2.6h-1.3l-1.2-1.6C328.5,313.9,328,314.4,327.4,314.7 M324.5,309.2
				c-0.3,0.2-0.5,0.4-0.8,0.7c-0.2,0.3-0.4,0.5-0.6,0.9c-0.1,0.3-0.2,0.7-0.2,1c0,0.4,0.1,0.7,0.2,1c0.1,0.3,0.3,0.6,0.6,0.8
				c0.2,0.2,0.5,0.4,0.8,0.5c0.3,0.1,0.6,0.2,0.9,0.2c0.6,0,1.1-0.2,1.6-0.5c0.5-0.3,0.9-0.8,1.2-1.3l-2.9-3.8
				C325.1,308.8,324.8,309,324.5,309.2 M324.9,303.7c-0.3,0.3-0.5,0.7-0.5,1.2c0,0.2,0,0.4,0.1,0.7c0.1,0.2,0.2,0.5,0.3,0.7
				c0.1,0.2,0.3,0.4,0.4,0.6c0.2,0.2,0.3,0.4,0.4,0.6c0.2-0.1,0.4-0.3,0.6-0.5c0.2-0.2,0.4-0.4,0.6-0.6c0.2-0.2,0.3-0.4,0.4-0.7
				c0.1-0.3,0.2-0.5,0.2-0.8c0-0.5-0.2-0.9-0.5-1.2c-0.3-0.3-0.7-0.4-1.1-0.4C325.5,303.3,325.2,303.4,324.9,303.7"/>
			<path class="st2" d="M341,312.4c0.2,0.4,0.5,0.8,0.8,1c0.3,0.3,0.7,0.4,1.2,0.6c0.5,0.1,1,0.2,1.5,0.2c0.3,0,0.6,0,1-0.1
				c0.4-0.1,0.7-0.2,1-0.5c0.3-0.2,0.6-0.5,0.8-0.8c0.2-0.3,0.3-0.7,0.3-1.2c0-0.4-0.1-0.7-0.2-0.9c-0.1-0.3-0.3-0.5-0.6-0.7
				c-0.2-0.2-0.5-0.3-0.8-0.4c-0.3-0.1-0.6-0.2-0.8-0.3l-2.6-0.7c-0.3-0.1-0.7-0.2-1-0.4c-0.3-0.1-0.6-0.3-0.8-0.6
				c-0.2-0.2-0.4-0.5-0.6-0.9c-0.1-0.3-0.2-0.8-0.2-1.3c0-0.3,0.1-0.7,0.2-1.1c0.1-0.4,0.3-0.8,0.6-1.2c0.3-0.4,0.7-0.7,1.2-0.9
				c0.5-0.3,1.2-0.4,2-0.4c0.6,0,1.1,0.1,1.6,0.2c0.5,0.2,1,0.4,1.4,0.7c0.4,0.3,0.7,0.7,0.9,1.2c0.2,0.5,0.3,1.1,0.3,1.7h-1.1
				c0-0.5-0.1-0.9-0.3-1.3c-0.2-0.4-0.4-0.7-0.7-0.9c-0.3-0.2-0.6-0.4-1-0.5c-0.4-0.1-0.8-0.2-1.2-0.2c-0.4,0-0.7,0-1.1,0.1
				c-0.4,0.1-0.7,0.2-0.9,0.4c-0.3,0.2-0.5,0.4-0.6,0.8c-0.2,0.3-0.2,0.7-0.2,1.2c0,0.3,0,0.5,0.1,0.8c0.1,0.2,0.2,0.4,0.4,0.6
				c0.2,0.2,0.3,0.3,0.6,0.4c0.2,0.1,0.4,0.2,0.7,0.2l2.8,0.8c0.4,0.1,0.8,0.3,1.2,0.4c0.4,0.2,0.7,0.4,1,0.6
				c0.3,0.3,0.5,0.6,0.6,0.9c0.2,0.4,0.2,0.8,0.2,1.3c0,0.1,0,0.3,0,0.6c0,0.2-0.1,0.5-0.2,0.8c-0.1,0.3-0.2,0.5-0.4,0.8
				c-0.2,0.3-0.4,0.5-0.8,0.7c-0.3,0.2-0.7,0.4-1.2,0.5c-0.5,0.1-1.1,0.2-1.8,0.2c-0.7,0-1.3-0.1-1.9-0.3c-0.6-0.2-1.1-0.4-1.5-0.8
				c-0.4-0.4-0.7-0.8-0.9-1.4c-0.2-0.6-0.3-1.2-0.3-2h1.1C340.7,311.4,340.8,312,341,312.4"/>
			<polygon class="st2" points="360.1,302.3 360.1,303.4 353.2,303.4 353.2,307.9 359.6,307.9 359.6,308.9 353.2,308.9 353.2,313.9 
				360.2,313.9 360.2,315 352.1,315 352.1,302.3 			"/>
			<path class="st2" d="M368.6,302.3c0.5,0,0.9,0.1,1.4,0.2c0.4,0.1,0.8,0.3,1.1,0.6c0.3,0.3,0.6,0.6,0.8,1c0.2,0.4,0.3,0.9,0.3,1.5
				c0,0.8-0.2,1.5-0.6,2.1c-0.4,0.6-0.9,1-1.7,1.1v0c0.4,0.1,0.7,0.2,0.9,0.3c0.2,0.2,0.5,0.4,0.6,0.6c0.2,0.2,0.3,0.5,0.3,0.9
				c0.1,0.3,0.1,0.7,0.1,1.1c0,0.2,0,0.5,0,0.8c0,0.3,0,0.6,0.1,0.9c0,0.3,0.1,0.6,0.2,0.9c0.1,0.3,0.2,0.5,0.3,0.6h-1.2
				c-0.1-0.1-0.1-0.3-0.2-0.4c0-0.2-0.1-0.3-0.1-0.5c0-0.2,0-0.4,0-0.5c0-0.2,0-0.3,0-0.5c0-0.4-0.1-0.9-0.1-1.3
				c0-0.4-0.2-0.8-0.3-1.2c-0.2-0.3-0.4-0.6-0.7-0.8c-0.3-0.2-0.7-0.3-1.2-0.3h-4.2v5.6h-1.1v-12.6H368.6z M368.6,308.3
				c0.3,0,0.7-0.1,1-0.2c0.3-0.1,0.6-0.3,0.8-0.5c0.2-0.2,0.4-0.5,0.5-0.8c0.1-0.3,0.2-0.6,0.2-1c0-0.8-0.2-1.4-0.6-1.8
				c-0.4-0.4-1-0.7-1.9-0.7h-4.1v5H368.6z"/>
			<polygon class="st2" points="375.8,302.3 379.6,313.6 379.6,313.6 383.3,302.3 384.5,302.3 380.2,315 378.9,315 374.6,302.3 			
				"/>
			<rect x="387.2" y="302.3" class="st2" width="1.1" height="12.6"/>
			<path class="st2" d="M400.4,304.9c-0.2-0.4-0.5-0.7-0.8-1c-0.3-0.3-0.7-0.5-1.1-0.6c-0.4-0.1-0.8-0.2-1.2-0.2
				c-0.8,0-1.4,0.2-2,0.5c-0.6,0.3-1,0.7-1.4,1.3c-0.4,0.5-0.6,1.1-0.8,1.8c-0.2,0.7-0.3,1.3-0.3,2c0,0.7,0.1,1.4,0.3,2
				c0.2,0.7,0.4,1.3,0.8,1.8c0.4,0.5,0.8,0.9,1.4,1.3c0.6,0.3,1.2,0.5,2,0.5c0.5,0,1-0.1,1.5-0.3c0.4-0.2,0.8-0.5,1.1-0.9
				c0.3-0.4,0.6-0.8,0.8-1.3c0.2-0.5,0.3-1,0.4-1.6h1.1c-0.1,0.8-0.2,1.5-0.5,2.1c-0.3,0.6-0.6,1.2-1,1.6c-0.4,0.4-0.9,0.8-1.5,1
				c-0.6,0.2-1.2,0.4-1.9,0.4c-0.9,0-1.7-0.2-2.4-0.5c-0.7-0.4-1.3-0.8-1.7-1.4c-0.5-0.6-0.8-1.3-1-2.1c-0.2-0.8-0.3-1.6-0.3-2.5
				c0-0.9,0.1-1.7,0.3-2.5c0.2-0.8,0.6-1.5,1-2.1c0.5-0.6,1-1.1,1.7-1.5c0.7-0.4,1.5-0.5,2.4-0.5c0.6,0,1.1,0.1,1.6,0.3
				c0.5,0.2,1,0.4,1.4,0.8c0.4,0.3,0.8,0.8,1.1,1.3c0.3,0.5,0.5,1.1,0.5,1.8h-1.1C400.8,305.7,400.6,305.2,400.4,304.9"/>
			<polygon class="st2" points="413.5,302.3 413.5,303.4 406.6,303.4 406.6,307.9 413,307.9 413,308.9 406.6,308.9 406.6,313.9 
				413.6,313.9 413.6,315 405.5,315 405.5,302.3 			"/>
			<path class="st2" d="M417.5,312.4c0.2,0.4,0.5,0.8,0.8,1c0.3,0.3,0.7,0.4,1.2,0.6c0.5,0.1,1,0.2,1.5,0.2c0.3,0,0.6,0,1-0.1
				c0.4-0.1,0.7-0.2,1-0.5c0.3-0.2,0.6-0.5,0.8-0.8c0.2-0.3,0.3-0.7,0.3-1.2c0-0.4-0.1-0.7-0.2-0.9c-0.1-0.3-0.3-0.5-0.6-0.7
				c-0.2-0.2-0.5-0.3-0.8-0.4c-0.3-0.1-0.6-0.2-0.8-0.3l-2.6-0.7c-0.3-0.1-0.7-0.2-1-0.4c-0.3-0.1-0.6-0.3-0.8-0.6
				c-0.2-0.2-0.4-0.5-0.6-0.9c-0.1-0.3-0.2-0.8-0.2-1.3c0-0.3,0.1-0.7,0.2-1.1c0.1-0.4,0.3-0.8,0.6-1.2c0.3-0.4,0.7-0.7,1.2-0.9
				c0.5-0.3,1.2-0.4,2-0.4c0.6,0,1.1,0.1,1.6,0.2c0.5,0.2,1,0.4,1.4,0.7c0.4,0.3,0.7,0.7,0.9,1.2c0.2,0.5,0.3,1.1,0.3,1.7h-1.1
				c0-0.5-0.1-0.9-0.3-1.3c-0.2-0.4-0.4-0.7-0.7-0.9c-0.3-0.2-0.6-0.4-1-0.5c-0.4-0.1-0.8-0.2-1.2-0.2c-0.4,0-0.7,0-1.1,0.1
				c-0.4,0.1-0.7,0.2-0.9,0.4c-0.3,0.2-0.5,0.5-0.6,0.8c-0.2,0.3-0.2,0.7-0.2,1.2c0,0.3,0,0.5,0.1,0.8c0.1,0.2,0.2,0.4,0.4,0.6
				c0.2,0.2,0.3,0.3,0.6,0.4c0.2,0.1,0.4,0.2,0.7,0.2l2.8,0.8c0.4,0.1,0.8,0.3,1.2,0.4c0.4,0.2,0.7,0.4,1,0.6
				c0.3,0.3,0.5,0.6,0.7,0.9c0.2,0.4,0.2,0.8,0.2,1.3c0,0.1,0,0.3,0,0.6c0,0.2-0.1,0.5-0.2,0.7c-0.1,0.3-0.3,0.5-0.4,0.8
				c-0.2,0.3-0.4,0.5-0.8,0.7c-0.3,0.2-0.7,0.4-1.2,0.5c-0.5,0.1-1.1,0.2-1.8,0.2c-0.7,0-1.3-0.1-1.9-0.3c-0.6-0.2-1.1-0.4-1.5-0.8
				c-0.4-0.4-0.7-0.8-1-1.4c-0.2-0.6-0.3-1.2-0.3-2h1.1C417.2,311.4,417.3,312,417.5,312.4"/>
			<path style="clip-path:url(#SVGID_4_);fill-rule:evenodd;clip-rule:evenodd;fill:#FFFFFF;" d="M354,214.5c0-2.3-1.7-4.2-3.9-4.2
				h-32.8c-2.1,0-3.9,1.9-3.9,4.2c0,2.3,1.7,4.2,3.9,4.2h32.8C352.3,218.7,354,216.8,354,214.5"/>
			<path class="st2" d="M175.6,256.8v34h-18.4V260c0-8.5-3.9-12.5-9.9-12.5c-3.4,0-7,2.1-10.1,6v37.3h-18.3v-59.5h18.3v4
				c4.4-3.8,9.2-5.9,15.1-5.9C166.2,229.5,175.6,239.9,175.6,256.8"/>
		</g>
	</g>
</g>
</svg>
