<?xml version="1.0" encoding="utf-8"?>
<!-- Generator: Adobe Illustrator 19.2.1, SVG Export Plug-In . SVG Version: 6.00 Build 0)  -->
<svg version="1.1" id="Calque_1" xmlns="http://www.w3.org/2000/svg" xmlns:xlink="http://www.w3.org/1999/xlink" x="0px" y="0px"
	 viewBox="0 0 500 500" style="enable-background:new 0 0 500 500;" xml:space="preserve">
<style type="text/css">
	.st0{display:none;fill:#1D1D1B;stroke:#FFFFFF;stroke-miterlimit:10;}
	.st1{clip-path:url(#SVGID_2_);}
	.st2{clip-path:url(#SVGID_4_);fill:#FFFFFF;}
	.st3{clip-path:url(#SVGID_6_);}
	.st4{clip-path:url(#SVGID_8_);fill:#FFFFFF;}
	.st5{clip-path:url(#SVGID_10_);}
	.st6{clip-path:url(#SVGID_12_);fill:#FFFFFF;}
	.st7{clip-path:url(#SVGID_14_);}
	.st8{clip-path:url(#SVGID_16_);fill:#FFFFFF;}
	.st9{clip-path:url(#SVGID_16_);}
	.st10{opacity:0.3;clip-path:url(#SVGID_18_);}
	.st11{clip-path:url(#SVGID_20_);fill:#FFFFFF;}
	.st12{opacity:0.3;clip-path:url(#SVGID_22_);}
	.st13{clip-path:url(#SVGID_24_);fill:#FFFFFF;}
	.st14{clip-path:url(#SVGID_26_);fill:#FFFFFF;}
	.st15{clip-path:url(#SVGID_22_);fill:#FFFFFF;}
	.st16{clip-path:url(#SVGID_28_);fill:#FFFFFF;}
	.st17{clip-path:url(#SVGID_30_);}
	.st18{clip-path:url(#SVGID_32_);fill:#FFFFFF;}
	.st19{clip-path:url(#SVGID_34_);}
	.st20{clip-path:url(#SVGID_36_);fill:#FFFFFF;}
	.st21{clip-path:url(#SVGID_38_);}
	.st22{clip-path:url(#SVGID_40_);fill:#FFFFFF;}
	.st23{clip-path:url(#SVGID_42_);}
	.st24{clip-path:url(#SVGID_44_);fill-rule:evenodd;clip-rule:evenodd;fill:#FFFFFF;}
	.st25{clip-path:url(#SVGID_44_);fill:#FFFFFF;}
	.st26{clip-path:url(#SVGID_46_);}
	.st27{clip-path:url(#SVGID_48_);fill:#FFFFFF;}
	.st28{clip-path:url(#SVGID_50_);}
	.st29{clip-path:url(#SVGID_52_);fill:#FFFFFF;}
	.st30{clip-path:url(#SVGID_54_);}
	.st31{clip-path:url(#SVGID_56_);fill-rule:evenodd;clip-rule:evenodd;fill:#FFFFFF;}
	.st32{clip-path:url(#SVGID_56_);fill:#FFFFFF;}
	.st33{clip-path:url(#SVGID_58_);}
	.st34{clip-path:url(#SVGID_60_);fill:#FFFFFF;}
	.st35{clip-path:url(#SVGID_62_);}
	.st36{clip-path:url(#SVGID_64_);}
	.st37{opacity:0.3;clip-path:url(#SVGID_66_);}
	.st38{clip-path:url(#SVGID_68_);fill:#FFFFFF;}
	.st39{clip-path:url(#SVGID_68_);}
	.st40{clip-path:url(#SVGID_70_);fill:#FFFFFF;}
	.st41{opacity:0.7;clip-path:url(#SVGID_66_);}
	.st42{clip-path:url(#SVGID_72_);fill:#FFFFFF;}
	.st43{clip-path:url(#SVGID_72_);}
	.st44{clip-path:url(#SVGID_74_);fill:#FFFFFF;}
	.st45{clip-path:url(#SVGID_66_);fill:#FFFFFF;}
	.st46{opacity:0.5;clip-path:url(#SVGID_66_);}
	.st47{clip-path:url(#SVGID_76_);fill:#FFFFFF;}
	.st48{clip-path:url(#SVGID_76_);}
	.st49{clip-path:url(#SVGID_78_);fill:#FFFFFF;}
	.st50{clip-path:url(#SVGID_80_);fill:#FFFFFF;}
	.st51{clip-path:url(#SVGID_82_);}
	.st52{clip-path:url(#SVGID_84_);fill:#FFFFFF;}
	.st53{clip-path:url(#SVGID_86_);}
	.st54{clip-path:url(#SVGID_88_);fill:#FFFFFF;}
	.st55{clip-path:url(#SVGID_88_);fill-rule:evenodd;clip-rule:evenodd;fill:#FFFFFF;}
	.st56{clip-path:url(#SVGID_90_);}
	.st57{clip-path:url(#SVGID_92_);fill:#FFFFFF;}
	.st58{clip-path:url(#SVGID_94_);}
	.st59{clip-path:url(#SVGID_96_);fill:#FFFFFF;}
	.st60{clip-path:url(#SVGID_98_);}
	.st61{clip-path:url(#SVGID_100_);fill:#FFFFFF;}
	.st62{clip-path:url(#SVGID_100_);fill:#FDFDFD;}
	.st63{clip-path:url(#SVGID_102_);}
	.st64{clip-path:url(#SVGID_104_);fill:#FFFFFF;}
	.st65{clip-path:url(#SVGID_106_);fill:#FFFFFF;}
	.st66{clip-path:url(#SVGID_106_);}
	.st67{clip-path:url(#SVGID_108_);fill:#FFFFFF;}
	.st68{clip-path:url(#SVGID_110_);}
	.st69{clip-path:url(#SVGID_112_);fill:#FFFFFF;}
	.st70{clip-path:url(#SVGID_114_);}
	.st71{clip-path:url(#SVGID_116_);fill-rule:evenodd;clip-rule:evenodd;fill:#FFFFFF;}
	.st72{clip-path:url(#SVGID_118_);}
	.st73{clip-path:url(#SVGID_120_);}
	.st74{clip-path:url(#SVGID_122_);}
	.st75{clip-path:url(#SVGID_126_);fill:#F9F9F9;}
</style>
<rect x="-2706.3" y="-708.3" class="st0" width="4271.1" height="3545.3"/>
<g>
	<g>
		<defs>
			<rect id="SVGID_1_" x="72" y="209.7" width="356" height="80.6"/>
		</defs>
		<clipPath id="SVGID_2_">
			<use xlink:href="#SVGID_1_"  style="overflow:visible;"/>
		</clipPath>
		<g class="st1">
			<defs>
				<rect id="SVGID_3_" x="72" y="209.7" width="356" height="80.6"/>
			</defs>
			<clipPath id="SVGID_4_">
				<use xlink:href="#SVGID_3_"  style="overflow:visible;"/>
			</clipPath>
			<path class="st2" d="M77.3,244.9c0.3,9.7,8.5,14.3,15,14.2c5.9,0,10.7-2.9,13.2-7.9h5.5c-1.8,4.1-4.5,7.3-7.8,9.4
				c-3.2,2.1-7,3.1-11,3.1c-13.4,0-20.3-10.7-20.3-20.3c0-11.3,8.7-20.4,20.3-20.4c5.4,0,10.4,1.9,14.1,5.4c4.4,4.3,6.6,10.2,6,16.4
				H77.3z M107.1,240.7c-0.4-6.7-6.9-13.3-14.8-13.1c-8.3,0-14.5,6.1-15,13.1H107.1z"/>
			<path class="st2" d="M152.5,262.7h-5v-6.9c-2.1,5-7.4,8-14.2,7.9c-12-0.2-16.2-8.4-16.2-17.8v-21.8h5.2V245
				c0,8.3,3.7,13.9,12.4,13.8c8-0.1,12.6-4.9,12.6-12.9v-21.8h5.3V262.7z"/>
			<path class="st2" d="M158.6,224.2h5v6.3c2.8-5.7,7.8-7.2,12.3-7.4v5.2h-0.5c-7.4,0-11.6,4.7-11.6,13.4v21h-5.2V224.2z"/>
			<path class="st2" d="M217.3,262.7H212v-7.9c-3,5.8-8.9,9-15.7,9c-12.5,0-20-9.7-20-20.3c0-11.3,8.2-20.3,20-20.3
				c8.2,0,13.9,4.8,15.7,9.2v-8.1h5.3V262.7z M181.5,243.5c0.1,6.9,4.9,15.3,15.5,15.3c6.8,0,11.8-3.9,13.9-9.4
				c0.9-1.9,1.3-4,1.3-6.1c0.1-2.1-0.4-4.3-1.2-6.2c-2.1-5.3-7.3-9.2-14.1-9.2C188,227.9,181.5,234.8,181.5,243.5L181.5,243.5z"/>
			<polygon class="st2" points="228.3,231.3 221.8,231.3 221.8,224 228.3,224 228.3,209.7 237.7,209.7 237.7,224 244.4,224 
				244.4,231.3 237.7,231.3 237.7,262.7 228.3,262.7 			"/>
			<path class="st2" d="M254.8,246.1c0.4,6.3,6,9.8,11.4,9.7c4.6,0,7.7-2.1,9.4-5.3h9.7c-1.9,4.4-4.7,7.7-7.9,9.9
				c-3.3,2.3-7.2,3.4-11.2,3.4c-12.1,0-20.8-9.8-20.8-20.8c0-11.2,8.7-21,20.6-21c5.9,0,11,2.2,14.7,6c4.8,4.9,6.6,11.1,5.8,18
				H254.8z M277.2,239c-0.4-3.7-4.3-8.9-11.2-8.9c-6.9,0-10.7,5-11.1,8.9H277.2z"/>
			<path class="st2" d="M388.4,248.3c-2.2,8.7-10,15.5-20.2,15.5c-12.5,0-21-9.7-21-20.9c0-11.6,8.9-20.8,20.7-20.8
				c9.9,0,18.3,6.2,20.5,15.8h-9.6c-1.6-4.2-5.4-7.1-10.6-7.1c-3.4-0.1-6.1,1.1-8.4,3.4c-2,2.1-3.2,5.3-3.2,8.7
				c0,7.1,4.9,12.1,11.6,12.1c5.9,0,9.2-3.5,10.6-6.7H388.4z"/>
			<path class="st2" d="M391.8,209.7h9.4v12.7v5.6c2.2-4.2,6.9-5.9,11.6-5.9c6.1,0,9.9,2.1,12.2,5.5c2.4,3.4,3.1,8.1,3.1,13.4v21.6
				h-9.4v-21.2c0-3-0.5-5.6-1.8-7.4c-1.4-1.9-3.5-3.1-6.8-3.1c-3.7,0-5.9,1.5-7.2,3.4c-1.3,1.9-1.6,4.3-1.6,6.3v22h-9.4V209.7z"/>
			<path class="st2" d="M316.2,230.9c-7.6,0-11.9,6.2-11.9,12.2v0.1c0,4.9,3.5,12,12,12c5.2,0,8.7-2.7,10.4-6.3
				c0.9-1.7,1.4-3.6,1.5-5.5c0.1-1.9-0.3-3.8-1.1-5.5C325.5,234.1,321.8,230.9,316.2,230.9"/>
			<path class="st2" d="M336.1,217.4h-37.6c-3.7,0-6.7,3-6.7,6.7v37.6c0,3.7,3,6.7,6.7,6.7h37.6c3.7,0,6.7-3,6.7-6.7v-37.6
				C342.8,220.4,339.8,217.4,336.1,217.4 M337.5,262.7h-9.4V257c-2.5,4.6-7.7,6.9-13.2,6.9c-12.6,0-20-9.8-20-20.9
				c0-12.4,8.9-20.8,20-20.8c7.2,0,11.5,3.8,13.2,6.9v-5.7h9.4V262.7z"/>
			<polygon class="st2" points="347.1,285.2 287.4,285.2 291.8,271.1 342.8,271.1 			"/>
			<polygon class="st2" points="75.2,272.6 77.1,272.6 80.6,283.2 83.7,273.8 85.1,273.8 88.2,283.2 91.7,272.6 93.5,272.6 
				89.1,285.5 87.4,285.5 84.4,276.1 81.4,285.5 79.7,285.5 			"/>
			<path class="st2" d="M95.2,279.5c0.1,3.2,2.8,4.8,5,4.7c2,0,3.6-1,4.4-2.6h1.8c-0.6,1.4-1.5,2.4-2.6,3.1c-1.1,0.7-2.3,1-3.6,1
				c-4.4,0-6.8-3.5-6.8-6.7c0-3.8,2.9-6.8,6.7-6.8c1.8,0,3.5,0.6,4.7,1.8c1.5,1.4,2.2,3.4,2,5.4H95.2z M105.2,278.1
				c-0.1-2.2-2.3-4.4-4.9-4.4c-2.8,0-4.8,2-5,4.4H105.2z"/>
			<path class="st2" d="M108.8,267.8h1.8v4.8v2.6c1.1-1.8,3-2.9,5.2-2.9c3.6,0,6.6,2.7,6.6,6.7c0,3.9-2.8,6.8-6.6,6.8
				c-2.4,0-4.3-1.2-5.2-3v2.6h-1.7V267.8z M120.6,279c0-2.9-2.2-5.1-5.1-5.1c-3,0-5.1,2.3-5.1,5.1c0,2.8,2,5.1,5,5.1
				C118.9,284.2,120.6,281.5,120.6,279L120.6,279z"/>
			<path class="st2" d="M143.5,285.4h-1.8v-2.6c-1,1.9-3,3-5.2,3c-4.2,0-6.6-3.2-6.6-6.8c0-3.8,2.7-6.8,6.6-6.8c2.7,0,4.6,1.6,5.2,3
				v-2.7h1.8V285.4z M131.6,279.1c0,2.3,1.6,5.1,5.1,5.1c2.3,0,3.9-1.3,4.6-3.1c0.3-0.6,0.4-1.3,0.4-2c0-0.7-0.1-1.4-0.4-2
				c-0.7-1.8-2.4-3.1-4.7-3.1C133.7,273.9,131.6,276.2,131.6,279.1L131.6,279.1z"/>
			<path class="st2" d="M158.8,281.1c-0.8,2.7-3.3,4.7-6.4,4.7c-4.3,0-6.9-3.3-6.9-6.8c0-3.8,2.9-6.8,6.8-6.8c2.9,0,5.6,1.7,6.5,4.8
				H157c-0.8-2.2-2.8-3.2-4.6-3.2c-1.5,0-2.5,0.5-3.6,1.5c-0.9,0.8-1.5,2.2-1.5,3.7c0,3,2.3,5.1,5,5.1c2.5,0,4.1-1.5,4.6-3H158.8z"
				/>
			<path class="st2" d="M173.5,285.4h-1.8v-2.6c-1,1.9-3,3-5.2,3c-4.2,0-6.6-3.2-6.6-6.8c0-3.8,2.7-6.8,6.6-6.8c2.7,0,4.6,1.6,5.2,3
				v-2.7h1.8V285.4z M161.7,279.1c0,2.3,1.6,5.1,5.1,5.1c2.3,0,3.9-1.3,4.6-3.1c0.3-0.6,0.4-1.3,0.4-2c0-0.7-0.1-1.4-0.4-2
				c-0.7-1.8-2.4-3.1-4.7-3.1C163.8,273.9,161.7,276.2,161.7,279.1L161.7,279.1z"/>
			<path class="st2" d="M189.2,285.4h-1.7v-2.6c-0.9,1.7-2.6,3-5.3,3c-4.1,0-6.6-3.2-6.6-6.8c0-3.8,2.8-6.7,6.6-6.7
				c2.8,0,4.7,1.6,5.2,3v-2.7v-4.7h1.8V285.4z M177.3,279c0,2.6,1.8,5.1,5.1,5.1c1.4,0,2.7-0.6,3.6-1.5c0.9-1,1.5-2.3,1.4-3.7
				c0-1.5-0.5-2.7-1.5-3.6c-0.9-0.9-2.2-1.5-3.6-1.5C179.5,273.9,177.3,276.1,177.3,279L177.3,279z"/>
			<path class="st2" d="M192.8,279.5c0.1,3.2,2.8,4.8,5,4.7c2,0,3.6-1,4.4-2.6h1.8c-0.6,1.4-1.5,2.4-2.6,3.1c-1.1,0.7-2.3,1-3.6,1
				c-4.4,0-6.8-3.5-6.8-6.7c0-3.8,2.9-6.8,6.7-6.8c1.8,0,3.5,0.6,4.7,1.8c1.5,1.4,2.2,3.4,2,5.4H192.8z M202.8,278.1
				c-0.1-2.2-2.3-4.4-4.9-4.4c-2.8,0-4.8,2-5,4.4H202.8z"/>
			<path class="st2" d="M206.4,272.6h1.7v2c0.8-1.6,2.6-2.4,4-2.4c1.3,0,2.6,0.4,3.5,1.5c0.3,0.3,0.8,1.2,0.8,1.3
				c0.2-0.4,0.5-0.9,0.9-1.4c0.8-0.9,2.1-1.4,3.5-1.4c1.3,0,2.6,0.4,3.5,1.3c1.1,1.1,1.5,2.5,1.5,4.8v7.1H224v-7
				c0-1.4-0.2-2.6-1-3.4c-0.5-0.7-1.3-1.1-2.5-1.1c-1.1,0-2.2,0.5-2.8,1.3c-0.6,0.9-0.8,1.6-0.8,3.1v7.1h-1.8v-7.1
				c0-1.4-0.2-2.3-0.7-3c-0.6-0.8-1.5-1.3-2.8-1.4c-1.2,0-2.2,0.5-2.7,1.3c-0.5,0.7-0.9,1.7-0.9,3.1v7.1h-1.8V272.6z"/>
			<polygon class="st2" points="231.4,285.2 226.5,272.6 228.3,272.6 232.4,283 236.5,272.6 238.4,272.6 231.1,290.3 229.2,290.3 
							"/>
		</g>
	</g>
</g>
</svg>
