<?xml version="1.0" encoding="utf-8"?>
<!-- Generator: Adobe Illustrator 19.2.1, SVG Export Plug-In . SVG Version: 6.00 Build 0)  -->
<svg version="1.1" id="Calque_1" xmlns="http://www.w3.org/2000/svg" xmlns:xlink="http://www.w3.org/1999/xlink" x="0px" y="0px"
	 viewBox="0 0 500 500" style="enable-background:new 0 0 500 500;" xml:space="preserve">
<style type="text/css">
	.st0{display:none;fill:#1D1D1B;stroke:#FFFFFF;stroke-miterlimit:10;}
	.st1{clip-path:url(#SVGID_2_);}
	.st2{clip-path:url(#SVGID_4_);fill:#FFFFFF;}
	.st3{clip-path:url(#SVGID_6_);}
	.st4{clip-path:url(#SVGID_8_);fill:#FFFFFF;}
	.st5{clip-path:url(#SVGID_10_);}
	.st6{clip-path:url(#SVGID_12_);fill:#FFFFFF;}
	.st7{clip-path:url(#SVGID_14_);}
	.st8{clip-path:url(#SVGID_16_);fill:#FFFFFF;}
	.st9{clip-path:url(#SVGID_16_);}
	.st10{opacity:0.3;clip-path:url(#SVGID_18_);}
	.st11{clip-path:url(#SVGID_20_);fill:#FFFFFF;}
	.st12{opacity:0.3;clip-path:url(#SVGID_22_);}
	.st13{clip-path:url(#SVGID_24_);fill:#FFFFFF;}
	.st14{clip-path:url(#SVGID_26_);fill:#FFFFFF;}
	.st15{clip-path:url(#SVGID_22_);fill:#FFFFFF;}
	.st16{clip-path:url(#SVGID_28_);fill:#FFFFFF;}
	.st17{clip-path:url(#SVGID_30_);}
	.st18{clip-path:url(#SVGID_32_);fill:#FFFFFF;}
	.st19{clip-path:url(#SVGID_34_);}
	.st20{clip-path:url(#SVGID_36_);fill:#FFFFFF;}
	.st21{clip-path:url(#SVGID_38_);}
	.st22{clip-path:url(#SVGID_40_);fill:#FFFFFF;}
	.st23{clip-path:url(#SVGID_42_);}
	.st24{clip-path:url(#SVGID_44_);fill-rule:evenodd;clip-rule:evenodd;fill:#FFFFFF;}
	.st25{clip-path:url(#SVGID_44_);fill:#FFFFFF;}
	.st26{clip-path:url(#SVGID_46_);}
	.st27{clip-path:url(#SVGID_48_);fill:#FFFFFF;}
	.st28{clip-path:url(#SVGID_50_);}
	.st29{clip-path:url(#SVGID_52_);fill:#FFFFFF;}
	.st30{clip-path:url(#SVGID_54_);}
	.st31{clip-path:url(#SVGID_56_);fill-rule:evenodd;clip-rule:evenodd;fill:#FFFFFF;}
	.st32{clip-path:url(#SVGID_56_);fill:#FFFFFF;}
	.st33{clip-path:url(#SVGID_58_);}
	.st34{clip-path:url(#SVGID_60_);fill:#FFFFFF;}
	.st35{clip-path:url(#SVGID_62_);}
	.st36{clip-path:url(#SVGID_64_);}
	.st37{opacity:0.3;clip-path:url(#SVGID_66_);}
	.st38{clip-path:url(#SVGID_68_);fill:#FFFFFF;}
	.st39{clip-path:url(#SVGID_68_);}
	.st40{clip-path:url(#SVGID_70_);fill:#FFFFFF;}
	.st41{opacity:0.7;clip-path:url(#SVGID_66_);}
	.st42{clip-path:url(#SVGID_72_);fill:#FFFFFF;}
	.st43{clip-path:url(#SVGID_72_);}
	.st44{clip-path:url(#SVGID_74_);fill:#FFFFFF;}
	.st45{clip-path:url(#SVGID_66_);fill:#FFFFFF;}
	.st46{opacity:0.5;clip-path:url(#SVGID_66_);}
	.st47{clip-path:url(#SVGID_76_);fill:#FFFFFF;}
	.st48{clip-path:url(#SVGID_76_);}
	.st49{clip-path:url(#SVGID_78_);fill:#FFFFFF;}
	.st50{clip-path:url(#SVGID_80_);fill:#FFFFFF;}
	.st51{clip-path:url(#SVGID_82_);}
	.st52{clip-path:url(#SVGID_84_);fill:#FFFFFF;}
	.st53{clip-path:url(#SVGID_86_);}
	.st54{clip-path:url(#SVGID_88_);fill:#FFFFFF;}
	.st55{clip-path:url(#SVGID_88_);fill-rule:evenodd;clip-rule:evenodd;fill:#FFFFFF;}
	.st56{clip-path:url(#SVGID_90_);}
	.st57{clip-path:url(#SVGID_92_);fill:#FFFFFF;}
	.st58{clip-path:url(#SVGID_94_);}
	.st59{clip-path:url(#SVGID_96_);fill:#FFFFFF;}
	.st60{clip-path:url(#SVGID_98_);}
	.st61{clip-path:url(#SVGID_100_);fill:#FFFFFF;}
	.st62{clip-path:url(#SVGID_100_);fill:#FDFDFD;}
	.st63{clip-path:url(#SVGID_102_);}
	.st64{clip-path:url(#SVGID_104_);fill:#FFFFFF;}
	.st65{clip-path:url(#SVGID_106_);fill:#FFFFFF;}
	.st66{clip-path:url(#SVGID_106_);}
	.st67{clip-path:url(#SVGID_108_);fill:#FFFFFF;}
	.st68{clip-path:url(#SVGID_110_);}
	.st69{clip-path:url(#SVGID_112_);fill:#FFFFFF;}
	.st70{clip-path:url(#SVGID_114_);}
	.st71{clip-path:url(#SVGID_116_);fill-rule:evenodd;clip-rule:evenodd;fill:#FFFFFF;}
	.st72{clip-path:url(#SVGID_118_);}
	.st73{clip-path:url(#SVGID_120_);}
	.st74{clip-path:url(#SVGID_122_);}
	.st75{clip-path:url(#SVGID_126_);fill:#F9F9F9;}
</style>
<rect x="-1146.3" y="-2268.3" class="st0" width="4271.1" height="3545.3"/>
<g>
	<g>
		<defs>
			<rect id="SVGID_97_" x="25.4" y="123" width="449.2" height="254"/>
		</defs>
		<clipPath id="SVGID_2_">
			<use xlink:href="#SVGID_97_"  style="overflow:visible;"/>
		</clipPath>
		<g class="st1">
			<defs>
				<rect id="SVGID_99_" x="25.4" y="123" width="449.2" height="254"/>
			</defs>
			<clipPath id="SVGID_4_">
				<use xlink:href="#SVGID_99_"  style="overflow:visible;"/>
			</clipPath>
			<path class="st2" d="M302.6,300.4c2.7,4,5.5,7.9,6.8,12.4c2,6.9,6.9,10.7,12.8,13.7c1.3,0.7,3.7,0.8,3.1,2.8
				c-0.6,1.9-2.8,0.9-4.2,0.8c-7.2-0.3-13.3-3.1-18.4-8.3c-0.5-0.6-1.1-1.1-1.7-1.6c-1.8-1.5-3.5-2-5.5,0.1c-1.7,1.8-3.7,3.2-6,4.2
				c-1.6,0.7-3.3,1.5-5,1.2c-7.2-1.2-13.9,0.1-20.5,2.9c-2.6,1.1-5.3,1.7-8.2,1.7c-3.8,0.1-5.1-1.2-6.2-4.8c-1.2-3.9-0.8-7.2,2-10.2
				c0.5-0.6,1.4-1.3,0.8-2.3c-0.6-0.9-1.6-0.4-2.4-0.1c-2.3,0.8-2.5-0.5-2.1-2.1c0.6-2.7,2.4-4.7,4.4-6.4c2.2-1.9,4-4,4.6-7
				c0.4-2.1,1.7-4,3.1-5.7c0.3-0.4,0.7-0.8,0.4-1.4c-0.3-0.5-0.9-0.5-1.4-0.3c-4.9,1.5-10.3,0.7-15.1,2.9c-1.9,0.9-4,1.2-6.2,0.8
				c-2.9-0.5-3.3-1.2-1.7-3.7c3.2-5.1,4.6-10.7,4.3-16.7c-0.1-1.5,0.3-3.7-1.8-3.8c-2.3-0.1-2,2.2-2.2,3.8
				c-0.6,4.4-1.6,8.7-3.5,12.8c-1.3,2.9-3.5,4.5-6.5,5.1c-1.3,0.3-2.6,0.5-3.9,0.8c-4,0.9-4.8,2.5-2.8,6.2c2,3.7,3.8,7.5,6.2,10.9
				c3.8,5.3,4.4,10.6,1.9,16.5c-0.3,0.7-1.1,1.8-0.1,2.3c0.9,0.5,1.5-0.7,2.1-1.3c5.1-5.4,5.7-9.4,2.4-16c-1.7-3.4-3.4-6.7-5.1-10.1
				c-0.2-0.5-0.5-0.9-0.7-1.4c-1.5-3.1-0.9-4,2.6-3.7c2.5,0.2,4.8,0.9,5.7,3.9c1.3,4.1,3.5,7.8,5.9,11.4c2,3,2.3,6.4,0.6,9.7
				c-1.4,2.7-3.1,5.3-4.5,8c-1.6,3-4,4.8-7.3,4.6c-5.7-0.4-10.1,3.1-15.1,4.7c-4.7,1.6-9.4,3.3-14.1,4.8c-4.3,1.4-8.9-0.3-11.8-4.2
				c-1.1-1.5-2-3.1-2.9-4.7c-1.1-2.1-2.7-3.2-5.1-2.8c-2.7,0.4-4.4-0.6-5.6-3.1c-1.1-2.4-2.7-4.5-3.9-6.8c-1.3-2.4-0.7-4.1,1.9-4.3
				c2.6-0.2,5.1-0.7,7.7-0.9c3.6-0.3,6.9,0.8,9,4.3c1.5,2.6,3.2,5,4.9,7.5c2.5,3.6,6,4.6,10.1,3.3c2.8-0.9,5.6-1.8,8.1-3.7
				c2.9-2.2,3.5-4.1,2.4-7.5c-1.5-4.8-4.7-8.1-8.9-10.6c-2.7-1.6-5.4-3.3-7.8-5.3c-3.5-2.8-6.2-6.2-7.1-10.7
				c-0.3-1.4-0.8-3.1-2.7-2.4c-1.7,0.6-1.3,2.1-0.8,3.5c1.4,3.9-0.4,6.6-4.5,6.7c-3.1,0.1-6.1,0-9.2-0.2c-8-0.7-15.9-0.4-23.8,0.9
				c-3,0.5-6.1,0.6-9.1-0.4c-4.3-1.4-6.2-5.5-5.8-11.7c0.3-3.7,0.8-7.5,1.6-11.1c0.3-1.4,0.3-2.5-1.3-2.9c-1.8-0.4-2.6,0.5-2.9,2.1
				c-0.8,4.3-1.8,8.6-2.2,12.9c-1.1,11.1-7.6,17.8-17.5,21.8c-5.2,2.1-10.7,2.7-16.2,2.9c-5.9,0.2-11.7,1-17.1,3.4
				c-4.3,1.9-7.9,4.7-10.8,8.5c-0.7,0.9-1.1,1.9-1.6,3c-0.3,0.8-0.8,1.8,0.1,2.4c1,0.7,1.6-0.4,2.1-0.9c5.4-5.7,12-9.2,19.8-10.6
				c2.4-0.4,4.9-0.5,7.3-0.7c2-0.1,4-0.1,6,0c13,0.8,22.6-4.5,28.9-15.9c0.5-0.9,0.8-3.2,2.9-2c1.5,0.9,2.5,2.3,1.4,4.4
				c-2,3.7-3.9,7.6-5.9,11.3c-0.8,1.5-2.1,2.8-3.9,3.3c-2.9,0.9-5.4,2.5-7.8,4.2c-4,2.7-8.3,3.5-13,2.7c-4.4-0.8-8.8-1.7-13.3-1.3
				c-2.7,0.2-5.2,1-7,3.1c-2.8,3.1-6.4,5-10.1,6.9c-2.5,1.3-5,1.8-7.8,0.9c-4.3-1.4-5.9-0.6-8.3,3.2c-0.5,0.7-0.9,1.5-1.3,2.3
				c-3.2,5.2-6.8,6.8-12.8,5.5c-6.5-1.4-6.5-1.4-4.8-7.8c0.3-1.2,0.8-2.3,1.3-3.4c0.7-1.6,1.7-2.7,3.6-2.9c2.4-0.3,4.1-2.1,5.3-4
				c1.5-2.5,3.6-4.2,6.1-5.5c4.8-2.5,8.2-6.2,9.3-11.7c0.2-0.9,0.6-1.8,1-2.7c1.2-3.1,3.2-5,6.7-4.7c5.4,0.5,9.7-2.1,14-4.8
				c2.3-1.5,2.9-3.6,1.8-5.9c-3.2-6.7-4.3-13.8-4.2-21.1c0-4.4-0.2-4.4-4.3-3.4c-7.8,1.9-15.5,2.2-23-1.5
				c-16.1-7.8-16.1-28.4-7.3-37.1c5-4.9,10.2-9.6,15.6-14c1.3-1.1,2.3-2.3,1.9-4c-0.5-1.9-2.2-2.4-3.9-2.5c-1.8-0.1-3.7-0.1-5.5-0.1
				c-9-0.2-17.5-9.3-17.1-18.3c0-0.2,0-0.3,0-0.5c0.4-5.5,1.7-6.2,6-3c4.5,3.4,9.5,5.1,14.9,6c3.8,0.6,7.5,1.5,10.9,3.5
				c6.6,3.7,8.7,11.9,4.6,18.3c-2.2,3.5-5.2,6.1-8.4,8.6c-3.8,3-7.4,6.1-10.7,9.6c-5.1,5.2-6.5,13.5-3.2,19.4
				c3.3,6,10.5,9.1,17.8,7.5c8.7-1.8,16-6.3,22.9-11.6c6.1-4.7,12.1-9.5,19.8-11.4c2.7-0.6,5.3-0.9,8-1.2c7.9-0.6,14.7-3.5,20.3-9.2
				c5.1-5.2,11-9.6,18.4-9.3c7.3,0.3,12-3,16.5-7.9c4-4.3,9.4-6.3,14.9-7.9c8.1-2.4,15.8-5.5,22.8-10.3c11.5-7.7,22.8-5.3,33.1,2.6
				c8.4,6.5,16.5,13.2,24.4,20.3c6.8,6.1,11.9,13.7,17.6,20.7c6.2,7.6,9.3,16.1,10.3,25.8c1.1,11,4.8,21.5,8.6,31.8
				c0.3,0.9,0.7,1.8,1.5,2.4c3.5,2.7,5.6,6.4,7.8,10.1c2.9,5,6.3,9.5,11.9,11.7c0.6,0.2,1.4,0.5,1.3,1.4c-0.2,1-1,1.1-1.8,1.2
				c-3.6,0.4-7-0.5-10-2.5c-3.1-2.1-5.8-4.8-7.6-8.2c-1.6-3-3.5-5.9-6.1-8.2C306.3,301.6,304.8,300.5,302.6,300.4 M299.2,281.2
				c-0.7-7.8-5.9-12.9-10.7-18.1c-1-1.1-2.8-0.9-3.6,0.6c-1.7,3.3-3.3,6.7-4.7,10.2c-0.4,1-0.6,2.6,0.5,3.1c1.2,0.6,1.5-1.1,2.2-1.7
				c0.2-0.2,0.3-0.4,0.5-0.6c2.6-3.1,4-3,6.9-0.3c3.1,2.9,4.7,6.4,4.8,10.7c0,0.8-0.1,1.9,1.2,2c1.1,0.1,1.6-0.7,1.9-1.5
				C298.6,284.1,298.9,282.6,299.2,281.2 M245.3,235.1c0-5.4-1.1-9-3.4-12.1c-1.2-1.6-2.8-3.6-4.9-2c-1.9,1.4-0.8,3.5,0.3,5.1
				c1.3,1.8,2.3,3.7,2.9,5.8c0.8,3,1.5,6.1,2.3,9.1c0.1,0.6,0.1,1.3,1,1.3c0.8,0,1-0.7,1.1-1.3C244.9,238.9,245.3,236.8,245.3,235.1
				 M280.8,313.8c5.2-0.2,6.7-1.6,6.5-5.8c-0.1-2.2-1-3-3.2-2.4c-2.4,0.6-4.2,2.2-5.5,4.2c-0.6,0.9-1.6,1.9-1,3.1
				C278.3,314.2,279.7,313.8,280.8,313.8"/>
			<path class="st2" d="M427,233.5c-9.4-1.8-18.9-1.8-28.3-0.3c-10.1,1.6-19.4,5.7-29.2,8.2c-4.8,1.2-9.4,3.9-14.5,3.6
				c-0.9,0-2.1,0.5-2.4-0.9c-0.2-1.1,0.3-2,1.4-2.5c2.9-1.5,5.7-3.2,8.8-4.1c3.3-1,6.4-2.5,9.7-3.5c8.3-2.6,16.4-6,25.2-6.6
				c3.3-0.2,6.6-0.3,9.9-1c4.1-0.8,7.6-3,11.2-5.1c-0.5-1-1.3-1.3-2.2-1.4c-4.2-0.2-8.3-0.6-12.5,0.6c-2.8,0.8-5.8,1-8.7,1.2
				c-2.9,0.2-5.7,0.9-8.5,1.6c-0.9,0.2-1.9,0.5-2.8,0.5c-2.7,0.2-2.8,0.1-1.9-2.5c0.4-1,0.4-1.9-1.1-2.1c-0.7-0.1-1.4,0.1-2-0.7
				c1.3-1.5,3.8-0.5,5-2.5c-1.2-0.5-2.1,0.1-3.2,0.6c-10.8,5-22.3,4.6-33.8,4.2c-1.1,0-2.1-0.3-2.4-1.3c-0.3-0.9,0.7-1.4,1.4-2
				c4.5-3.5,9.9-5.2,15.1-7.1c3.2-1.2,6.5-2.1,9.7-2.8c0.6-0.2,3-2,2.5,1.2c-0.1,0.8,0.9,0.5,1.5,0.6c2.7,0.3,5.2-0.6,7.7-1.3
				c4.9-1.3,9.8-2.4,14.7-3.1c0.2,0,0.4-0.3,0.6-0.4c0-1.1-1.2-0.6-1.6-1.7c4.3-1.2,9.1-0.8,13.5-4c-3.8,0.2-6-3.1-9.7-2.2
				c-5.3,1.2-10.8,1.7-16.2,2.7c-5.2,1-10.4,2.1-15.5,3.5c-5.5,1.6-11.1,2.8-16.5,4.5c-8.3,2.6-16.6,5.4-24.8,8.4
				c-11.1,4.1-22,8.7-32.6,13.8c-1.7,0.8-2.2,0.4-3.1-0.8c-4.3-5.3-8-11.1-13.1-15.5c-8.5-7.3-16.9-14.8-26.1-21.4
				c-5-3.6-10.3-6.5-16.6-7.1c-2.1-0.2-2.1-1.1-1.2-2.5c5.1-7.8,10.6-15.2,17.3-21.8c1.9-1.8,4.4-2.7,6.1-4.8c0.5-0.2,1-0.2,1.5-0.5
				c10.7-6.1,22.3-10,34.1-13.3c8.5-2.3,17.1-4.2,25.6-6.3c2.3-0.6,4.6-1.1,6.7-3c-6.1,0-11.6,1.3-17.2,2.5c-12,2.5-23.8,6-35,11.3
				c-5.5,2.6-11.1,5.3-15.8,9.4c-1.5-0.7-0.1-1.1,0.2-1.4c7-6.4,14.8-11.4,23.4-15.3c11.9-5.4,24.2-9.3,36.8-12.4
				c15.3-3.8,30.8-4.6,46.5-2.6c10.3,1.3,20.3,3.8,30,7.7c0.2,0.1,0.4,0.3,0.6,0.4l0,0c-4.2-0.4-8-2.3-12.1-3.1
				c-4.8-0.9-9.6-1.9-14.5-2c7,1.4,14,2.5,20.9,4.4c16.1,4.4,30.3,12.1,42.6,23.6c8.2,7.6,15.7,15.7,21.7,25.1
				c6.3,9.9,11.6,20.2,14.9,31.5c4.8,16.3,7,32.9,5,49.9c-0.9,8.1-2.5,16-4.7,23.8c-1,3.7-2.4,7.3-3.7,10.9
				c-0.1-4.3,1.6-8.1,2.6-12.2c3-12.5,0.7-23.9-6.5-34.3c-6.2-8.9-15.4-13-25.7-15.2C433,234,430,233.9,427,233.5"/>
			<path class="st2" d="M427,233.5c3,0.4,6,0.5,8.9,1.1c10.3,2.1,19.5,6.3,25.7,15.2c7.3,10.4,9.5,21.8,6.5,34.3
				c-1,4-2.7,7.9-2.6,12.2c-12.5,32.9-35.9,55.4-66.7,71c-8,4.1-16.6,6.9-25.2,9.5c-1.9,0.6-3.7,0.4-5.7-0.4c1.7-0.5,3.3-1,5-1.5
				c21.1-6,40-16,56.4-30.6c7.8-6.9,14.8-14.6,20.9-23.1c0.7-0.9,1.2-1.9,1.7-2.9c0.3-0.5,1.2-1,0.6-1.6c-0.3-0.3-1,0.3-1.2,0.9
				c-3.6,2.6-6,6.3-8.7,9.7c-2.1,2.7-4.2,5.3-6.6,8.4c-0.2-3.2-1.4-2.5-3-1.5c-11.8,7.6-23.1,15.7-34.4,24c-9.6,7-20.5,11-32.1,13.5
				c-5.5,1.2-10.9,2.8-16.4,3.2c-13.7,1.1-27.5,2.9-41.3,0.1c-7.3-1.5-14.4-3.9-21.2-7c4-0.1,7.5,2.9,12.4,1.7
				c-6.5-2.5-12.3-4.7-18.1-6.9c0-0.2,0.1-0.5,0.1-0.7c6,0,12.1,1.7,18.7-0.1c-17.6-1.9-33.9-5.4-47.7-17.7c4.1,0.4,6.3,3.2,9.5,4.2
				c-0.2-1.3-1.2-1.5-2-2c-6-3.8-12.1-7.4-17.6-11.9c-0.7-0.6-1.4-1.3-2.2-1.9c-1-0.8-0.5-1.4,0-2.2c0.8-1.3,1.3-0.2,1.8,0.2
				c19.8,15.8,42.6,20.3,67.3,18.6c12.3-0.9,24.2-3.5,35.9-7.2c1-0.3,1.9-0.7,2.8-1.5c-2.5,0.3-5,0.6-7.5,0.8
				c-7.9,0.4-15.7,0.8-23.5-0.8c-2.6-0.5-5.6-0.5-6.6-4.1c-0.2-0.8-2.2-1.1-3.4-1.6c-3.6-1.3-7.1-2.6-10.8-4c2.7-2.2-0.7-2.6-1-3.8
				c1.6-1.9,3-1.8,5-0.2c6.5,5.4,14.2,7.7,22.5,7.7c5.2,0,7.1-1.8,7.7-6.9c0.1-0.9,0.5-1.3,1.4-1.6c1.2-0.3,2.3-0.7,3.4-1.4
				c3.3-1.9,3.7-4.4,1.2-7.4c10.2-2.3,20-5.9,29.4-10.4c10.2-4.9,19.6-11,27.8-18.8c0.2-0.2,0.3-0.6,0.4-0.9
				c0.2-0.1,0.4-0.2,0.7-0.3c-0.1-0.1-0.2-0.2-0.3-0.3c-0.2,0.2-0.3,0.3-0.5,0.5c-2,0.8-4,1.7-6.2,1.9c-1.4,0.1-3.1,0.6-3.9-0.7
				c-0.9-1.4,0.6-2.6,1.4-3.6c2.4-3,5.3-5.5,8.3-7.9c11.3-9.1,21.1-19.5,28.1-32.4C423.9,240.8,426,237.4,427,233.5 M432.8,252.9
				c-2,1.2-3.9,2.6-6,3.5c-1.8,0.8-3.8,2.2-5.7,0c-0.5-0.6-0.9-0.1-1.2,0.3c-4.8,5.7-9.9,11.1-13.6,17.7c-0.4,0.7-0.7,1.4-0.1,1.9
				c1.5,1.4,0.6,2.7,0.1,4.1c-0.4,1.1-1.1,2.1-0.9,3.8c1.3-1.3,2.8,0.3,3.9-1c2-2.3,4.7-3.9,7.3-5.4c4.2-2.3,7.6-5.4,10-9.7
				C429.2,263.3,431.7,258.4,432.8,252.9 M330.6,364.9c0-0.3-0.1-0.6-0.1-0.9c-5,0.4-10.1,0.9-15.1,1.3
				C320.5,366,325.6,365.3,330.6,364.9"/>
			<path class="st2" d="M349.1,247.8c-3.3,2-6.7,4.1-10,6.1c-9.4,5.9-18.9,11.7-28.3,17.7c-1.8,1.2-2.3,0.3-2.7-1.2
				c-0.3-1.3-0.9-2.9-0.1-4.1c0.7-1.1,2.4-1.2,3.7-1.8c7.1-3.5,14.1-7.2,21.2-10.7C338.1,251.5,343.2,248.9,349.1,247.8"/>
			<path class="st2" d="M198.2,314.3c1.8-0.3,3.6,0.1,5.4-0.3c1.1-0.3,2.6,0.4,3,2.1c0.3,1.5,0.8,3,1.4,4.5c1.3,3,1.3,3.3-1.6,4.8
				c-1.1,0.6-2.2,0.9-3.4,1.3c-2.4,0.7-4.1-0.2-5-2.5c-1.1-2.9-2.3-5.8-5.1-7.7c-1.3-0.9-0.5-1.9,0.8-2.1
				C195.2,314.2,196.7,314.3,198.2,314.3"/>
			<path class="st2" d="M31.9,348c-1.8-0.6-3.7-1.1-5.5-1.7c-1.3-0.4-1.2-1.5-0.5-2.3c1.9-2.2,2.1-4.7,2.2-7.3
				c0-0.6,0.1-1.2,0.2-1.8c0.5-2.4,3.2-4.7,4.8-4.3c2.5,0.7,4.2,4.1,3.4,6.6c-1,3.1-1.9,6.3-2.8,9.5C33.5,347.7,33,348.2,31.9,348"
				/>
			<path class="st2" d="M37.8,326.3c-0.2-1.5,0.4-2.4,1.7-3.2c2-1.3,3.9-2.7,5.7-4.1c1.5-1.1,2.7-1.2,4.2,0.1c1.4,1.3,1.6,2.4,0.5,4
				c-1.5,2.3-3,4.7-5.4,6.3c-1.6,1.1-3.3,1-4.9,0.2C38.3,329.1,37.3,328,37.8,326.3"/>
			<path class="st2" d="M251.9,295.4c-1.5,3.9-4,6.5-6.5,9c-0.8,0.8-1.7,0.8-2.5,0c-1.7-1.6-2.2-3.8-2.8-6c-0.2-0.8,0.4-0.8,0.9-1
				C244.5,296.6,248,295.9,251.9,295.4"/>
			<path class="st2" d="M369,225.4c-2.7,0.9-4.5,2.3-7.1,1.6C364,225.2,366.1,225,369,225.4"/>
			<path class="st2" d="M395.4,132.1c0.2,0.1,0.4,0.2,0.7,0.2c-0.1,0.1-0.2,0.3-0.3,0.3C395.5,132.6,395.3,132.5,395.4,132.1
				C395.4,132.2,395.4,132.1,395.4,132.1"/>
			<path style="clip-path:url(#SVGID_4_);fill:#FDFDFD;" d="M299.2,281.2c-0.4,1.4-0.6,2.9-1.1,4.3c-0.3,0.8-0.8,1.6-1.9,1.5
				c-1.3-0.1-1.2-1.1-1.2-2c-0.1-4.3-1.6-7.7-4.8-10.7c-2.9-2.7-4.3-2.7-6.9,0.3c-0.2,0.2-0.3,0.4-0.5,0.6c-0.7,0.6-1,2.3-2.2,1.7
				c-1.1-0.6-0.9-2.1-0.5-3.1c1.5-3.4,3-6.9,4.7-10.2c0.8-1.5,2.6-1.7,3.6-0.6C293.3,268.3,298.5,273.4,299.2,281.2"/>
			<path style="clip-path:url(#SVGID_4_);fill:#FDFDFD;" d="M245.3,235.1c0.1,1.7-0.4,3.8-0.7,6c-0.1,0.6-0.3,1.3-1.1,1.3
				c-0.9,0.1-0.8-0.7-1-1.3c-0.8-3-1.5-6.1-2.3-9.1c-0.6-2.1-1.6-4-2.9-5.8c-1.2-1.6-2.2-3.7-0.3-5.1c2.1-1.6,3.7,0.3,4.9,2
				C244.2,226.1,245.3,229.7,245.3,235.1"/>
			<path style="clip-path:url(#SVGID_4_);fill:#FDFDFD;" d="M280.8,313.8c-1.1,0-2.5,0.4-3.2-0.9c-0.6-1.2,0.4-2.1,1-3.1
				c1.3-2,3.1-3.6,5.5-4.2c2.2-0.6,3.1,0.2,3.2,2.4C287.5,312.3,286,313.6,280.8,313.8"/>
			<path style="clip-path:url(#SVGID_4_);fill:#FDFDFD;" d="M451.3,317.5c0.2-0.6,0.9-1.2,1.2-0.9c0.6,0.6-0.3,1.1-0.6,1.6
				C451.7,318,451.5,317.7,451.3,317.5"/>
			<path style="clip-path:url(#SVGID_4_);fill:#FDFDFD;" d="M394.3,287c0.2-0.2,0.3-0.3,0.5-0.5c0.1,0.1,0.2,0.2,0.3,0.3
				c-0.2,0.1-0.4,0.2-0.7,0.3C394.4,287.2,394.3,287,394.3,287"/>
		</g>
	</g>
</g>
</svg>
