<?xml version="1.0" encoding="utf-8"?>
<!-- Generator: Adobe Illustrator 19.2.1, SVG Export Plug-In . SVG Version: 6.00 Build 0)  -->
<svg version="1.1" id="Calque_1" xmlns="http://www.w3.org/2000/svg" xmlns:xlink="http://www.w3.org/1999/xlink" x="0px" y="0px"
	 viewBox="0 0 500 500" style="enable-background:new 0 0 500 500;" xml:space="preserve">
<style type="text/css">
	.st0{display:none;fill:#1D1D1B;stroke:#FFFFFF;stroke-miterlimit:10;}
	.st1{clip-path:url(#SVGID_2_);}
	.st2{clip-path:url(#SVGID_4_);fill:#FFFFFF;}
	.st3{clip-path:url(#SVGID_6_);}
	.st4{clip-path:url(#SVGID_8_);fill:#FFFFFF;}
	.st5{clip-path:url(#SVGID_10_);}
	.st6{clip-path:url(#SVGID_12_);fill:#FFFFFF;}
	.st7{clip-path:url(#SVGID_14_);}
	.st8{clip-path:url(#SVGID_16_);fill:#FFFFFF;}
	.st9{clip-path:url(#SVGID_16_);}
	.st10{opacity:0.3;clip-path:url(#SVGID_18_);}
	.st11{clip-path:url(#SVGID_20_);fill:#FFFFFF;}
	.st12{opacity:0.3;clip-path:url(#SVGID_22_);}
	.st13{clip-path:url(#SVGID_24_);fill:#FFFFFF;}
	.st14{clip-path:url(#SVGID_26_);fill:#FFFFFF;}
	.st15{clip-path:url(#SVGID_22_);fill:#FFFFFF;}
	.st16{clip-path:url(#SVGID_28_);fill:#FFFFFF;}
	.st17{clip-path:url(#SVGID_30_);}
	.st18{clip-path:url(#SVGID_32_);fill:#FFFFFF;}
	.st19{clip-path:url(#SVGID_34_);}
	.st20{clip-path:url(#SVGID_36_);fill:#FFFFFF;}
	.st21{clip-path:url(#SVGID_38_);}
	.st22{clip-path:url(#SVGID_40_);fill:#FFFFFF;}
	.st23{clip-path:url(#SVGID_42_);}
	.st24{clip-path:url(#SVGID_44_);fill-rule:evenodd;clip-rule:evenodd;fill:#FFFFFF;}
	.st25{clip-path:url(#SVGID_44_);fill:#FFFFFF;}
	.st26{clip-path:url(#SVGID_46_);}
	.st27{clip-path:url(#SVGID_48_);fill:#FFFFFF;}
	.st28{clip-path:url(#SVGID_50_);}
	.st29{clip-path:url(#SVGID_52_);fill:#FFFFFF;}
	.st30{clip-path:url(#SVGID_54_);}
	.st31{clip-path:url(#SVGID_56_);fill-rule:evenodd;clip-rule:evenodd;fill:#FFFFFF;}
	.st32{clip-path:url(#SVGID_56_);fill:#FFFFFF;}
	.st33{clip-path:url(#SVGID_58_);}
	.st34{clip-path:url(#SVGID_60_);fill:#FFFFFF;}
	.st35{clip-path:url(#SVGID_62_);}
	.st36{clip-path:url(#SVGID_64_);}
	.st37{opacity:0.3;clip-path:url(#SVGID_66_);}
	.st38{clip-path:url(#SVGID_68_);fill:#FFFFFF;}
	.st39{clip-path:url(#SVGID_68_);}
	.st40{clip-path:url(#SVGID_70_);fill:#FFFFFF;}
	.st41{opacity:0.7;clip-path:url(#SVGID_66_);}
	.st42{clip-path:url(#SVGID_72_);fill:#FFFFFF;}
	.st43{clip-path:url(#SVGID_72_);}
	.st44{clip-path:url(#SVGID_74_);fill:#FFFFFF;}
	.st45{clip-path:url(#SVGID_66_);fill:#FFFFFF;}
	.st46{opacity:0.5;clip-path:url(#SVGID_66_);}
	.st47{clip-path:url(#SVGID_76_);fill:#FFFFFF;}
	.st48{clip-path:url(#SVGID_76_);}
	.st49{clip-path:url(#SVGID_78_);fill:#FFFFFF;}
	.st50{clip-path:url(#SVGID_80_);fill:#FFFFFF;}
	.st51{clip-path:url(#SVGID_82_);}
	.st52{clip-path:url(#SVGID_84_);fill:#FFFFFF;}
	.st53{clip-path:url(#SVGID_86_);}
	.st54{clip-path:url(#SVGID_88_);fill:#FFFFFF;}
	.st55{clip-path:url(#SVGID_88_);fill-rule:evenodd;clip-rule:evenodd;fill:#FFFFFF;}
	.st56{clip-path:url(#SVGID_90_);}
	.st57{clip-path:url(#SVGID_92_);fill:#FFFFFF;}
	.st58{clip-path:url(#SVGID_94_);}
	.st59{clip-path:url(#SVGID_96_);fill:#FFFFFF;}
	.st60{clip-path:url(#SVGID_98_);}
	.st61{clip-path:url(#SVGID_100_);fill:#FFFFFF;}
	.st62{clip-path:url(#SVGID_100_);fill:#FDFDFD;}
	.st63{clip-path:url(#SVGID_102_);}
	.st64{clip-path:url(#SVGID_104_);fill:#FFFFFF;}
	.st65{clip-path:url(#SVGID_106_);fill:#FFFFFF;}
	.st66{clip-path:url(#SVGID_106_);}
	.st67{clip-path:url(#SVGID_108_);fill:#FFFFFF;}
	.st68{clip-path:url(#SVGID_110_);}
	.st69{clip-path:url(#SVGID_112_);fill:#FFFFFF;}
	.st70{clip-path:url(#SVGID_114_);}
	.st71{clip-path:url(#SVGID_116_);fill-rule:evenodd;clip-rule:evenodd;fill:#FFFFFF;}
	.st72{clip-path:url(#SVGID_118_);}
	.st73{clip-path:url(#SVGID_120_);}
	.st74{clip-path:url(#SVGID_122_);}
	.st75{clip-path:url(#SVGID_126_);fill:#F9F9F9;}
</style>
<rect x="-2706.3" y="-1748.3" class="st0" width="4271.1" height="3545.3"/>
<g>
	<g>
		<defs>
			<rect id="SVGID_29_" x="94.2" y="164.9" width="311.6" height="170.3"/>
		</defs>
		<clipPath id="SVGID_2_">
			<use xlink:href="#SVGID_29_"  style="overflow:visible;"/>
		</clipPath>
		<g class="st1">
			<defs>
				<rect id="SVGID_31_" x="94.2" y="164.9" width="311.6" height="170.3"/>
			</defs>
			<clipPath id="SVGID_4_">
				<use xlink:href="#SVGID_31_"  style="overflow:visible;"/>
			</clipPath>
			<path class="st2" d="M268.9,317.5c-1.9,1.1-4.1,2.3-10,2.7c-0.3,0-0.6,0-0.9,0c-6.5,0-10.9-4.6-10.9-8.9c0-4.7,5.6-8.9,11.8-8.9
				c2.5,0,7.2,0.6,9.2,1.8l0.4,0.3l3.2-6.1l-0.4-0.2c-3.5-1.8-7.8-2.8-12.4-2.8c-12.2,0-21.1,6.7-21.1,15.9
				c0,9.2,8.9,15.9,21.1,15.9c4.2,0,9.1-1.3,13.2-3.5l0.4-0.2l-3-6.4L268.9,317.5z"/>
			<path class="st2" d="M303.2,295.9c-1.5-0.2-2.9-0.4-4.2-0.4c-5.1,0-8.3,1.7-11.4,4.3l0-12.3l-9.3,0V327h9.5l0-16.9
				c0-2.2,0.8-3.9,2.6-5.4c1.7-1.3,4.7-2.2,7.6-2.2c4.1,0,8.5,1.7,8.5,6.4v18h9.5v-17.1C316.1,302,311.7,297.3,303.2,295.9"/>
			<path class="st2" d="M180.8,314.1c0,5.1-5.8,6.5-9.3,6.5c-3.8,0-9.4-1.7-9.4-6.5v-17h-9.5v16.3c0,4.5,2.1,8.3,6,11
				c3.3,2.2,7.3,3.2,12.9,3.2c8.8,0,19-3.7,19-14.2v-16.3h-9.5V314.1z"/>
			<path class="st2" d="M350.2,314.1c0,5.1-5.8,6.5-9.3,6.5c-3.8,0-9.4-1.7-9.4-6.5v-17H322v16.3c0,4.5,2.1,8.3,6,11
				c3.3,2.2,7.3,3.2,12.9,3.2c8.8,0,19-3.7,19-14.2v-16.3h-9.5V314.1z"/>
			<path class="st2" d="M139.4,292.6c-5.3-4-11.9-6.1-18.7-6.1c-4.3,0-8.7,0.9-12.6,2.6c-3.9,1.7-9.1,5-12,10.6
				c-2.5,5.1-2.5,11,0,15.9c3.2,6.2,9.2,10.4,17.5,12.3l1.1,0.2v-7.8l-0.6-0.2c-3.7-1.2-6.5-3.3-8.6-6.6c-2.6-3.9-2.3-9.5,0.8-13.3
				l0.1-0.1c4-4.6,9.1-5.8,12.6-6c0.8-0.1,1.5-0.1,2.3-0.1c4.5,0,8.3,1.2,11.2,3.6l0.1,0c0.2,0.2,0.3,0.3,0.4,0.3l0.2,0.2
				c2.2,1.9,3.7,4.1,4.4,6.5c0.7,2.4,0.4,5.3-0.7,7.6c-1.7,3.7-5,6.2-10.1,7.8l-0.7,0.2v-5.4l-8.5,3.2v3.3l0,10.6l9,3.2v-7.3
				l0.6-0.1c6-1.2,13.9-4.2,18.1-11.8c2.1-3.7,2.6-8.4,1.5-12.6C145.8,299.3,143.3,295.7,139.4,292.6"/>
			<path class="st2" d="M214,295.4c-11.1,0-19.2,6.7-19.2,15.9c0,9.2,8.1,15.9,19.2,15.9c7.9,0,14.4-3.5,17.7-9.3h-10.6
				c-1.9,1.5-4.4,2.3-7.1,2.3c-4.9,0-9.2-2.8-10.4-6.7h29l0.2-0.6l0-0.1c0.1-0.5,0.1-1,0.1-1.5C232.9,302,225.1,295.4,214,295.4
				 M204,307.6c0.7-3.9,4.9-5.9,10.1-5.9c4,0,9.1,2.2,10.1,5.9H204z"/>
			<path class="st2" d="M385.2,295.1L385.2,295.1c-12,0-20.7,6.8-20.7,16.2c0,9.4,8.7,16.2,20.6,16.2c2.6,0,5.2-0.3,7.5-1v-8.2
				c-0.6,0.3-1,0.4-1,0.4c-1.9,1-4.1,1.6-6.5,1.6c-6.4,0-11.6-4-11.6-9c0-2.6,1.7-5.2,4.5-7l0,0l0.3-0.2c2-1.2,4.4-1.9,6.7-1.9
				c2.3,0,4.7,0.7,6.7,1.9l0.3,0.2c2.6,1.6,4.3,4,4.5,6.4v2.4v2.6v9.3v2.1h9.1l0-15.8C405.8,301.9,397.1,295.1,385.2,295.1"/>
			<path class="st2" d="M343.5,241.7l-23-21.4h0c-2.2-2.1-5.2-3.4-8.6-3.4c-3.4,0-6.5,1.4-8.7,3.6h0l-28,26l8.1-10.5l1.8-7.2l8-31.9
				l0.2-0.9c0,0,0,0,0,0c0,0,0-0.1,0-0.1c0-0.3-0.2-0.5-0.5-0.5h-1.1h-4.8c-7.8,0-17.1-0.4-30,11.6L222.5,239l11.7-13.7l2.5-5.6
				l23.2-53.4l0.3-0.7c0,0,0,0,0,0c0-0.1,0-0.1,0-0.2c0-0.3-0.2-0.5-0.5-0.5h-0.9h-19.8l-82.8,76.9l0,0l0,0l0,0
				c-0.1,0.1-0.1,0.2-0.1,0.3c0,0.3,0.2,0.5,0.5,0.5h0h26.9l51.6-47.7l-16.3,17.9l-1,2.2l-12,27.6c-0.7,1.7-1,3.4-1,5.3
				c0,4,1.7,7.9,4.7,10.7c2.7,2.5,6.2,3.8,9.8,3.8c3.9,0,8.1-1.8,12.2-5.6l43.9-40.6l-9.8,11.9l-3.3,12.9c-0.3,1.4-0.5,2.8-0.5,4.3
				c0,9.5,7.7,17.3,17.2,17.4c0,0,0.1,0,0.1,0c0,0,0.1,0,0.1,0c4.4,0,8.4-1.7,11.4-4.4l0,0l21.5-19.9l0.5,0.5l4,3.8l0,0
				c0.1,0.1,0.2,0.1,0.3,0.1c0,0,0,0,0,0v0H342l1.2,0c0.3,0,0.5-0.2,0.5-0.5C343.6,242,343.6,241.8,343.5,241.7"/>
		</g>
	</g>
</g>
</svg>
