<?xml version="1.0" encoding="utf-8"?>
<!-- Generator: Adobe Illustrator 19.2.1, SVG Export Plug-In . SVG Version: 6.00 Build 0)  -->
<svg version="1.1" id="Calque_1" xmlns="http://www.w3.org/2000/svg" xmlns:xlink="http://www.w3.org/1999/xlink" x="0px" y="0px"
	 viewBox="0 0 500 500" style="enable-background:new 0 0 500 500;" xml:space="preserve">
<style type="text/css">
	.st0{display:none;fill:#1D1D1B;stroke:#FFFFFF;stroke-miterlimit:10;}
	.st1{clip-path:url(#SVGID_2_);}
	.st2{clip-path:url(#SVGID_4_);fill:#FFFFFF;}
	.st3{clip-path:url(#SVGID_6_);}
	.st4{clip-path:url(#SVGID_8_);fill:#FFFFFF;}
	.st5{clip-path:url(#SVGID_10_);}
	.st6{clip-path:url(#SVGID_12_);fill:#FFFFFF;}
	.st7{clip-path:url(#SVGID_14_);}
	.st8{clip-path:url(#SVGID_16_);fill:#FFFFFF;}
	.st9{clip-path:url(#SVGID_16_);}
	.st10{opacity:0.3;clip-path:url(#SVGID_18_);}
	.st11{clip-path:url(#SVGID_20_);fill:#FFFFFF;}
	.st12{opacity:0.3;clip-path:url(#SVGID_22_);}
	.st13{clip-path:url(#SVGID_24_);fill:#FFFFFF;}
	.st14{clip-path:url(#SVGID_26_);fill:#FFFFFF;}
	.st15{clip-path:url(#SVGID_22_);fill:#FFFFFF;}
	.st16{clip-path:url(#SVGID_28_);fill:#FFFFFF;}
	.st17{clip-path:url(#SVGID_30_);}
	.st18{clip-path:url(#SVGID_32_);fill:#FFFFFF;}
	.st19{clip-path:url(#SVGID_34_);}
	.st20{clip-path:url(#SVGID_36_);fill:#FFFFFF;}
	.st21{clip-path:url(#SVGID_38_);}
	.st22{clip-path:url(#SVGID_40_);fill:#FFFFFF;}
	.st23{clip-path:url(#SVGID_42_);}
	.st24{clip-path:url(#SVGID_44_);fill-rule:evenodd;clip-rule:evenodd;fill:#FFFFFF;}
	.st25{clip-path:url(#SVGID_44_);fill:#FFFFFF;}
	.st26{clip-path:url(#SVGID_46_);}
	.st27{clip-path:url(#SVGID_48_);fill:#FFFFFF;}
	.st28{clip-path:url(#SVGID_50_);}
	.st29{clip-path:url(#SVGID_52_);fill:#FFFFFF;}
	.st30{clip-path:url(#SVGID_54_);}
	.st31{clip-path:url(#SVGID_56_);fill-rule:evenodd;clip-rule:evenodd;fill:#FFFFFF;}
	.st32{clip-path:url(#SVGID_56_);fill:#FFFFFF;}
	.st33{clip-path:url(#SVGID_58_);}
	.st34{clip-path:url(#SVGID_60_);fill:#FFFFFF;}
	.st35{clip-path:url(#SVGID_62_);}
	.st36{clip-path:url(#SVGID_64_);}
	.st37{opacity:0.3;clip-path:url(#SVGID_66_);}
	.st38{clip-path:url(#SVGID_68_);fill:#FFFFFF;}
	.st39{clip-path:url(#SVGID_68_);}
	.st40{clip-path:url(#SVGID_70_);fill:#FFFFFF;}
	.st41{opacity:0.7;clip-path:url(#SVGID_66_);}
	.st42{clip-path:url(#SVGID_72_);fill:#FFFFFF;}
	.st43{clip-path:url(#SVGID_72_);}
	.st44{clip-path:url(#SVGID_74_);fill:#FFFFFF;}
	.st45{clip-path:url(#SVGID_66_);fill:#FFFFFF;}
	.st46{opacity:0.5;clip-path:url(#SVGID_66_);}
	.st47{clip-path:url(#SVGID_76_);fill:#FFFFFF;}
	.st48{clip-path:url(#SVGID_76_);}
	.st49{clip-path:url(#SVGID_78_);fill:#FFFFFF;}
	.st50{clip-path:url(#SVGID_80_);fill:#FFFFFF;}
	.st51{clip-path:url(#SVGID_82_);}
	.st52{clip-path:url(#SVGID_84_);fill:#FFFFFF;}
	.st53{clip-path:url(#SVGID_86_);}
	.st54{clip-path:url(#SVGID_88_);fill:#FFFFFF;}
	.st55{clip-path:url(#SVGID_88_);fill-rule:evenodd;clip-rule:evenodd;fill:#FFFFFF;}
	.st56{clip-path:url(#SVGID_90_);}
	.st57{clip-path:url(#SVGID_92_);fill:#FFFFFF;}
	.st58{clip-path:url(#SVGID_94_);}
	.st59{clip-path:url(#SVGID_96_);fill:#FFFFFF;}
	.st60{clip-path:url(#SVGID_98_);}
	.st61{clip-path:url(#SVGID_100_);fill:#FFFFFF;}
	.st62{clip-path:url(#SVGID_100_);fill:#FDFDFD;}
	.st63{clip-path:url(#SVGID_102_);}
	.st64{clip-path:url(#SVGID_104_);fill:#FFFFFF;}
	.st65{clip-path:url(#SVGID_106_);fill:#FFFFFF;}
	.st66{clip-path:url(#SVGID_106_);}
	.st67{clip-path:url(#SVGID_108_);fill:#FFFFFF;}
	.st68{clip-path:url(#SVGID_110_);}
	.st69{clip-path:url(#SVGID_112_);fill:#FFFFFF;}
	.st70{clip-path:url(#SVGID_114_);}
	.st71{clip-path:url(#SVGID_116_);fill-rule:evenodd;clip-rule:evenodd;fill:#FFFFFF;}
	.st72{clip-path:url(#SVGID_118_);}
	.st73{clip-path:url(#SVGID_120_);}
	.st74{clip-path:url(#SVGID_122_);}
	.st75{clip-path:url(#SVGID_126_);fill:#F9F9F9;}
</style>
<rect x="-626.3" y="-188.3" class="st0" width="4271.1" height="3545.3"/>
<g>
	<g>
		<defs>
			<rect id="SVGID_9_" x="19.4" y="210.8" width="461.2" height="78.4"/>
		</defs>
		<clipPath id="SVGID_2_">
			<use xlink:href="#SVGID_9_"  style="overflow:visible;"/>
		</clipPath>
		<g class="st1">
			<defs>
				<rect id="SVGID_11_" x="19.4" y="210.8" width="461.2" height="78.4"/>
			</defs>
			<clipPath id="SVGID_4_">
				<use xlink:href="#SVGID_11_"  style="overflow:visible;"/>
			</clipPath>
			<path class="st2" d="M51.1,289c0.5-2,1-3.9,1.5-5.9c-3.4,0.6-6.6,1.4-9.9,1.7c-5.3,0.6-10.5,0.1-15.4-2.1
				c-5.4-2.4-8-6.6-7.8-12.2c0.1-3.7,2.6-7,6.1-8c3.6-1,7.4,0.3,9.5,3.3c2.1,3,2,7.2-0.2,10.1c-2.2,2.9-6.1,4.1-9.6,2.9
				c-0.4-0.1-0.7-0.2-1.4,0c1,0.7,1.9,1.6,3,2.2c4.3,2.3,9,2.9,13.7,2.3c2.9-0.4,5.1-2,6.2-4.8c0.9-2.4,1.8-5,1.8-7.5
				c0.1-5,0.1-10.1-0.6-15.1c-0.7-5-4.2-7.5-9.3-7.6c-2.1,0-4.1,0-6.2-0.1c-0.4,0-0.8-0.5-1.2-0.8c0.4-0.2,0.8-0.6,1.2-0.6
				c2.2-0.1,4.4,0,6.6,0c6-0.1,8.9-2.5,10-8.4c0.8-4.7,1-9.4-0.1-14.1c-1.2-5.1-4.1-7.6-9.3-7.6c-6.5,0-11.9,2.4-15.4,8.2
				c-0.2,0.3-0.3,0.7-0.7,1.5c0.8-0.5,1.1-0.8,1.4-1c2.9-2.2,6.9-2.2,9.9-0.1c3.1,2.2,4.4,6.2,3.1,9.7c-1.2,3.4-4.7,5.8-8.3,5.7
				c-3.9-0.1-6.9-2.5-7.9-6.1c-1.5-5.6,1-11.6,6.4-15.6c8.1-5.9,23.2-5.1,30.6,1.5c7.4,6.6,6.6,18-1.8,24c-1.7,1.2-3.7,2.1-5.3,3
				c2.9,1.4,6,3,9.2,4.6c0.4-1.4,0.8-2.9,1.3-4.5c3-11.4,6.1-22.7,9.1-34.1c0.8-3,0.8-3,4.2-2.4c-1,3.8-2,7.5-3,11.3
				c-5.7,21.4-11.4,42.7-17.2,64.1C54.5,289.4,54.5,289.4,51.1,289"/>
			<path class="st2" d="M181.8,216.4h7.3c0,0.7,0.1,1.3,0.1,2c0,14.1,0,28.2,0,42.3c0,14.4-9.1,23.7-23.5,24.2
				c-5.4,0.2-10.6-0.5-15.4-3.1c-7.3-4-10.8-10.4-11.2-18.6c-0.3-6.4-0.1-12.8-0.1-19.1c0-8.5,0-17,0-25.5c0-0.6,0.1-1.3,0.1-2h7.3
				c0,0.8,0,1.5,0,2.3c0,13.5,0,27,0,40.5c0,3.8,0.5,7.6,2.5,10.9c3.9,6.6,10.1,8.3,17.1,7.8c9.8-0.8,15.5-6.7,15.7-16.7
				c0.3-14,0.1-28,0.1-42.1C181.8,218.3,181.8,217.4,181.8,216.4"/>
			<path class="st2" d="M416.9,276.8v6.7h-38.5v-67.1h37.7v6.8h-30.3v21.5c0.8,0,1.6,0,2.4,0c8,0,16.1,0,24.1,0
				c1.6,0,2.3,0.4,2.2,2.1c-0.1,1.5,0,3,0,4.8c-0.9,0-1.6,0.1-2.3,0.1c-8,0-16.1,0.1-24.1,0c-1.8,0-2.4,0.4-2.4,2.3
				c0.1,6.8,0.1,13.7,0,20.5c0,1.9,0.5,2.5,2.4,2.5c8.8-0.1,17.7,0,26.5,0C415.3,276.8,416,276.8,416.9,276.8"/>
			<path class="st2" d="M476.8,225.8c-2,1-4.1,2.1-6.2,3.1c-0.6-0.8-1.1-1.6-1.7-2.3c-4.9-6.1-15-6.3-19.4-0.4
				c-2.9,4-2.4,10,1.6,12.9c3,2.2,6.4,3.7,9.7,5.5c3.8,2.1,7.9,3.9,11.5,6.2c6.6,4.2,9.6,9.6,7.6,20.1c-1.4,7.3-7.2,12.4-15.3,13.7
				c-9.6,1.5-18.2-0.4-24.5-8.3c-1.7-2.1-2.8-4.6-4.3-7.1c2.4-1.1,4.5-2.1,6.5-3c1,1.6,1.8,3.2,2.8,4.7c5.3,8,14.6,8.6,21.1,6.3
				c7.3-2.6,9.5-13.5,3.7-18.9c-2.4-2.2-5.5-3.7-8.4-5.3c-4.2-2.3-8.6-4.2-12.8-6.5c-7.7-4.4-9.7-10.9-7.9-18.8
				c1.5-6.9,7.9-11.8,15.8-12.4C465.7,214.3,473,218.1,476.8,225.8"/>
			<path class="st2" d="M310.1,269.1c2.5-1.2,4.5-2.1,6.7-3.1c0.4,0.8,0.8,1.4,1.1,2.1c4.8,9.5,13.6,11.5,22,9.1
				c8.5-2.3,9.6-14.9,4.5-19c-2.8-2.2-5.9-4-9-5.7c-4.5-2.5-9.2-4.5-13.5-7.1c-6.4-3.8-8.1-9.9-6.9-16.9c1.2-6.7,5.6-10.9,12.1-12.7
				c10.2-2.8,19.5,1.1,24.1,9.9c-2,1-4.1,2.1-6.2,3.2c-0.5-0.7-0.9-1.2-1.3-1.8c-3.6-5-10.8-6.7-16.2-3.9
				c-6.7,3.4-7.4,12.4-1.1,16.6c3,2,6.5,3.4,9.6,5.1c4.2,2.3,8.5,4.6,12.6,7.2c9.4,6.1,9.1,25.3-4.4,31.1
				c-9.8,4.2-22.6,1.6-29.1-6.3C313.2,274.6,311.8,271.9,310.1,269.1"/>
			<path class="st2" d="M288.2,225.7c-2.1,1.1-4.1,2.1-6.2,3.2c-0.5-0.7-0.8-1.2-1.2-1.7c-3.8-5.4-11.8-7-17.3-3.4
				c-5.7,3.7-6,12-0.4,15.8c2.8,1.9,6.1,3.3,9.1,4.9c4.5,2.5,9.1,4.7,13.3,7.5c9.3,6.2,8.7,23.3-1.8,29.8
				c-12.4,7.7-30.2,2-35.6-11.5c-0.2-0.4-0.3-0.9-0.5-1.5c2-1,4-1.9,6.2-2.9c0.4,0.7,0.8,1.4,1.1,2.1c4.9,9.8,14.1,11.5,22.2,9.1
				c4.2-1.2,6.3-4.4,7.1-8.4c0.9-4.5,0.2-8.8-3.8-11.6c-3-2.1-6.4-3.7-9.7-5.5c-4-2.2-8.1-4.1-11.9-6.4c-6.1-3.7-7.8-9.5-6.9-16.2
				c0.9-6.4,4.8-10.6,10.6-12.8c7.3-2.8,19.1-2.1,25.1,8.2C287.8,224.9,287.9,225.2,288.2,225.7"/>
			<path class="st2" d="M80.2,267.1c1,1.6,1.8,3,2.7,4.3c5.8,8.2,16.7,7.9,22.4,4.9c5.4-2.9,7.9-14.2,1-19c-3.1-2.2-6.5-3.8-9.9-5.5
				c-3.1-1.7-6.3-3.2-9.4-4.8c-1-0.5-1.3-1.1-0.9-2.2c0.6-1.8,1-3.7,1.6-5.8c0.9,0.6,1.7,1.2,2.6,1.6c4.2,2.1,8.5,4.1,12.6,6.3
				c3.1,1.7,6.1,3.7,9.1,5.7c8.4,5.9,8.5,23.3-3.1,29.8c-9,5-22.9,3.1-30-4.3c-1-1-1.3-2-0.9-3.4C78.9,272.2,79.5,269.8,80.2,267.1"
				/>
			<path class="st2" d="M223,283.6h-7.3c0-0.7-0.1-1.4-0.1-2.1c0-21.1,0-42.1,0-63.2c0-1.6,0.5-2.1,2-2c1.7,0.2,4.1-0.4,5.1,0.5
				c0.9,0.8,0.3,3.2,0.3,5c0,19.7,0,39.5,0,59.2C223,281.8,223,282.6,223,283.6"/>
			<path class="st2" d="M92.2,222.2c0.6-2.1,1-4.1,1.7-6.1c0.1-0.5,0.9-1,1.4-1c7.6-0.9,15.5,3.6,18.9,10.7c-2,1-4.1,2.1-6.1,3.1
				C102,222,101.4,221.7,92.2,222.2"/>
		</g>
	</g>
</g>
<g>
	<g>
		<defs>
			<rect id="SVGID_105_" x="535.1" y="130.4" width="469.7" height="239.2"/>
		</defs>
		<clipPath id="SVGID_6_">
			<use xlink:href="#SVGID_105_"  style="overflow:visible;"/>
		</clipPath>
		<g class="st3">
			<defs>
				<rect id="SVGID_107_" x="473.6" y="43" width="589.8" height="417"/>
			</defs>
			<clipPath id="SVGID_8_">
				<use xlink:href="#SVGID_107_"  style="overflow:visible;"/>
			</clipPath>
		</g>
	</g>
</g>
</svg>
