<?xml version="1.0" encoding="utf-8"?>
<!-- Generator: Adobe Illustrator 19.2.1, SVG Export Plug-In . SVG Version: 6.00 Build 0)  -->
<svg version="1.1" id="Calque_1" xmlns="http://www.w3.org/2000/svg" xmlns:xlink="http://www.w3.org/1999/xlink" x="0px" y="0px"
	 viewBox="0 0 500 500" style="enable-background:new 0 0 500 500;" xml:space="preserve">
<style type="text/css">
	.st0{display:none;fill:#1D1D1B;stroke:#FFFFFF;stroke-miterlimit:10;}
	.st1{clip-path:url(#SVGID_2_);}
	.st2{clip-path:url(#SVGID_4_);fill:#FFFFFF;}
	.st3{clip-path:url(#SVGID_6_);}
	.st4{clip-path:url(#SVGID_8_);fill:#FFFFFF;}
	.st5{clip-path:url(#SVGID_10_);}
	.st6{clip-path:url(#SVGID_12_);fill:#FFFFFF;}
	.st7{clip-path:url(#SVGID_14_);}
	.st8{clip-path:url(#SVGID_16_);fill:#FFFFFF;}
	.st9{clip-path:url(#SVGID_16_);}
	.st10{opacity:0.3;clip-path:url(#SVGID_18_);}
	.st11{clip-path:url(#SVGID_20_);fill:#FFFFFF;}
	.st12{opacity:0.3;clip-path:url(#SVGID_22_);}
	.st13{clip-path:url(#SVGID_24_);fill:#FFFFFF;}
	.st14{clip-path:url(#SVGID_26_);fill:#FFFFFF;}
	.st15{clip-path:url(#SVGID_22_);fill:#FFFFFF;}
	.st16{clip-path:url(#SVGID_28_);fill:#FFFFFF;}
	.st17{clip-path:url(#SVGID_30_);}
	.st18{clip-path:url(#SVGID_32_);fill:#FFFFFF;}
	.st19{clip-path:url(#SVGID_34_);}
	.st20{clip-path:url(#SVGID_36_);fill:#FFFFFF;}
	.st21{clip-path:url(#SVGID_38_);}
	.st22{clip-path:url(#SVGID_40_);fill:#FFFFFF;}
	.st23{clip-path:url(#SVGID_42_);}
	.st24{clip-path:url(#SVGID_44_);fill-rule:evenodd;clip-rule:evenodd;fill:#FFFFFF;}
	.st25{clip-path:url(#SVGID_44_);fill:#FFFFFF;}
	.st26{clip-path:url(#SVGID_46_);}
	.st27{clip-path:url(#SVGID_48_);fill:#FFFFFF;}
	.st28{clip-path:url(#SVGID_50_);}
	.st29{clip-path:url(#SVGID_52_);fill:#FFFFFF;}
	.st30{clip-path:url(#SVGID_54_);}
	.st31{clip-path:url(#SVGID_56_);fill-rule:evenodd;clip-rule:evenodd;fill:#FFFFFF;}
	.st32{clip-path:url(#SVGID_56_);fill:#FFFFFF;}
	.st33{clip-path:url(#SVGID_58_);}
	.st34{clip-path:url(#SVGID_60_);fill:#FFFFFF;}
	.st35{clip-path:url(#SVGID_62_);}
	.st36{clip-path:url(#SVGID_64_);}
	.st37{opacity:0.3;clip-path:url(#SVGID_66_);}
	.st38{clip-path:url(#SVGID_68_);fill:#FFFFFF;}
	.st39{clip-path:url(#SVGID_68_);}
	.st40{clip-path:url(#SVGID_70_);fill:#FFFFFF;}
	.st41{opacity:0.7;clip-path:url(#SVGID_66_);}
	.st42{clip-path:url(#SVGID_72_);fill:#FFFFFF;}
	.st43{clip-path:url(#SVGID_72_);}
	.st44{clip-path:url(#SVGID_74_);fill:#FFFFFF;}
	.st45{clip-path:url(#SVGID_66_);fill:#FFFFFF;}
	.st46{opacity:0.5;clip-path:url(#SVGID_66_);}
	.st47{clip-path:url(#SVGID_76_);fill:#FFFFFF;}
	.st48{clip-path:url(#SVGID_76_);}
	.st49{clip-path:url(#SVGID_78_);fill:#FFFFFF;}
	.st50{clip-path:url(#SVGID_80_);fill:#FFFFFF;}
	.st51{clip-path:url(#SVGID_82_);}
	.st52{clip-path:url(#SVGID_84_);fill:#FFFFFF;}
	.st53{clip-path:url(#SVGID_86_);}
	.st54{clip-path:url(#SVGID_88_);fill:#FFFFFF;}
	.st55{clip-path:url(#SVGID_88_);fill-rule:evenodd;clip-rule:evenodd;fill:#FFFFFF;}
	.st56{clip-path:url(#SVGID_90_);}
	.st57{clip-path:url(#SVGID_92_);fill:#FFFFFF;}
	.st58{clip-path:url(#SVGID_94_);}
	.st59{clip-path:url(#SVGID_96_);fill:#FFFFFF;}
	.st60{clip-path:url(#SVGID_98_);}
	.st61{clip-path:url(#SVGID_100_);fill:#FFFFFF;}
	.st62{clip-path:url(#SVGID_100_);fill:#FDFDFD;}
	.st63{clip-path:url(#SVGID_102_);}
	.st64{clip-path:url(#SVGID_104_);fill:#FFFFFF;}
	.st65{clip-path:url(#SVGID_106_);fill:#FFFFFF;}
	.st66{clip-path:url(#SVGID_106_);}
	.st67{clip-path:url(#SVGID_108_);fill:#FFFFFF;}
	.st68{clip-path:url(#SVGID_110_);}
	.st69{clip-path:url(#SVGID_112_);fill:#FFFFFF;}
	.st70{clip-path:url(#SVGID_114_);}
	.st71{clip-path:url(#SVGID_116_);fill-rule:evenodd;clip-rule:evenodd;fill:#FFFFFF;}
	.st72{clip-path:url(#SVGID_118_);}
	.st73{clip-path:url(#SVGID_120_);}
	.st74{clip-path:url(#SVGID_122_);}
	.st75{clip-path:url(#SVGID_126_);fill:#F9F9F9;}
</style>
<rect x="-2186.3" y="-1228.3" class="st0" width="4271.1" height="3545.3"/>
<g>
	<g>
		<defs>
			<rect id="SVGID_89_" x="32.6" y="221.1" width="434.7" height="57.7"/>
		</defs>
		<clipPath id="SVGID_2_">
			<use xlink:href="#SVGID_89_"  style="overflow:visible;"/>
		</clipPath>
		<g class="st1">
			<defs>
				<rect id="SVGID_91_" x="32.6" y="221.1" width="434.7" height="57.7"/>
			</defs>
			<clipPath id="SVGID_4_">
				<use xlink:href="#SVGID_91_"  style="overflow:visible;"/>
			</clipPath>
			<path class="st2" d="M264.6,245.2h-41.4c-2.3,0-3.1-1.6-3.1-2.9c0-1.7,1.1-3.3,3.1-3.3H271c3,0,4.6-1.6,4.6-4.5
				c0-4.1-2.7-4.7-4.4-4.7h-49.1c-6.7,0-11.9,5.5-11.9,12.5c0,7.3,4.7,12.1,11.9,12.1h41.4c2.3,0,3.1,1.6,3.1,3
				c0,1.3-0.8,3.2-3.1,3.2h-47.9c-3,0-4.7,1.6-4.7,4.6c0,3,1.6,4.6,4.5,4.6h49.1c6.7,0,11.8-5.4,11.8-12.5
				C276.4,250.3,271.5,245.2,264.6,245.2"/>
			<path class="st2" d="M113,229c-3.1,0-4.9,1.7-4.9,4.5v25c0,1.9-0.2,3.1-3.6,3.1c-1.3,0-3.9-2-5.1-3.9c-0.9-1.4-5.3-7.8-10.4-15.4
				l-3.8-5.7c-1.6-2.4-6.4-8.1-14.6-8.1c-7.1,0-12.7,5.9-12.7,13.5v24.4c0.1,2.8,1.8,4.3,4.9,4.3c3,0,4.7-1.5,4.8-4.2l0-24.5
				c0-2.2,1.2-3.7,3-3.7c3.6,0,5.7,2.7,6.5,3.8l3.9,5.7c3.7,5.5,9.4,13.7,10.3,15.1c1.9,2.9,7,8.5,13.3,8.5
				c8.2,0,13.3-4.9,13.3-12.8v-25C117.9,230.6,116.1,229,113,229"/>
			<path class="st2" d="M37.3,228.8c-3,0-4.7,1.6-4.7,4.5v32.8c0.1,3,1.8,4.6,4.7,4.6c3,0,4.7-1.6,4.7-4.5v-32.8
				C42,230.5,40.3,228.8,37.3,228.8"/>
			<path class="st2" d="M367.3,245.2h-41.4c-2.3,0-3.1-1.6-3.1-2.9c0-1.7,1.1-3.3,3.1-3.3h47.8c3,0,4.6-1.6,4.6-4.5
				c0-4.1-2.7-4.7-4.4-4.7h-49.1c-6.7,0-11.9,5.5-11.9,12.5c0,7.3,4.7,12.1,11.9,12.1h41.4c2.3,0,3.1,1.6,3.1,3
				c0,1.3-0.8,3.2-3.1,3.2h-47.9c-3,0-4.7,1.6-4.7,4.6c0,3,1.6,4.6,4.5,4.6h49.1c6.7,0,11.8-5.4,11.8-12.5
				C379,250.3,374.1,245.2,367.3,245.2"/>
			<path class="st2" d="M146.9,239.3c0.5-0.1,1-0.2,1.6-0.3h44c3,0,4.6-1.6,4.6-4.5c0-4.1-2.7-4.8-4.4-4.8H149
				c-10.7,0-17.4,7.7-17.4,20c0,12.7,6.3,20,17.4,20h43.5c2.9,0,4.5-1.6,4.5-4.6c0-3-1.6-4.6-4.6-4.6H150c-1.1,0-2.2-0.1-3.1-0.3
				c-2.5-0.6-4-2.9-4.9-5.6h44.5c3,0,4.6-1.6,4.6-4.5c0-4.1-2.7-4.7-4.4-4.7h-44.9C142.6,242.5,144.2,239.9,146.9,239.3"/>
			<path class="st2" d="M294,228.8c-3,0-4.7,1.6-4.7,4.5v32.8c0.1,3,1.8,4.6,4.7,4.6c3,0,4.7-1.6,4.7-4.5v-32.8
				C298.7,230.5,297,228.8,294,228.8"/>
			<path class="st2" d="M438.5,221.1c-15.9,0-28.9,12.9-28.9,28.9c0,15.9,12.9,28.9,28.9,28.9c15.9,0,28.9-12.9,28.9-28.9
				C467.4,234.1,454.4,221.1,438.5,221.1 M450.8,228.5c4.5,2.6,8.1,6.5,10.2,11.2c-14.6-2.8-27.6,1-35.6,4.5
				C427.8,241.4,438,230.6,450.8,228.5 M438.5,274.7L438.5,274.7c-1.6,0-3.1-0.2-4.6-0.4h0h0c0,0,0.4-0.1,1.3-0.6
				c9.3-4.5,14.7-9,13.9-14.8c-0.9-5.7-22.9-5.4-32-3.7c0,0,21.2-14,45.9-9c0.2,1.2,0.3,2.5,0.3,3.8
				C463.2,263.6,452.2,274.7,438.5,274.7"/>
		</g>
	</g>
</g>
</svg>
