<?xml version="1.0" encoding="utf-8"?>
<!-- Generator: Adobe Illustrator 19.2.1, SVG Export Plug-In . SVG Version: 6.00 Build 0)  -->
<svg version="1.1" id="Calque_1" xmlns="http://www.w3.org/2000/svg" xmlns:xlink="http://www.w3.org/1999/xlink" x="0px" y="0px"
	 viewBox="0 0 500 500" style="enable-background:new 0 0 500 500;" xml:space="preserve">
<style type="text/css">
	.st0{display:none;fill:#1D1D1B;stroke:#FFFFFF;stroke-miterlimit:10;}
	.st1{clip-path:url(#SVGID_2_);}
	.st2{clip-path:url(#SVGID_4_);fill:#FFFFFF;}
	.st3{clip-path:url(#SVGID_6_);}
	.st4{clip-path:url(#SVGID_8_);fill:#FFFFFF;}
	.st5{clip-path:url(#SVGID_10_);}
	.st6{clip-path:url(#SVGID_12_);fill:#FFFFFF;}
	.st7{clip-path:url(#SVGID_14_);}
	.st8{clip-path:url(#SVGID_16_);fill:#FFFFFF;}
	.st9{clip-path:url(#SVGID_16_);}
	.st10{opacity:0.3;clip-path:url(#SVGID_18_);}
	.st11{clip-path:url(#SVGID_20_);fill:#FFFFFF;}
	.st12{opacity:0.3;clip-path:url(#SVGID_22_);}
	.st13{clip-path:url(#SVGID_24_);fill:#FFFFFF;}
	.st14{clip-path:url(#SVGID_26_);fill:#FFFFFF;}
	.st15{clip-path:url(#SVGID_22_);fill:#FFFFFF;}
	.st16{clip-path:url(#SVGID_28_);fill:#FFFFFF;}
	.st17{clip-path:url(#SVGID_30_);}
	.st18{clip-path:url(#SVGID_32_);fill:#FFFFFF;}
	.st19{clip-path:url(#SVGID_34_);}
	.st20{clip-path:url(#SVGID_36_);fill:#FFFFFF;}
	.st21{clip-path:url(#SVGID_38_);}
	.st22{clip-path:url(#SVGID_40_);fill:#FFFFFF;}
	.st23{clip-path:url(#SVGID_42_);}
	.st24{clip-path:url(#SVGID_44_);fill-rule:evenodd;clip-rule:evenodd;fill:#FFFFFF;}
	.st25{clip-path:url(#SVGID_44_);fill:#FFFFFF;}
	.st26{clip-path:url(#SVGID_46_);}
	.st27{clip-path:url(#SVGID_48_);fill:#FFFFFF;}
	.st28{clip-path:url(#SVGID_50_);}
	.st29{clip-path:url(#SVGID_52_);fill:#FFFFFF;}
	.st30{clip-path:url(#SVGID_54_);}
	.st31{clip-path:url(#SVGID_56_);fill-rule:evenodd;clip-rule:evenodd;fill:#FFFFFF;}
	.st32{clip-path:url(#SVGID_56_);fill:#FFFFFF;}
	.st33{clip-path:url(#SVGID_58_);}
	.st34{clip-path:url(#SVGID_60_);fill:#FFFFFF;}
	.st35{clip-path:url(#SVGID_62_);}
	.st36{clip-path:url(#SVGID_64_);}
	.st37{opacity:0.3;clip-path:url(#SVGID_66_);}
	.st38{clip-path:url(#SVGID_68_);fill:#FFFFFF;}
	.st39{clip-path:url(#SVGID_68_);}
	.st40{clip-path:url(#SVGID_70_);fill:#FFFFFF;}
	.st41{opacity:0.7;clip-path:url(#SVGID_66_);}
	.st42{clip-path:url(#SVGID_72_);fill:#FFFFFF;}
	.st43{clip-path:url(#SVGID_72_);}
	.st44{clip-path:url(#SVGID_74_);fill:#FFFFFF;}
	.st45{clip-path:url(#SVGID_66_);fill:#FFFFFF;}
	.st46{opacity:0.5;clip-path:url(#SVGID_66_);}
	.st47{clip-path:url(#SVGID_76_);fill:#FFFFFF;}
	.st48{clip-path:url(#SVGID_76_);}
	.st49{clip-path:url(#SVGID_78_);fill:#FFFFFF;}
	.st50{clip-path:url(#SVGID_80_);fill:#FFFFFF;}
	.st51{clip-path:url(#SVGID_82_);}
	.st52{clip-path:url(#SVGID_84_);fill:#FFFFFF;}
	.st53{clip-path:url(#SVGID_86_);}
	.st54{clip-path:url(#SVGID_88_);fill:#FFFFFF;}
	.st55{clip-path:url(#SVGID_88_);fill-rule:evenodd;clip-rule:evenodd;fill:#FFFFFF;}
	.st56{clip-path:url(#SVGID_90_);}
	.st57{clip-path:url(#SVGID_92_);fill:#FFFFFF;}
	.st58{clip-path:url(#SVGID_94_);}
	.st59{clip-path:url(#SVGID_96_);fill:#FFFFFF;}
	.st60{clip-path:url(#SVGID_98_);}
	.st61{clip-path:url(#SVGID_100_);fill:#FFFFFF;}
	.st62{clip-path:url(#SVGID_100_);fill:#FDFDFD;}
	.st63{clip-path:url(#SVGID_102_);}
	.st64{clip-path:url(#SVGID_104_);fill:#FFFFFF;}
	.st65{clip-path:url(#SVGID_106_);fill:#FFFFFF;}
	.st66{clip-path:url(#SVGID_106_);}
	.st67{clip-path:url(#SVGID_108_);fill:#FFFFFF;}
	.st68{clip-path:url(#SVGID_110_);}
	.st69{clip-path:url(#SVGID_112_);fill:#FFFFFF;}
	.st70{clip-path:url(#SVGID_114_);}
	.st71{clip-path:url(#SVGID_116_);fill-rule:evenodd;clip-rule:evenodd;fill:#FFFFFF;}
	.st72{clip-path:url(#SVGID_118_);}
	.st73{clip-path:url(#SVGID_120_);}
	.st74{clip-path:url(#SVGID_122_);}
	.st75{clip-path:url(#SVGID_126_);fill:#F9F9F9;}
</style>
<rect x="-626.3" y="-708.3" class="st0" width="4271.1" height="3545.3"/>
<g>
	<g>
		<defs>
			<rect id="SVGID_57_" x="45.7" y="183.9" width="408.7" height="132.3"/>
		</defs>
		<clipPath id="SVGID_2_">
			<use xlink:href="#SVGID_57_"  style="overflow:visible;"/>
		</clipPath>
		<g class="st1">
			<defs>
				<rect id="SVGID_59_" x="-15.5" y="122.7" width="531" height="254.6"/>
			</defs>
			<clipPath id="SVGID_4_">
				<use xlink:href="#SVGID_59_"  style="overflow:visible;"/>
			</clipPath>
			<path class="st2" d="M249.3,184L45.7,250.6l204.6,65.5l204.1-65.6l-204.6-66.7L249.3,184z M249.7,186.9
				c0.9,0.3,186.8,60.9,195.1,63.6c-8.3,2.6-193.7,62.3-194.6,62.5c-0.9-0.3-186.8-59.8-195.1-62.5
				C63.4,247.9,248.8,187.2,249.7,186.9"/>
			<path class="st2" d="M176.7,242.5c-3.4-4.3-6.2-5.5-10.1-5.5c-5,0-9.6,7-9.6,13.5c0,6.6,4.7,12.8,9.5,12.9
				c4.4,0.1,7.8-2.7,10.4-5.4l-0.6,15.4c-2.6,1.3-8.6,1.9-11.5,1.9c-12.6,0-21.7-10.5-21.7-24c0-13.9,9.4-25.1,22.3-25.1
				c2.2,0,8.6,0.2,11.3,2.6L176.7,242.5z"/>
			<path class="st2" d="M229.6,250.4c0,15.4-9.2,24.6-20.6,24.6s-20.6-9.2-20.6-24.6c0-15.1,9.3-24.8,20.6-24.8
				C220.3,225.6,229.6,235.3,229.6,250.4 M202,250.5c0,7.8,2.9,13.2,7,13.2s7-5.4,7-13.2c0-7.3-2-13.4-7-13.4
				C204.7,237.2,202,243.3,202,250.5"/>
			<path class="st2" d="M286,274.6h-13.1l14.8-48.7h14.1l14.9,48.7h-13.8l-2.7-8.1h-11.5L286,274.6 M297.5,256.5l-1.5-8.2
				c-0.4-2.1-1.1-3.8-1.3-5.9l-2.6,14H297.5z"/>
			<polygon class="st2" points="240,225.2 253.8,225.2 253.8,262.9 267.6,262.9 267.6,274.7 240,274.7 			"/>
			<path class="st2" d="M354.6,240.7v-12c0,0-5.2-4.7-16-3.3c0,0-11.6,1-13.2,11.3c0,0-2.1,9.9,7.7,15.3c0,0,6.9,3.6,9.7,5.5
				c0,0,3.4,2.2,0.3,5.6c0,0-2.1,2.5-8.3-0.4c-6.5-3.1-9.1-5.2-9.1-5.2v13.6c0,0,4.3,4,15.4,3.6c0,0,13.6,0.3,17.1-11.3
				c0,0,3.2-9.7-5.1-14.8c0,0-6.6-4.1-10.5-6.3c-2-1.1-3.4-3.9-0.3-5.1C342,237.2,347.2,234.6,354.6,240.7"/>
			<path class="st2" d="M359.7,263.2l39-12.5l-39-12.7v1.2c19.5,6.3,34.1,11.1,35.1,11.4c-1.1,0.3-15.6,5-35.1,11.3V263.2z"/>
			<path class="st2" d="M143.9,263.1c-21.3-6.8-37.6-12.1-38.7-12.4c1.1-0.4,17.4-5.7,38.7-12.6v-1.2l-42.5,13.8l42.5,13.7V263.1z"
				/>
			<path class="st2" d="M250,202.4l-0.2,0.1l-71,23.1v1.2c35.7-11.6,71-23.1,71.2-23.1c0.2,0.1,37.9,12.3,74.8,24.3v-1.2L250,202.4z
				"/>
			<path class="st2" d="M178.8,274.3v1.2l71.2,22.9l74.8-24v-1.2c-36.9,11.8-74.6,24-74.8,24C249.8,297.1,214.5,285.8,178.8,274.3"
				/>
		</g>
	</g>
</g>
</svg>
