<?xml version="1.0" encoding="utf-8"?>
<!-- Generator: Adobe Illustrator 19.2.1, SVG Export Plug-In . SVG Version: 6.00 Build 0)  -->
<svg version="1.1" id="Calque_1" xmlns="http://www.w3.org/2000/svg" xmlns:xlink="http://www.w3.org/1999/xlink" x="0px" y="0px"
	 viewBox="0 0 500 500" style="enable-background:new 0 0 500 500;" xml:space="preserve">
<style type="text/css">
	.st0{display:none;fill:#1D1D1B;stroke:#FFFFFF;stroke-miterlimit:10;}
	.st1{clip-path:url(#SVGID_2_);}
	.st2{clip-path:url(#SVGID_4_);fill:#FFFFFF;}
	.st3{clip-path:url(#SVGID_6_);}
	.st4{clip-path:url(#SVGID_8_);fill:#FFFFFF;}
	.st5{clip-path:url(#SVGID_10_);}
	.st6{clip-path:url(#SVGID_12_);fill:#FFFFFF;}
	.st7{clip-path:url(#SVGID_14_);}
	.st8{clip-path:url(#SVGID_16_);fill:#FFFFFF;}
	.st9{clip-path:url(#SVGID_16_);}
	.st10{opacity:0.3;clip-path:url(#SVGID_18_);}
	.st11{clip-path:url(#SVGID_20_);fill:#FFFFFF;}
	.st12{opacity:0.3;clip-path:url(#SVGID_22_);}
	.st13{clip-path:url(#SVGID_24_);fill:#FFFFFF;}
	.st14{clip-path:url(#SVGID_26_);fill:#FFFFFF;}
	.st15{clip-path:url(#SVGID_22_);fill:#FFFFFF;}
	.st16{clip-path:url(#SVGID_28_);fill:#FFFFFF;}
	.st17{clip-path:url(#SVGID_30_);}
	.st18{clip-path:url(#SVGID_32_);fill:#FFFFFF;}
	.st19{clip-path:url(#SVGID_34_);}
	.st20{clip-path:url(#SVGID_36_);fill:#FFFFFF;}
	.st21{clip-path:url(#SVGID_38_);}
	.st22{clip-path:url(#SVGID_40_);fill:#FFFFFF;}
	.st23{clip-path:url(#SVGID_42_);}
	.st24{clip-path:url(#SVGID_44_);fill-rule:evenodd;clip-rule:evenodd;fill:#FFFFFF;}
	.st25{clip-path:url(#SVGID_44_);fill:#FFFFFF;}
	.st26{clip-path:url(#SVGID_46_);}
	.st27{clip-path:url(#SVGID_48_);fill:#FFFFFF;}
	.st28{clip-path:url(#SVGID_50_);}
	.st29{clip-path:url(#SVGID_52_);fill:#FFFFFF;}
	.st30{clip-path:url(#SVGID_54_);}
	.st31{clip-path:url(#SVGID_56_);fill-rule:evenodd;clip-rule:evenodd;fill:#FFFFFF;}
	.st32{clip-path:url(#SVGID_56_);fill:#FFFFFF;}
	.st33{clip-path:url(#SVGID_58_);}
	.st34{clip-path:url(#SVGID_60_);fill:#FFFFFF;}
	.st35{clip-path:url(#SVGID_62_);}
	.st36{clip-path:url(#SVGID_64_);}
	.st37{opacity:0.3;clip-path:url(#SVGID_66_);}
	.st38{clip-path:url(#SVGID_68_);fill:#FFFFFF;}
	.st39{clip-path:url(#SVGID_68_);}
	.st40{clip-path:url(#SVGID_70_);fill:#FFFFFF;}
	.st41{opacity:0.7;clip-path:url(#SVGID_66_);}
	.st42{clip-path:url(#SVGID_72_);fill:#FFFFFF;}
	.st43{clip-path:url(#SVGID_72_);}
	.st44{clip-path:url(#SVGID_74_);fill:#FFFFFF;}
	.st45{clip-path:url(#SVGID_66_);fill:#FFFFFF;}
	.st46{opacity:0.5;clip-path:url(#SVGID_66_);}
	.st47{clip-path:url(#SVGID_76_);fill:#FFFFFF;}
	.st48{clip-path:url(#SVGID_76_);}
	.st49{clip-path:url(#SVGID_78_);fill:#FFFFFF;}
	.st50{clip-path:url(#SVGID_80_);fill:#FFFFFF;}
	.st51{clip-path:url(#SVGID_82_);}
	.st52{clip-path:url(#SVGID_84_);fill:#FFFFFF;}
	.st53{clip-path:url(#SVGID_86_);}
	.st54{clip-path:url(#SVGID_88_);fill:#FFFFFF;}
	.st55{clip-path:url(#SVGID_88_);fill-rule:evenodd;clip-rule:evenodd;fill:#FFFFFF;}
	.st56{clip-path:url(#SVGID_90_);}
	.st57{clip-path:url(#SVGID_92_);fill:#FFFFFF;}
	.st58{clip-path:url(#SVGID_94_);}
	.st59{clip-path:url(#SVGID_96_);fill:#FFFFFF;}
	.st60{clip-path:url(#SVGID_98_);}
	.st61{clip-path:url(#SVGID_100_);fill:#FFFFFF;}
	.st62{clip-path:url(#SVGID_100_);fill:#FDFDFD;}
	.st63{clip-path:url(#SVGID_102_);}
	.st64{clip-path:url(#SVGID_104_);fill:#FFFFFF;}
	.st65{clip-path:url(#SVGID_106_);fill:#FFFFFF;}
	.st66{clip-path:url(#SVGID_106_);}
	.st67{clip-path:url(#SVGID_108_);fill:#FFFFFF;}
	.st68{clip-path:url(#SVGID_110_);}
	.st69{clip-path:url(#SVGID_112_);fill:#FFFFFF;}
	.st70{clip-path:url(#SVGID_114_);}
	.st71{clip-path:url(#SVGID_116_);fill-rule:evenodd;clip-rule:evenodd;fill:#FFFFFF;}
	.st72{clip-path:url(#SVGID_118_);}
	.st73{clip-path:url(#SVGID_120_);}
	.st74{clip-path:url(#SVGID_122_);}
	.st75{clip-path:url(#SVGID_126_);fill:#F9F9F9;}
</style>
<rect x="-1666.3" y="-188.3" class="st0" width="4271.1" height="3545.3"/>
<g>
	<g>
		<defs>
			<rect id="SVGID_105_" x="-504.9" y="130.4" width="469.7" height="239.2"/>
		</defs>
		<clipPath id="SVGID_2_">
			<use xlink:href="#SVGID_105_"  style="overflow:visible;"/>
		</clipPath>
		<g class="st1">
			<defs>
				<rect id="SVGID_107_" x="-566.4" y="43" width="589.8" height="417"/>
			</defs>
			<clipPath id="SVGID_4_">
				<use xlink:href="#SVGID_107_"  style="overflow:visible;"/>
			</clipPath>
		</g>
	</g>
</g>
<g>
	<g>
		<defs>
			<rect id="SVGID_109_" x="34.9" y="164.7" width="430.2" height="170.6"/>
		</defs>
		<clipPath id="SVGID_6_">
			<use xlink:href="#SVGID_109_"  style="overflow:visible;"/>
		</clipPath>
		<g class="st3">
			<defs>
				<rect id="SVGID_111_" x="34.9" y="164.7" width="430.2" height="170.6"/>
			</defs>
			<clipPath id="SVGID_8_">
				<use xlink:href="#SVGID_111_"  style="overflow:visible;"/>
			</clipPath>
			<path class="st4" d="M250.2,271.4c-8.5,0-17,0-25.5,0c-13.2,0-24.5-9-27.6-21.9c-0.5-2.1-0.7-4.2-0.7-6.3c0-16.7,0-33.4,0-50.1
				c0-13.6,9.4-24.5,21.5-27.5c2.2-0.5,4.5-0.8,6.8-0.8c17.1,0,34.1,0,51.2,0c13.9,0,25.7,10.1,27.9,23.8c0.2,1.5,0.3,3,0.3,4.6
				c0,16.7,0,33.3,0,50c0,13.4-9.6,25.6-23.8,28c-1.6,0.3-3.2,0.3-4.8,0.3C267.1,271.4,258.7,271.4,250.2,271.4 M221.2,180
				c-1.9,0-3.5,0.6-4.8,1.8c-1,0.9-2,1.9-2.9,2.9c-1.2,1.3-1.8,2.9-1.8,4.7c0,2.2,0.8,4,2.4,5.6c5.3,5.3,10.6,10.6,15.9,15.9
				c1,1,2,2,3,3c2.9,2.7,7.2,2.7,10.1,0c0.9-0.8,1.7-1.7,2.5-2.6c1.7-1.8,2.3-4,1.8-6.4c-0.3-1.6-1.1-2.9-2.3-4
				c-4.9-4.9-9.8-9.7-14.6-14.6c-1.4-1.4-2.7-2.7-4.1-4.1C224.9,180.8,223.2,180,221.2,180 M279.4,257.2c0.3,0,0.7,0,1.2-0.1
				c0.4-0.1,0.7-0.2,1-0.3c2.4-0.8,6.2-4.6,6.9-7c0.9-2.9,0.2-5.5-2-7.6c-5.8-5.8-11.6-11.6-17.4-17.3c-0.6-0.6-1.1-1.2-1.7-1.7
				c-2.1-1.8-4.4-2.4-7-1.6c-2.5,0.7-6.4,4.5-7.1,7.1c-0.8,2.9-0.2,5.4,1.9,7.5c4.1,4.1,8.3,8.3,12.4,12.4c2.1,2.1,4.3,4.3,6.4,6.4
				C275.5,256.4,277.2,257.2,279.4,257.2 M247.6,230.8c0-1.8-0.6-3.4-1.8-4.8c-0.9-1-1.9-2-2.9-2.9c-1.8-1.6-4-2.2-6.4-1.7
				c-1.6,0.3-2.9,1.2-4,2.3c-6.1,6.1-12.2,12.2-18.3,18.3c-0.2,0.2-0.4,0.4-0.6,0.6c-2.6,2.9-2.6,7.1,0,9.9c0.8,0.9,1.7,1.8,2.6,2.6
				c1.4,1.3,3.1,2,5,2c2.1,0,3.9-0.9,5.4-2.3c4.8-4.8,9.6-9.6,14.5-14.5c1.4-1.4,2.9-2.9,4.3-4.3
				C246.9,234.6,247.6,232.9,247.6,230.8 M262.7,215.4c1.9-0.1,3.6-0.7,5-2.1c6.4-6.3,12.7-12.7,19.1-19.1c2.8-2.8,2.8-7,0.2-9.9
				c-0.9-1-1.8-1.9-2.8-2.8c-2.8-2.5-6.9-2.5-9.5,0.1c-6.6,6.4-13.1,12.9-19.5,19.5c-2.7,2.7-2.6,6.9,0,9.7c0.9,0.9,1.8,1.8,2.7,2.7
				C259.2,214.8,260.9,215.3,262.7,215.4"/>
			<path class="st4" d="M242.7,288c0.7,10.7,1.4,21.2,2,31.8c0.1,0,0.2,0.1,0.2,0.1c0.2-0.3,0.5-0.6,0.7-1c7-9.9,14-19.9,21-29.8
				c0.6-0.9,1.2-1.3,2.3-1.2c6.4,0.1,12.8,0,19.3,0h1.6c0.8,10.6,1.6,21.1,2.3,31.7l0.3,0.1c0.3-0.4,0.6-0.7,0.8-1.1
				c7-9.8,14.1-19.6,21.1-29.4c0.7-1,1.4-1.3,2.5-1.3c6.9,0.1,13.9,0,20.8,0h1.5c-0.2,0.4-0.4,0.7-0.5,0.9
				c-11.2,15.2-22.3,30.4-33.5,45.6c-0.4,0.6-0.9,0.8-1.6,0.8c-8.9,0-17.9,0-26.8,0c-0.3,0-0.6,0-1-0.1c-0.6-5.1-1-10.2-1.5-15.3
				c-0.5-5.1-1-10.2-1.5-15.4c-0.6,0.1-0.7,0.5-0.9,0.9c-5.6,7.9-11.2,15.8-16.9,23.7c-1.3,1.8-2.6,3.6-3.8,5.4
				c-0.3,0.5-0.7,0.7-1.3,0.7c-8.2,0-16.5,0-24.7,0c-0.2,0-0.3,0-0.6-0.1c-1.3-10.4-2.7-20.9-4.1-31.4h-29.2
				c-3.3,10.5-6.5,20.9-9.8,31.4h-26c4.9-15.8,9.7-31.5,14.6-47.2H242.7z"/>
			<path class="st4" d="M450.5,335.3c-0.6,0-1,0-1.5,0c-9.1,0-18.2,0-27.3,0c-1,0-1.6-0.3-2.1-1.2c-6-9.4-12.1-18.8-18.1-28.1
				c-0.3-0.4-0.5-0.8-0.9-1.4c-3.2,10.3-6.4,20.4-9.6,30.5h-21.9c-0.1-0.1-0.1-0.1-0.1-0.1c0,0,0-0.1,0-0.1c0.1-0.3,0.1-0.6,0.2-0.8
				c4.7-15.4,9.5-30.7,14.2-46.1c0.4,0,0.8-0.1,1.2-0.1c10.2,0,20.5,0,30.7,0c0.9,0,1.4,0.3,1.8,1c5.8,8.6,11.5,17.3,17.3,25.9
				c0.2,0.4,0.5,0.7,0.9,1.2c2.6-9.5,5.2-18.8,7.7-28.1h22.1C460.2,303.8,455.4,319.5,450.5,335.3"/>
			<path class="st4" d="M49.6,287.2H51c16.6,0,33.1,0,49.7,0c4.5,0,9,0.1,13.4,1c2.2,0.5,4.4,1.1,6.4,2.3c1.7,1.1,2.7,2.7,2.5,4.8
				c-0.1,1.1-0.4,2.3-0.8,3.4c-1.1,2.7-3.1,4.6-5.5,6.2c-2.6,1.6-5.4,2.6-8.3,3.3c-0.4,0.1-0.8,0.2-1.3,0.4c0,0,0,0.1-0.1,0.2
				c0.4,0.1,0.9,0.2,1.3,0.4c1.1,0.3,2.2,0.6,3.2,1c1,0.4,1.9,0.9,2.8,1.4c3.4,2.3,4.6,5.4,3.7,9.4c-0.9,4-3.1,7-6.6,9.1
				c-2.7,1.6-5.6,2.6-8.6,3.4c-5.6,1.3-11.3,1.7-17.1,1.8c-16.6,0-33.2,0-49.8,0c-0.3,0-0.6,0-0.9-0.1
				C34.9,334.2,48.6,289.7,49.6,287.2 M66.4,314.1c-1.3,4.1-2.5,8-3.7,12.2c0.6,0,1.1,0,1.5,0c6,0,12,0,18,0c0.9,0,1.8,0,2.6,0
				c1.4-0.1,2.8-0.4,4.1-1c2.3-1.1,3.5-2.9,3.7-5.4c0.3-2.6-1.4-4.8-4.2-5.4c-1.4-0.3-2.9-0.4-4.4-0.4c-5.5,0-10.9,0-16.4,0
				C67.3,314.1,66.9,314.1,66.4,314.1 M68.6,307c0.5,0,0.9,0,1.3,0c6.3,0,12.5,0,18.8,0c0.5,0,1,0,1.4,0c1.6-0.1,3.1-0.4,4.4-1.4
				c1.8-1.2,2.8-3.6,2.4-5.5c-0.5-2.2-2-3.4-4.2-3.8c-0.9-0.2-1.8-0.2-2.6-0.2c-5.7,0-11.3,0-17,0c-0.4,0-0.8,0-1.2,0.1
				C70.8,299.8,69.7,303.3,68.6,307"/>
			<path class="st4" d="M372.1,288c-4.9,15.8-9.7,31.4-14.5,47.2h-25.9c4.8-15.8,9.7-31.4,14.5-47.2H372.1z"/>
			<path class="st4" d="M166,288c-1.7,5.3-3.3,10.5-4.9,15.7h-30.8c1.7-5.3,3.4-10.5,5-15.7H166z"/>
		</g>
	</g>
</g>
</svg>
