<?xml version="1.0" encoding="utf-8"?>
<!-- Generator: Adobe Illustrator 19.2.1, SVG Export Plug-In . SVG Version: 6.00 Build 0)  -->
<svg version="1.1" id="Calque_1" xmlns="http://www.w3.org/2000/svg" xmlns:xlink="http://www.w3.org/1999/xlink" x="0px" y="0px"
	 viewBox="0 0 500 500" style="enable-background:new 0 0 500 500;" xml:space="preserve">
<style type="text/css">
	.st0{display:none;fill:#1D1D1B;stroke:#FFFFFF;stroke-miterlimit:10;}
	.st1{clip-path:url(#SVGID_2_);}
	.st2{clip-path:url(#SVGID_4_);fill:#FFFFFF;}
	.st3{clip-path:url(#SVGID_6_);}
	.st4{clip-path:url(#SVGID_8_);fill:#FFFFFF;}
	.st5{clip-path:url(#SVGID_10_);}
	.st6{clip-path:url(#SVGID_12_);fill:#FFFFFF;}
	.st7{clip-path:url(#SVGID_14_);}
	.st8{clip-path:url(#SVGID_16_);fill:#FFFFFF;}
	.st9{clip-path:url(#SVGID_16_);}
	.st10{opacity:0.3;clip-path:url(#SVGID_18_);}
	.st11{clip-path:url(#SVGID_20_);fill:#FFFFFF;}
	.st12{opacity:0.3;clip-path:url(#SVGID_22_);}
	.st13{clip-path:url(#SVGID_24_);fill:#FFFFFF;}
	.st14{clip-path:url(#SVGID_26_);fill:#FFFFFF;}
	.st15{clip-path:url(#SVGID_22_);fill:#FFFFFF;}
	.st16{clip-path:url(#SVGID_28_);fill:#FFFFFF;}
	.st17{clip-path:url(#SVGID_30_);}
	.st18{clip-path:url(#SVGID_32_);fill:#FFFFFF;}
	.st19{clip-path:url(#SVGID_34_);}
	.st20{clip-path:url(#SVGID_36_);fill:#FFFFFF;}
	.st21{clip-path:url(#SVGID_38_);}
	.st22{clip-path:url(#SVGID_40_);fill:#FFFFFF;}
	.st23{clip-path:url(#SVGID_42_);}
	.st24{clip-path:url(#SVGID_44_);fill-rule:evenodd;clip-rule:evenodd;fill:#FFFFFF;}
	.st25{clip-path:url(#SVGID_44_);fill:#FFFFFF;}
	.st26{clip-path:url(#SVGID_46_);}
	.st27{clip-path:url(#SVGID_48_);fill:#FFFFFF;}
	.st28{clip-path:url(#SVGID_50_);}
	.st29{clip-path:url(#SVGID_52_);fill:#FFFFFF;}
	.st30{clip-path:url(#SVGID_54_);}
	.st31{clip-path:url(#SVGID_56_);fill-rule:evenodd;clip-rule:evenodd;fill:#FFFFFF;}
	.st32{clip-path:url(#SVGID_56_);fill:#FFFFFF;}
	.st33{clip-path:url(#SVGID_58_);}
	.st34{clip-path:url(#SVGID_60_);fill:#FFFFFF;}
	.st35{clip-path:url(#SVGID_62_);}
	.st36{clip-path:url(#SVGID_64_);}
	.st37{opacity:0.3;clip-path:url(#SVGID_66_);}
	.st38{clip-path:url(#SVGID_68_);fill:#FFFFFF;}
	.st39{clip-path:url(#SVGID_68_);}
	.st40{clip-path:url(#SVGID_70_);fill:#FFFFFF;}
	.st41{opacity:0.7;clip-path:url(#SVGID_66_);}
	.st42{clip-path:url(#SVGID_72_);fill:#FFFFFF;}
	.st43{clip-path:url(#SVGID_72_);}
	.st44{clip-path:url(#SVGID_74_);fill:#FFFFFF;}
	.st45{clip-path:url(#SVGID_66_);fill:#FFFFFF;}
	.st46{opacity:0.5;clip-path:url(#SVGID_66_);}
	.st47{clip-path:url(#SVGID_76_);fill:#FFFFFF;}
	.st48{clip-path:url(#SVGID_76_);}
	.st49{clip-path:url(#SVGID_78_);fill:#FFFFFF;}
	.st50{clip-path:url(#SVGID_80_);fill:#FFFFFF;}
	.st51{clip-path:url(#SVGID_82_);}
	.st52{clip-path:url(#SVGID_84_);fill:#FFFFFF;}
	.st53{clip-path:url(#SVGID_86_);}
	.st54{clip-path:url(#SVGID_88_);fill:#FFFFFF;}
	.st55{clip-path:url(#SVGID_88_);fill-rule:evenodd;clip-rule:evenodd;fill:#FFFFFF;}
	.st56{clip-path:url(#SVGID_90_);}
	.st57{clip-path:url(#SVGID_92_);fill:#FFFFFF;}
	.st58{clip-path:url(#SVGID_94_);}
	.st59{clip-path:url(#SVGID_96_);fill:#FFFFFF;}
	.st60{clip-path:url(#SVGID_98_);}
	.st61{clip-path:url(#SVGID_100_);fill:#FFFFFF;}
	.st62{clip-path:url(#SVGID_100_);fill:#FDFDFD;}
	.st63{clip-path:url(#SVGID_102_);}
	.st64{clip-path:url(#SVGID_104_);fill:#FFFFFF;}
	.st65{clip-path:url(#SVGID_106_);fill:#FFFFFF;}
	.st66{clip-path:url(#SVGID_106_);}
	.st67{clip-path:url(#SVGID_108_);fill:#FFFFFF;}
	.st68{clip-path:url(#SVGID_110_);}
	.st69{clip-path:url(#SVGID_112_);fill:#FFFFFF;}
	.st70{clip-path:url(#SVGID_114_);}
	.st71{clip-path:url(#SVGID_116_);fill-rule:evenodd;clip-rule:evenodd;fill:#FFFFFF;}
	.st72{clip-path:url(#SVGID_118_);}
	.st73{clip-path:url(#SVGID_120_);}
	.st74{clip-path:url(#SVGID_122_);}
	.st75{clip-path:url(#SVGID_126_);fill:#F9F9F9;}
</style>
<rect x="-2706.3" y="-2268.3" class="st0" width="4271.1" height="3545.3"/>
<g>
	<g>
		<defs>
			<rect id="SVGID_81_" x="71.7" y="74.2" width="356.7" height="351.7"/>
		</defs>
		<clipPath id="SVGID_2_">
			<use xlink:href="#SVGID_81_"  style="overflow:visible;"/>
		</clipPath>
		<g class="st1">
			<defs>
				<rect id="SVGID_83_" x="71.7" y="74.2" width="356.7" height="351.7"/>
			</defs>
			<clipPath id="SVGID_4_">
				<use xlink:href="#SVGID_83_"  style="overflow:visible;"/>
			</clipPath>
			<path class="st2" d="M296.2,219.9c-2.9,0-5,0.2-6.1,0.3v23.5c1.2,0.2,3.1,0.2,4.7,0.2c12.4,0.1,20.5-4,20.5-12.6
				C315.2,223.6,307.9,219.9,296.2,219.9"/>
			<path class="st2" d="M243.3,219.8c-3.3,0-5.2,0.1-6.1,0.3v9.9h5.3c6.8,0,10.8-2,10.8-5.2C253.3,221.5,249.5,219.8,243.3,219.8"/>
			<path class="st2" d="M161.1,105.7h-0.3c-0.8,2.3-1.7,5.3-2.6,7.5l-3.5,8.3h12.7l-3.6-8.3C162.9,110.9,161.9,108,161.1,105.7"/>
			<path class="st2" d="M132.6,174.4c0-7.3-7-10.7-18.2-10.7c-2.8,0-4.8,0.2-5.9,0.3v22.1c1.1,0.2,3,0.2,4.5,0.2
				C124.8,186.3,132.6,182.4,132.6,174.4"/>
			<path class="st2" d="M186,219.8c-9.3,0-14.6,5.4-14.6,12.1c0,6.8,5.4,12,14.5,12h0.1c9.2,0,14.4-5.2,14.4-12.2
				C200.4,225.4,195.3,219.8,186,219.8"/>
			<path class="st2" d="M71.7,74.2v351.7h99.4l257.3-241.4V74.2H71.7z M287.2,98.5c17.6,0,27.2,9,27.2,19.7
				c0,12.9-11.3,20.6-28.1,20.6h-0.1c-16.9,0-27-8.7-27-19.9C259.3,107.2,270.4,98.5,287.2,98.5 M95.7,99.1h12.9v31.6h22.8v7.4H95.7
				V99.1z M95.6,158.5c4.8-0.5,10.9-0.8,17.4-0.8c10.9,0,18.1,1.1,23.5,3.5c5.9,2.6,9.7,6.8,9.7,12.9c0,6.5-4,10.9-9.4,13.7
				c-6,3-15.3,4.4-26.5,4.4c-6.7,0-11.5-0.3-14.7-0.5V158.5z M148.1,249.9h-14.2L121,236c-3.6-3.9-7.6-8.5-10.4-12.7h-0.4
				c0.4,4.8,0.6,9.9,0.6,15.7v10.8H98.4V214h15.9l12.5,13.2c3.6,3.8,7,8.3,9.8,12.3h0.2c-0.8-4.7-1.1-9.6-1.1-15V214h12.5V249.9z
				 M148.9,138.1h-13.4l17.5-39h16.9l17.9,39h-14l-4.4-10h-16.5L148.9,138.1z M154.7,158h12.9v19.4c0,5.9,3.8,8.8,10.4,8.8
				c6.8,0,10.5-2.8,10.5-8.8V158h12.9v19c0,10.4-8.9,15.4-23.8,15.4c-14.4,0-22.8-4.8-22.8-15.5V158z M185.4,250.5L185.4,250.5
				c-17.8,0-28.3-8-28.3-18.3c0-10.8,11.6-18.8,29.2-18.8c18.4,0,28.5,8.3,28.5,18.2C214.8,243.4,203,250.5,185.4,250.5 M204.6,99.1
				h14.2l7,16.5c2,4.7,3.7,9.1,5.1,14h0.3c1.4-4.7,3.2-9.3,5.2-13.8l7.3-16.7h13.8l-19.3,39H223L204.6,99.1z M255.1,249.9
				c-0.9-1-2.4-3.9-4.1-8.4c-1.7-4.5-4.3-5.7-9.9-5.8h-4v14.1h-13.4v-35.4c4.4-0.5,10.8-0.8,18.1-0.8c8.9,0,15.1,0.8,19.4,2.9
				c3.7,1.7,5.6,4.2,5.6,7.5c0,4.5-5.4,7.7-10.6,8.8v0.2c4.2,1,6.5,3.4,8,6.7c1.9,4.1,3.7,8.8,4.8,10.2H255.1z M319.7,245.6
				c-6.3,3.1-16,4.6-27.8,4.6c-7,0-12.1-0.3-15.4-0.5v-35.2c5-0.5,11.5-0.8,18.3-0.8c11.5,0,19,1.1,24.7,3.7
				c6.2,2.8,10.2,7.2,10.2,13.6C329.6,237.9,325.4,242.7,319.7,245.6 M336,138.1H323v-39H336V138.1z M377.4,138.1l-5.2-7.1
				c-2.1-2.7-3.5-4.7-5.1-7h-0.2c-1.2,2.3-2.6,4.3-4.5,7l-4.7,7.1h-14.8l16.6-19.7l-16-19.3h14.9l5,7.1c1.7,2.4,3,4.3,4.3,6.5h0.2
				c1.4-2.5,2.5-4.2,3.9-6.5l4.8-7.1h14.8l-16.2,19l17,20H377.4z"/>
			<polygon class="st2" points="428.3,425.8 428.3,184.4 298.9,425.8 			"/>
			<path class="st2" d="M286.8,131.7L286.8,131.7c8.8,0,13.9-5.6,13.9-13.3c0-7-4.8-13-13.8-13c-8.9,0-14,5.9-14,13.2
				C272.9,126,278.1,131.7,286.8,131.7"/>
		</g>
	</g>
</g>
</svg>
