<?xml version="1.0" encoding="utf-8"?>
<!-- Generator: Adobe Illustrator 19.2.1, SVG Export Plug-In . SVG Version: 6.00 Build 0)  -->
<svg version="1.1" id="Calque_1" xmlns="http://www.w3.org/2000/svg" xmlns:xlink="http://www.w3.org/1999/xlink" x="0px" y="0px"
	 viewBox="0 0 500 500" style="enable-background:new 0 0 500 500;" xml:space="preserve">
<style type="text/css">
	.st0{display:none;fill:#1D1D1B;stroke:#FFFFFF;stroke-miterlimit:10;}
	.st1{clip-path:url(#SVGID_2_);}
	.st2{clip-path:url(#SVGID_4_);fill:#FFFFFF;}
	.st3{clip-path:url(#SVGID_6_);}
	.st4{clip-path:url(#SVGID_8_);fill:#FFFFFF;}
	.st5{clip-path:url(#SVGID_10_);}
	.st6{clip-path:url(#SVGID_12_);fill:#FFFFFF;}
	.st7{clip-path:url(#SVGID_14_);}
	.st8{clip-path:url(#SVGID_16_);fill:#FFFFFF;}
	.st9{clip-path:url(#SVGID_16_);}
	.st10{opacity:0.3;clip-path:url(#SVGID_18_);}
	.st11{clip-path:url(#SVGID_20_);fill:#FFFFFF;}
	.st12{opacity:0.3;clip-path:url(#SVGID_22_);}
	.st13{clip-path:url(#SVGID_24_);fill:#FFFFFF;}
	.st14{clip-path:url(#SVGID_26_);fill:#FFFFFF;}
	.st15{clip-path:url(#SVGID_22_);fill:#FFFFFF;}
	.st16{clip-path:url(#SVGID_28_);fill:#FFFFFF;}
	.st17{clip-path:url(#SVGID_30_);}
	.st18{clip-path:url(#SVGID_32_);fill:#FFFFFF;}
	.st19{clip-path:url(#SVGID_34_);}
	.st20{clip-path:url(#SVGID_36_);fill:#FFFFFF;}
	.st21{clip-path:url(#SVGID_38_);}
	.st22{clip-path:url(#SVGID_40_);fill:#FFFFFF;}
	.st23{clip-path:url(#SVGID_42_);}
	.st24{clip-path:url(#SVGID_44_);fill-rule:evenodd;clip-rule:evenodd;fill:#FFFFFF;}
	.st25{clip-path:url(#SVGID_44_);fill:#FFFFFF;}
	.st26{clip-path:url(#SVGID_46_);}
	.st27{clip-path:url(#SVGID_48_);fill:#FFFFFF;}
	.st28{clip-path:url(#SVGID_50_);}
	.st29{clip-path:url(#SVGID_52_);fill:#FFFFFF;}
	.st30{clip-path:url(#SVGID_54_);}
	.st31{clip-path:url(#SVGID_56_);fill-rule:evenodd;clip-rule:evenodd;fill:#FFFFFF;}
	.st32{clip-path:url(#SVGID_56_);fill:#FFFFFF;}
	.st33{clip-path:url(#SVGID_58_);}
	.st34{clip-path:url(#SVGID_60_);fill:#FFFFFF;}
	.st35{clip-path:url(#SVGID_62_);}
	.st36{clip-path:url(#SVGID_64_);}
	.st37{opacity:0.3;clip-path:url(#SVGID_66_);}
	.st38{clip-path:url(#SVGID_68_);fill:#FFFFFF;}
	.st39{clip-path:url(#SVGID_68_);}
	.st40{clip-path:url(#SVGID_70_);fill:#FFFFFF;}
	.st41{opacity:0.7;clip-path:url(#SVGID_66_);}
	.st42{clip-path:url(#SVGID_72_);fill:#FFFFFF;}
	.st43{clip-path:url(#SVGID_72_);}
	.st44{clip-path:url(#SVGID_74_);fill:#FFFFFF;}
	.st45{clip-path:url(#SVGID_66_);fill:#FFFFFF;}
	.st46{opacity:0.5;clip-path:url(#SVGID_66_);}
	.st47{clip-path:url(#SVGID_76_);fill:#FFFFFF;}
	.st48{clip-path:url(#SVGID_76_);}
	.st49{clip-path:url(#SVGID_78_);fill:#FFFFFF;}
	.st50{clip-path:url(#SVGID_80_);fill:#FFFFFF;}
	.st51{clip-path:url(#SVGID_82_);}
	.st52{clip-path:url(#SVGID_84_);fill:#FFFFFF;}
	.st53{clip-path:url(#SVGID_86_);}
	.st54{clip-path:url(#SVGID_88_);fill:#FFFFFF;}
	.st55{clip-path:url(#SVGID_88_);fill-rule:evenodd;clip-rule:evenodd;fill:#FFFFFF;}
	.st56{clip-path:url(#SVGID_90_);}
	.st57{clip-path:url(#SVGID_92_);fill:#FFFFFF;}
	.st58{clip-path:url(#SVGID_94_);}
	.st59{clip-path:url(#SVGID_96_);fill:#FFFFFF;}
	.st60{clip-path:url(#SVGID_98_);}
	.st61{clip-path:url(#SVGID_100_);fill:#FFFFFF;}
	.st62{clip-path:url(#SVGID_100_);fill:#FDFDFD;}
	.st63{clip-path:url(#SVGID_102_);}
	.st64{clip-path:url(#SVGID_104_);fill:#FFFFFF;}
	.st65{clip-path:url(#SVGID_106_);fill:#FFFFFF;}
	.st66{clip-path:url(#SVGID_106_);}
	.st67{clip-path:url(#SVGID_108_);fill:#FFFFFF;}
	.st68{clip-path:url(#SVGID_110_);}
	.st69{clip-path:url(#SVGID_112_);fill:#FFFFFF;}
	.st70{clip-path:url(#SVGID_114_);}
	.st71{clip-path:url(#SVGID_116_);fill-rule:evenodd;clip-rule:evenodd;fill:#FFFFFF;}
	.st72{clip-path:url(#SVGID_118_);}
	.st73{clip-path:url(#SVGID_120_);}
	.st74{clip-path:url(#SVGID_122_);}
	.st75{clip-path:url(#SVGID_126_);fill:#F9F9F9;}
</style>
<rect x="-2186.3" y="-188.3" class="st0" width="4271.1" height="3545.3"/>
<g>
	<g>
		<defs>
			<rect id="SVGID_113_" x="23" y="202.1" width="454" height="95.8"/>
		</defs>
		<clipPath id="SVGID_2_">
			<use xlink:href="#SVGID_113_"  style="overflow:visible;"/>
		</clipPath>
		<g class="st1">
			<defs>
				<rect id="SVGID_115_" x="7.2" y="191.3" width="489.9" height="108"/>
			</defs>
			<clipPath id="SVGID_4_">
				<use xlink:href="#SVGID_115_"  style="overflow:visible;"/>
			</clipPath>
			<path style="clip-path:url(#SVGID_4_);fill-rule:evenodd;clip-rule:evenodd;fill:#FFFFFF;" d="M219.4,268.5
				c-3.8-0.1-6.6-1.2-5.8-5.8C217.3,260.7,219.2,264.3,219.4,268.5"/>
			<path style="clip-path:url(#SVGID_4_);fill-rule:evenodd;clip-rule:evenodd;fill:#FFFFFF;" d="M319.5,265.6c1.2,2.8,2,5.2,1,7.8
				h-4.9C312.6,270.2,314.2,265.4,319.5,265.6"/>
			<path style="clip-path:url(#SVGID_4_);fill-rule:evenodd;clip-rule:evenodd;fill:#FFFFFF;" d="M97,221.8
				c-0.9-4.4-4.5-9.7-11.7-14.6c-8.6-4-24.4-5.1-36,1.9c-9.5,5.8-20.8,18.3-22.4,28.2c-4,26,29.3,42.7,51.5,27.2
				c7.4,4.3,8.7,14.7,19.4,15.5c5.9-9.3-7.4-14.1-9.7-21.4C98.1,250.5,99.5,235.7,97,221.8 M79.5,251c-5.1,0.6-8.3-10.6-16.5-9.7
				c-1.4,0.5-2.4,1.5-2.9,2.9c0.9,6.5,8.1,6.8,9.7,12.6c-10.1,7.4-25.2-0.7-29.2-6.8c-11.8-18.2,14.6-38.2,32.1-37.9
				c8.9,2.1,11.6,5.8,14.6,13.6C90.2,233.5,85.6,250.3,79.5,251"/>
			<path style="clip-path:url(#SVGID_4_);fill-rule:evenodd;clip-rule:evenodd;fill:#FFFFFF;" d="M417.7,236.4
				c-2-8.7-2.7-19-7.8-24.3c-2.4-0.2-3,1.5-4.9,1.9c1.4,11,0.8,23.2,3.9,37.9c1.1,5,5.1,30.2,11.7,30.1c4.7,0,4.8-6.1,3.9-12.6
				C423.2,259.3,420.4,247.9,417.7,236.4"/>
			<path style="clip-path:url(#SVGID_4_);fill-rule:evenodd;clip-rule:evenodd;fill:#FFFFFF;" d="M159.2,261.7
				c-1-19,7.8-36.2,24.3-40.8c4.3,1.2,1.1,9.9,7.8,8.7c2.8-4.6,0.1-11.6-3.4-13.6c-20.2-5.5-41.1,23.3-40.3,40.8
				c0.7,18,18.7,17.8,36.9,19.4c2.8,3.1,11.7,6.3,14.6,1C194.5,261.4,170.4,269.2,159.2,261.7"/>
			<path style="clip-path:url(#SVGID_4_);fill-rule:evenodd;clip-rule:evenodd;fill:#FFFFFF;" d="M387.6,217h-1.9v2.9
				c3.9,16.1-1.4,68.4,12.6,62.2c5.3-7.1,1.8-20.9,0-33C396.5,237.1,396.6,221.6,387.6,217"/>
			<path style="clip-path:url(#SVGID_4_);fill-rule:evenodd;clip-rule:evenodd;fill:#FFFFFF;" d="M352.6,253.9c3.2-2.8,2-4,1.9-9.7
				c-2-0.6-2.8-2.4-5.8-1.9C345.6,246.2,347.2,253.1,352.6,253.9"/>
			<path style="clip-path:url(#SVGID_4_);fill-rule:evenodd;clip-rule:evenodd;fill:#FFFFFF;" d="M239.8,257.8
				c-2.7,7.2,2.2,11.9,1.9,19.4c3.8,1.5,4.9,4.8,9.7,2.9c3-5.6-1.7-11-1.9-16.5c2.7-3.1,9.2-2.4,9.7-7.8
				C254.3,249.5,244.7,255.3,239.8,257.8"/>
			<path style="clip-path:url(#SVGID_4_);fill-rule:evenodd;clip-rule:evenodd;fill:#FFFFFF;" d="M204.9,259.7
				c-7.4,10.7,11.3,23.6,22.4,15.6c3.2,3.3,6.6,6.1,11.7,2.9C237.2,265.2,215,245,204.9,259.7 M213.6,262.7c3.7-2,5.6,1.6,5.8,5.8
				C215.6,268.4,212.9,267.3,213.6,262.7"/>
			<path style="clip-path:url(#SVGID_4_);fill-rule:evenodd;clip-rule:evenodd;fill:#FFFFFF;" d="M442,274.3
				c4-5.4,12.7-6.1,10.7-17.5c-11.8-5.3-24.6,3.4-26.2,14.6c4.3,9.4,18.8,13.4,33,14.6c6.2,0.5,15.8,2,17.5-3.9
				C468.1,276.8,454.1,276.5,442,274.3"/>
			<path style="clip-path:url(#SVGID_4_);fill-rule:evenodd;clip-rule:evenodd;fill:#FFFFFF;" d="M298.2,257.8
				c-2.3-0.1-9.4,0.1-12.6,1.9c-14.2-9.3-13.2,13.9-7.8,20.4c2.6,0,5.6,0.4,6.8-1c1.3-5.2-4.2-8.7-1-12.6c3,6.1,3,15.2,12.6,14.6
				c0.5-1.1,1-2.2,1.9-2.9c1-6.1-3.7-6.6-3.9-11.7c2.3-1.6,8.3,0.5,7.8-3.9C301.8,260,299,259.9,298.2,257.8"/>
			<path style="clip-path:url(#SVGID_4_);fill-rule:evenodd;clip-rule:evenodd;fill:#FFFFFF;" d="M320.5,257.8
				c-24.5-1.7-10.4,40.1,8.7,20.4c3.6,1.7,13.1,7.8,14.6,0C335,276.3,331.2,258.5,320.5,257.8 M320.5,273.3h-4.9
				c-3.1-3.2-1.4-7.9,3.9-7.8C320.7,268.4,321.6,270.7,320.5,273.3"/>
			<path style="clip-path:url(#SVGID_4_);fill-rule:evenodd;clip-rule:evenodd;fill:#FFFFFF;" d="M348.7,267.5
				c1.7,7.4,2.5,15.6,11.7,15.6C363.5,278.2,357.2,257.9,348.7,267.5"/>
			<path style="clip-path:url(#SVGID_4_);fill-rule:evenodd;clip-rule:evenodd;fill:#FFFFFF;" d="M121.3,278.2
				c2.3-0.4,2.1,1.8,4.9,1C138.6,270.1,112.8,262,121.3,278.2"/>
		</g>
	</g>
</g>
<g>
	<g>
		<defs>
			<rect id="SVGID_117_" x="385" y="15.8" width="770" height="468.4"/>
		</defs>
		<clipPath id="SVGID_6_">
			<use xlink:href="#SVGID_117_"  style="overflow:visible;"/>
		</clipPath>
		<g class="st3">
			<defs>
				<rect id="SVGID_119_" x="385" y="15.8" width="770" height="468.4"/>
			</defs>
			<clipPath id="SVGID_8_">
				<use xlink:href="#SVGID_119_"  style="overflow:visible;"/>
			</clipPath>
			<g style="clip-path:url(#SVGID_8_);">
				<defs>
					<rect id="SVGID_125_" x="385" y="15.8" width="770" height="468.4"/>
				</defs>
				<clipPath id="SVGID_10_">
					<use xlink:href="#SVGID_125_"  style="overflow:visible;"/>
				</clipPath>
			</g>
		</g>
	</g>
</g>
</svg>
