<?xml version="1.0" encoding="utf-8"?>
<!-- Generator: Adobe Illustrator 19.2.1, SVG Export Plug-In . SVG Version: 6.00 Build 0)  -->
<svg version="1.1" id="Calque_1" xmlns="http://www.w3.org/2000/svg" xmlns:xlink="http://www.w3.org/1999/xlink" x="0px" y="0px"
	 viewBox="0 0 500 500" style="enable-background:new 0 0 500 500;" xml:space="preserve">
<style type="text/css">
	.st0{display:none;fill:#1D1D1B;stroke:#FFFFFF;stroke-miterlimit:10;}
	.st1{clip-path:url(#SVGID_2_);}
	.st2{clip-path:url(#SVGID_4_);fill:#FFFFFF;}
	.st3{clip-path:url(#SVGID_6_);}
	.st4{clip-path:url(#SVGID_8_);fill:#FFFFFF;}
	.st5{clip-path:url(#SVGID_10_);}
	.st6{clip-path:url(#SVGID_12_);fill:#FFFFFF;}
	.st7{clip-path:url(#SVGID_14_);}
	.st8{clip-path:url(#SVGID_16_);fill:#FFFFFF;}
	.st9{clip-path:url(#SVGID_16_);}
	.st10{opacity:0.3;clip-path:url(#SVGID_18_);}
	.st11{clip-path:url(#SVGID_20_);fill:#FFFFFF;}
	.st12{opacity:0.3;clip-path:url(#SVGID_22_);}
	.st13{clip-path:url(#SVGID_24_);fill:#FFFFFF;}
	.st14{clip-path:url(#SVGID_26_);fill:#FFFFFF;}
	.st15{clip-path:url(#SVGID_22_);fill:#FFFFFF;}
	.st16{clip-path:url(#SVGID_28_);fill:#FFFFFF;}
	.st17{clip-path:url(#SVGID_30_);}
	.st18{clip-path:url(#SVGID_32_);fill:#FFFFFF;}
	.st19{clip-path:url(#SVGID_34_);}
	.st20{clip-path:url(#SVGID_36_);fill:#FFFFFF;}
	.st21{clip-path:url(#SVGID_38_);}
	.st22{clip-path:url(#SVGID_40_);fill:#FFFFFF;}
	.st23{clip-path:url(#SVGID_42_);}
	.st24{clip-path:url(#SVGID_44_);fill-rule:evenodd;clip-rule:evenodd;fill:#FFFFFF;}
	.st25{clip-path:url(#SVGID_44_);fill:#FFFFFF;}
	.st26{clip-path:url(#SVGID_46_);}
	.st27{clip-path:url(#SVGID_48_);fill:#FFFFFF;}
	.st28{clip-path:url(#SVGID_50_);}
	.st29{clip-path:url(#SVGID_52_);fill:#FFFFFF;}
	.st30{clip-path:url(#SVGID_54_);}
	.st31{clip-path:url(#SVGID_56_);fill-rule:evenodd;clip-rule:evenodd;fill:#FFFFFF;}
	.st32{clip-path:url(#SVGID_56_);fill:#FFFFFF;}
	.st33{clip-path:url(#SVGID_58_);}
	.st34{clip-path:url(#SVGID_60_);fill:#FFFFFF;}
	.st35{clip-path:url(#SVGID_62_);}
	.st36{clip-path:url(#SVGID_64_);}
	.st37{opacity:0.3;clip-path:url(#SVGID_66_);}
	.st38{clip-path:url(#SVGID_68_);fill:#FFFFFF;}
	.st39{clip-path:url(#SVGID_68_);}
	.st40{clip-path:url(#SVGID_70_);fill:#FFFFFF;}
	.st41{opacity:0.7;clip-path:url(#SVGID_66_);}
	.st42{clip-path:url(#SVGID_72_);fill:#FFFFFF;}
	.st43{clip-path:url(#SVGID_72_);}
	.st44{clip-path:url(#SVGID_74_);fill:#FFFFFF;}
	.st45{clip-path:url(#SVGID_66_);fill:#FFFFFF;}
	.st46{opacity:0.5;clip-path:url(#SVGID_66_);}
	.st47{clip-path:url(#SVGID_76_);fill:#FFFFFF;}
	.st48{clip-path:url(#SVGID_76_);}
	.st49{clip-path:url(#SVGID_78_);fill:#FFFFFF;}
	.st50{clip-path:url(#SVGID_80_);fill:#FFFFFF;}
	.st51{clip-path:url(#SVGID_82_);}
	.st52{clip-path:url(#SVGID_84_);fill:#FFFFFF;}
	.st53{clip-path:url(#SVGID_86_);}
	.st54{clip-path:url(#SVGID_88_);fill:#FFFFFF;}
	.st55{clip-path:url(#SVGID_88_);fill-rule:evenodd;clip-rule:evenodd;fill:#FFFFFF;}
	.st56{clip-path:url(#SVGID_90_);}
	.st57{clip-path:url(#SVGID_92_);fill:#FFFFFF;}
	.st58{clip-path:url(#SVGID_94_);}
	.st59{clip-path:url(#SVGID_96_);fill:#FFFFFF;}
	.st60{clip-path:url(#SVGID_98_);}
	.st61{clip-path:url(#SVGID_100_);fill:#FFFFFF;}
	.st62{clip-path:url(#SVGID_100_);fill:#FDFDFD;}
	.st63{clip-path:url(#SVGID_102_);}
	.st64{clip-path:url(#SVGID_104_);fill:#FFFFFF;}
	.st65{clip-path:url(#SVGID_106_);fill:#FFFFFF;}
	.st66{clip-path:url(#SVGID_106_);}
	.st67{clip-path:url(#SVGID_108_);fill:#FFFFFF;}
	.st68{clip-path:url(#SVGID_110_);}
	.st69{clip-path:url(#SVGID_112_);fill:#FFFFFF;}
	.st70{clip-path:url(#SVGID_114_);}
	.st71{clip-path:url(#SVGID_116_);fill-rule:evenodd;clip-rule:evenodd;fill:#FFFFFF;}
	.st72{clip-path:url(#SVGID_118_);}
	.st73{clip-path:url(#SVGID_120_);}
	.st74{clip-path:url(#SVGID_122_);}
	.st75{clip-path:url(#SVGID_126_);fill:#F9F9F9;}
</style>
<rect x="-1146.3" y="-1748.3" class="st0" width="4271.1" height="3545.3"/>
<g>
	<g>
		<defs>
			<rect id="SVGID_61_" x="25" y="146.7" width="450" height="206.7"/>
		</defs>
		<clipPath id="SVGID_2_">
			<use xlink:href="#SVGID_61_"  style="overflow:visible;"/>
		</clipPath>
		<g class="st1">
			<defs>
				<rect id="SVGID_63_" x="-11.1" y="110.6" width="522.2" height="277.9"/>
			</defs>
			<clipPath id="SVGID_4_">
				<use xlink:href="#SVGID_63_"  style="overflow:visible;"/>
			</clipPath>
			<g style="clip-path:url(#SVGID_4_);">
				<defs>
					<rect id="SVGID_65_" x="-11.1" y="110.6" width="522.2" height="277.9"/>
				</defs>
				<clipPath id="SVGID_6_">
					<use xlink:href="#SVGID_65_"  style="overflow:visible;"/>
				</clipPath>
				<g style="opacity:0.3;clip-path:url(#SVGID_6_);">
					<g>
						<defs>
							<rect id="SVGID_67_" x="449.1" y="193.4" width="25.9" height="10.2"/>
						</defs>
						<clipPath id="SVGID_8_">
							<use xlink:href="#SVGID_67_"  style="overflow:visible;"/>
						</clipPath>
						<rect x="449.1" y="193.4" class="st4" width="25.9" height="10.2"/>
						<rect x="449.1" y="193.4" class="st4" width="25.9" height="10.2"/>
						<g style="clip-path:url(#SVGID_8_);">
							<defs>
								<rect id="SVGID_69_" x="449.1" y="193.4" width="25.9" height="10.2"/>
							</defs>
							<clipPath id="SVGID_10_">
								<use xlink:href="#SVGID_69_"  style="overflow:visible;"/>
							</clipPath>
							<path style="clip-path:url(#SVGID_10_);fill:#FFFFFF;" d="M449.2,203.6h20.7v0c2.8,0,5.1-2.3,5.1-5.1c0-2.8-2.3-5.1-5.1-5.1
								h-20.8c0.3,1.7,0.5,3.5,0.5,5.3C449.7,200.3,449.5,202,449.2,203.6"/>
						</g>
					</g>
				</g>
				<g style="opacity:0.7;clip-path:url(#SVGID_6_);">
					<g>
						<defs>
							<rect id="SVGID_71_" x="371.4" y="193.4" width="25.8" height="10.2"/>
						</defs>
						<clipPath id="SVGID_12_">
							<use xlink:href="#SVGID_71_"  style="overflow:visible;"/>
						</clipPath>
						<rect x="371.4" y="193.4" class="st6" width="25.8" height="10.2"/>
						<rect x="371.4" y="193.4" class="st6" width="25.8" height="10.2"/>
						<g style="clip-path:url(#SVGID_12_);">
							<defs>
								<rect id="SVGID_73_" x="371.4" y="193.4" width="25.8" height="10.2"/>
							</defs>
							<clipPath id="SVGID_14_">
								<use xlink:href="#SVGID_73_"  style="overflow:visible;"/>
							</clipPath>
							<path style="clip-path:url(#SVGID_14_);fill:#FFFFFF;" d="M397.2,193.4h-20.7c-2.8,0-5.1,2.3-5.1,5.1c0,2.8,2.3,5.1,5.1,5.1
								v0h20.7c-0.3-1.6-0.5-3.2-0.5-4.9C396.7,196.8,396.9,195.1,397.2,193.4"/>
						</g>
					</g>
				</g>
				<path style="clip-path:url(#SVGID_6_);fill:#FFFFFF;" d="M418.1,224.6v20.6c0,2.8,2.3,5.1,5.1,5.1c2.8,0,5.1-2.3,5.1-5.1v-20.6
					c-1.7,0.3-3.3,0.5-5.1,0.5C421.4,225.1,419.7,224.9,418.1,224.6"/>
				<g style="opacity:0.5;clip-path:url(#SVGID_6_);">
					<g>
						<defs>
							<rect id="SVGID_75_" x="418.1" y="146.7" width="10.2" height="26"/>
						</defs>
						<clipPath id="SVGID_16_">
							<use xlink:href="#SVGID_75_"  style="overflow:visible;"/>
						</clipPath>
						<rect x="418.1" y="146.7" class="st8" width="10.2" height="26"/>
						<g class="st9">
							<defs>
								<rect id="SVGID_77_" x="418.1" y="146.7" width="10.2" height="26"/>
							</defs>
							<clipPath id="SVGID_18_">
								<use xlink:href="#SVGID_77_"  style="overflow:visible;"/>
							</clipPath>
							<rect x="418.1" y="146.7" style="clip-path:url(#SVGID_18_);fill:#FFFFFF;" width="10.2" height="26"/>
						</g>
						<g class="st9">
							<defs>
								<rect id="SVGID_79_" x="418.1" y="146.7" width="10.2" height="26"/>
							</defs>
							<clipPath id="SVGID_20_">
								<use xlink:href="#SVGID_79_"  style="overflow:visible;"/>
							</clipPath>
							<path class="st11" d="M418.1,151.8v20.9c1.7-0.3,3.4-0.5,5.1-0.5c1.7,0,3.4,0.2,5.1,0.5v-20.9c0-2.8-2.3-5.1-5.1-5.1
								C420.4,146.7,418.1,148.9,418.1,151.8"/>
						</g>
					</g>
				</g>
				<path style="clip-path:url(#SVGID_6_);fill:#FFFFFF;" d="M52.4,225.6H29.9c-2.8,0-4.9,2-4.9,4.7v59.6c0,3,2.4,4.6,4.8,4.6
					c2.4,0,4.8-1.6,4.8-4.7v-15.6H52c20.5,0,27.7-12.2,27.7-23.7C79.7,238.5,71.1,225.6,52.4,225.6 M52,265.3H34.6v-30.9h17.8
					c11.4,0,17.7,8.3,17.8,16.1c0.1,3.7-1.2,7.2-3.7,9.8C63.2,263.6,58.3,265.3,52,265.3"/>
				<path style="clip-path:url(#SVGID_6_);fill:#FFFFFF;" d="M129.2,269.8c11.2-2.6,17.4-9.9,17.4-20.9c0-14.2-11-23.3-28.1-23.3H94
					c-2.9,0-4.9,1.9-4.9,4.7v59.4c0,1.4,0.6,2.6,1.5,3.4c2.6,2.2,8.2,1.1,8.2-3.5v-19h18.6l20.6,22.3c1,1.1,2.2,1.6,3.6,1.6
					c2,0,3.7-1.2,4.4-2.9c0.7-1.7,0.3-3.6-1.3-5.1L129.2,269.8z M136.8,248.9c0.1,3.2-1,6-3.1,8.2c-3.1,3.1-8.3,4.8-15.1,4.8H98.8
					v-27.2h19.8C129.4,234.6,136.7,240.4,136.8,248.9"/>
				<path style="clip-path:url(#SVGID_6_);fill:#FFFFFF;" d="M220.6,287.7l-31.2-61.3c-0.9-1.6-2.4-2.5-4.3-2.5c-2,0-3.7,1-4.4,2.6
					l-31.3,61.6c-0.6,1.4-0.5,2.8,0.3,4c0.9,1.4,2.7,2.4,4.5,2.4c1.8,0,3.3-0.9,4-2.5l8.1-15.7H204l7.8,15.4
					c0.8,1.6,2.4,2.6,4.4,2.6c2,0,3.8-1,4.7-2.5C221.6,290.6,221.5,289.1,220.6,287.7 M199.7,267.6h-29.1l14.6-29.1L199.7,267.6z"/>
				<path style="clip-path:url(#SVGID_6_);fill:#FFFFFF;" d="M256,225.7h-22.6c-3.2,0-5.8,2.5-5.8,5.4v57c0,3,2.7,5.5,5.8,5.5H256
					c21.9,0,31.9-17.6,31.9-34C288,243.3,278,225.7,256,225.7 M256,284.7h-18.8v-50.3H256c15.3,0,22.2,13.1,22.2,25.2
					C278.2,271.8,271.3,284.7,256,284.7"/>
				<path style="clip-path:url(#SVGID_6_);fill:#FFFFFF;" d="M353.5,289.3c0,1.1-0.4,2.2-1.1,3c-0.6,0.6-1.7,1.3-3.4,1.3h-43.6
					c-3.3,0-5.8-2.4-5.8-5.6v-56.8c0-3.2,2.5-5.5,5.8-5.5H349c1.6,0,2.7,0.8,3.2,1.4c0.7,0.8,1.1,1.8,1.1,2.9c0,2.2-1.5,4.5-4.4,4.5
					h-39.8v21.1h37.8c2.8,0,4.3,2.3,4.3,4.5c0,2.1-1.4,4.4-4.3,4.4h-37.8v20.3h39.8C351.9,284.7,353.5,287,353.5,289.3"/>
				<path style="clip-path:url(#SVGID_6_);fill:#FFFFFF;" d="M418.1,289.1c0,2.3-1.7,4.5-5,4.5h-42.4c-3.3,0-5-1.7-5-4.9v-59.4
					c0-6.1,9.8-6.2,9.8,0v55.4h37.6C416.4,284.7,418.1,286.9,418.1,289.1"/>
				<path style="clip-path:url(#SVGID_6_);fill:#FFFFFF;" d="M93.4,340.9v9.7c0,2.8-4.3,2.7-4.3,0.1v-34.7c0-1.3,1-2.1,2.2-2.1h13.1
					c10.4,0,15.3,6.9,15.3,13.9c0,7.2-4.9,13.2-15.5,13.2H93.4z M93.4,336.9h10.8c8,0,11.3-4.7,11.2-9.3c-0.1-4.9-4-9.9-11-9.9h-11
					V336.9z"/>
				<path style="clip-path:url(#SVGID_6_);fill:#FFFFFF;" d="M131.2,326.5c1.9-4,5.5-5.1,9-5.1c1.4,0,2.3,0.7,2.3,2.1
					c0,1.3-0.9,2-2.3,2c-6.2,0-8.9,5-8.9,11v13.6c0,1.3-1,2.1-2.2,2.1c-1.3,0-2.2-0.8-2.2-2.1v-26.7c0-2.6,4.3-2.9,4.3,0V326.5z"/>
				<path style="clip-path:url(#SVGID_6_);fill:#FFFFFF;" d="M165.3,321.6c6.8,1.9,11,7.4,11.2,15.1v-0.1c0.1,1.3-0.5,2.8-3,2.8
					h-23.8c0.8,4.9,5,9,11,9c2.8,0,5.7-0.7,8-2.5c2.1-1.9,5.2,0.5,2.9,3c-2.8,2.6-6.8,3.7-10.7,3.6c-4.7,0-9.4-1.8-12.2-5.4
					c-6.5-8.6-3.7-22.4,7.5-25.6C159,320.8,162.3,320.8,165.3,321.6L165.3,321.6z M149.5,335.8h22.7c-0.4-5.1-3.6-9-8.3-10.3h0.1
					c-2-0.5-4.5-0.5-6.5,0.1C152.7,326.9,149.9,330.9,149.5,335.8"/>
				<path style="clip-path:url(#SVGID_6_);fill:#FFFFFF;" d="M233.7,334.5c-0.1-5.2-4.3-8.9-9.4-8.9c-6.3,0-11.3,4.7-11.3,11.6v13.3
					c0,1.3-0.9,2.1-2.2,2.1c-1.3,0-2.2-0.8-2.2-2.1v-15c0-3.4-1.4-6.7-4.2-8.5c-1.6-1-3.3-1.4-5.2-1.4c-5.9,0-11.3,4.5-11.3,11.3
					v13.6c0,2.8-4.4,2.7-4.4,0v-27c0-1.1,1-2.1,2.2-2.1c1.3,0,2.1,1,2.1,2.1v4.2c2.4-4.3,6.7-6.3,11.3-6.3c5.2,0,10.4,2.6,12.2,8
					c2.2-5.4,7.4-8,12.8-8c6.9,0,13.9,4.6,13.9,12.9v16.2c0,1.3-0.9,2.1-2.2,2.1c-1.4,0-2.2-0.8-2.2-2.1V334.5z"/>
				<path style="clip-path:url(#SVGID_6_);fill:#FFFFFF;" d="M251.4,317c0,2.7-4.5,2.8-4.5,0v-2.7c0-2.8,4.5-2.8,4.5,0V317z
					 M246.9,323.5c0-2.6,4.4-2.6,4.4-0.1v27.2c0,2.7-4.4,2.6-4.4,0V323.5z"/>
				<path style="clip-path:url(#SVGID_6_);fill:#FFFFFF;" d="M263.9,339.3c0,5.5,4.5,9.4,9.3,9.4c5.8,0,11.3-4.8,11.3-11.4v-14
					c0-1.3,0.8-2.1,2.2-2.1c1.4,0,2.3,0.8,2.3,2.1v27c0,2.8-4.3,2.8-4.3-0.1v-3.8c-2.2,4.4-6.8,6.3-11.5,6.3
					c-7,0-13.7-4.8-13.7-13.5v-16c0-1.3,0.8-2.1,2.2-2.1c1.3,0,2.2,0.8,2.2,2.1V339.3z"/>
				<path style="clip-path:url(#SVGID_6_);fill:#FFFFFF;" d="M349,334.5c-0.1-5.2-4.3-8.9-9.3-8.9c-6.3,0-11.3,4.7-11.3,11.6v13.3
					c0,1.3-0.9,2.1-2.2,2.1c-1.3,0-2.2-0.8-2.2-2.1v-15c0-3.4-1.4-6.7-4.2-8.5c-1.6-1-3.3-1.4-5.2-1.4c-5.9,0-11.3,4.5-11.3,11.3
					v13.6c0,2.8-4.4,2.7-4.4,0v-27c0-1.1,1-2.1,2.2-2.1c1.3,0,2.1,1,2.1,2.1v4.2c2.4-4.3,6.7-6.3,11.3-6.3c5.2,0,10.4,2.6,12.2,8
					c2.2-5.4,7.4-8,12.8-8c6.9,0,13.9,4.6,13.9,12.9v16.2c0,1.3-0.9,2.1-2.2,2.1c-1.4,0-2.2-0.8-2.2-2.1V334.5z"/>
			</g>
		</g>
	</g>
</g>
</svg>
