<?xml version="1.0" encoding="utf-8"?>
<!-- Generator: Adobe Illustrator 19.2.1, SVG Export Plug-In . SVG Version: 6.00 Build 0)  -->
<svg version="1.1" id="Calque_1" xmlns="http://www.w3.org/2000/svg" xmlns:xlink="http://www.w3.org/1999/xlink" x="0px" y="0px"
	 viewBox="0 0 500 500" style="enable-background:new 0 0 500 500;" xml:space="preserve">
<style type="text/css">
	.st0{display:none;fill:#1D1D1B;stroke:#FFFFFF;stroke-miterlimit:10;}
	.st1{clip-path:url(#SVGID_2_);}
	.st2{clip-path:url(#SVGID_4_);fill:#FFFFFF;}
	.st3{clip-path:url(#SVGID_6_);}
	.st4{clip-path:url(#SVGID_8_);fill:#FFFFFF;}
	.st5{clip-path:url(#SVGID_10_);}
	.st6{clip-path:url(#SVGID_12_);fill:#FFFFFF;}
	.st7{clip-path:url(#SVGID_14_);}
	.st8{clip-path:url(#SVGID_16_);fill:#FFFFFF;}
	.st9{clip-path:url(#SVGID_16_);}
	.st10{opacity:0.3;clip-path:url(#SVGID_18_);}
	.st11{clip-path:url(#SVGID_20_);fill:#FFFFFF;}
	.st12{opacity:0.3;clip-path:url(#SVGID_22_);}
	.st13{clip-path:url(#SVGID_24_);fill:#FFFFFF;}
	.st14{clip-path:url(#SVGID_26_);fill:#FFFFFF;}
	.st15{clip-path:url(#SVGID_22_);fill:#FFFFFF;}
	.st16{clip-path:url(#SVGID_28_);fill:#FFFFFF;}
	.st17{clip-path:url(#SVGID_30_);}
	.st18{clip-path:url(#SVGID_32_);fill:#FFFFFF;}
	.st19{clip-path:url(#SVGID_34_);}
	.st20{clip-path:url(#SVGID_36_);fill:#FFFFFF;}
	.st21{clip-path:url(#SVGID_38_);}
	.st22{clip-path:url(#SVGID_40_);fill:#FFFFFF;}
	.st23{clip-path:url(#SVGID_42_);}
	.st24{clip-path:url(#SVGID_44_);fill-rule:evenodd;clip-rule:evenodd;fill:#FFFFFF;}
	.st25{clip-path:url(#SVGID_44_);fill:#FFFFFF;}
	.st26{clip-path:url(#SVGID_46_);}
	.st27{clip-path:url(#SVGID_48_);fill:#FFFFFF;}
	.st28{clip-path:url(#SVGID_50_);}
	.st29{clip-path:url(#SVGID_52_);fill:#FFFFFF;}
	.st30{clip-path:url(#SVGID_54_);}
	.st31{clip-path:url(#SVGID_56_);fill-rule:evenodd;clip-rule:evenodd;fill:#FFFFFF;}
	.st32{clip-path:url(#SVGID_56_);fill:#FFFFFF;}
	.st33{clip-path:url(#SVGID_58_);}
	.st34{clip-path:url(#SVGID_60_);fill:#FFFFFF;}
	.st35{clip-path:url(#SVGID_62_);}
	.st36{clip-path:url(#SVGID_64_);}
	.st37{opacity:0.3;clip-path:url(#SVGID_66_);}
	.st38{clip-path:url(#SVGID_68_);fill:#FFFFFF;}
	.st39{clip-path:url(#SVGID_68_);}
	.st40{clip-path:url(#SVGID_70_);fill:#FFFFFF;}
	.st41{opacity:0.7;clip-path:url(#SVGID_66_);}
	.st42{clip-path:url(#SVGID_72_);fill:#FFFFFF;}
	.st43{clip-path:url(#SVGID_72_);}
	.st44{clip-path:url(#SVGID_74_);fill:#FFFFFF;}
	.st45{clip-path:url(#SVGID_66_);fill:#FFFFFF;}
	.st46{opacity:0.5;clip-path:url(#SVGID_66_);}
	.st47{clip-path:url(#SVGID_76_);fill:#FFFFFF;}
	.st48{clip-path:url(#SVGID_76_);}
	.st49{clip-path:url(#SVGID_78_);fill:#FFFFFF;}
	.st50{clip-path:url(#SVGID_80_);fill:#FFFFFF;}
	.st51{clip-path:url(#SVGID_82_);}
	.st52{clip-path:url(#SVGID_84_);fill:#FFFFFF;}
	.st53{clip-path:url(#SVGID_86_);}
	.st54{clip-path:url(#SVGID_88_);fill:#FFFFFF;}
	.st55{clip-path:url(#SVGID_88_);fill-rule:evenodd;clip-rule:evenodd;fill:#FFFFFF;}
	.st56{clip-path:url(#SVGID_90_);}
	.st57{clip-path:url(#SVGID_92_);fill:#FFFFFF;}
	.st58{clip-path:url(#SVGID_94_);}
	.st59{clip-path:url(#SVGID_96_);fill:#FFFFFF;}
	.st60{clip-path:url(#SVGID_98_);}
	.st61{clip-path:url(#SVGID_100_);fill:#FFFFFF;}
	.st62{clip-path:url(#SVGID_100_);fill:#FDFDFD;}
	.st63{clip-path:url(#SVGID_102_);}
	.st64{clip-path:url(#SVGID_104_);fill:#FFFFFF;}
	.st65{clip-path:url(#SVGID_106_);fill:#FFFFFF;}
	.st66{clip-path:url(#SVGID_106_);}
	.st67{clip-path:url(#SVGID_108_);fill:#FFFFFF;}
	.st68{clip-path:url(#SVGID_110_);}
	.st69{clip-path:url(#SVGID_112_);fill:#FFFFFF;}
	.st70{clip-path:url(#SVGID_114_);}
	.st71{clip-path:url(#SVGID_116_);fill-rule:evenodd;clip-rule:evenodd;fill:#FFFFFF;}
	.st72{clip-path:url(#SVGID_118_);}
	.st73{clip-path:url(#SVGID_120_);}
	.st74{clip-path:url(#SVGID_122_);}
	.st75{clip-path:url(#SVGID_126_);fill:#F9F9F9;}
</style>
<rect x="-1146.3" y="-188.3" class="st0" width="4271.1" height="3545.3"/>
<g>
	<g>
		<defs>
			<rect id="SVGID_105_" x="15.1" y="130.4" width="469.7" height="239.2"/>
		</defs>
		<clipPath id="SVGID_2_">
			<use xlink:href="#SVGID_105_"  style="overflow:visible;"/>
		</clipPath>
		<polygon style="clip-path:url(#SVGID_2_);fill:#FFFFFF;" points="34.1,369.1 34.1,351.6 45.8,351.6 45.8,353 35.8,353 35.8,359.3 
			44.8,359.3 44.8,360.7 35.8,360.7 35.8,367.7 46.1,367.7 46.1,369.1 		"/>
		<g class="st1">
			<defs>
				<rect id="SVGID_107_" x="-46.4" y="43" width="589.8" height="417"/>
			</defs>
			<clipPath id="SVGID_4_">
				<use xlink:href="#SVGID_107_"  style="overflow:visible;"/>
			</clipPath>
			<path class="st2" d="M49.7,363.9c0.1,0.8,0.2,1.4,0.5,2c0.3,0.5,0.7,1,1.1,1.3c0.4,0.3,1,0.6,1.5,0.7c0.6,0.2,1.2,0.2,1.9,0.2
				c0.8,0,1.5-0.1,2-0.3c0.6-0.2,1-0.5,1.4-0.8c0.4-0.3,0.6-0.7,0.8-1.2c0.2-0.4,0.3-0.9,0.3-1.4c0-0.7-0.2-1.2-0.5-1.7
				c-0.3-0.4-0.7-0.8-1.2-1c-0.5-0.3-1.1-0.5-1.7-0.6c-0.6-0.2-1.3-0.3-2-0.5c-0.7-0.2-1.3-0.3-2-0.5c-0.6-0.2-1.2-0.5-1.7-0.9
				c-0.5-0.4-0.9-0.8-1.2-1.4c-0.3-0.6-0.5-1.3-0.5-2.1c0-0.6,0.1-1.2,0.4-1.8c0.3-0.6,0.6-1.1,1.1-1.5c0.5-0.4,1.1-0.8,1.9-1.1
				c0.7-0.3,1.6-0.4,2.6-0.4c1,0,1.9,0.1,2.6,0.4c0.7,0.3,1.4,0.7,1.8,1.1c0.5,0.5,0.9,1,1.1,1.7c0.2,0.6,0.4,1.3,0.4,2h-1.6
				c0-0.7-0.1-1.2-0.4-1.7c-0.2-0.5-0.6-0.9-1-1.2c-0.4-0.3-0.9-0.5-1.4-0.7c-0.5-0.1-1.1-0.2-1.6-0.2c-0.8,0-1.6,0.1-2.1,0.4
				c-0.6,0.2-1,0.5-1.4,0.9c-0.3,0.4-0.6,0.8-0.7,1.2c-0.1,0.5-0.2,0.9-0.1,1.4c0.1,0.6,0.3,1,0.7,1.4c0.4,0.3,0.8,0.6,1.3,0.8
				c0.5,0.2,1.1,0.4,1.7,0.5c0.6,0.1,1.3,0.3,1.9,0.4c0.7,0.2,1.3,0.3,1.9,0.5c0.6,0.2,1.2,0.5,1.6,0.9c0.5,0.4,0.9,0.8,1.1,1.4
				c0.3,0.6,0.4,1.3,0.4,2.1c0,1.6-0.6,2.9-1.7,3.8c-1.1,0.9-2.7,1.3-4.7,1.3c-0.9,0-1.8-0.1-2.5-0.4c-0.8-0.2-1.5-0.6-2-1.1
				c-0.6-0.5-1-1.1-1.3-1.8c-0.3-0.7-0.5-1.5-0.5-2.5H49.7z"/>
			<path class="st2" d="M64.6,363.9c0.1,0.8,0.2,1.4,0.5,2c0.3,0.5,0.7,1,1.1,1.3c0.4,0.3,1,0.6,1.5,0.7c0.6,0.2,1.2,0.2,1.9,0.2
				c0.8,0,1.5-0.1,2-0.3c0.6-0.2,1-0.5,1.4-0.8c0.4-0.3,0.6-0.7,0.8-1.2c0.2-0.4,0.3-0.9,0.3-1.4c0-0.7-0.2-1.2-0.5-1.7
				c-0.3-0.4-0.7-0.8-1.2-1c-0.5-0.3-1.1-0.5-1.7-0.6c-0.6-0.2-1.3-0.3-2-0.5c-0.7-0.2-1.3-0.3-2-0.5c-0.6-0.2-1.2-0.5-1.7-0.9
				c-0.5-0.4-0.9-0.8-1.2-1.4c-0.3-0.6-0.5-1.3-0.5-2.1c0-0.6,0.1-1.2,0.4-1.8c0.3-0.6,0.6-1.1,1.1-1.5c0.5-0.4,1.1-0.8,1.9-1.1
				c0.7-0.3,1.6-0.4,2.6-0.4c1,0,1.9,0.1,2.6,0.4c0.7,0.3,1.4,0.7,1.8,1.1c0.5,0.5,0.9,1,1.1,1.7c0.2,0.6,0.4,1.3,0.4,2h-1.6
				c0-0.7-0.1-1.2-0.4-1.7c-0.2-0.5-0.6-0.9-1-1.2c-0.4-0.3-0.9-0.5-1.4-0.7c-0.5-0.1-1.1-0.2-1.6-0.2c-0.8,0-1.6,0.1-2.1,0.4
				c-0.6,0.2-1,0.5-1.4,0.9c-0.3,0.4-0.6,0.8-0.7,1.2c-0.1,0.5-0.2,0.9-0.1,1.4c0.1,0.6,0.3,1,0.7,1.4c0.4,0.3,0.8,0.6,1.3,0.8
				c0.5,0.2,1.1,0.4,1.7,0.5c0.6,0.1,1.3,0.3,1.9,0.4c0.7,0.2,1.3,0.3,1.9,0.5c0.6,0.2,1.2,0.5,1.6,0.9c0.5,0.4,0.9,0.8,1.1,1.4
				c0.3,0.6,0.4,1.3,0.4,2.1c0,1.6-0.6,2.9-1.7,3.8c-1.1,0.9-2.7,1.3-4.7,1.3c-0.9,0-1.8-0.1-2.5-0.4c-0.8-0.2-1.5-0.6-2-1.1
				c-0.6-0.5-1-1.1-1.3-1.8c-0.3-0.7-0.5-1.5-0.5-2.5H64.6z"/>
			<polygon class="st2" points="78.9,369.1 78.9,351.6 90.6,351.6 90.6,353 80.5,353 80.5,359.3 89.6,359.3 89.6,360.7 80.5,360.7 
				80.5,367.7 90.8,367.7 90.8,369.1 			"/>
			<polygon class="st2" points="95.4,353.8 95.4,353.8 95.4,369.1 93.7,369.1 93.7,351.6 95.6,351.6 105.8,366.9 105.8,366.9 
				105.8,351.6 107.5,351.6 107.5,369.1 105.5,369.1 			"/>
			<polygon class="st2" points="109.8,351.6 122.6,351.6 122.6,353 117,353 117,369.1 115.4,369.1 115.4,353 109.8,353 			"/>
			<rect x="125.6" y="351.6" class="st2" width="1.7" height="17.6"/>
			<path class="st2" d="M130.2,369.1l6.9-17.6h1.9l6.7,17.6H144l-2-5.5h-8l-2.1,5.5H130.2z M134.5,362.2h6.9l-3.4-9.2L134.5,362.2z"
				/>
			<polygon class="st2" points="148.1,369.1 148.1,351.6 149.7,351.6 149.7,367.7 159.1,367.7 159.1,369.1 			"/>
			<path class="st2" d="M180.9,356.7c-0.3-1.5-1-2.6-1.9-3.2c-0.9-0.6-2.1-1-3.6-1c-1.1,0-2,0.2-2.7,0.6c-0.8,0.4-1.4,1-1.9,1.7
				c-0.5,0.7-0.9,1.5-1.1,2.5c-0.2,0.9-0.4,1.9-0.4,3c0,1,0.1,1.9,0.3,2.9c0.2,0.9,0.5,1.8,1,2.5c0.5,0.7,1.1,1.3,1.9,1.8
				c0.8,0.5,1.8,0.7,3,0.7c0.7,0,1.4-0.1,2.1-0.4c0.6-0.2,1.2-0.6,1.6-1c0.5-0.4,0.9-0.9,1.2-1.5c0.3-0.6,0.6-1.2,0.7-1.9h1.7
				c-0.2,0.8-0.5,1.6-0.9,2.4c-0.4,0.8-0.9,1.4-1.5,2c-0.6,0.6-1.4,1-2.2,1.4c-0.9,0.3-1.9,0.5-3.1,0.5c-1.4,0-2.5-0.3-3.5-0.7
				c-1-0.5-1.7-1.2-2.4-2c-0.6-0.8-1.1-1.8-1.3-2.9c-0.3-1.1-0.4-2.3-0.4-3.6c0-1.7,0.2-3.1,0.6-4.3c0.4-1.2,1-2.1,1.7-2.9
				c0.7-0.7,1.6-1.3,2.6-1.6c1-0.3,2.1-0.5,3.2-0.5c0.9,0,1.7,0.1,2.5,0.4c0.8,0.2,1.5,0.6,2,1.1c0.6,0.5,1.1,1.1,1.5,1.7
				c0.4,0.7,0.6,1.5,0.8,2.4H180.9z"/>
			<path class="st2" d="M185.4,360.4c0-1.3,0.2-2.5,0.5-3.6c0.4-1.1,0.9-2.1,1.5-2.9c0.7-0.8,1.5-1.5,2.5-2c1-0.5,2.2-0.7,3.5-0.7
				c1.4,0,2.6,0.2,3.6,0.7c1,0.5,1.9,1.1,2.6,2c0.7,0.8,1.2,1.8,1.6,3c0.4,1.1,0.5,2.3,0.5,3.6c0,1.3-0.2,2.5-0.5,3.6
				c-0.4,1.1-0.9,2.1-1.5,2.9c-0.7,0.8-1.5,1.5-2.6,2c-1,0.5-2.2,0.7-3.6,0.7c-1.4,0-2.5-0.2-3.6-0.7c-1-0.5-1.9-1.2-2.6-2
				c-0.7-0.8-1.2-1.8-1.5-2.9C185.5,362.8,185.4,361.6,185.4,360.4 M193.6,368.2c1.1,0,2.1-0.2,2.9-0.6c0.8-0.4,1.5-1,2-1.7
				c0.5-0.7,0.9-1.5,1.2-2.5c0.3-0.9,0.4-1.9,0.4-3c0-1.2-0.2-2.3-0.5-3.3c-0.3-1-0.7-1.8-1.3-2.5c-0.6-0.7-1.3-1.2-2.1-1.6
				c-0.8-0.4-1.7-0.5-2.7-0.5c-1.1,0-2.1,0.2-2.9,0.7c-0.8,0.4-1.5,1-2,1.7c-0.5,0.7-0.9,1.6-1.2,2.5c-0.3,0.9-0.4,1.9-0.4,3
				c0,1,0.1,2,0.4,3c0.3,0.9,0.6,1.8,1.2,2.5c0.5,0.7,1.2,1.3,2,1.7C191.4,368,192.4,368.2,193.6,368.2"/>
			<polygon class="st2" points="205,369.1 205,351.6 206.7,351.6 206.7,367.7 216.1,367.7 216.1,369.1 			"/>
			<path class="st2" d="M217.9,360.4c0-1.3,0.2-2.5,0.5-3.6c0.4-1.1,0.9-2.1,1.5-2.9c0.7-0.8,1.5-1.5,2.5-2c1-0.5,2.2-0.7,3.5-0.7
				c1.4,0,2.6,0.2,3.6,0.7c1,0.5,1.9,1.1,2.6,2c0.7,0.8,1.2,1.8,1.6,3c0.4,1.1,0.5,2.3,0.5,3.6c0,1.3-0.2,2.5-0.5,3.6
				c-0.4,1.1-0.9,2.1-1.5,2.9c-0.7,0.8-1.5,1.5-2.6,2c-1,0.5-2.2,0.7-3.6,0.7c-1.4,0-2.5-0.2-3.6-0.7c-1-0.5-1.9-1.2-2.6-2
				c-0.7-0.8-1.2-1.8-1.5-2.9C218.1,362.8,217.9,361.6,217.9,360.4 M226.1,368.2c1.1,0,2.1-0.2,2.9-0.6c0.8-0.4,1.5-1,2-1.7
				c0.5-0.7,0.9-1.5,1.2-2.5c0.3-0.9,0.4-1.9,0.4-3c0-1.2-0.2-2.3-0.5-3.3c-0.3-1-0.7-1.8-1.3-2.5c-0.6-0.7-1.3-1.2-2.1-1.6
				c-0.8-0.4-1.7-0.5-2.7-0.5c-1.1,0-2.1,0.2-2.9,0.7c-0.8,0.4-1.5,1-2,1.7c-0.5,0.7-0.9,1.6-1.2,2.5c-0.3,0.9-0.4,1.9-0.4,3
				c0,1,0.1,2,0.4,3c0.3,0.9,0.6,1.8,1.2,2.5c0.5,0.7,1.2,1.3,2,1.7C224,368,225,368.2,226.1,368.2"/>
			<path class="st2" d="M239.2,361.1v8h-1.7v-17.6h6.9c1.9,0,3.4,0.4,4.4,1.1c1,0.7,1.5,1.9,1.5,3.5c0,1.1-0.2,2-0.7,2.6
				c-0.4,0.6-1.2,1.2-2.2,1.7c0.5,0.2,0.9,0.4,1.2,0.8c0.3,0.3,0.5,0.7,0.7,1.2c0.1,0.4,0.2,0.9,0.3,1.4c0,0.5,0.1,1,0.1,1.4
				c0,0.7,0,1.2,0.1,1.7c0,0.4,0.1,0.8,0.1,1.1c0.1,0.3,0.1,0.5,0.2,0.6c0.1,0.2,0.2,0.3,0.3,0.4v0.2h-1.8c-0.2-0.3-0.3-0.7-0.4-1.2
				c-0.1-0.5-0.1-1.1-0.2-1.6c0-0.6-0.1-1.1-0.1-1.7c0-0.5-0.1-1-0.1-1.3c-0.1-0.5-0.3-0.8-0.5-1.1c-0.2-0.3-0.5-0.5-0.8-0.6
				c-0.3-0.1-0.7-0.2-1-0.3c-0.4,0-0.8-0.1-1.2-0.1H239.2z M244.4,359.7c0.6,0,1.2-0.1,1.7-0.2c0.5-0.1,1-0.3,1.4-0.6
				c0.4-0.3,0.7-0.6,0.9-1.1c0.2-0.4,0.3-1,0.3-1.6c0-0.7-0.1-1.2-0.4-1.6c-0.2-0.4-0.6-0.8-1-1c-0.4-0.2-0.9-0.4-1.4-0.5
				c-0.5-0.1-1-0.1-1.6-0.1h-5.3v6.8H244.4z"/>
			<polygon class="st2" points="253.9,369.1 253.9,351.6 265.6,351.6 265.6,353 255.5,353 255.5,359.3 264.6,359.3 264.6,360.7 
				255.5,360.7 255.5,367.7 265.8,367.7 265.8,369.1 			"/>
			<path class="st2" d="M268.8,369.1v-17.6h6c0.5,0,1,0,1.4,0c0.5,0,0.9,0.1,1.4,0.2c0.5,0.1,0.9,0.2,1.3,0.4
				c0.4,0.2,0.8,0.4,1.3,0.7c0.6,0.4,1.1,0.9,1.4,1.5c0.4,0.6,0.7,1.3,0.9,1.9c0.2,0.7,0.4,1.4,0.5,2c0.1,0.7,0.1,1.3,0.1,1.9
				c0,0.6,0,1.2-0.1,1.8c-0.1,0.6-0.2,1.2-0.4,1.8c-0.2,0.6-0.4,1.1-0.6,1.7c-0.3,0.5-0.6,1-1,1.5c-0.4,0.5-0.9,0.8-1.3,1.1
				c-0.5,0.3-1,0.5-1.5,0.6c-0.5,0.2-1.1,0.3-1.6,0.3c-0.6,0.1-1.1,0.1-1.7,0.1H268.8z M270.5,367.7h4c0.7,0,1.5,0,2.1-0.1
				c0.7-0.1,1.3-0.3,2-0.7c0.6-0.3,1.1-0.7,1.4-1.2c0.4-0.5,0.7-1.1,0.9-1.6c0.2-0.6,0.4-1.2,0.5-1.9c0.1-0.7,0.1-1.3,0.1-1.9
				c0-0.6,0-1.3-0.1-1.9c-0.1-0.7-0.2-1.3-0.5-1.9c-0.2-0.6-0.5-1.1-0.9-1.6c-0.4-0.5-0.9-0.9-1.5-1.2c-0.5-0.3-1.1-0.5-1.9-0.5
				c-0.7-0.1-1.4-0.1-2.2-0.1h-4V367.7z"/>
			<path class="st2" d="M291.6,369.1l6.9-17.6h1.9l6.7,17.6h-1.7l-2-5.5h-8l-2.1,5.5H291.6z M295.9,362.2h6.9l-3.4-9.2L295.9,362.2z
				"/>
			<path class="st2" d="M322,356.7c-0.3-1.5-1-2.6-1.9-3.2c-0.9-0.6-2.1-1-3.6-1c-1.1,0-2,0.2-2.7,0.6c-0.8,0.4-1.4,1-1.9,1.7
				c-0.5,0.7-0.9,1.5-1.1,2.5c-0.2,0.9-0.4,1.9-0.4,3c0,1,0.1,1.9,0.3,2.9c0.2,0.9,0.5,1.8,1,2.5c0.5,0.7,1.1,1.3,1.9,1.8
				c0.8,0.5,1.8,0.7,3,0.7c0.7,0,1.4-0.1,2.1-0.4c0.6-0.2,1.2-0.6,1.6-1c0.5-0.4,0.9-0.9,1.2-1.5c0.3-0.6,0.6-1.2,0.7-1.9h1.7
				c-0.2,0.8-0.5,1.6-0.9,2.4c-0.4,0.8-0.9,1.4-1.5,2c-0.6,0.6-1.4,1-2.2,1.4c-0.9,0.3-1.9,0.5-3.1,0.5c-1.4,0-2.5-0.3-3.5-0.7
				c-1-0.5-1.7-1.2-2.4-2c-0.6-0.8-1.1-1.8-1.3-2.9c-0.3-1.1-0.4-2.3-0.4-3.6c0-1.7,0.2-3.1,0.6-4.3c0.4-1.2,1-2.1,1.7-2.9
				c0.7-0.7,1.6-1.3,2.6-1.6c1-0.3,2.1-0.5,3.2-0.5c0.9,0,1.7,0.1,2.5,0.4c0.8,0.2,1.5,0.6,2,1.1c0.6,0.5,1.1,1.1,1.5,1.7
				c0.4,0.7,0.6,1.5,0.8,2.4H322z"/>
			<path class="st2" d="M339.6,356.7c-0.3-1.5-1-2.6-1.9-3.2c-0.9-0.6-2.1-1-3.6-1c-1.1,0-2,0.2-2.7,0.6c-0.8,0.4-1.4,1-1.9,1.7
				c-0.5,0.7-0.9,1.5-1.1,2.5c-0.2,0.9-0.4,1.9-0.4,3c0,1,0.1,1.9,0.3,2.9c0.2,0.9,0.5,1.8,1,2.5c0.5,0.7,1.1,1.3,1.9,1.8
				c0.8,0.5,1.8,0.7,3,0.7c0.7,0,1.4-0.1,2.1-0.4c0.6-0.2,1.2-0.6,1.6-1c0.5-0.4,0.9-0.9,1.2-1.5c0.3-0.6,0.6-1.2,0.7-1.9h1.7
				c-0.2,0.8-0.5,1.6-0.9,2.4c-0.4,0.8-0.9,1.4-1.5,2c-0.6,0.6-1.4,1-2.2,1.4c-0.9,0.3-1.9,0.5-3.1,0.5c-1.4,0-2.5-0.3-3.5-0.7
				c-1-0.5-1.7-1.2-2.4-2c-0.6-0.8-1.1-1.8-1.3-2.9c-0.3-1.1-0.4-2.3-0.4-3.6c0-1.7,0.2-3.1,0.6-4.3c0.4-1.2,1-2.1,1.7-2.9
				c0.7-0.7,1.6-1.3,2.6-1.6c1-0.3,2.1-0.5,3.2-0.5c0.9,0,1.7,0.1,2.5,0.4c0.8,0.2,1.5,0.6,2,1.1c0.6,0.5,1.1,1.1,1.5,1.7
				c0.4,0.7,0.6,1.5,0.8,2.4H339.6z"/>
			<polygon class="st2" points="344.7,369.1 344.7,351.6 356.4,351.6 356.4,353 346.4,353 346.4,359.3 355.5,359.3 355.5,360.7 
				346.4,360.7 346.4,367.7 356.7,367.7 356.7,369.1 			"/>
			<path class="st2" d="M360.3,363.9c0.1,0.8,0.2,1.4,0.5,2c0.3,0.5,0.7,1,1.1,1.3c0.4,0.3,1,0.6,1.5,0.7c0.6,0.2,1.2,0.2,1.9,0.2
				c0.8,0,1.5-0.1,2-0.3c0.6-0.2,1-0.5,1.4-0.8c0.4-0.3,0.6-0.7,0.8-1.2c0.2-0.4,0.3-0.9,0.3-1.4c0-0.7-0.2-1.2-0.5-1.7
				c-0.3-0.4-0.7-0.8-1.2-1c-0.5-0.3-1.1-0.5-1.7-0.6c-0.6-0.2-1.3-0.3-2-0.5c-0.7-0.2-1.3-0.3-2-0.5c-0.6-0.2-1.2-0.5-1.7-0.9
				c-0.5-0.4-0.9-0.8-1.2-1.4c-0.3-0.6-0.5-1.3-0.5-2.1c0-0.6,0.1-1.2,0.4-1.8c0.3-0.6,0.6-1.1,1.1-1.5c0.5-0.4,1.1-0.8,1.9-1.1
				c0.7-0.3,1.6-0.4,2.6-0.4c1,0,1.9,0.1,2.6,0.4c0.7,0.3,1.4,0.7,1.8,1.1c0.5,0.5,0.9,1,1.1,1.7c0.2,0.6,0.4,1.3,0.4,2h-1.6
				c0-0.7-0.1-1.2-0.4-1.7c-0.2-0.5-0.6-0.9-1-1.2c-0.4-0.3-0.9-0.5-1.4-0.7c-0.5-0.1-1.1-0.2-1.6-0.2c-0.8,0-1.6,0.1-2.1,0.4
				c-0.6,0.2-1,0.5-1.4,0.9c-0.3,0.4-0.6,0.8-0.7,1.2c-0.1,0.5-0.2,0.9-0.1,1.4c0.1,0.6,0.3,1,0.7,1.4c0.4,0.3,0.8,0.6,1.3,0.8
				c0.5,0.2,1.1,0.4,1.7,0.5c0.6,0.1,1.3,0.3,1.9,0.4c0.7,0.2,1.3,0.3,1.9,0.5c0.6,0.2,1.2,0.5,1.6,0.9c0.5,0.4,0.9,0.8,1.1,1.4
				c0.3,0.6,0.4,1.3,0.4,2.1c0,1.6-0.6,2.9-1.7,3.8c-1.1,0.9-2.7,1.3-4.7,1.3c-0.9,0-1.8-0.1-2.5-0.4c-0.8-0.2-1.5-0.6-2-1.1
				c-0.6-0.5-1-1.1-1.3-1.8c-0.3-0.7-0.5-1.5-0.5-2.5H360.3z"/>
			<path class="st2" d="M375.3,363.9c0.1,0.8,0.2,1.4,0.5,2c0.3,0.5,0.6,1,1.1,1.3c0.4,0.3,1,0.6,1.5,0.7c0.6,0.2,1.2,0.2,1.9,0.2
				c0.8,0,1.5-0.1,2-0.3c0.6-0.2,1-0.5,1.4-0.8c0.4-0.3,0.6-0.7,0.8-1.2c0.2-0.4,0.3-0.9,0.3-1.4c0-0.7-0.2-1.2-0.5-1.7
				c-0.3-0.4-0.7-0.8-1.2-1c-0.5-0.3-1.1-0.5-1.7-0.6c-0.6-0.2-1.3-0.3-2-0.5c-0.7-0.2-1.3-0.3-2-0.5c-0.6-0.2-1.2-0.5-1.7-0.9
				c-0.5-0.4-0.9-0.8-1.2-1.4c-0.3-0.6-0.5-1.3-0.5-2.1c0-0.6,0.1-1.2,0.4-1.8c0.3-0.6,0.6-1.1,1.1-1.5c0.5-0.4,1.1-0.8,1.9-1.1
				c0.7-0.3,1.6-0.4,2.6-0.4c1,0,1.9,0.1,2.6,0.4c0.7,0.3,1.4,0.7,1.8,1.1c0.5,0.5,0.9,1,1.1,1.7c0.2,0.6,0.4,1.3,0.4,2h-1.6
				c0-0.7-0.1-1.2-0.4-1.7c-0.2-0.5-0.6-0.9-1-1.2c-0.4-0.3-0.9-0.5-1.4-0.7c-0.5-0.1-1.1-0.2-1.6-0.2c-0.8,0-1.6,0.1-2.1,0.4
				c-0.6,0.2-1,0.5-1.4,0.9c-0.3,0.4-0.6,0.8-0.7,1.2c-0.1,0.5-0.2,0.9-0.1,1.4c0.1,0.6,0.3,1,0.7,1.4c0.4,0.3,0.8,0.6,1.3,0.8
				c0.5,0.2,1.1,0.4,1.7,0.5c0.6,0.1,1.3,0.3,1.9,0.4c0.7,0.2,1.3,0.3,1.9,0.5c0.6,0.2,1.2,0.5,1.6,0.9c0.5,0.4,0.8,0.8,1.1,1.4
				c0.3,0.6,0.4,1.3,0.4,2.1c0,1.6-0.6,2.9-1.7,3.8c-1.1,0.9-2.7,1.3-4.7,1.3c-0.9,0-1.8-0.1-2.5-0.4c-0.8-0.2-1.5-0.6-2-1.1
				c-0.6-0.5-1-1.1-1.3-1.8c-0.3-0.7-0.5-1.5-0.5-2.5H375.3z"/>
			<path class="st2" d="M388.8,360.4c0-1.3,0.2-2.5,0.5-3.6c0.4-1.1,0.9-2.1,1.5-2.9c0.7-0.8,1.5-1.5,2.5-2c1-0.5,2.2-0.7,3.5-0.7
				c1.4,0,2.6,0.2,3.6,0.7c1,0.5,1.9,1.1,2.6,2c0.7,0.8,1.2,1.8,1.6,3c0.4,1.1,0.5,2.3,0.5,3.6c0,1.3-0.2,2.5-0.5,3.6
				c-0.4,1.1-0.9,2.1-1.5,2.9c-0.7,0.8-1.5,1.5-2.6,2c-1,0.5-2.2,0.7-3.6,0.7s-2.5-0.2-3.6-0.7c-1-0.5-1.9-1.2-2.6-2
				c-0.7-0.8-1.2-1.8-1.5-2.9C389,362.8,388.8,361.6,388.8,360.4 M397,368.2c1.1,0,2.1-0.2,2.9-0.6c0.8-0.4,1.5-1,2-1.7
				c0.5-0.7,0.9-1.5,1.2-2.5c0.3-0.9,0.4-1.9,0.4-3c0-1.2-0.2-2.3-0.5-3.3c-0.3-1-0.7-1.8-1.3-2.5c-0.6-0.7-1.3-1.2-2.1-1.6
				c-0.8-0.4-1.7-0.5-2.7-0.5c-1.1,0-2.1,0.2-2.9,0.7c-0.8,0.4-1.5,1-2,1.7c-0.5,0.7-0.9,1.6-1.2,2.5c-0.3,0.9-0.4,1.9-0.4,3
				c0,1,0.1,2,0.4,3c0.3,0.9,0.6,1.8,1.2,2.5c0.5,0.7,1.2,1.3,2,1.7C394.9,368,395.9,368.2,397,368.2"/>
			<path class="st2" d="M410.1,361.1v8h-1.7v-17.6h6.9c1.9,0,3.4,0.4,4.4,1.1c1,0.7,1.5,1.9,1.5,3.5c0,1.1-0.2,2-0.7,2.6
				c-0.4,0.6-1.2,1.2-2.2,1.7c0.5,0.2,0.9,0.4,1.2,0.8c0.3,0.3,0.5,0.7,0.7,1.2c0.1,0.4,0.2,0.9,0.3,1.4c0,0.5,0.1,1,0.1,1.4
				c0,0.7,0,1.2,0.1,1.7c0,0.4,0.1,0.8,0.1,1.1c0.1,0.3,0.1,0.5,0.2,0.6c0.1,0.2,0.2,0.3,0.3,0.4v0.2h-1.8c-0.2-0.3-0.3-0.7-0.4-1.2
				c-0.1-0.5-0.1-1.1-0.2-1.6c0-0.6-0.1-1.1-0.1-1.7c0-0.5-0.1-1-0.1-1.3c-0.1-0.5-0.3-0.8-0.5-1.1c-0.2-0.3-0.5-0.5-0.8-0.6
				c-0.3-0.1-0.7-0.2-1-0.3c-0.4,0-0.8-0.1-1.2-0.1H410.1z M415.3,359.7c0.6,0,1.2-0.1,1.7-0.2c0.5-0.1,1-0.3,1.4-0.6
				c0.4-0.3,0.7-0.6,0.9-1.1c0.2-0.4,0.3-1,0.3-1.6c0-0.7-0.1-1.2-0.4-1.6c-0.2-0.4-0.6-0.8-1-1c-0.4-0.2-0.9-0.4-1.4-0.5
				c-0.5-0.1-1-0.1-1.6-0.1h-5.3v6.8H415.3z"/>
			<rect x="425.3" y="351.6" class="st2" width="1.7" height="17.6"/>
			<polygon class="st2" points="431.6,369.1 431.6,351.6 443.2,351.6 443.2,353 433.2,353 433.2,359.3 442.3,359.3 442.3,360.7 
				433.2,360.7 433.2,367.7 443.5,367.7 443.5,369.1 			"/>
			<path class="st2" d="M447.2,363.9c0.1,0.8,0.2,1.4,0.5,2c0.3,0.5,0.7,1,1.1,1.3c0.4,0.3,1,0.6,1.5,0.7c0.6,0.2,1.2,0.2,1.9,0.2
				c0.8,0,1.5-0.1,2-0.3c0.6-0.2,1-0.5,1.4-0.8c0.4-0.3,0.6-0.7,0.8-1.2c0.2-0.4,0.3-0.9,0.3-1.4c0-0.7-0.2-1.2-0.5-1.7
				c-0.3-0.4-0.7-0.8-1.2-1c-0.5-0.3-1.1-0.5-1.7-0.6c-0.6-0.2-1.3-0.3-2-0.5c-0.7-0.2-1.3-0.3-2-0.5c-0.6-0.2-1.2-0.5-1.7-0.9
				c-0.5-0.4-0.9-0.8-1.2-1.4c-0.3-0.6-0.5-1.3-0.5-2.1c0-0.6,0.1-1.2,0.4-1.8c0.3-0.6,0.6-1.1,1.1-1.5c0.5-0.4,1.1-0.8,1.9-1.1
				c0.7-0.3,1.6-0.4,2.6-0.4c1,0,1.9,0.1,2.6,0.4c0.7,0.3,1.4,0.7,1.8,1.1c0.5,0.5,0.9,1,1.1,1.7c0.2,0.6,0.4,1.3,0.4,2h-1.6
				c0-0.7-0.1-1.2-0.4-1.7c-0.2-0.5-0.6-0.9-1-1.2c-0.4-0.3-0.9-0.5-1.4-0.7c-0.5-0.1-1.1-0.2-1.6-0.2c-0.8,0-1.6,0.1-2.1,0.4
				c-0.6,0.2-1,0.5-1.4,0.9c-0.3,0.4-0.6,0.8-0.7,1.2c-0.1,0.5-0.2,0.9-0.1,1.4c0.1,0.6,0.3,1,0.7,1.4c0.4,0.3,0.8,0.6,1.3,0.8
				c0.5,0.2,1.1,0.4,1.7,0.5c0.6,0.1,1.3,0.3,1.9,0.4c0.7,0.2,1.3,0.3,1.9,0.5c0.6,0.2,1.2,0.5,1.6,0.9c0.5,0.4,0.9,0.8,1.1,1.4
				c0.3,0.6,0.4,1.3,0.4,2.1c0,1.6-0.6,2.9-1.7,3.8c-1.1,0.9-2.7,1.3-4.7,1.3c-0.9,0-1.8-0.1-2.5-0.4c-0.8-0.2-1.5-0.6-2-1.1
				c-0.6-0.5-1-1.1-1.3-1.8c-0.3-0.7-0.5-1.5-0.5-2.5H447.2z"/>
			<path class="st2" d="M44.2,333.6H17.6c-1.4,0-2.5-1.1-2.5-2.5v-57.6c0-1.4,1.1-2.5,2.5-2.5h23.3c11,0,23.8,4.3,23.8,16.5
				c0,5.6-2.8,10-7.8,12.4c8,2.4,12.4,7.8,12.4,15.5C69.3,331.2,53.6,333.6,44.2,333.6 M19.9,329.1h24.2c13.4,0,20.3-4.6,20.3-13.7
				c0-10.8-10.8-12.4-17.2-12.4H19.9V329.1z M19.9,298.4h22.2c8.1,0,17.7-1.9,17.7-10.9c0-9.3-11.9-12-18.9-12.1H19.9V298.4z"/>
			<path class="st2" d="M83.6,333.6c-1.2,0-2.5-0.8-2.5-2.4v-58.3c0-3.4,5-3.4,5,0v58.3C86.1,332.7,84.9,333.6,83.6,333.6"/>
			<path class="st2" d="M146.8,333.6h-41.9c-1.6,0-2.5-0.9-2.5-2.6v-58.1c0-3.4,4.8-3.4,4.8,0V329h39.6c1.6,0,2.4,1.1,2.4,2.2
				C149.2,332.4,148.3,333.6,146.8,333.6"/>
			<path class="st2" d="M202.1,333.6h-41.9c-1.6,0-2.5-0.9-2.5-2.6v-58.1c0-3.4,4.8-3.4,4.8,0V329h39.6c1.6,0,2.4,1.1,2.4,2.2
				C204.5,332.4,203.7,333.6,202.1,333.6"/>
			<path class="st2" d="M225.4,333.9c-1.2,0-2.4-0.8-2.4-2.6v-23.2L197.4,274c-0.7-0.8-0.9-1.9-0.5-2.7c0.7-1.4,2.8-1.6,4.1-0.2
				l24.5,32.8l24.4-32.8c1.4-1.6,3.6-1.3,4.2,0.2c0.4,0.9,0.2,1.9-0.6,2.7l-25.5,34.1v23.2C227.9,333,226.6,333.9,225.4,333.9"/>
			<path class="st2" d="M292.2,333.6h-26.5c-1.4,0-2.5-1.1-2.5-2.5v-57.6c0-1.4,1.1-2.5,2.5-2.5H289c11,0,23.8,4.3,23.8,16.5
				c0,5.6-2.8,10-7.8,12.4c8,2.4,12.4,7.8,12.4,15.5C317.4,331.2,301.6,333.6,292.2,333.6 M268,329.1h24.2
				c13.4,0,20.3-4.6,20.3-13.7c0-10.8-10.8-12.4-17.2-12.4H268V329.1z M268,298.4h22.2c8.1,0,17.7-1.9,17.7-10.9
				c0-9.3-11.9-12-18.9-12.1H268V298.4z"/>
			<path class="st2" d="M375.6,333.6h-43c-1.9,0-3.4-1.5-3.4-3.4v-56c0-1.8,1.5-3.3,3.4-3.3h43.1c1.4,0,2.2,1.1,2.2,2.2
				c0,1.1-0.8,2.2-2.3,2.2h-41.7v25h39.8c1.5,0,2.3,1.1,2.3,2.2c0,1.1-0.8,2.2-2.3,2.2h-39.8v24.2h41.7c1.5,0,2.3,1.2,2.3,2.3
				C377.9,332.4,377.1,333.6,375.6,333.6"/>
			<path class="st2" d="M435.1,333.6h-41.9c-1.6,0-2.5-0.9-2.5-2.6v-58.1c0-3.4,4.8-3.4,4.8,0V329h39.6c1.6,0,2.4,1.1,2.4,2.2
				C437.5,332.4,436.7,333.6,435.1,333.6"/>
			<path class="st2" d="M455.8,333.9c-1.2,0-2.4-0.9-2.4-2.6v-56.1h-24c-1.6,0-2.5-1.1-2.5-2.2c0-1.1,0.9-2.2,2.5-2.2h52.9
				c1.6,0,2.5,1.1,2.5,2.2c0,1.1-0.9,2.2-2.5,2.2h-24.1l0.1,56.1C458.4,333,457.1,333.9,455.8,333.9"/>
			<path class="st2" d="M278.9,144.2c2.5,0,4.8,0.5,6.9,1.7c19,10.4,23.4,23.6,26.3,29.4c0,0-1.3,0.4-4.7,1.8l-1,7.5l-6.6-4
				c-2.4,1.2-2.3,1.1-4.5,2.4l-0.1,8.5l-6.6-3.3c-1.8,1.9-2,3.1-1,4.9c1.3,2.2,3,3,5.3,3c1.3,0,2.7-0.3,4.4-0.7l1-7.5l6.9,4.8v0
				c2-0.8,2.7-1.3,4.2-2l0.4-7.1l6.2,3.9c1.3-0.6,1.4-0.7,2.7-1.4l-1.3-7.3l6.4,4.8c0.5,0,1.4,0.6,1.3,4.4c0,0,0.4,12.3-9.9,20.8
				c-10.9,8.9-24.4,12.8-37.7,12.8c-15.3,0-30.3-5.1-40.8-13.8c-9.2-7.5-15.7-9.9-20.4-9.9c-5.4,0-8.4,3.1-10.3,5l-17.6,20.1
				l5.8-27.8l-27.7-37l36.4,26.2c2.9,2.2,4.8,4,7.6,4c2.5,0,5.6-1.3,10.8-4.8c4-2.7,11-9.6,19.1-16.9c5.9-5.2-17.9-15.1-17.9-15.1
				l53.7-7.1c0.1,0,0.2,0,0.2,0h0C277.3,144.3,278.1,144.2,278.9,144.2 M281.5,175.6c3.6,0,6.5-2.9,6.5-6.5c0-3.6-2.9-6.5-6.5-6.5
				c-3.6,0-6.5,2.9-6.5,6.5C275,172.7,277.9,175.6,281.5,175.6 M278.9,130.4L278.9,130.4c-1.3,0-2.6,0.1-3.9,0.2c0,0,0,0-0.1,0
				c-0.2,0-0.3,0-0.5,0.1l-53.7,7c-6.2,0.8-11.1,5.7-11.9,11.9c-0.8,6.2,2.6,12.2,8.4,14.6c1.1,0.5,2.3,1,3.4,1.5
				c-2.9,2.7-5.8,5.2-7.1,6.1c-0.9,0.6-1.6,1.1-2.2,1.4c0,0,0,0-0.1-0.1c-0.1-0.1-0.2-0.2-0.3-0.2l-36.4-26.2
				c-2.4-1.7-5.3-2.6-8.1-2.6c-3.6,0-7.2,1.4-9.9,4.2c-4.8,4.9-5.3,12.5-1.2,18l23.9,32l-4.5,21.7c-1.3,6.2,1.7,12.4,7.4,15.2
				c2,1,4.1,1.5,6.2,1.5c3.9,0,7.7-1.6,10.4-4.7l17.4-19.8c0.2-0.1,0.3-0.3,0.5-0.5c1.1,0.2,4.7,1.3,11.2,6.7
				c13.1,10.8,31.2,16.9,49.6,16.9c8.3,0,16.4-1.3,24.1-3.8c8.3-2.7,15.8-6.8,22.4-12.2c6.5-5.2,11.1-12.3,13.5-20.5
				c1.5-5.3,1.7-9.4,1.6-11.1c0-3.7-0.5-6.6-1.7-9.2c-1.3-3-3.6-5.5-6.3-7l-5.3-4c-0.8-0.6-1.7-1.1-2.6-1.6
				c-3.5-7.5-10.9-21.5-30.6-32.3C288.3,131.5,283.8,130.4,278.9,130.4"/>
		</g>
	</g>
</g>
</svg>
